  0
SECTION
  2
HEADER
  9
$ACADVER
  1
AC1014
  9
$HANDSEED
  5
FFFF
  9
$MEASUREMENT
 70
     1
  0
ENDSEC
  0
SECTION
  2
TABLES
  0
TABLE
  2
VPORT
  5
8
330
0
100
AcDbSymbolTable
 70
     4
  0
VPORT
  5
2E
330
8
100
AcDbSymbolTableRecord
100
AcDbViewportTableRecord
  2
*ACTIVE
 70
     0
 10
0.0
 20
0.0
 11
1.0
 21
1.0
 12
210.0
 22
148.5
 13
0.0
 23
0.0
 14
10.0
 24
10.0
 15
10.0
 25
10.0
 16
0.0
 26
0.0
 36
1.0
 17
0.0
 27
0.0
 37
0.0
 40
341.0
 41
1.24
 42
50.0
 43
0.0
 44
0.0
 50
0.0
 51
0.0
 71
     0
 72
   100
 73
     1
 74
     3
 75
     0
 76
     0
 77
     0
 78
     0
  0
ENDTAB
  0
TABLE
  2
LTYPE
  5
5
330
0
100
AcDbSymbolTable
 70
     1
  0
LTYPE
  5
14
330
5
100
AcDbSymbolTableRecord
100
AcDbLinetypeTableRecord
  2
BYBLOCK
 70
     0
  3

 72
    65
 73
     0
 40
0.0
  0
LTYPE
  5
15
330
5
100
AcDbSymbolTableRecord
100
AcDbLinetypeTableRecord
  2
BYLAYER
 70
     0
  3

 72
    65
 73
     0
 40
0.0
  0
LTYPE
  5
16
330
5
100
AcDbSymbolTableRecord
100
AcDbLinetypeTableRecord
  2
CONTINUOUS
 70
     0
  3
Solid line
 72
    65
 73
     0
 40
0.0
  0
ENDTAB
  0
TABLE
  2
LAYER
  5
2
100
AcDbSymbolTable
 70
2
  0
LAYER
  5
50
100
AcDbSymbolTableRecord
100
AcDbLayerTableRecord
  2
0
 70
0
  6
CONTINUOUS
  0
LAYER
  5
51
100
AcDbSymbolTableRecord
100
AcDbLayerTableRecord
  2
Layer_1
 70
0
  6
CONTINUOUS
  0
ENDTAB
  0
TABLE
  2
STYLE
  5
3
330
0
100
AcDbSymbolTable
 70
     1
  0
STYLE
  5
11
330
3
100
AcDbSymbolTableRecord
100
AcDbTextStyleTableRecord
  2
STANDARD
 70
     0
 40
0.0
 41
1.0
 50
0.0
 71
     0
 42
2.5
  3
txt
  4

  0
ENDTAB
  0
TABLE
  2
VIEW
  5
6
330
0
100
AcDbSymbolTable
 70
     0
  0
ENDTAB
  0
TABLE
  2
UCS
  5
7
330
0
100
AcDbSymbolTable
 70
     0
  0
ENDTAB
  0
TABLE
  2
APPID
  5
9
330
0
100
AcDbSymbolTable
 70
     2
  0
APPID
  5
12
330
9
100
AcDbSymbolTableRecord
100
AcDbRegAppTableRecord
  2
ACAD
 70
     0
  0
ENDTAB
  0
TABLE
  2
DIMSTYLE
  5
A
330
0
100
AcDbSymbolTable
 70
     1
  0
DIMSTYLE
105
27
330
A
100
AcDbSymbolTableRecord
100
AcDbDimStyleTableRecord
  2
ISO-25
 70
     0
  3

  4

  5

  6

  7

 40
1.0
 41
2.5
 42
0.625
 43
3.75
 44
1.25
 45
0.0
 46
0.0
 47
0.0
 48
0.0
140
2.5
141
2.5
142
0.0
143
0.03937007874016
144
1.0
145
0.0
146
1.0
147
0.625
 71
     0
 72
     0
 73
     0
 74
     0
 75
     0
 76
     0
 77
     1
 78
     8
170
     0
171
     3
172
     1
173
     0
174
     0
175
     0
176
     0
177
     0
178
     0
270
     2
271
     2
272
     2
273
     2
274
     3
340
11
275
     0
280
     0
281
     0
282
     0
283
     0
284
     8
285
     0
286
     0
287
     3
288
     0
  0
ENDTAB
  0
TABLE
  2
BLOCK_RECORD
  5
1
330
0
100
AcDbSymbolTable
 70
     1
  0
BLOCK_RECORD
  5
1F
330
1
100
AcDbSymbolTableRecord
100
AcDbBlockTableRecord
  2
*MODEL_SPACE
  0
BLOCK_RECORD
  5
1B
330
1
100
AcDbSymbolTableRecord
100
AcDbBlockTableRecord
  2
*PAPER_SPACE
  0
ENDTAB
  0
ENDSEC
  0
SECTION
  2
BLOCKS
  0
BLOCK
  5
20
330
1F
100
AcDbEntity
  8
0
100
AcDbBlockBegin
  2
*MODEL_SPACE
 70
     0
 10
0.0
 20
0.0
 30
0.0
  3
*MODEL_SPACE
  1

  0
ENDBLK
  5
21
330
1F
100
AcDbEntity
  8
0
100
AcDbBlockEnd
  0
BLOCK
  5
1C
330
1B
100
AcDbEntity
 67
     1
  8
0
100
AcDbBlockBegin
  2
*PAPER_SPACE
  1

  0
ENDBLK
  5
1D
330
1B
100
AcDbEntity
 67
     1
  8
0
100
AcDbBlockEnd
  0
ENDSEC
  0
SECTION
  2
ENTITIES
  0
LWPOLYLINE
  5
100
100
AcDbEntity
  8
Layer_1
 62
7
100
AcDbPolyline
 90
2
 70
0
 10
185.284530
 20
103.567230
 30
0.0
 10
185.284530
 20
118.722770
 30
0.0
  0
LWPOLYLINE
  5
101
100
AcDbEntity
  8
Layer_1
 62
7
100
AcDbPolyline
 90
2
 70
0
 10
183.684520
 20
118.722770
 30
0.0
 10
185.284530
 20
118.722770
 30
0.0
  0
LWPOLYLINE
  5
102
100
AcDbEntity
  8
Layer_1
 62
7
100
AcDbPolyline
 90
2
 70
0
 10
183.684520
 20
103.567230
 30
0.0
 10
183.684520
 20
118.722770
 30
0.0
  0
LWPOLYLINE
  5
103
100
AcDbEntity
  8
Layer_1
 62
7
100
AcDbPolyline
 90
2
 70
0
 10
183.684520
 20
103.567230
 30
0.0
 10
185.284530
 20
103.567230
 30
0.0
  0
LWPOLYLINE
  5
104
100
AcDbEntity
  8
Layer_1
 62
7
100
AcDbPolyline
 90
2
 70
0
 10
157.684520
 20
132.278300
 30
0.0
 10
183.684520
 20
132.278300
 30
0.0
  0
LWPOLYLINE
  5
105
100
AcDbEntity
  8
Layer_1
 62
7
100
AcDbPolyline
 90
2
 70
0
 10
183.684520
 20
133.878300
 30
0.0
 10
183.684520
 20
132.278300
 30
0.0
  0
LWPOLYLINE
  5
106
100
AcDbEntity
  8
Layer_1
 62
7
100
AcDbPolyline
 90
2
 70
0
 10
157.684520
 20
133.878300
 30
0.0
 10
183.684520
 20
133.878300
 30
0.0
  0
LWPOLYLINE
  5
107
100
AcDbEntity
  8
Layer_1
 62
7
100
AcDbPolyline
 90
2
 70
0
 10
157.684520
 20
133.878300
 30
0.0
 10
157.684520
 20
132.278300
 30
0.0
  0
LWPOLYLINE
  5
108
100
AcDbEntity
  8
Layer_1
 62
7
100
AcDbPolyline
 90
2
 70
0
 10
105.684530
 20
132.278300
 30
0.0
 10
131.684530
 20
132.278300
 30
0.0
  0
LWPOLYLINE
  5
109
100
AcDbEntity
  8
Layer_1
 62
7
100
AcDbPolyline
 90
2
 70
0
 10
131.684530
 20
133.878300
 30
0.0
 10
131.684530
 20
132.278300
 30
0.0
  0
LWPOLYLINE
  5
10a
100
AcDbEntity
  8
Layer_1
 62
7
100
AcDbPolyline
 90
2
 70
0
 10
105.684530
 20
133.878300
 30
0.0
 10
131.684530
 20
133.878300
 30
0.0
  0
LWPOLYLINE
  5
10b
100
AcDbEntity
  8
Layer_1
 62
7
100
AcDbPolyline
 90
2
 70
0
 10
105.684530
 20
133.878300
 30
0.0
 10
105.684530
 20
132.278300
 30
0.0
  0
LWPOLYLINE
  5
10c
100
AcDbEntity
  8
Layer_1
 62
7
100
AcDbPolyline
 90
2
 70
0
 10
53.684528
 20
132.278300
 30
0.0
 10
79.684526
 20
132.278300
 30
0.0
  0
LWPOLYLINE
  5
10d
100
AcDbEntity
  8
Layer_1
 62
7
100
AcDbPolyline
 90
2
 70
0
 10
79.684526
 20
133.878300
 30
0.0
 10
79.684526
 20
132.278300
 30
0.0
  0
LWPOLYLINE
  5
10e
100
AcDbEntity
  8
Layer_1
 62
7
100
AcDbPolyline
 90
2
 70
0
 10
53.684528
 20
133.878300
 30
0.0
 10
79.684526
 20
133.878300
 30
0.0
  0
LWPOLYLINE
  5
10f
100
AcDbEntity
  8
Layer_1
 62
7
100
AcDbPolyline
 90
2
 70
0
 10
53.684528
 20
133.878300
 30
0.0
 10
53.684528
 20
132.278300
 30
0.0
  0
LWPOLYLINE
  5
110
100
AcDbEntity
  8
Layer_1
 62
7
100
AcDbPolyline
 90
4
 70
1
 10
183.684520
 20
88.411700
 30
0.0
 10
183.684520
 20
89.971700
 30
0.0
 10
172.849680
 20
89.971700
 30
0.0
 10
172.849680
 20
88.411700
 30
0.0
  0
LWPOLYLINE
  5
111
100
AcDbEntity
  8
Layer_1
 62
7
100
AcDbPolyline
 90
4
 70
1
 10
64.229372
 20
88.411700
 30
0.0
 10
64.229372
 20
89.971700
 30
0.0
 10
53.684528
 20
89.971700
 30
0.0
 10
53.684528
 20
88.411700
 30
0.0
  0
LWPOLYLINE
  5
112
100
AcDbEntity
  8
Layer_1
 62
7
100
AcDbPolyline
 90
4
 70
1
 10
149.149680
 20
89.971700
 30
0.0
 10
149.149680
 20
88.411700
 30
0.0
 10
159.029370
 20
88.411700
 30
0.0
 10
159.029370
 20
89.971700
 30
0.0
  0
LWPOLYLINE
  5
113
100
AcDbEntity
  8
Layer_1
 62
7
100
AcDbPolyline
 90
4
 70
1
 10
125.449680
 20
89.971700
 30
0.0
 10
125.449680
 20
88.411700
 30
0.0
 10
135.329370
 20
88.411700
 30
0.0
 10
135.329370
 20
89.971700
 30
0.0
  0
LWPOLYLINE
  5
114
100
AcDbEntity
  8
Layer_1
 62
7
100
AcDbPolyline
 90
4
 70
1
 10
101.749680
 20
89.971700
 30
0.0
 10
101.749680
 20
88.411700
 30
0.0
 10
111.629370
 20
88.411700
 30
0.0
 10
111.629370
 20
89.971700
 30
0.0
  0
LWPOLYLINE
  5
115
100
AcDbEntity
  8
Layer_1
 62
7
100
AcDbPolyline
 90
4
 70
1
 10
78.049679
 20
89.971700
 30
0.0
 10
78.049679
 20
88.411700
 30
0.0
 10
87.929374
 20
88.411700
 30
0.0
 10
87.929374
 20
89.971700
 30
0.0
  0
LWPOLYLINE
  5
116
100
AcDbEntity
  8
Layer_1
 62
7
100
AcDbPolyline
 90
4
 70
1
 10
93.849680
 20
89.971700
 30
0.0
 10
93.849680
 20
88.411700
 30
0.0
 10
95.829372
 20
88.411700
 30
0.0
 10
95.829372
 20
89.971700
 30
0.0
  0
LWPOLYLINE
  5
117
100
AcDbEntity
  8
Layer_1
 62
7
100
AcDbPolyline
 90
4
 70
1
 10
117.549680
 20
89.971700
 30
0.0
 10
117.549680
 20
88.411700
 30
0.0
 10
119.529370
 20
88.411700
 30
0.0
 10
119.529370
 20
89.971700
 30
0.0
  0
LWPOLYLINE
  5
118
100
AcDbEntity
  8
Layer_1
 62
7
100
AcDbPolyline
 90
4
 70
1
 10
141.249680
 20
89.971700
 30
0.0
 10
141.249680
 20
88.411700
 30
0.0
 10
143.229380
 20
88.411700
 30
0.0
 10
143.229380
 20
89.971700
 30
0.0
  0
LWPOLYLINE
  5
119
100
AcDbEntity
  8
Layer_1
 62
7
100
AcDbPolyline
 90
4
 70
1
 10
164.949680
 20
89.971700
 30
0.0
 10
164.949680
 20
88.411700
 30
0.0
 10
166.929370
 20
88.411700
 30
0.0
 10
166.929370
 20
89.971700
 30
0.0
  0
SPLINE
  5
11a
100
AcDbEntity
  8
Layer_1
 62
7
100
AcDbSpline
 70
8
 71
3
 72
8
 73
4
 74
0
 40
0
 40
0
 40
0
 40
0
 40
1
 40
1
 40
1
 40
1
 10
70.184526
 20
120.008300
 30
0.0
 10
70.184964
 20
120.544490
 30
0.0
 10
69.899161
 20
121.040137
 30
0.0
 10
69.434880
 20
121.308359
 30
0.0
  0
SPLINE
  5
11b
100
AcDbEntity
  8
Layer_1
 62
7
100
AcDbSpline
 70
8
 71
3
 72
8
 73
4
 74
0
 40
0
 40
0
 40
0
 40
0
 40
1
 40
1
 40
1
 40
1
 10
69.434880
 20
121.308359
 30
0.0
 10
68.970599
 20
121.576580
 30
0.0
 10
68.398454
 20
121.576580
 30
0.0
 10
67.934173
 20
121.308359
 30
0.0
  0
SPLINE
  5
11c
100
AcDbEntity
  8
Layer_1
 62
7
100
AcDbSpline
 70
8
 71
3
 72
8
 73
4
 74
0
 40
0
 40
0
 40
0
 40
0
 40
1
 40
1
 40
1
 40
1
 10
67.934173
 20
121.308359
 30
0.0
 10
67.469892
 20
121.040137
 30
0.0
 10
67.184089
 20
120.544490
 30
0.0
 10
67.184527
 20
120.008300
 30
0.0
  0
SPLINE
  5
11d
100
AcDbEntity
  8
Layer_1
 62
7
100
AcDbSpline
 70
8
 71
3
 72
8
 73
4
 74
0
 40
0
 40
0
 40
0
 40
0
 40
1
 40
1
 40
1
 40
1
 10
67.184527
 20
120.008300
 30
0.0
 10
67.184089
 20
119.472110
 30
0.0
 10
67.469892
 20
118.976463
 30
0.0
 10
67.934173
 20
118.708241
 30
0.0
  0
SPLINE
  5
11e
100
AcDbEntity
  8
Layer_1
 62
7
100
AcDbSpline
 70
8
 71
3
 72
8
 73
4
 74
0
 40
0
 40
0
 40
0
 40
0
 40
1
 40
1
 40
1
 40
1
 10
67.934173
 20
118.708241
 30
0.0
 10
68.398454
 20
118.440020
 30
0.0
 10
68.970599
 20
118.440020
 30
0.0
 10
69.434880
 20
118.708241
 30
0.0
  0
SPLINE
  5
11f
100
AcDbEntity
  8
Layer_1
 62
7
100
AcDbSpline
 70
8
 71
3
 72
8
 73
4
 74
0
 40
0
 40
0
 40
0
 40
0
 40
1
 40
1
 40
1
 40
1
 10
69.434880
 20
118.708241
 30
0.0
 10
69.899161
 20
118.976463
 30
0.0
 10
70.184964
 20
119.472110
 30
0.0
 10
70.184526
 20
120.008300
 30
0.0
  0
LWPOLYLINE
  5
120
100
AcDbEntity
  8
Layer_1
 62
7
100
AcDbPolyline
 90
4
 70
1
 10
70.149678
 20
89.971700
 30
0.0
 10
70.149678
 20
88.411700
 30
0.0
 10
72.129373
 20
88.411700
 30
0.0
 10
72.129373
 20
89.971700
 30
0.0
  0
SPLINE
  5
121
100
AcDbEntity
  8
Layer_1
 62
7
100
AcDbSpline
 70
8
 71
3
 72
8
 73
4
 74
0
 40
0
 40
0
 40
0
 40
0
 40
1
 40
1
 40
1
 40
1
 10
164.684520
 20
118.508300
 30
0.0
 10
164.880850
 20
118.530800
 30
0.0
 10
165.077170
 20
118.553400
 30
0.0
 10
165.258550
 20
118.622480
 30
0.0
  0
SPLINE
  5
122
100
AcDbEntity
  8
Layer_1
 62
7
100
AcDbSpline
 70
8
 71
3
 72
8
 73
4
 74
0
 40
0
 40
0
 40
0
 40
0
 40
1
 40
1
 40
1
 40
1
 10
165.258550
 20
118.622480
 30
0.0
 10
165.439930
 20
118.691580
 30
0.0
 10
165.606360
 20
118.807200
 30
0.0
 10
165.745180
 20
118.947640
 30
0.0
  0
SPLINE
  5
123
100
AcDbEntity
  8
Layer_1
 62
7
100
AcDbSpline
 70
8
 71
3
 72
8
 73
4
 74
0
 40
0
 40
0
 40
0
 40
0
 40
1
 40
1
 40
1
 40
1
 10
165.745180
 20
118.947640
 30
0.0
 10
165.884010
 20
119.088080
 30
0.0
 10
165.995210
 20
119.253330
 30
0.0
 10
166.070340
 20
119.434280
 30
0.0
  0
SPLINE
  5
124
100
AcDbEntity
  8
Layer_1
 62
7
100
AcDbSpline
 70
8
 71
3
 72
8
 73
4
 74
0
 40
0
 40
0
 40
0
 40
0
 40
1
 40
1
 40
1
 40
1
 10
166.070340
 20
119.434280
 30
0.0
 10
166.145440
 20
119.615220
 30
0.0
 10
166.184520
 20
119.811860
 30
0.0
 10
166.184520
 20
120.008300
 30
0.0
  0
SPLINE
  5
125
100
AcDbEntity
  8
Layer_1
 62
7
100
AcDbSpline
 70
8
 71
3
 72
8
 73
4
 74
0
 40
0
 40
0
 40
0
 40
0
 40
1
 40
1
 40
1
 40
1
 10
166.184520
 20
120.008300
 30
0.0
 10
166.184520
 20
120.204740
 30
0.0
 10
166.145520
 20
120.400980
 30
0.0
 10
166.070340
 20
120.582330
 30
0.0
  0
SPLINE
  5
126
100
AcDbEntity
  8
Layer_1
 62
7
100
AcDbSpline
 70
8
 71
3
 72
8
 73
4
 74
0
 40
0
 40
0
 40
0
 40
0
 40
1
 40
1
 40
1
 40
1
 10
166.070340
 20
120.582330
 30
0.0
 10
165.995240
 20
120.763670
 30
0.0
 10
165.884010
 20
120.930130
 30
0.0
 10
165.745180
 20
121.068960
 30
0.0
  0
SPLINE
  5
127
100
AcDbEntity
  8
Layer_1
 62
7
100
AcDbSpline
 70
8
 71
3
 72
8
 73
4
 74
0
 40
0
 40
0
 40
0
 40
0
 40
1
 40
1
 40
1
 40
1
 10
165.745180
 20
121.068960
 30
0.0
 10
165.606360
 20
121.207790
 30
0.0
 10
165.439930
 20
121.318990
 30
0.0
 10
165.258550
 20
121.394120
 30
0.0
  0
SPLINE
  5
128
100
AcDbEntity
  8
Layer_1
 62
7
100
AcDbSpline
 70
8
 71
3
 72
8
 73
4
 74
0
 40
0
 40
0
 40
0
 40
0
 40
1
 40
1
 40
1
 40
1
 10
165.258550
 20
121.394120
 30
0.0
 10
165.077170
 20
121.469220
 30
0.0
 10
164.880850
 20
121.508300
 30
0.0
 10
164.684520
 20
121.508300
 30
0.0
  0
SPLINE
  5
129
100
AcDbEntity
  8
Layer_1
 62
7
100
AcDbSpline
 70
8
 71
3
 72
8
 73
4
 74
0
 40
0
 40
0
 40
0
 40
0
 40
1
 40
1
 40
1
 40
1
 10
164.684520
 20
121.508300
 30
0.0
 10
164.488200
 20
121.508300
 30
0.0
 10
164.291880
 20
121.469200
 30
0.0
 10
164.110500
 20
121.394120
 30
0.0
  0
SPLINE
  5
12a
100
AcDbEntity
  8
Layer_1
 62
7
100
AcDbSpline
 70
8
 71
3
 72
8
 73
4
 74
0
 40
0
 40
0
 40
0
 40
0
 40
1
 40
1
 40
1
 40
1
 10
164.110500
 20
121.394120
 30
0.0
 10
163.929120
 20
121.319020
 30
0.0
 10
163.762690
 20
121.207790
 30
0.0
 10
163.623860
 20
121.068960
 30
0.0
  0
SPLINE
  5
12b
100
AcDbEntity
  8
Layer_1
 62
7
100
AcDbSpline
 70
8
 71
3
 72
8
 73
4
 74
0
 40
0
 40
0
 40
0
 40
0
 40
1
 40
1
 40
1
 40
1
 10
163.623860
 20
121.068960
 30
0.0
 10
163.485040
 20
120.930130
 30
0.0
 10
163.373840
 20
120.763670
 30
0.0
 10
163.298700
 20
120.582330
 30
0.0
  0
SPLINE
  5
12c
100
AcDbEntity
  8
Layer_1
 62
7
100
AcDbSpline
 70
8
 71
3
 72
8
 73
4
 74
0
 40
0
 40
0
 40
0
 40
0
 40
1
 40
1
 40
1
 40
1
 10
163.298700
 20
120.582330
 30
0.0
 10
163.223600
 20
120.400980
 30
0.0
 10
163.184530
 20
120.204740
 30
0.0
 10
163.184530
 20
120.008300
 30
0.0
  0
SPLINE
  5
12d
100
AcDbEntity
  8
Layer_1
 62
7
100
AcDbSpline
 70
8
 71
3
 72
8
 73
4
 74
0
 40
0
 40
0
 40
0
 40
0
 40
1
 40
1
 40
1
 40
1
 10
163.184530
 20
120.008300
 30
0.0
 10
163.184530
 20
119.811860
 30
0.0
 10
163.223630
 20
119.615220
 30
0.0
 10
163.298700
 20
119.434280
 30
0.0
  0
SPLINE
  5
12e
100
AcDbEntity
  8
Layer_1
 62
7
100
AcDbSpline
 70
8
 71
3
 72
8
 73
4
 74
0
 40
0
 40
0
 40
0
 40
0
 40
1
 40
1
 40
1
 40
1
 10
163.298700
 20
119.434280
 30
0.0
 10
163.373800
 20
119.253330
 30
0.0
 10
163.485040
 20
119.088080
 30
0.0
 10
163.623860
 20
118.947640
 30
0.0
  0
SPLINE
  5
12f
100
AcDbEntity
  8
Layer_1
 62
7
100
AcDbSpline
 70
8
 71
3
 72
8
 73
4
 74
0
 40
0
 40
0
 40
0
 40
0
 40
1
 40
1
 40
1
 40
1
 10
163.623860
 20
118.947640
 30
0.0
 10
163.762690
 20
118.807200
 30
0.0
 10
163.929120
 20
118.691570
 30
0.0
 10
164.110500
 20
118.622480
 30
0.0
  0
SPLINE
  5
130
100
AcDbEntity
  8
Layer_1
 62
7
100
AcDbSpline
 70
8
 71
3
 72
8
 73
4
 74
0
 40
0
 40
0
 40
0
 40
0
 40
1
 40
1
 40
1
 40
1
 10
164.110500
 20
118.622480
 30
0.0
 10
164.291880
 20
118.553380
 30
0.0
 10
164.488200
 20
118.530880
 30
0.0
 10
164.684520
 20
118.508300
 30
0.0
  0
LWPOLYLINE
  5
131
100
AcDbEntity
  8
Layer_1
 62
7
100
AcDbPolyline
 90
1
 70
1
 10
70.184526
 20
120.008300
 30
0.0
  0
SPLINE
  5
132
100
AcDbEntity
  8
Layer_1
 62
7
100
AcDbSpline
 70
8
 71
3
 72
8
 73
4
 74
0
 40
0
 40
0
 40
0
 40
0
 40
1
 40
1
 40
1
 40
1
 10
116.684530
 20
118.508300
 30
0.0
 10
116.880850
 20
118.530800
 30
0.0
 10
117.077170
 20
118.553400
 30
0.0
 10
117.258550
 20
118.622480
 30
0.0
  0
SPLINE
  5
133
100
AcDbEntity
  8
Layer_1
 62
7
100
AcDbSpline
 70
8
 71
3
 72
8
 73
4
 74
0
 40
0
 40
0
 40
0
 40
0
 40
1
 40
1
 40
1
 40
1
 10
117.258550
 20
118.622480
 30
0.0
 10
117.439930
 20
118.691580
 30
0.0
 10
117.606370
 20
118.807200
 30
0.0
 10
117.745190
 20
118.947640
 30
0.0
  0
SPLINE
  5
134
100
AcDbEntity
  8
Layer_1
 62
7
100
AcDbSpline
 70
8
 71
3
 72
8
 73
4
 74
0
 40
0
 40
0
 40
0
 40
0
 40
1
 40
1
 40
1
 40
1
 10
117.745190
 20
118.947640
 30
0.0
 10
117.884010
 20
119.088080
 30
0.0
 10
117.995220
 20
119.253330
 30
0.0
 10
118.070350
 20
119.434280
 30
0.0
  0
SPLINE
  5
135
100
AcDbEntity
  8
Layer_1
 62
7
100
AcDbSpline
 70
8
 71
3
 72
8
 73
4
 74
0
 40
0
 40
0
 40
0
 40
0
 40
1
 40
1
 40
1
 40
1
 10
118.070350
 20
119.434280
 30
0.0
 10
118.145450
 20
119.615220
 30
0.0
 10
118.184530
 20
119.811860
 30
0.0
 10
118.184530
 20
120.008300
 30
0.0
  0
SPLINE
  5
136
100
AcDbEntity
  8
Layer_1
 62
7
100
AcDbSpline
 70
8
 71
3
 72
8
 73
4
 74
0
 40
0
 40
0
 40
0
 40
0
 40
1
 40
1
 40
1
 40
1
 10
118.184530
 20
120.008300
 30
0.0
 10
118.184530
 20
120.204740
 30
0.0
 10
118.145530
 20
120.400980
 30
0.0
 10
118.070350
 20
120.582330
 30
0.0
  0
SPLINE
  5
137
100
AcDbEntity
  8
Layer_1
 62
7
100
AcDbSpline
 70
8
 71
3
 72
8
 73
4
 74
0
 40
0
 40
0
 40
0
 40
0
 40
1
 40
1
 40
1
 40
1
 10
118.070350
 20
120.582330
 30
0.0
 10
117.995250
 20
120.763670
 30
0.0
 10
117.884010
 20
120.930130
 30
0.0
 10
117.745190
 20
121.068960
 30
0.0
  0
SPLINE
  5
138
100
AcDbEntity
  8
Layer_1
 62
7
100
AcDbSpline
 70
8
 71
3
 72
8
 73
4
 74
0
 40
0
 40
0
 40
0
 40
0
 40
1
 40
1
 40
1
 40
1
 10
117.745190
 20
121.068960
 30
0.0
 10
117.606370
 20
121.207790
 30
0.0
 10
117.439930
 20
121.318990
 30
0.0
 10
117.258550
 20
121.394120
 30
0.0
  0
SPLINE
  5
139
100
AcDbEntity
  8
Layer_1
 62
7
100
AcDbSpline
 70
8
 71
3
 72
8
 73
4
 74
0
 40
0
 40
0
 40
0
 40
0
 40
1
 40
1
 40
1
 40
1
 10
117.258550
 20
121.394120
 30
0.0
 10
117.077170
 20
121.469220
 30
0.0
 10
116.880850
 20
121.508300
 30
0.0
 10
116.684530
 20
121.508300
 30
0.0
  0
SPLINE
  5
13a
100
AcDbEntity
  8
Layer_1
 62
7
100
AcDbSpline
 70
8
 71
3
 72
8
 73
4
 74
0
 40
0
 40
0
 40
0
 40
0
 40
1
 40
1
 40
1
 40
1
 10
116.684530
 20
121.508300
 30
0.0
 10
116.488200
 20
121.508300
 30
0.0
 10
116.291880
 20
121.469200
 30
0.0
 10
116.110500
 20
121.394120
 30
0.0
  0
SPLINE
  5
13b
100
AcDbEntity
  8
Layer_1
 62
7
100
AcDbSpline
 70
8
 71
3
 72
8
 73
4
 74
0
 40
0
 40
0
 40
0
 40
0
 40
1
 40
1
 40
1
 40
1
 10
116.110500
 20
121.394120
 30
0.0
 10
115.929120
 20
121.319020
 30
0.0
 10
115.762690
 20
121.207790
 30
0.0
 10
115.623870
 20
121.068960
 30
0.0
  0
SPLINE
  5
13c
100
AcDbEntity
  8
Layer_1
 62
7
100
AcDbSpline
 70
8
 71
3
 72
8
 73
4
 74
0
 40
0
 40
0
 40
0
 40
0
 40
1
 40
1
 40
1
 40
1
 10
115.623870
 20
121.068960
 30
0.0
 10
115.485050
 20
120.930130
 30
0.0
 10
115.373840
 20
120.763670
 30
0.0
 10
115.298710
 20
120.582330
 30
0.0
  0
SPLINE
  5
13d
100
AcDbEntity
  8
Layer_1
 62
7
100
AcDbSpline
 70
8
 71
3
 72
8
 73
4
 74
0
 40
0
 40
0
 40
0
 40
0
 40
1
 40
1
 40
1
 40
1
 10
115.298710
 20
120.582330
 30
0.0
 10
115.223610
 20
120.400980
 30
0.0
 10
115.184530
 20
120.204740
 30
0.0
 10
115.184530
 20
120.008300
 30
0.0
  0
SPLINE
  5
13e
100
AcDbEntity
  8
Layer_1
 62
7
100
AcDbSpline
 70
8
 71
3
 72
8
 73
4
 74
0
 40
0
 40
0
 40
0
 40
0
 40
1
 40
1
 40
1
 40
1
 10
115.184530
 20
120.008300
 30
0.0
 10
115.184530
 20
119.811860
 30
0.0
 10
115.223630
 20
119.615220
 30
0.0
 10
115.298710
 20
119.434280
 30
0.0
  0
SPLINE
  5
13f
100
AcDbEntity
  8
Layer_1
 62
7
100
AcDbSpline
 70
8
 71
3
 72
8
 73
4
 74
0
 40
0
 40
0
 40
0
 40
0
 40
1
 40
1
 40
1
 40
1
 10
115.298710
 20
119.434280
 30
0.0
 10
115.373810
 20
119.253330
 30
0.0
 10
115.485050
 20
119.088080
 30
0.0
 10
115.623870
 20
118.947640
 30
0.0
  0
SPLINE
  5
140
100
AcDbEntity
  8
Layer_1
 62
7
100
AcDbSpline
 70
8
 71
3
 72
8
 73
4
 74
0
 40
0
 40
0
 40
0
 40
0
 40
1
 40
1
 40
1
 40
1
 10
115.623870
 20
118.947640
 30
0.0
 10
115.762690
 20
118.807200
 30
0.0
 10
115.929120
 20
118.691570
 30
0.0
 10
116.110500
 20
118.622480
 30
0.0
  0
SPLINE
  5
141
100
AcDbEntity
  8
Layer_1
 62
7
100
AcDbSpline
 70
8
 71
3
 72
8
 73
4
 74
0
 40
0
 40
0
 40
0
 40
0
 40
1
 40
1
 40
1
 40
1
 10
116.110500
 20
118.622480
 30
0.0
 10
116.291880
 20
118.553380
 30
0.0
 10
116.488200
 20
118.530880
 30
0.0
 10
116.684530
 20
118.508300
 30
0.0
  0
LWPOLYLINE
  5
142
100
AcDbEntity
  8
Layer_1
 62
7
100
AcDbPolyline
 90
1
 70
1
 10
164.684520
 20
118.508300
 30
0.0
  0
SPLINE
  5
143
100
AcDbEntity
  8
Layer_1
 62
7
100
AcDbSpline
 70
8
 71
3
 72
8
 73
4
 74
0
 40
0
 40
0
 40
0
 40
0
 40
1
 40
1
 40
1
 40
1
 10
60.434527
 20
97.278300
 30
0.0
 10
60.435000
 20
97.903830
 30
0.0
 10
60.101555
 20
98.482046
 30
0.0
 10
59.559909
 20
98.794947
 30
0.0
  0
SPLINE
  5
144
100
AcDbEntity
  8
Layer_1
 62
7
100
AcDbSpline
 70
8
 71
3
 72
8
 73
4
 74
0
 40
0
 40
0
 40
0
 40
0
 40
1
 40
1
 40
1
 40
1
 10
59.559909
 20
98.794947
 30
0.0
 10
59.018263
 20
99.107849
 30
0.0
 10
58.350791
 20
99.107849
 30
0.0
 10
57.809145
 20
98.794947
 30
0.0
  0
SPLINE
  5
145
100
AcDbEntity
  8
Layer_1
 62
7
100
AcDbSpline
 70
8
 71
3
 72
8
 73
4
 74
0
 40
0
 40
0
 40
0
 40
0
 40
1
 40
1
 40
1
 40
1
 10
57.809145
 20
98.794947
 30
0.0
 10
57.267499
 20
98.482046
 30
0.0
 10
56.934054
 20
97.903830
 30
0.0
 10
56.934527
 20
97.278300
 30
0.0
  0
SPLINE
  5
146
100
AcDbEntity
  8
Layer_1
 62
7
100
AcDbSpline
 70
8
 71
3
 72
8
 73
4
 74
0
 40
0
 40
0
 40
0
 40
0
 40
1
 40
1
 40
1
 40
1
 10
56.934527
 20
97.278300
 30
0.0
 10
56.934054
 20
96.652770
 30
0.0
 10
57.267499
 20
96.074554
 30
0.0
 10
57.809145
 20
95.761653
 30
0.0
  0
SPLINE
  5
147
100
AcDbEntity
  8
Layer_1
 62
7
100
AcDbSpline
 70
8
 71
3
 72
8
 73
4
 74
0
 40
0
 40
0
 40
0
 40
0
 40
1
 40
1
 40
1
 40
1
 10
57.809145
 20
95.761653
 30
0.0
 10
58.350791
 20
95.448751
 30
0.0
 10
59.018263
 20
95.448751
 30
0.0
 10
59.559909
 20
95.761653
 30
0.0
  0
SPLINE
  5
148
100
AcDbEntity
  8
Layer_1
 62
7
100
AcDbSpline
 70
8
 71
3
 72
8
 73
4
 74
0
 40
0
 40
0
 40
0
 40
0
 40
1
 40
1
 40
1
 40
1
 10
59.559909
 20
95.761653
 30
0.0
 10
60.101555
 20
96.074554
 30
0.0
 10
60.435000
 20
96.652770
 30
0.0
 10
60.434527
 20
97.278300
 30
0.0
  0
LWPOLYLINE
  5
149
100
AcDbEntity
  8
Layer_1
 62
7
100
AcDbPolyline
 90
1
 70
1
 10
116.684530
 20
118.508300
 30
0.0
  0
SPLINE
  5
14a
100
AcDbEntity
  8
Layer_1
 62
7
100
AcDbSpline
 70
8
 71
3
 72
8
 73
4
 74
0
 40
0
 40
0
 40
0
 40
0
 40
1
 40
1
 40
1
 40
1
 10
180.434520
 20
127.278300
 30
0.0
 10
180.436002
 20
127.904499
 30
0.0
 10
180.102779
 20
128.483767
 30
0.0
 10
179.560720
 20
128.797295
 30
0.0
  0
SPLINE
  5
14b
100
AcDbEntity
  8
Layer_1
 62
7
100
AcDbSpline
 70
8
 71
3
 72
8
 73
4
 74
0
 40
0
 40
0
 40
0
 40
0
 40
1
 40
1
 40
1
 40
1
 10
179.560720
 20
128.797295
 30
0.0
 10
179.018661
 20
129.110823
 30
0.0
 10
178.350389
 20
129.110823
 30
0.0
 10
177.808330
 20
128.797295
 30
0.0
  0
SPLINE
  5
14c
100
AcDbEntity
  8
Layer_1
 62
7
100
AcDbSpline
 70
8
 71
3
 72
8
 73
4
 74
0
 40
0
 40
0
 40
0
 40
0
 40
1
 40
1
 40
1
 40
1
 10
177.808330
 20
128.797295
 30
0.0
 10
177.266271
 20
128.483767
 30
0.0
 10
176.933048
 20
127.904499
 30
0.0
 10
176.934530
 20
127.278300
 30
0.0
  0
SPLINE
  5
14d
100
AcDbEntity
  8
Layer_1
 62
7
100
AcDbSpline
 70
8
 71
3
 72
8
 73
4
 74
0
 40
0
 40
0
 40
0
 40
0
 40
1
 40
1
 40
1
 40
1
 10
176.934530
 20
127.278300
 30
0.0
 10
176.933048
 20
126.652101
 30
0.0
 10
177.266271
 20
126.072833
 30
0.0
 10
177.808330
 20
125.759305
 30
0.0
  0
SPLINE
  5
14e
100
AcDbEntity
  8
Layer_1
 62
7
100
AcDbSpline
 70
8
 71
3
 72
8
 73
4
 74
0
 40
0
 40
0
 40
0
 40
0
 40
1
 40
1
 40
1
 40
1
 10
177.808330
 20
125.759305
 30
0.0
 10
178.350389
 20
125.445777
 30
0.0
 10
179.018661
 20
125.445777
 30
0.0
 10
179.560720
 20
125.759305
 30
0.0
  0
SPLINE
  5
14f
100
AcDbEntity
  8
Layer_1
 62
7
100
AcDbSpline
 70
8
 71
3
 72
8
 73
4
 74
0
 40
0
 40
0
 40
0
 40
0
 40
1
 40
1
 40
1
 40
1
 10
179.560720
 20
125.759305
 30
0.0
 10
180.102779
 20
126.072833
 30
0.0
 10
180.436002
 20
126.652101
 30
0.0
 10
180.434520
 20
127.278300
 30
0.0
  0
LWPOLYLINE
  5
150
100
AcDbEntity
  8
Layer_1
 62
7
100
AcDbPolyline
 90
1
 70
1
 10
60.434527
 20
97.278300
 30
0.0
  0
SPLINE
  5
151
100
AcDbEntity
  8
Layer_1
 62
7
100
AcDbSpline
 70
8
 71
3
 72
8
 73
4
 74
0
 40
0
 40
0
 40
0
 40
0
 40
1
 40
1
 40
1
 40
1
 10
49.684525
 20
90.971700
 30
0.0
 10
49.684525
 20
89.645617
 30
0.0
 10
50.211309
 20
88.373848
 30
0.0
 10
51.148991
 20
87.436166
 30
0.0
  0
SPLINE
  5
152
100
AcDbEntity
  8
Layer_1
 62
7
100
AcDbSpline
 70
8
 71
3
 72
8
 73
4
 74
0
 40
0
 40
0
 40
0
 40
0
 40
1
 40
1
 40
1
 40
1
 10
51.148991
 20
87.436166
 30
0.0
 10
52.086674
 20
86.498484
 30
0.0
 10
53.358443
 20
85.971700
 30
0.0
 10
54.684526
 20
85.971700
 30
0.0
  0
LWPOLYLINE
  5
153
100
AcDbEntity
  8
Layer_1
 62
7
100
AcDbPolyline
 90
1
 70
1
 10
180.434520
 20
127.278300
 30
0.0
  0
SPLINE
  5
154
100
AcDbEntity
  8
Layer_1
 62
7
100
AcDbSpline
 70
8
 71
3
 72
8
 73
4
 74
0
 40
0
 40
0
 40
0
 40
0
 40
1
 40
1
 40
1
 40
1
 10
54.684526
 20
136.278300
 30
0.0
 10
53.358443
 20
136.278300
 30
0.0
 10
52.086674
 20
135.751516
 30
0.0
 10
51.148991
 20
134.813834
 30
0.0
  0
SPLINE
  5
155
100
AcDbEntity
  8
Layer_1
 62
7
100
AcDbSpline
 70
8
 71
3
 72
8
 73
4
 74
0
 40
0
 40
0
 40
0
 40
0
 40
1
 40
1
 40
1
 40
1
 10
51.148991
 20
134.813834
 30
0.0
 10
50.211309
 20
133.876152
 30
0.0
 10
49.684525
 20
132.604383
 30
0.0
 10
49.684525
 20
131.278300
 30
0.0
  0
LWPOLYLINE
  5
156
100
AcDbEntity
  8
Layer_1
 62
7
100
AcDbPolyline
 90
2
 70
0
 10
49.684528
 20
131.278300
 30
0.0
 10
49.684528
 20
90.971700
 30
0.0
  0
SPLINE
  5
157
100
AcDbEntity
  8
Layer_1
 62
7
100
AcDbSpline
 70
8
 71
3
 72
8
 73
4
 74
0
 40
0
 40
0
 40
0
 40
0
 40
1
 40
1
 40
1
 40
1
 10
187.684520
 20
131.278300
 30
0.0
 10
187.684520
 20
134.039724
 30
0.0
 10
185.445944
 20
136.278300
 30
0.0
 10
182.684520
 20
136.278300
 30
0.0
  0
LWPOLYLINE
  5
158
100
AcDbEntity
  8
Layer_1
 62
7
100
AcDbPolyline
 90
2
 70
0
 10
182.684530
 20
136.278300
 30
0.0
 10
54.684523
 20
136.278300
 30
0.0
  0
SPLINE
  5
159
100
AcDbEntity
  8
Layer_1
 62
7
100
AcDbSpline
 70
8
 71
3
 72
8
 73
4
 74
0
 40
0
 40
0
 40
0
 40
0
 40
1
 40
1
 40
1
 40
1
 10
182.684520
 20
85.971700
 30
0.0
 10
185.445944
 20
85.971700
 30
0.0
 10
187.684520
 20
88.210276
 30
0.0
 10
187.684520
 20
90.971700
 30
0.0
  0
LWPOLYLINE
  5
15a
100
AcDbEntity
  8
Layer_1
 62
7
100
AcDbPolyline
 90
2
 70
0
 10
187.684520
 20
90.971700
 30
0.0
 10
187.684520
 20
131.278300
 30
0.0
  0
SPLINE
  5
15b
100
AcDbEntity
  8
Layer_1
 62
7
100
AcDbSpline
 70
8
 71
3
 72
8
 73
4
 74
0
 40
0
 40
0
 40
0
 40
0
 40
1
 40
1
 40
1
 40
1
 10
180.434520
 20
97.278300
 30
0.0
 10
180.436002
 20
97.904499
 30
0.0
 10
180.102779
 20
98.483767
 30
0.0
 10
179.560720
 20
98.797295
 30
0.0
  0
SPLINE
  5
15c
100
AcDbEntity
  8
Layer_1
 62
7
100
AcDbSpline
 70
8
 71
3
 72
8
 73
4
 74
0
 40
0
 40
0
 40
0
 40
0
 40
1
 40
1
 40
1
 40
1
 10
179.560720
 20
98.797295
 30
0.0
 10
179.018661
 20
99.110823
 30
0.0
 10
178.350389
 20
99.110823
 30
0.0
 10
177.808330
 20
98.797295
 30
0.0
  0
SPLINE
  5
15d
100
AcDbEntity
  8
Layer_1
 62
7
100
AcDbSpline
 70
8
 71
3
 72
8
 73
4
 74
0
 40
0
 40
0
 40
0
 40
0
 40
1
 40
1
 40
1
 40
1
 10
177.808330
 20
98.797295
 30
0.0
 10
177.266271
 20
98.483767
 30
0.0
 10
176.933048
 20
97.904499
 30
0.0
 10
176.934530
 20
97.278300
 30
0.0
  0
SPLINE
  5
15e
100
AcDbEntity
  8
Layer_1
 62
7
100
AcDbSpline
 70
8
 71
3
 72
8
 73
4
 74
0
 40
0
 40
0
 40
0
 40
0
 40
1
 40
1
 40
1
 40
1
 10
176.934530
 20
97.278300
 30
0.0
 10
176.933048
 20
96.652101
 30
0.0
 10
177.266271
 20
96.072833
 30
0.0
 10
177.808330
 20
95.759305
 30
0.0
  0
SPLINE
  5
15f
100
AcDbEntity
  8
Layer_1
 62
7
100
AcDbSpline
 70
8
 71
3
 72
8
 73
4
 74
0
 40
0
 40
0
 40
0
 40
0
 40
1
 40
1
 40
1
 40
1
 10
177.808330
 20
95.759305
 30
0.0
 10
178.350389
 20
95.445777
 30
0.0
 10
179.018661
 20
95.445777
 30
0.0
 10
179.560720
 20
95.759305
 30
0.0
  0
SPLINE
  5
160
100
AcDbEntity
  8
Layer_1
 62
7
100
AcDbSpline
 70
8
 71
3
 72
8
 73
4
 74
0
 40
0
 40
0
 40
0
 40
0
 40
1
 40
1
 40
1
 40
1
 10
179.560720
 20
95.759305
 30
0.0
 10
180.102779
 20
96.072833
 30
0.0
 10
180.436002
 20
96.652101
 30
0.0
 10
180.434520
 20
97.278300
 30
0.0
  0
LWPOLYLINE
  5
161
100
AcDbEntity
  8
Layer_1
 62
7
100
AcDbPolyline
 90
2
 70
0
 10
54.684523
 20
85.971700
 30
0.0
 10
182.684530
 20
85.971700
 30
0.0
  0
SPLINE
  5
162
100
AcDbEntity
  8
Layer_1
 62
7
100
AcDbSpline
 70
8
 71
3
 72
8
 73
4
 74
0
 40
0
 40
0
 40
0
 40
0
 40
1
 40
1
 40
1
 40
1
 10
60.434527
 20
127.278300
 30
0.0
 10
60.435000
 20
127.903830
 30
0.0
 10
60.101555
 20
128.482046
 30
0.0
 10
59.559909
 20
128.794947
 30
0.0
  0
SPLINE
  5
163
100
AcDbEntity
  8
Layer_1
 62
7
100
AcDbSpline
 70
8
 71
3
 72
8
 73
4
 74
0
 40
0
 40
0
 40
0
 40
0
 40
1
 40
1
 40
1
 40
1
 10
59.559909
 20
128.794947
 30
0.0
 10
59.018263
 20
129.107849
 30
0.0
 10
58.350791
 20
129.107849
 30
0.0
 10
57.809145
 20
128.794947
 30
0.0
  0
SPLINE
  5
164
100
AcDbEntity
  8
Layer_1
 62
7
100
AcDbSpline
 70
8
 71
3
 72
8
 73
4
 74
0
 40
0
 40
0
 40
0
 40
0
 40
1
 40
1
 40
1
 40
1
 10
57.809145
 20
128.794947
 30
0.0
 10
57.267499
 20
128.482046
 30
0.0
 10
56.934054
 20
127.903830
 30
0.0
 10
56.934527
 20
127.278300
 30
0.0
  0
SPLINE
  5
165
100
AcDbEntity
  8
Layer_1
 62
7
100
AcDbSpline
 70
8
 71
3
 72
8
 73
4
 74
0
 40
0
 40
0
 40
0
 40
0
 40
1
 40
1
 40
1
 40
1
 10
56.934527
 20
127.278300
 30
0.0
 10
56.934054
 20
126.652770
 30
0.0
 10
57.267499
 20
126.074554
 30
0.0
 10
57.809145
 20
125.761653
 30
0.0
  0
SPLINE
  5
166
100
AcDbEntity
  8
Layer_1
 62
7
100
AcDbSpline
 70
8
 71
3
 72
8
 73
4
 74
0
 40
0
 40
0
 40
0
 40
0
 40
1
 40
1
 40
1
 40
1
 10
57.809145
 20
125.761653
 30
0.0
 10
58.350791
 20
125.448751
 30
0.0
 10
59.018263
 20
125.448751
 30
0.0
 10
59.559909
 20
125.761653
 30
0.0
  0
SPLINE
  5
167
100
AcDbEntity
  8
Layer_1
 62
7
100
AcDbSpline
 70
8
 71
3
 72
8
 73
4
 74
0
 40
0
 40
0
 40
0
 40
0
 40
1
 40
1
 40
1
 40
1
 10
59.559909
 20
125.761653
 30
0.0
 10
60.101555
 20
126.074554
 30
0.0
 10
60.435000
 20
126.652770
 30
0.0
 10
60.434527
 20
127.278300
 30
0.0
  0
LWPOLYLINE
  5
168
100
AcDbEntity
  8
Layer_1
 62
7
100
AcDbPolyline
 90
1
 70
1
 10
180.434520
 20
97.278300
 30
0.0
  0
SPLINE
  5
169
100
AcDbEntity
  8
Layer_1
 62
7
100
AcDbSpline
 70
8
 71
3
 72
8
 73
4
 74
0
 40
0
 40
0
 40
0
 40
0
 40
1
 40
1
 40
1
 40
1
 10
92.684526
 20
118.508300
 30
0.0
 10
92.880850
 20
118.530800
 30
0.0
 10
93.077173
 20
118.553400
 30
0.0
 10
93.258553
 20
118.622480
 30
0.0
  0
SPLINE
  5
16a
100
AcDbEntity
  8
Layer_1
 62
7
100
AcDbSpline
 70
8
 71
3
 72
8
 73
4
 74
0
 40
0
 40
0
 40
0
 40
0
 40
1
 40
1
 40
1
 40
1
 10
93.258553
 20
118.622480
 30
0.0
 10
93.439930
 20
118.691580
 30
0.0
 10
93.606366
 20
118.807200
 30
0.0
 10
93.745185
 20
118.947640
 30
0.0
  0
SPLINE
  5
16b
100
AcDbEntity
  8
Layer_1
 62
7
100
AcDbSpline
 70
8
 71
3
 72
8
 73
4
 74
0
 40
0
 40
0
 40
0
 40
0
 40
1
 40
1
 40
1
 40
1
 10
93.745185
 20
118.947640
 30
0.0
 10
93.884007
 20
119.088080
 30
0.0
 10
93.995214
 20
119.253330
 30
0.0
 10
94.070345
 20
119.434280
 30
0.0
  0
SPLINE
  5
16c
100
AcDbEntity
  8
Layer_1
 62
7
100
AcDbSpline
 70
8
 71
3
 72
8
 73
4
 74
0
 40
0
 40
0
 40
0
 40
0
 40
1
 40
1
 40
1
 40
1
 10
94.070345
 20
119.434280
 30
0.0
 10
94.145475
 20
119.615220
 30
0.0
 10
94.184526
 20
119.811860
 30
0.0
 10
94.184526
 20
120.008300
 30
0.0
  0
SPLINE
  5
16d
100
AcDbEntity
  8
Layer_1
 62
7
100
AcDbSpline
 70
8
 71
3
 72
8
 73
4
 74
0
 40
0
 40
0
 40
0
 40
0
 40
1
 40
1
 40
1
 40
1
 10
94.184526
 20
120.008300
 30
0.0
 10
94.184526
 20
120.204740
 30
0.0
 10
94.145476
 20
120.400980
 30
0.0
 10
94.070345
 20
120.582330
 30
0.0
  0
SPLINE
  5
16e
100
AcDbEntity
  8
Layer_1
 62
7
100
AcDbSpline
 70
8
 71
3
 72
8
 73
4
 74
0
 40
0
 40
0
 40
0
 40
0
 40
1
 40
1
 40
1
 40
1
 10
94.070345
 20
120.582330
 30
0.0
 10
93.995215
 20
120.763670
 30
0.0
 10
93.884007
 20
120.930130
 30
0.0
 10
93.745185
 20
121.068960
 30
0.0
  0
SPLINE
  5
16f
100
AcDbEntity
  8
Layer_1
 62
7
100
AcDbSpline
 70
8
 71
3
 72
8
 73
4
 74
0
 40
0
 40
0
 40
0
 40
0
 40
1
 40
1
 40
1
 40
1
 10
93.745185
 20
121.068960
 30
0.0
 10
93.606366
 20
121.207790
 30
0.0
 10
93.439930
 20
121.318990
 30
0.0
 10
93.258553
 20
121.394120
 30
0.0
  0
SPLINE
  5
170
100
AcDbEntity
  8
Layer_1
 62
7
100
AcDbSpline
 70
8
 71
3
 72
8
 73
4
 74
0
 40
0
 40
0
 40
0
 40
0
 40
1
 40
1
 40
1
 40
1
 10
93.258553
 20
121.394120
 30
0.0
 10
93.077173
 20
121.469220
 30
0.0
 10
92.880850
 20
121.508300
 30
0.0
 10
92.684526
 20
121.508300
 30
0.0
  0
SPLINE
  5
171
100
AcDbEntity
  8
Layer_1
 62
7
100
AcDbSpline
 70
8
 71
3
 72
8
 73
4
 74
0
 40
0
 40
0
 40
0
 40
0
 40
1
 40
1
 40
1
 40
1
 10
92.684526
 20
121.508300
 30
0.0
 10
92.488203
 20
121.508300
 30
0.0
 10
92.291879
 20
121.469200
 30
0.0
 10
92.110502
 20
121.394120
 30
0.0
  0
SPLINE
  5
172
100
AcDbEntity
  8
Layer_1
 62
7
100
AcDbSpline
 70
8
 71
3
 72
8
 73
4
 74
0
 40
0
 40
0
 40
0
 40
0
 40
1
 40
1
 40
1
 40
1
 10
92.110502
 20
121.394120
 30
0.0
 10
91.929122
 20
121.319020
 30
0.0
 10
91.762689
 20
121.207790
 30
0.0
 10
91.623867
 20
121.068960
 30
0.0
  0
SPLINE
  5
173
100
AcDbEntity
  8
Layer_1
 62
7
100
AcDbSpline
 70
8
 71
3
 72
8
 73
4
 74
0
 40
0
 40
0
 40
0
 40
0
 40
1
 40
1
 40
1
 40
1
 10
91.623867
 20
121.068960
 30
0.0
 10
91.485046
 20
120.930130
 30
0.0
 10
91.373836
 20
120.763670
 30
0.0
 10
91.298708
 20
120.582330
 30
0.0
  0
SPLINE
  5
174
100
AcDbEntity
  8
Layer_1
 62
7
100
AcDbSpline
 70
8
 71
3
 72
8
 73
4
 74
0
 40
0
 40
0
 40
0
 40
0
 40
1
 40
1
 40
1
 40
1
 10
91.298708
 20
120.582330
 30
0.0
 10
91.223578
 20
120.400980
 30
0.0
 10
91.184527
 20
120.204740
 30
0.0
 10
91.184527
 20
120.008300
 30
0.0
  0
SPLINE
  5
175
100
AcDbEntity
  8
Layer_1
 62
7
100
AcDbSpline
 70
8
 71
3
 72
8
 73
4
 74
0
 40
0
 40
0
 40
0
 40
0
 40
1
 40
1
 40
1
 40
1
 10
91.184527
 20
120.008300
 30
0.0
 10
91.184527
 20
119.811860
 30
0.0
 10
91.223577
 20
119.615220
 30
0.0
 10
91.298708
 20
119.434280
 30
0.0
  0
SPLINE
  5
176
100
AcDbEntity
  8
Layer_1
 62
7
100
AcDbSpline
 70
8
 71
3
 72
8
 73
4
 74
0
 40
0
 40
0
 40
0
 40
0
 40
1
 40
1
 40
1
 40
1
 10
91.298708
 20
119.434280
 30
0.0
 10
91.373838
 20
119.253330
 30
0.0
 10
91.485046
 20
119.088080
 30
0.0
 10
91.623867
 20
118.947640
 30
0.0
  0
SPLINE
  5
177
100
AcDbEntity
  8
Layer_1
 62
7
100
AcDbSpline
 70
8
 71
3
 72
8
 73
4
 74
0
 40
0
 40
0
 40
0
 40
0
 40
1
 40
1
 40
1
 40
1
 10
91.623867
 20
118.947640
 30
0.0
 10
91.762689
 20
118.807200
 30
0.0
 10
91.929122
 20
118.691570
 30
0.0
 10
92.110502
 20
118.622480
 30
0.0
  0
SPLINE
  5
178
100
AcDbEntity
  8
Layer_1
 62
7
100
AcDbSpline
 70
8
 71
3
 72
8
 73
4
 74
0
 40
0
 40
0
 40
0
 40
0
 40
1
 40
1
 40
1
 40
1
 10
92.110502
 20
118.622480
 30
0.0
 10
92.291879
 20
118.553380
 30
0.0
 10
92.488203
 20
118.530880
 30
0.0
 10
92.684526
 20
118.508300
 30
0.0
  0
LWPOLYLINE
  5
179
100
AcDbEntity
  8
Layer_1
 62
7
100
AcDbPolyline
 90
1
 70
1
 10
60.434527
 20
127.278300
 30
0.0
  0
SPLINE
  5
17a
100
AcDbEntity
  8
Layer_1
 62
7
100
AcDbSpline
 70
8
 71
3
 72
8
 73
4
 74
0
 40
0
 40
0
 40
0
 40
0
 40
1
 40
1
 40
1
 40
1
 10
140.684530
 20
118.508300
 30
0.0
 10
140.880850
 20
118.530800
 30
0.0
 10
141.077170
 20
118.553400
 30
0.0
 10
141.258550
 20
118.622480
 30
0.0
  0
SPLINE
  5
17b
100
AcDbEntity
  8
Layer_1
 62
7
100
AcDbSpline
 70
8
 71
3
 72
8
 73
4
 74
0
 40
0
 40
0
 40
0
 40
0
 40
1
 40
1
 40
1
 40
1
 10
141.258550
 20
118.622480
 30
0.0
 10
141.439930
 20
118.691580
 30
0.0
 10
141.606370
 20
118.807200
 30
0.0
 10
141.745190
 20
118.947640
 30
0.0
  0
SPLINE
  5
17c
100
AcDbEntity
  8
Layer_1
 62
7
100
AcDbSpline
 70
8
 71
3
 72
8
 73
4
 74
0
 40
0
 40
0
 40
0
 40
0
 40
1
 40
1
 40
1
 40
1
 10
141.745190
 20
118.947640
 30
0.0
 10
141.884010
 20
119.088080
 30
0.0
 10
141.995220
 20
119.253330
 30
0.0
 10
142.070340
 20
119.434280
 30
0.0
  0
SPLINE
  5
17d
100
AcDbEntity
  8
Layer_1
 62
7
100
AcDbSpline
 70
8
 71
3
 72
8
 73
4
 74
0
 40
0
 40
0
 40
0
 40
0
 40
1
 40
1
 40
1
 40
1
 10
142.070340
 20
119.434280
 30
0.0
 10
142.145440
 20
119.615220
 30
0.0
 10
142.184530
 20
119.811860
 30
0.0
 10
142.184530
 20
120.008300
 30
0.0
  0
SPLINE
  5
17e
100
AcDbEntity
  8
Layer_1
 62
7
100
AcDbSpline
 70
8
 71
3
 72
8
 73
4
 74
0
 40
0
 40
0
 40
0
 40
0
 40
1
 40
1
 40
1
 40
1
 10
142.184530
 20
120.008300
 30
0.0
 10
142.184530
 20
120.204740
 30
0.0
 10
142.145430
 20
120.400980
 30
0.0
 10
142.070340
 20
120.582330
 30
0.0
  0
SPLINE
  5
17f
100
AcDbEntity
  8
Layer_1
 62
7
100
AcDbSpline
 70
8
 71
3
 72
8
 73
4
 74
0
 40
0
 40
0
 40
0
 40
0
 40
1
 40
1
 40
1
 40
1
 10
142.070340
 20
120.582330
 30
0.0
 10
141.995240
 20
120.763670
 30
0.0
 10
141.884010
 20
120.930130
 30
0.0
 10
141.745190
 20
121.068960
 30
0.0
  0
SPLINE
  5
180
100
AcDbEntity
  8
Layer_1
 62
7
100
AcDbSpline
 70
8
 71
3
 72
8
 73
4
 74
0
 40
0
 40
0
 40
0
 40
0
 40
1
 40
1
 40
1
 40
1
 10
141.745190
 20
121.068960
 30
0.0
 10
141.606370
 20
121.207790
 30
0.0
 10
141.439930
 20
121.318990
 30
0.0
 10
141.258550
 20
121.394120
 30
0.0
  0
SPLINE
  5
181
100
AcDbEntity
  8
Layer_1
 62
7
100
AcDbSpline
 70
8
 71
3
 72
8
 73
4
 74
0
 40
0
 40
0
 40
0
 40
0
 40
1
 40
1
 40
1
 40
1
 10
141.258550
 20
121.394120
 30
0.0
 10
141.077170
 20
121.469220
 30
0.0
 10
140.880850
 20
121.508300
 30
0.0
 10
140.684530
 20
121.508300
 30
0.0
  0
SPLINE
  5
182
100
AcDbEntity
  8
Layer_1
 62
7
100
AcDbSpline
 70
8
 71
3
 72
8
 73
4
 74
0
 40
0
 40
0
 40
0
 40
0
 40
1
 40
1
 40
1
 40
1
 10
140.684530
 20
121.508300
 30
0.0
 10
140.488200
 20
121.508300
 30
0.0
 10
140.291880
 20
121.469200
 30
0.0
 10
140.110500
 20
121.394120
 30
0.0
  0
SPLINE
  5
183
100
AcDbEntity
  8
Layer_1
 62
7
100
AcDbSpline
 70
8
 71
3
 72
8
 73
4
 74
0
 40
0
 40
0
 40
0
 40
0
 40
1
 40
1
 40
1
 40
1
 10
140.110500
 20
121.394120
 30
0.0
 10
139.929120
 20
121.319020
 30
0.0
 10
139.762690
 20
121.207790
 30
0.0
 10
139.623860
 20
121.068960
 30
0.0
  0
SPLINE
  5
184
100
AcDbEntity
  8
Layer_1
 62
7
100
AcDbSpline
 70
8
 71
3
 72
8
 73
4
 74
0
 40
0
 40
0
 40
0
 40
0
 40
1
 40
1
 40
1
 40
1
 10
139.623860
 20
121.068960
 30
0.0
 10
139.485050
 20
120.930130
 30
0.0
 10
139.373840
 20
120.763670
 30
0.0
 10
139.298710
 20
120.582330
 30
0.0
  0
SPLINE
  5
185
100
AcDbEntity
  8
Layer_1
 62
7
100
AcDbSpline
 70
8
 71
3
 72
8
 73
4
 74
0
 40
0
 40
0
 40
0
 40
0
 40
1
 40
1
 40
1
 40
1
 10
139.298710
 20
120.582330
 30
0.0
 10
139.223610
 20
120.400980
 30
0.0
 10
139.184530
 20
120.204740
 30
0.0
 10
139.184530
 20
120.008300
 30
0.0
  0
SPLINE
  5
186
100
AcDbEntity
  8
Layer_1
 62
7
100
AcDbSpline
 70
8
 71
3
 72
8
 73
4
 74
0
 40
0
 40
0
 40
0
 40
0
 40
1
 40
1
 40
1
 40
1
 10
139.184530
 20
120.008300
 30
0.0
 10
139.184530
 20
119.811860
 30
0.0
 10
139.223630
 20
119.615220
 30
0.0
 10
139.298710
 20
119.434280
 30
0.0
  0
SPLINE
  5
187
100
AcDbEntity
  8
Layer_1
 62
7
100
AcDbSpline
 70
8
 71
3
 72
8
 73
4
 74
0
 40
0
 40
0
 40
0
 40
0
 40
1
 40
1
 40
1
 40
1
 10
139.298710
 20
119.434280
 30
0.0
 10
139.373810
 20
119.253330
 30
0.0
 10
139.485050
 20
119.088080
 30
0.0
 10
139.623860
 20
118.947640
 30
0.0
  0
SPLINE
  5
188
100
AcDbEntity
  8
Layer_1
 62
7
100
AcDbSpline
 70
8
 71
3
 72
8
 73
4
 74
0
 40
0
 40
0
 40
0
 40
0
 40
1
 40
1
 40
1
 40
1
 10
139.623860
 20
118.947640
 30
0.0
 10
139.762690
 20
118.807200
 30
0.0
 10
139.929120
 20
118.691570
 30
0.0
 10
140.110500
 20
118.622480
 30
0.0
  0
SPLINE
  5
189
100
AcDbEntity
  8
Layer_1
 62
7
100
AcDbSpline
 70
8
 71
3
 72
8
 73
4
 74
0
 40
0
 40
0
 40
0
 40
0
 40
1
 40
1
 40
1
 40
1
 10
140.110500
 20
118.622480
 30
0.0
 10
140.291880
 20
118.553380
 30
0.0
 10
140.488200
 20
118.530880
 30
0.0
 10
140.684530
 20
118.508300
 30
0.0
  0
LWPOLYLINE
  5
18a
100
AcDbEntity
  8
Layer_1
 62
7
100
AcDbPolyline
 90
1
 70
1
 10
92.684526
 20
118.508300
 30
0.0
  0
LWPOLYLINE
  5
18b
100
AcDbEntity
  8
Layer_1
 62
7
100
AcDbPolyline
 90
1
 70
1
 10
140.684530
 20
118.508300
 30
0.0
  0
LWPOLYLINE
  5
18c
100
AcDbEntity
  8
Layer_1
 62
7
100
AcDbPolyline
 90
2
 70
0
 10
52.084524
 20
118.722770
 30
0.0
 10
53.684528
 20
118.722770
 30
0.0
  0
LWPOLYLINE
  5
18d
100
AcDbEntity
  8
Layer_1
 62
7
100
AcDbPolyline
 90
2
 70
0
 10
52.084524
 20
103.567230
 30
0.0
 10
52.084524
 20
118.722770
 30
0.0
  0
SPLINE
  5
18e
100
AcDbEntity
  8
Layer_1
 62
7
100
AcDbSpline
 70
8
 71
3
 72
8
 73
4
 74
0
 40
0
 40
0
 40
0
 40
0
 40
1
 40
1
 40
1
 40
1
 10
60.434527
 20
107.128300
 30
0.0
 10
60.435032
 20
107.843168
 30
0.0
 10
60.053945
 20
108.503949
 30
0.0
 10
59.434936
 20
108.861529
 30
0.0
  0
SPLINE
  5
18f
100
AcDbEntity
  8
Layer_1
 62
7
100
AcDbSpline
 70
8
 71
3
 72
8
 73
4
 74
0
 40
0
 40
0
 40
0
 40
0
 40
1
 40
1
 40
1
 40
1
 10
59.434936
 20
108.861529
 30
0.0
 10
58.815926
 20
109.219109
 30
0.0
 10
58.053129
 20
109.219109
 30
0.0
 10
57.434119
 20
108.861529
 30
0.0
  0
SPLINE
  5
190
100
AcDbEntity
  8
Layer_1
 62
7
100
AcDbSpline
 70
8
 71
3
 72
8
 73
4
 74
0
 40
0
 40
0
 40
0
 40
0
 40
1
 40
1
 40
1
 40
1
 10
57.434119
 20
108.861529
 30
0.0
 10
56.815110
 20
108.503949
 30
0.0
 10
56.434023
 20
107.843168
 30
0.0
 10
56.434528
 20
107.128300
 30
0.0
  0
SPLINE
  5
191
100
AcDbEntity
  8
Layer_1
 62
7
100
AcDbSpline
 70
8
 71
3
 72
8
 73
4
 74
0
 40
0
 40
0
 40
0
 40
0
 40
1
 40
1
 40
1
 40
1
 10
56.434528
 20
107.128300
 30
0.0
 10
56.434023
 20
106.413432
 30
0.0
 10
56.815110
 20
105.752651
 30
0.0
 10
57.434119
 20
105.395071
 30
0.0
  0
SPLINE
  5
192
100
AcDbEntity
  8
Layer_1
 62
7
100
AcDbSpline
 70
8
 71
3
 72
8
 73
4
 74
0
 40
0
 40
0
 40
0
 40
0
 40
1
 40
1
 40
1
 40
1
 10
57.434119
 20
105.395071
 30
0.0
 10
58.053129
 20
105.037491
 30
0.0
 10
58.815926
 20
105.037491
 30
0.0
 10
59.434936
 20
105.395071
 30
0.0
  0
SPLINE
  5
193
100
AcDbEntity
  8
Layer_1
 62
7
100
AcDbSpline
 70
8
 71
3
 72
8
 73
4
 74
0
 40
0
 40
0
 40
0
 40
0
 40
1
 40
1
 40
1
 40
1
 10
59.434936
 20
105.395071
 30
0.0
 10
60.053945
 20
105.752651
 30
0.0
 10
60.435032
 20
106.413432
 30
0.0
 10
60.434527
 20
107.128300
 30
0.0
  0
LWPOLYLINE
  5
194
100
AcDbEntity
  8
Layer_1
 62
7
100
AcDbPolyline
 90
3
 70
0
 10
52.084524
 20
103.567230
 30
0.0
 10
53.684528
 20
103.567230
 30
0.0
 10
53.684528
 20
118.722770
 30
0.0
  0
LWPOLYLINE
  5
195
100
AcDbEntity
  8
Layer_1
 62
7
100
AcDbPolyline
 90
1
 70
1
 10
60.434527
 20
107.128300
 30
0.0
  0
LWPOLYLINE
  5
196
100
AcDbEntity
  8
Layer_1
 62
7
100
AcDbPolyline
 90
4
 70
1
 10
76.334525
 20
125.643300
 30
0.0
 10
72.434527
 20
125.643300
 30
0.0
 10
72.434527
 20
114.843300
 30
0.0
 10
76.334525
 20
114.843300
 30
0.0
  0
LWPOLYLINE
  5
197
100
AcDbEntity
  8
Layer_1
 62
7
100
AcDbPolyline
 90
4
 70
1
 10
100.334530
 20
125.643300
 30
0.0
 10
96.434527
 20
125.643300
 30
0.0
 10
96.434527
 20
114.843300
 30
0.0
 10
100.334530
 20
114.843300
 30
0.0
  0
LWPOLYLINE
  5
198
100
AcDbEntity
  8
Layer_1
 62
7
100
AcDbPolyline
 90
4
 70
1
 10
124.334530
 20
125.643300
 30
0.0
 10
120.434530
 20
125.643300
 30
0.0
 10
120.434530
 20
114.843300
 30
0.0
 10
124.334530
 20
114.843300
 30
0.0
  0
LWPOLYLINE
  5
199
100
AcDbEntity
  8
Layer_1
 62
7
100
AcDbPolyline
 90
4
 70
1
 10
148.334530
 20
125.643300
 30
0.0
 10
144.434530
 20
125.643300
 30
0.0
 10
144.434530
 20
114.843300
 30
0.0
 10
148.334530
 20
114.843300
 30
0.0
  0
LWPOLYLINE
  5
19a
100
AcDbEntity
  8
Layer_1
 62
7
100
AcDbPolyline
 90
4
 70
1
 10
172.334520
 20
125.643300
 30
0.0
 10
168.434520
 20
125.643300
 30
0.0
 10
168.434520
 20
114.843300
 30
0.0
 10
172.334520
 20
114.843300
 30
0.0
  0
ENDSEC
  0
SECTION
  2
OBJECTS
  0
DICTIONARY
  5
C
330
0
100
AcDbDictionary
  3
ACAD_GROUP
350
D
  3
ACAD_MLINESTYLE
350
17
  0
DICTIONARY
  5
D
330
C
100
AcDbDictionary
  0
DICTIONARY
  5
1A
330
C
100
AcDbDictionary
  0
DICTIONARY
  5
17
330
C
100
AcDbDictionary
  3
STANDARD
350
18
  0
DICTIONARY
  5
19
330
C
100
AcDbDictionary
  0
ENDSEC
  0
EOF
