G04 #@! TF.GenerationSoftware,KiCad,Pcbnew,5.0.2+dfsg1-1*
G04 #@! TF.CreationDate,2020-06-21T14:15:28-04:00*
G04 #@! TF.ProjectId,powerpoledist,706f7765-7270-46f6-9c65-646973742e6b,rev?*
G04 #@! TF.SameCoordinates,Original*
G04 #@! TF.FileFunction,Legend,Bot*
G04 #@! TF.FilePolarity,Positive*
%FSLAX46Y46*%
G04 Gerber Fmt 4.6, Leading zero omitted, Abs format (unit mm)*
G04 Created by KiCad (PCBNEW 5.0.2+dfsg1-1) date Sun 21 Jun 2020 02:15:28 PM EDT*
%MOMM*%
%LPD*%
G01*
G04 APERTURE LIST*
%ADD10C,0.200000*%
%ADD11C,0.300000*%
G04 APERTURE END LIST*
D10*
X176452380Y-86452380D02*
X176452380Y-85452380D01*
X176214285Y-85452380D01*
X176071428Y-85500000D01*
X175976190Y-85595238D01*
X175928571Y-85690476D01*
X175880952Y-85880952D01*
X175880952Y-86023809D01*
X175928571Y-86214285D01*
X175976190Y-86309523D01*
X176071428Y-86404761D01*
X176214285Y-86452380D01*
X176452380Y-86452380D01*
X175071428Y-86404761D02*
X175166666Y-86452380D01*
X175357142Y-86452380D01*
X175452380Y-86404761D01*
X175500000Y-86309523D01*
X175500000Y-85928571D01*
X175452380Y-85833333D01*
X175357142Y-85785714D01*
X175166666Y-85785714D01*
X175071428Y-85833333D01*
X175023809Y-85928571D01*
X175023809Y-86023809D01*
X175500000Y-86119047D01*
X174642857Y-86404761D02*
X174547619Y-86452380D01*
X174357142Y-86452380D01*
X174261904Y-86404761D01*
X174214285Y-86309523D01*
X174214285Y-86261904D01*
X174261904Y-86166666D01*
X174357142Y-86119047D01*
X174500000Y-86119047D01*
X174595238Y-86071428D01*
X174642857Y-85976190D01*
X174642857Y-85928571D01*
X174595238Y-85833333D01*
X174500000Y-85785714D01*
X174357142Y-85785714D01*
X174261904Y-85833333D01*
X173785714Y-86452380D02*
X173785714Y-85785714D01*
X173785714Y-85452380D02*
X173833333Y-85500000D01*
X173785714Y-85547619D01*
X173738095Y-85500000D01*
X173785714Y-85452380D01*
X173785714Y-85547619D01*
X172880952Y-85785714D02*
X172880952Y-86595238D01*
X172928571Y-86690476D01*
X172976190Y-86738095D01*
X173071428Y-86785714D01*
X173214285Y-86785714D01*
X173309523Y-86738095D01*
X172880952Y-86404761D02*
X172976190Y-86452380D01*
X173166666Y-86452380D01*
X173261904Y-86404761D01*
X173309523Y-86357142D01*
X173357142Y-86261904D01*
X173357142Y-85976190D01*
X173309523Y-85880952D01*
X173261904Y-85833333D01*
X173166666Y-85785714D01*
X172976190Y-85785714D01*
X172880952Y-85833333D01*
X172404761Y-85785714D02*
X172404761Y-86452380D01*
X172404761Y-85880952D02*
X172357142Y-85833333D01*
X172261904Y-85785714D01*
X172119047Y-85785714D01*
X172023809Y-85833333D01*
X171976190Y-85928571D01*
X171976190Y-86452380D01*
X171452380Y-86404761D02*
X171452380Y-86452380D01*
X171500000Y-86547619D01*
X171547619Y-86595238D01*
X170261904Y-86452380D02*
X170261904Y-85785714D01*
X170261904Y-85452380D02*
X170309523Y-85500000D01*
X170261904Y-85547619D01*
X170214285Y-85500000D01*
X170261904Y-85452380D01*
X170261904Y-85547619D01*
X169785714Y-85785714D02*
X169785714Y-86452380D01*
X169785714Y-85880952D02*
X169738095Y-85833333D01*
X169642857Y-85785714D01*
X169500000Y-85785714D01*
X169404761Y-85833333D01*
X169357142Y-85928571D01*
X169357142Y-86452380D01*
X168928571Y-86404761D02*
X168833333Y-86452380D01*
X168642857Y-86452380D01*
X168547619Y-86404761D01*
X168500000Y-86309523D01*
X168500000Y-86261904D01*
X168547619Y-86166666D01*
X168642857Y-86119047D01*
X168785714Y-86119047D01*
X168880952Y-86071428D01*
X168928571Y-85976190D01*
X168928571Y-85928571D01*
X168880952Y-85833333D01*
X168785714Y-85785714D01*
X168642857Y-85785714D01*
X168547619Y-85833333D01*
X168214285Y-85785714D02*
X167833333Y-85785714D01*
X168071428Y-85452380D02*
X168071428Y-86309523D01*
X168023809Y-86404761D01*
X167928571Y-86452380D01*
X167833333Y-86452380D01*
X167500000Y-86452380D02*
X167500000Y-85785714D01*
X167500000Y-85976190D02*
X167452380Y-85880952D01*
X167404761Y-85833333D01*
X167309523Y-85785714D01*
X167214285Y-85785714D01*
X166452380Y-85785714D02*
X166452380Y-86452380D01*
X166880952Y-85785714D02*
X166880952Y-86309523D01*
X166833333Y-86404761D01*
X166738095Y-86452380D01*
X166595238Y-86452380D01*
X166500000Y-86404761D01*
X166452380Y-86357142D01*
X165547619Y-86404761D02*
X165642857Y-86452380D01*
X165833333Y-86452380D01*
X165928571Y-86404761D01*
X165976190Y-86357142D01*
X166023809Y-86261904D01*
X166023809Y-85976190D01*
X165976190Y-85880952D01*
X165928571Y-85833333D01*
X165833333Y-85785714D01*
X165642857Y-85785714D01*
X165547619Y-85833333D01*
X165261904Y-85785714D02*
X164880952Y-85785714D01*
X165119047Y-85452380D02*
X165119047Y-86309523D01*
X165071428Y-86404761D01*
X164976190Y-86452380D01*
X164880952Y-86452380D01*
X164547619Y-86452380D02*
X164547619Y-85785714D01*
X164547619Y-85452380D02*
X164595238Y-85500000D01*
X164547619Y-85547619D01*
X164500000Y-85500000D01*
X164547619Y-85452380D01*
X164547619Y-85547619D01*
X163928571Y-86452380D02*
X164023809Y-86404761D01*
X164071428Y-86357142D01*
X164119047Y-86261904D01*
X164119047Y-85976190D01*
X164071428Y-85880952D01*
X164023809Y-85833333D01*
X163928571Y-85785714D01*
X163785714Y-85785714D01*
X163690476Y-85833333D01*
X163642857Y-85880952D01*
X163595238Y-85976190D01*
X163595238Y-86261904D01*
X163642857Y-86357142D01*
X163690476Y-86404761D01*
X163785714Y-86452380D01*
X163928571Y-86452380D01*
X163166666Y-85785714D02*
X163166666Y-86452380D01*
X163166666Y-85880952D02*
X163119047Y-85833333D01*
X163023809Y-85785714D01*
X162880952Y-85785714D01*
X162785714Y-85833333D01*
X162738095Y-85928571D01*
X162738095Y-86452380D01*
X162309523Y-86404761D02*
X162214285Y-86452380D01*
X162023809Y-86452380D01*
X161928571Y-86404761D01*
X161880952Y-86309523D01*
X161880952Y-86261904D01*
X161928571Y-86166666D01*
X162023809Y-86119047D01*
X162166666Y-86119047D01*
X162261904Y-86071428D01*
X162309523Y-85976190D01*
X162309523Y-85928571D01*
X162261904Y-85833333D01*
X162166666Y-85785714D01*
X162023809Y-85785714D01*
X161928571Y-85833333D01*
X161404761Y-86404761D02*
X161404761Y-86452380D01*
X161452380Y-86547619D01*
X161500000Y-86595238D01*
X159785714Y-86452380D02*
X159785714Y-85928571D01*
X159833333Y-85833333D01*
X159928571Y-85785714D01*
X160119047Y-85785714D01*
X160214285Y-85833333D01*
X159785714Y-86404761D02*
X159880952Y-86452380D01*
X160119047Y-86452380D01*
X160214285Y-86404761D01*
X160261904Y-86309523D01*
X160261904Y-86214285D01*
X160214285Y-86119047D01*
X160119047Y-86071428D01*
X159880952Y-86071428D01*
X159785714Y-86023809D01*
X159309523Y-85785714D02*
X159309523Y-86452380D01*
X159309523Y-85880952D02*
X159261904Y-85833333D01*
X159166666Y-85785714D01*
X159023809Y-85785714D01*
X158928571Y-85833333D01*
X158880952Y-85928571D01*
X158880952Y-86452380D01*
X157976190Y-86452380D02*
X157976190Y-85452380D01*
X157976190Y-86404761D02*
X158071428Y-86452380D01*
X158261904Y-86452380D01*
X158357142Y-86404761D01*
X158404761Y-86357142D01*
X158452380Y-86261904D01*
X158452380Y-85976190D01*
X158404761Y-85880952D01*
X158357142Y-85833333D01*
X158261904Y-85785714D01*
X158071428Y-85785714D01*
X157976190Y-85833333D01*
X156738095Y-86452380D02*
X156738095Y-85785714D01*
X156738095Y-85452380D02*
X156785714Y-85500000D01*
X156738095Y-85547619D01*
X156690476Y-85500000D01*
X156738095Y-85452380D01*
X156738095Y-85547619D01*
X156261904Y-85785714D02*
X156261904Y-86452380D01*
X156261904Y-85880952D02*
X156214285Y-85833333D01*
X156119047Y-85785714D01*
X155976190Y-85785714D01*
X155880952Y-85833333D01*
X155833333Y-85928571D01*
X155833333Y-86452380D01*
X155500000Y-85785714D02*
X155119047Y-85785714D01*
X155357142Y-86452380D02*
X155357142Y-85595238D01*
X155309523Y-85500000D01*
X155214285Y-85452380D01*
X155119047Y-85452380D01*
X154642857Y-86452380D02*
X154738095Y-86404761D01*
X154785714Y-86357142D01*
X154833333Y-86261904D01*
X154833333Y-85976190D01*
X154785714Y-85880952D01*
X154738095Y-85833333D01*
X154642857Y-85785714D01*
X154500000Y-85785714D01*
X154404761Y-85833333D01*
X154357142Y-85880952D01*
X154309523Y-85976190D01*
X154309523Y-86261904D01*
X154357142Y-86357142D01*
X154404761Y-86404761D01*
X154500000Y-86452380D01*
X154642857Y-86452380D01*
X152690476Y-86452380D02*
X152690476Y-85928571D01*
X152738095Y-85833333D01*
X152833333Y-85785714D01*
X153023809Y-85785714D01*
X153119047Y-85833333D01*
X152690476Y-86404761D02*
X152785714Y-86452380D01*
X153023809Y-86452380D01*
X153119047Y-86404761D01*
X153166666Y-86309523D01*
X153166666Y-86214285D01*
X153119047Y-86119047D01*
X153023809Y-86071428D01*
X152785714Y-86071428D01*
X152690476Y-86023809D01*
X152357142Y-85785714D02*
X151976190Y-85785714D01*
X152214285Y-85452380D02*
X152214285Y-86309523D01*
X152166666Y-86404761D01*
X152071428Y-86452380D01*
X151976190Y-86452380D01*
X150880952Y-86452380D02*
X150880952Y-85452380D01*
X150452380Y-86452380D02*
X150452380Y-85928571D01*
X150500000Y-85833333D01*
X150595238Y-85785714D01*
X150738095Y-85785714D01*
X150833333Y-85833333D01*
X150880952Y-85880952D01*
X150119047Y-85785714D02*
X149738095Y-85785714D01*
X149976190Y-85452380D02*
X149976190Y-86309523D01*
X149928571Y-86404761D01*
X149833333Y-86452380D01*
X149738095Y-86452380D01*
X149547619Y-85785714D02*
X149166666Y-85785714D01*
X149404761Y-85452380D02*
X149404761Y-86309523D01*
X149357142Y-86404761D01*
X149261904Y-86452380D01*
X149166666Y-86452380D01*
X148833333Y-85785714D02*
X148833333Y-86785714D01*
X148833333Y-85833333D02*
X148738095Y-85785714D01*
X148547619Y-85785714D01*
X148452380Y-85833333D01*
X148404761Y-85880952D01*
X148357142Y-85976190D01*
X148357142Y-86261904D01*
X148404761Y-86357142D01*
X148452380Y-86404761D01*
X148547619Y-86452380D01*
X148738095Y-86452380D01*
X148833333Y-86404761D01*
X147928571Y-86357142D02*
X147880952Y-86404761D01*
X147928571Y-86452380D01*
X147976190Y-86404761D01*
X147928571Y-86357142D01*
X147928571Y-86452380D01*
X147928571Y-85833333D02*
X147880952Y-85880952D01*
X147928571Y-85928571D01*
X147976190Y-85880952D01*
X147928571Y-85833333D01*
X147928571Y-85928571D01*
X146738095Y-85404761D02*
X147595238Y-86690476D01*
X145690476Y-85404761D02*
X146547619Y-86690476D01*
X144928571Y-85785714D02*
X144928571Y-86595238D01*
X144976190Y-86690476D01*
X145023809Y-86738095D01*
X145119047Y-86785714D01*
X145261904Y-86785714D01*
X145357142Y-86738095D01*
X144928571Y-86404761D02*
X145023809Y-86452380D01*
X145214285Y-86452380D01*
X145309523Y-86404761D01*
X145357142Y-86357142D01*
X145404761Y-86261904D01*
X145404761Y-85976190D01*
X145357142Y-85880952D01*
X145309523Y-85833333D01*
X145214285Y-85785714D01*
X145023809Y-85785714D01*
X144928571Y-85833333D01*
X144452380Y-86452380D02*
X144452380Y-85785714D01*
X144452380Y-85452380D02*
X144500000Y-85500000D01*
X144452380Y-85547619D01*
X144404761Y-85500000D01*
X144452380Y-85452380D01*
X144452380Y-85547619D01*
X144119047Y-85785714D02*
X143738095Y-85785714D01*
X143976190Y-85452380D02*
X143976190Y-86309523D01*
X143928571Y-86404761D01*
X143833333Y-86452380D01*
X143738095Y-86452380D01*
X143404761Y-86452380D02*
X143404761Y-85452380D01*
X142976190Y-86452380D02*
X142976190Y-85928571D01*
X143023809Y-85833333D01*
X143119047Y-85785714D01*
X143261904Y-85785714D01*
X143357142Y-85833333D01*
X143404761Y-85880952D01*
X142071428Y-85785714D02*
X142071428Y-86452380D01*
X142500000Y-85785714D02*
X142500000Y-86309523D01*
X142452380Y-86404761D01*
X142357142Y-86452380D01*
X142214285Y-86452380D01*
X142119047Y-86404761D01*
X142071428Y-86357142D01*
X141595238Y-86452380D02*
X141595238Y-85452380D01*
X141595238Y-85833333D02*
X141500000Y-85785714D01*
X141309523Y-85785714D01*
X141214285Y-85833333D01*
X141166666Y-85880952D01*
X141119047Y-85976190D01*
X141119047Y-86261904D01*
X141166666Y-86357142D01*
X141214285Y-86404761D01*
X141309523Y-86452380D01*
X141500000Y-86452380D01*
X141595238Y-86404761D01*
X140690476Y-86357142D02*
X140642857Y-86404761D01*
X140690476Y-86452380D01*
X140738095Y-86404761D01*
X140690476Y-86357142D01*
X140690476Y-86452380D01*
X139785714Y-86404761D02*
X139880952Y-86452380D01*
X140071428Y-86452380D01*
X140166666Y-86404761D01*
X140214285Y-86357142D01*
X140261904Y-86261904D01*
X140261904Y-85976190D01*
X140214285Y-85880952D01*
X140166666Y-85833333D01*
X140071428Y-85785714D01*
X139880952Y-85785714D01*
X139785714Y-85833333D01*
X139214285Y-86452380D02*
X139309523Y-86404761D01*
X139357142Y-86357142D01*
X139404761Y-86261904D01*
X139404761Y-85976190D01*
X139357142Y-85880952D01*
X139309523Y-85833333D01*
X139214285Y-85785714D01*
X139071428Y-85785714D01*
X138976190Y-85833333D01*
X138928571Y-85880952D01*
X138880952Y-85976190D01*
X138880952Y-86261904D01*
X138928571Y-86357142D01*
X138976190Y-86404761D01*
X139071428Y-86452380D01*
X139214285Y-86452380D01*
X138452380Y-86452380D02*
X138452380Y-85785714D01*
X138452380Y-85880952D02*
X138404761Y-85833333D01*
X138309523Y-85785714D01*
X138166666Y-85785714D01*
X138071428Y-85833333D01*
X138023809Y-85928571D01*
X138023809Y-86452380D01*
X138023809Y-85928571D02*
X137976190Y-85833333D01*
X137880952Y-85785714D01*
X137738095Y-85785714D01*
X137642857Y-85833333D01*
X137595238Y-85928571D01*
X137595238Y-86452380D01*
X136404761Y-85404761D02*
X137261904Y-86690476D01*
X136166666Y-85785714D02*
X135642857Y-85785714D01*
X136166666Y-86452380D01*
X135642857Y-86452380D01*
X134880952Y-86404761D02*
X134976190Y-86452380D01*
X135166666Y-86452380D01*
X135261904Y-86404761D01*
X135309523Y-86309523D01*
X135309523Y-85928571D01*
X135261904Y-85833333D01*
X135166666Y-85785714D01*
X134976190Y-85785714D01*
X134880952Y-85833333D01*
X134833333Y-85928571D01*
X134833333Y-86023809D01*
X135309523Y-86119047D01*
X134404761Y-86452380D02*
X134404761Y-85785714D01*
X134404761Y-85976190D02*
X134357142Y-85880952D01*
X134309523Y-85833333D01*
X134214285Y-85785714D01*
X134119047Y-85785714D01*
X133642857Y-86452380D02*
X133738095Y-86404761D01*
X133785714Y-86357142D01*
X133833333Y-86261904D01*
X133833333Y-85976190D01*
X133785714Y-85880952D01*
X133738095Y-85833333D01*
X133642857Y-85785714D01*
X133500000Y-85785714D01*
X133404761Y-85833333D01*
X133357142Y-85880952D01*
X133309523Y-85976190D01*
X133309523Y-86261904D01*
X133357142Y-86357142D01*
X133404761Y-86404761D01*
X133500000Y-86452380D01*
X133642857Y-86452380D01*
X132880952Y-85785714D02*
X132880952Y-86785714D01*
X132880952Y-85833333D02*
X132785714Y-85785714D01*
X132595238Y-85785714D01*
X132500000Y-85833333D01*
X132452380Y-85880952D01*
X132404761Y-85976190D01*
X132404761Y-86261904D01*
X132452380Y-86357142D01*
X132500000Y-86404761D01*
X132595238Y-86452380D01*
X132785714Y-86452380D01*
X132880952Y-86404761D01*
X131976190Y-86452380D02*
X131976190Y-85785714D01*
X131976190Y-85452380D02*
X132023809Y-85500000D01*
X131976190Y-85547619D01*
X131928571Y-85500000D01*
X131976190Y-85452380D01*
X131976190Y-85547619D01*
X131500000Y-85785714D02*
X131500000Y-86452380D01*
X131500000Y-85880952D02*
X131452380Y-85833333D01*
X131357142Y-85785714D01*
X131214285Y-85785714D01*
X131119047Y-85833333D01*
X131071428Y-85928571D01*
X131071428Y-86452380D01*
X130166666Y-85785714D02*
X130166666Y-86595238D01*
X130214285Y-86690476D01*
X130261904Y-86738095D01*
X130357142Y-86785714D01*
X130500000Y-86785714D01*
X130595238Y-86738095D01*
X130166666Y-86404761D02*
X130261904Y-86452380D01*
X130452380Y-86452380D01*
X130547619Y-86404761D01*
X130595238Y-86357142D01*
X130642857Y-86261904D01*
X130642857Y-85976190D01*
X130595238Y-85880952D01*
X130547619Y-85833333D01*
X130452380Y-85785714D01*
X130261904Y-85785714D01*
X130166666Y-85833333D01*
X128976190Y-85404761D02*
X129833333Y-86690476D01*
X128642857Y-86452380D02*
X128642857Y-85452380D01*
X128261904Y-85452380D01*
X128166666Y-85500000D01*
X128119047Y-85547619D01*
X128071428Y-85642857D01*
X128071428Y-85785714D01*
X128119047Y-85880952D01*
X128166666Y-85928571D01*
X128261904Y-85976190D01*
X128642857Y-85976190D01*
X127500000Y-86452380D02*
X127595238Y-86404761D01*
X127642857Y-86357142D01*
X127690476Y-86261904D01*
X127690476Y-85976190D01*
X127642857Y-85880952D01*
X127595238Y-85833333D01*
X127500000Y-85785714D01*
X127357142Y-85785714D01*
X127261904Y-85833333D01*
X127214285Y-85880952D01*
X127166666Y-85976190D01*
X127166666Y-86261904D01*
X127214285Y-86357142D01*
X127261904Y-86404761D01*
X127357142Y-86452380D01*
X127500000Y-86452380D01*
X126833333Y-85785714D02*
X126642857Y-86452380D01*
X126452380Y-85976190D01*
X126261904Y-86452380D01*
X126071428Y-85785714D01*
X125309523Y-86404761D02*
X125404761Y-86452380D01*
X125595238Y-86452380D01*
X125690476Y-86404761D01*
X125738095Y-86309523D01*
X125738095Y-85928571D01*
X125690476Y-85833333D01*
X125595238Y-85785714D01*
X125404761Y-85785714D01*
X125309523Y-85833333D01*
X125261904Y-85928571D01*
X125261904Y-86023809D01*
X125738095Y-86119047D01*
X124833333Y-86452380D02*
X124833333Y-85785714D01*
X124833333Y-85976190D02*
X124785714Y-85880952D01*
X124738095Y-85833333D01*
X124642857Y-85785714D01*
X124547619Y-85785714D01*
X124214285Y-86452380D02*
X124214285Y-85452380D01*
X123833333Y-85452380D01*
X123738095Y-85500000D01*
X123690476Y-85547619D01*
X123642857Y-85642857D01*
X123642857Y-85785714D01*
X123690476Y-85880952D01*
X123738095Y-85928571D01*
X123833333Y-85976190D01*
X124214285Y-85976190D01*
X123071428Y-86452380D02*
X123166666Y-86404761D01*
X123214285Y-86357142D01*
X123261904Y-86261904D01*
X123261904Y-85976190D01*
X123214285Y-85880952D01*
X123166666Y-85833333D01*
X123071428Y-85785714D01*
X122928571Y-85785714D01*
X122833333Y-85833333D01*
X122785714Y-85880952D01*
X122738095Y-85976190D01*
X122738095Y-86261904D01*
X122785714Y-86357142D01*
X122833333Y-86404761D01*
X122928571Y-86452380D01*
X123071428Y-86452380D01*
X122166666Y-86452380D02*
X122261904Y-86404761D01*
X122309523Y-86309523D01*
X122309523Y-85452380D01*
X121404761Y-86404761D02*
X121500000Y-86452380D01*
X121690476Y-86452380D01*
X121785714Y-86404761D01*
X121833333Y-86309523D01*
X121833333Y-85928571D01*
X121785714Y-85833333D01*
X121690476Y-85785714D01*
X121500000Y-85785714D01*
X121404761Y-85833333D01*
X121357142Y-85928571D01*
X121357142Y-86023809D01*
X121833333Y-86119047D01*
X120928571Y-86452380D02*
X120928571Y-85452380D01*
X120690476Y-85452380D01*
X120547619Y-85500000D01*
X120452380Y-85595238D01*
X120404761Y-85690476D01*
X120357142Y-85880952D01*
X120357142Y-86023809D01*
X120404761Y-86214285D01*
X120452380Y-86309523D01*
X120547619Y-86404761D01*
X120690476Y-86452380D01*
X120928571Y-86452380D01*
X119928571Y-86452380D02*
X119928571Y-85785714D01*
X119928571Y-85452380D02*
X119976190Y-85500000D01*
X119928571Y-85547619D01*
X119880952Y-85500000D01*
X119928571Y-85452380D01*
X119928571Y-85547619D01*
X119500000Y-86404761D02*
X119404761Y-86452380D01*
X119214285Y-86452380D01*
X119119047Y-86404761D01*
X119071428Y-86309523D01*
X119071428Y-86261904D01*
X119119047Y-86166666D01*
X119214285Y-86119047D01*
X119357142Y-86119047D01*
X119452380Y-86071428D01*
X119500000Y-85976190D01*
X119500000Y-85928571D01*
X119452380Y-85833333D01*
X119357142Y-85785714D01*
X119214285Y-85785714D01*
X119119047Y-85833333D01*
X118785714Y-85785714D02*
X118404761Y-85785714D01*
X118642857Y-85452380D02*
X118642857Y-86309523D01*
X118595238Y-86404761D01*
X118500000Y-86452380D01*
X118404761Y-86452380D01*
X192309523Y-51885714D02*
X192642857Y-51885714D01*
X192642857Y-52357142D02*
X192642857Y-51457142D01*
X192166666Y-51457142D01*
X191357142Y-51757142D02*
X191357142Y-52357142D01*
X191785714Y-51757142D02*
X191785714Y-52228571D01*
X191738095Y-52314285D01*
X191642857Y-52357142D01*
X191499999Y-52357142D01*
X191404761Y-52314285D01*
X191357142Y-52271428D01*
X190928571Y-52314285D02*
X190833333Y-52357142D01*
X190642857Y-52357142D01*
X190547619Y-52314285D01*
X190499999Y-52228571D01*
X190499999Y-52185714D01*
X190547619Y-52100000D01*
X190642857Y-52057142D01*
X190785714Y-52057142D01*
X190880952Y-52014285D01*
X190928571Y-51928571D01*
X190928571Y-51885714D01*
X190880952Y-51800000D01*
X190785714Y-51757142D01*
X190642857Y-51757142D01*
X190547619Y-51800000D01*
X189690476Y-52314285D02*
X189785714Y-52357142D01*
X189976190Y-52357142D01*
X190071428Y-52314285D01*
X190119047Y-52228571D01*
X190119047Y-51885714D01*
X190071428Y-51800000D01*
X189976190Y-51757142D01*
X189785714Y-51757142D01*
X189690476Y-51800000D01*
X189642857Y-51885714D01*
X189642857Y-51971428D01*
X190119047Y-52057142D01*
X188595238Y-51757142D02*
X188214285Y-51757142D01*
X188452380Y-51457142D02*
X188452380Y-52228571D01*
X188404761Y-52314285D01*
X188309523Y-52357142D01*
X188214285Y-52357142D01*
X187500000Y-52314285D02*
X187595238Y-52357142D01*
X187785714Y-52357142D01*
X187880952Y-52314285D01*
X187928571Y-52228571D01*
X187928571Y-51885714D01*
X187880952Y-51800000D01*
X187785714Y-51757142D01*
X187595238Y-51757142D01*
X187500000Y-51800000D01*
X187452380Y-51885714D01*
X187452380Y-51971428D01*
X187928571Y-52057142D01*
X187023809Y-52357142D02*
X187023809Y-51757142D01*
X187023809Y-51928571D02*
X186976190Y-51842857D01*
X186928571Y-51800000D01*
X186833333Y-51757142D01*
X186738095Y-51757142D01*
X186404761Y-52357142D02*
X186404761Y-51757142D01*
X186404761Y-51842857D02*
X186357142Y-51800000D01*
X186261904Y-51757142D01*
X186119047Y-51757142D01*
X186023809Y-51800000D01*
X185976190Y-51885714D01*
X185976190Y-52357142D01*
X185976190Y-51885714D02*
X185928571Y-51800000D01*
X185833333Y-51757142D01*
X185690476Y-51757142D01*
X185595238Y-51800000D01*
X185547619Y-51885714D01*
X185547619Y-52357142D01*
X185071428Y-52357142D02*
X185071428Y-51757142D01*
X185071428Y-51457142D02*
X185119047Y-51500000D01*
X185071428Y-51542857D01*
X185023809Y-51500000D01*
X185071428Y-51457142D01*
X185071428Y-51542857D01*
X184595238Y-51757142D02*
X184595238Y-52357142D01*
X184595238Y-51842857D02*
X184547619Y-51800000D01*
X184452380Y-51757142D01*
X184309523Y-51757142D01*
X184214285Y-51800000D01*
X184166666Y-51885714D01*
X184166666Y-52357142D01*
X183261904Y-52357142D02*
X183261904Y-51885714D01*
X183309523Y-51800000D01*
X183404761Y-51757142D01*
X183595238Y-51757142D01*
X183690476Y-51800000D01*
X183261904Y-52314285D02*
X183357142Y-52357142D01*
X183595238Y-52357142D01*
X183690476Y-52314285D01*
X183738095Y-52228571D01*
X183738095Y-52142857D01*
X183690476Y-52057142D01*
X183595238Y-52014285D01*
X183357142Y-52014285D01*
X183261904Y-51971428D01*
X182642857Y-52357142D02*
X182738095Y-52314285D01*
X182785714Y-52228571D01*
X182785714Y-51457142D01*
X182309523Y-52314285D02*
X182214285Y-52357142D01*
X182023809Y-52357142D01*
X181928571Y-52314285D01*
X181880952Y-52228571D01*
X181880952Y-52185714D01*
X181928571Y-52100000D01*
X182023809Y-52057142D01*
X182166666Y-52057142D01*
X182261904Y-52014285D01*
X182309523Y-51928571D01*
X182309523Y-51885714D01*
X182261904Y-51800000D01*
X182166666Y-51757142D01*
X182023809Y-51757142D01*
X181928571Y-51800000D01*
X180690476Y-52357142D02*
X180690476Y-51757142D01*
X180690476Y-51928571D02*
X180642857Y-51842857D01*
X180595238Y-51800000D01*
X180500000Y-51757142D01*
X180404761Y-51757142D01*
X179642857Y-52357142D02*
X179642857Y-51885714D01*
X179690476Y-51800000D01*
X179785714Y-51757142D01*
X179976190Y-51757142D01*
X180071428Y-51800000D01*
X179642857Y-52314285D02*
X179738095Y-52357142D01*
X179976190Y-52357142D01*
X180071428Y-52314285D01*
X180119047Y-52228571D01*
X180119047Y-52142857D01*
X180071428Y-52057142D01*
X179976190Y-52014285D01*
X179738095Y-52014285D01*
X179642857Y-51971428D01*
X179309523Y-51757142D02*
X178928571Y-51757142D01*
X179166666Y-51457142D02*
X179166666Y-52228571D01*
X179119047Y-52314285D01*
X179023809Y-52357142D01*
X178928571Y-52357142D01*
X178214285Y-52314285D02*
X178309523Y-52357142D01*
X178500000Y-52357142D01*
X178595238Y-52314285D01*
X178642857Y-52228571D01*
X178642857Y-51885714D01*
X178595238Y-51800000D01*
X178500000Y-51757142D01*
X178309523Y-51757142D01*
X178214285Y-51800000D01*
X178166666Y-51885714D01*
X178166666Y-51971428D01*
X178642857Y-52057142D01*
X177309523Y-52357142D02*
X177309523Y-51457142D01*
X177309523Y-52314285D02*
X177404761Y-52357142D01*
X177595238Y-52357142D01*
X177690476Y-52314285D01*
X177738095Y-52271428D01*
X177785714Y-52185714D01*
X177785714Y-51928571D01*
X177738095Y-51842857D01*
X177690476Y-51800000D01*
X177595238Y-51757142D01*
X177404761Y-51757142D01*
X177309523Y-51800000D01*
X176214285Y-51757142D02*
X175833333Y-51757142D01*
X176071428Y-52357142D02*
X176071428Y-51585714D01*
X176023809Y-51500000D01*
X175928571Y-51457142D01*
X175833333Y-51457142D01*
X175357142Y-52357142D02*
X175452380Y-52314285D01*
X175500000Y-52271428D01*
X175547619Y-52185714D01*
X175547619Y-51928571D01*
X175500000Y-51842857D01*
X175452380Y-51800000D01*
X175357142Y-51757142D01*
X175214285Y-51757142D01*
X175119047Y-51800000D01*
X175071428Y-51842857D01*
X175023809Y-51928571D01*
X175023809Y-52185714D01*
X175071428Y-52271428D01*
X175119047Y-52314285D01*
X175214285Y-52357142D01*
X175357142Y-52357142D01*
X174595238Y-52357142D02*
X174595238Y-51757142D01*
X174595238Y-51928571D02*
X174547619Y-51842857D01*
X174500000Y-51800000D01*
X174404761Y-51757142D01*
X174309523Y-51757142D01*
X173309523Y-51457142D02*
X172690476Y-51457142D01*
X173023809Y-51800000D01*
X172880952Y-51800000D01*
X172785714Y-51842857D01*
X172738095Y-51885714D01*
X172690476Y-51971428D01*
X172690476Y-52185714D01*
X172738095Y-52271428D01*
X172785714Y-52314285D01*
X172880952Y-52357142D01*
X173166666Y-52357142D01*
X173261904Y-52314285D01*
X173309523Y-52271428D01*
X172071428Y-51457142D02*
X171976190Y-51457142D01*
X171880952Y-51500000D01*
X171833333Y-51542857D01*
X171785714Y-51628571D01*
X171738095Y-51800000D01*
X171738095Y-52014285D01*
X171785714Y-52185714D01*
X171833333Y-52271428D01*
X171880952Y-52314285D01*
X171976190Y-52357142D01*
X172071428Y-52357142D01*
X172166666Y-52314285D01*
X172214285Y-52271428D01*
X172261904Y-52185714D01*
X172309523Y-52014285D01*
X172309523Y-51800000D01*
X172261904Y-51628571D01*
X172214285Y-51542857D01*
X172166666Y-51500000D01*
X172071428Y-51457142D01*
X170595238Y-52100000D02*
X170119047Y-52100000D01*
X170690476Y-52357142D02*
X170357142Y-51457142D01*
X170023809Y-52357142D01*
X168928571Y-52014285D02*
X168166666Y-52014285D01*
X166976190Y-52314285D02*
X166833333Y-52357142D01*
X166595238Y-52357142D01*
X166500000Y-52314285D01*
X166452380Y-52271428D01*
X166404761Y-52185714D01*
X166404761Y-52100000D01*
X166452380Y-52014285D01*
X166500000Y-51971428D01*
X166595238Y-51928571D01*
X166785714Y-51885714D01*
X166880952Y-51842857D01*
X166928571Y-51800000D01*
X166976190Y-51714285D01*
X166976190Y-51628571D01*
X166928571Y-51542857D01*
X166880952Y-51500000D01*
X166785714Y-51457142D01*
X166547619Y-51457142D01*
X166404761Y-51500000D01*
X165833333Y-52357142D02*
X165928571Y-52314285D01*
X165976190Y-52271428D01*
X166023809Y-52185714D01*
X166023809Y-51928571D01*
X165976190Y-51842857D01*
X165928571Y-51800000D01*
X165833333Y-51757142D01*
X165690476Y-51757142D01*
X165595238Y-51800000D01*
X165547619Y-51842857D01*
X165500000Y-51928571D01*
X165500000Y-52185714D01*
X165547619Y-52271428D01*
X165595238Y-52314285D01*
X165690476Y-52357142D01*
X165833333Y-52357142D01*
X164928571Y-52357142D02*
X165023809Y-52314285D01*
X165071428Y-52228571D01*
X165071428Y-51457142D01*
X164119047Y-52357142D02*
X164119047Y-51457142D01*
X164119047Y-52314285D02*
X164214285Y-52357142D01*
X164404761Y-52357142D01*
X164500000Y-52314285D01*
X164547619Y-52271428D01*
X164595238Y-52185714D01*
X164595238Y-51928571D01*
X164547619Y-51842857D01*
X164500000Y-51800000D01*
X164404761Y-51757142D01*
X164214285Y-51757142D01*
X164119047Y-51800000D01*
X163261904Y-52314285D02*
X163357142Y-52357142D01*
X163547619Y-52357142D01*
X163642857Y-52314285D01*
X163690476Y-52228571D01*
X163690476Y-51885714D01*
X163642857Y-51800000D01*
X163547619Y-51757142D01*
X163357142Y-51757142D01*
X163261904Y-51800000D01*
X163214285Y-51885714D01*
X163214285Y-51971428D01*
X163690476Y-52057142D01*
X162785714Y-52357142D02*
X162785714Y-51757142D01*
X162785714Y-51928571D02*
X162738095Y-51842857D01*
X162690476Y-51800000D01*
X162595238Y-51757142D01*
X162500000Y-51757142D01*
X160976190Y-52314285D02*
X161071428Y-52357142D01*
X161261904Y-52357142D01*
X161357142Y-52314285D01*
X161404761Y-52271428D01*
X161452380Y-52185714D01*
X161452380Y-51928571D01*
X161404761Y-51842857D01*
X161357142Y-51800000D01*
X161261904Y-51757142D01*
X161071428Y-51757142D01*
X160976190Y-51800000D01*
X160404761Y-52357142D02*
X160500000Y-52314285D01*
X160547619Y-52271428D01*
X160595238Y-52185714D01*
X160595238Y-51928571D01*
X160547619Y-51842857D01*
X160500000Y-51800000D01*
X160404761Y-51757142D01*
X160261904Y-51757142D01*
X160166666Y-51800000D01*
X160119047Y-51842857D01*
X160071428Y-51928571D01*
X160071428Y-52185714D01*
X160119047Y-52271428D01*
X160166666Y-52314285D01*
X160261904Y-52357142D01*
X160404761Y-52357142D01*
X159642857Y-51757142D02*
X159642857Y-52657142D01*
X159642857Y-51800000D02*
X159547619Y-51757142D01*
X159357142Y-51757142D01*
X159261904Y-51800000D01*
X159214285Y-51842857D01*
X159166666Y-51928571D01*
X159166666Y-52185714D01*
X159214285Y-52271428D01*
X159261904Y-52314285D01*
X159357142Y-52357142D01*
X159547619Y-52357142D01*
X159642857Y-52314285D01*
X158738095Y-51757142D02*
X158738095Y-52657142D01*
X158738095Y-51800000D02*
X158642857Y-51757142D01*
X158452380Y-51757142D01*
X158357142Y-51800000D01*
X158309523Y-51842857D01*
X158261904Y-51928571D01*
X158261904Y-52185714D01*
X158309523Y-52271428D01*
X158357142Y-52314285D01*
X158452380Y-52357142D01*
X158642857Y-52357142D01*
X158738095Y-52314285D01*
X157452380Y-52314285D02*
X157547619Y-52357142D01*
X157738095Y-52357142D01*
X157833333Y-52314285D01*
X157880952Y-52228571D01*
X157880952Y-51885714D01*
X157833333Y-51800000D01*
X157738095Y-51757142D01*
X157547619Y-51757142D01*
X157452380Y-51800000D01*
X157404761Y-51885714D01*
X157404761Y-51971428D01*
X157880952Y-52057142D01*
X156976190Y-52357142D02*
X156976190Y-51757142D01*
X156976190Y-51928571D02*
X156928571Y-51842857D01*
X156880952Y-51800000D01*
X156785714Y-51757142D01*
X156690476Y-51757142D01*
X155690476Y-51757142D02*
X155500000Y-52357142D01*
X155309523Y-51928571D01*
X155119047Y-52357142D01*
X154928571Y-51757142D01*
X154547619Y-52357142D02*
X154547619Y-51757142D01*
X154547619Y-51457142D02*
X154595238Y-51500000D01*
X154547619Y-51542857D01*
X154500000Y-51500000D01*
X154547619Y-51457142D01*
X154547619Y-51542857D01*
X154071428Y-52357142D02*
X154071428Y-51757142D01*
X154071428Y-51928571D02*
X154023809Y-51842857D01*
X153976190Y-51800000D01*
X153880952Y-51757142D01*
X153785714Y-51757142D01*
X153071428Y-52314285D02*
X153166666Y-52357142D01*
X153357142Y-52357142D01*
X153452380Y-52314285D01*
X153500000Y-52228571D01*
X153500000Y-51885714D01*
X153452380Y-51800000D01*
X153357142Y-51757142D01*
X153166666Y-51757142D01*
X153071428Y-51800000D01*
X153023809Y-51885714D01*
X153023809Y-51971428D01*
X153500000Y-52057142D01*
X152642857Y-52314285D02*
X152547619Y-52357142D01*
X152357142Y-52357142D01*
X152261904Y-52314285D01*
X152214285Y-52228571D01*
X152214285Y-52185714D01*
X152261904Y-52100000D01*
X152357142Y-52057142D01*
X152500000Y-52057142D01*
X152595238Y-52014285D01*
X152642857Y-51928571D01*
X152642857Y-51885714D01*
X152595238Y-51800000D01*
X152500000Y-51757142D01*
X152357142Y-51757142D01*
X152261904Y-51800000D01*
X150595238Y-52357142D02*
X150595238Y-51885714D01*
X150642857Y-51800000D01*
X150738095Y-51757142D01*
X150928571Y-51757142D01*
X151023809Y-51800000D01*
X150595238Y-52314285D02*
X150690476Y-52357142D01*
X150928571Y-52357142D01*
X151023809Y-52314285D01*
X151071428Y-52228571D01*
X151071428Y-52142857D01*
X151023809Y-52057142D01*
X150928571Y-52014285D01*
X150690476Y-52014285D01*
X150595238Y-51971428D01*
X149976190Y-52357142D02*
X150071428Y-52314285D01*
X150119047Y-52228571D01*
X150119047Y-51457142D01*
X149452380Y-52357142D02*
X149547619Y-52314285D01*
X149595238Y-52271428D01*
X149642857Y-52185714D01*
X149642857Y-51928571D01*
X149595238Y-51842857D01*
X149547619Y-51800000D01*
X149452380Y-51757142D01*
X149309523Y-51757142D01*
X149214285Y-51800000D01*
X149166666Y-51842857D01*
X149119047Y-51928571D01*
X149119047Y-52185714D01*
X149166666Y-52271428D01*
X149214285Y-52314285D01*
X149309523Y-52357142D01*
X149452380Y-52357142D01*
X148690476Y-51757142D02*
X148690476Y-52357142D01*
X148690476Y-51842857D02*
X148642857Y-51800000D01*
X148547619Y-51757142D01*
X148404761Y-51757142D01*
X148309523Y-51800000D01*
X148261904Y-51885714D01*
X148261904Y-52357142D01*
X147357142Y-51757142D02*
X147357142Y-52485714D01*
X147404761Y-52571428D01*
X147452380Y-52614285D01*
X147547619Y-52657142D01*
X147690476Y-52657142D01*
X147785714Y-52614285D01*
X147357142Y-52314285D02*
X147452380Y-52357142D01*
X147642857Y-52357142D01*
X147738095Y-52314285D01*
X147785714Y-52271428D01*
X147833333Y-52185714D01*
X147833333Y-51928571D01*
X147785714Y-51842857D01*
X147738095Y-51800000D01*
X147642857Y-51757142D01*
X147452380Y-51757142D01*
X147357142Y-51800000D01*
X145738095Y-52314285D02*
X145833333Y-52357142D01*
X146023809Y-52357142D01*
X146119047Y-52314285D01*
X146166666Y-52228571D01*
X146166666Y-51885714D01*
X146119047Y-51800000D01*
X146023809Y-51757142D01*
X145833333Y-51757142D01*
X145738095Y-51800000D01*
X145690476Y-51885714D01*
X145690476Y-51971428D01*
X146166666Y-52057142D01*
X145357142Y-52357142D02*
X144833333Y-51757142D01*
X145357142Y-51757142D02*
X144833333Y-52357142D01*
X144452380Y-51757142D02*
X144452380Y-52657142D01*
X144452380Y-51800000D02*
X144357142Y-51757142D01*
X144166666Y-51757142D01*
X144071428Y-51800000D01*
X144023809Y-51842857D01*
X143976190Y-51928571D01*
X143976190Y-52185714D01*
X144023809Y-52271428D01*
X144071428Y-52314285D01*
X144166666Y-52357142D01*
X144357142Y-52357142D01*
X144452380Y-52314285D01*
X143404761Y-52357142D02*
X143500000Y-52314285D01*
X143547619Y-52271428D01*
X143595238Y-52185714D01*
X143595238Y-51928571D01*
X143547619Y-51842857D01*
X143500000Y-51800000D01*
X143404761Y-51757142D01*
X143261904Y-51757142D01*
X143166666Y-51800000D01*
X143119047Y-51842857D01*
X143071428Y-51928571D01*
X143071428Y-52185714D01*
X143119047Y-52271428D01*
X143166666Y-52314285D01*
X143261904Y-52357142D01*
X143404761Y-52357142D01*
X142690476Y-52314285D02*
X142595238Y-52357142D01*
X142404761Y-52357142D01*
X142309523Y-52314285D01*
X142261904Y-52228571D01*
X142261904Y-52185714D01*
X142309523Y-52100000D01*
X142404761Y-52057142D01*
X142547619Y-52057142D01*
X142642857Y-52014285D01*
X142690476Y-51928571D01*
X142690476Y-51885714D01*
X142642857Y-51800000D01*
X142547619Y-51757142D01*
X142404761Y-51757142D01*
X142309523Y-51800000D01*
X141452380Y-52314285D02*
X141547619Y-52357142D01*
X141738095Y-52357142D01*
X141833333Y-52314285D01*
X141880952Y-52228571D01*
X141880952Y-51885714D01*
X141833333Y-51800000D01*
X141738095Y-51757142D01*
X141547619Y-51757142D01*
X141452380Y-51800000D01*
X141404761Y-51885714D01*
X141404761Y-51971428D01*
X141880952Y-52057142D01*
X140547619Y-52357142D02*
X140547619Y-51457142D01*
X140547619Y-52314285D02*
X140642857Y-52357142D01*
X140833333Y-52357142D01*
X140928571Y-52314285D01*
X140976190Y-52271428D01*
X141023809Y-52185714D01*
X141023809Y-51928571D01*
X140976190Y-51842857D01*
X140928571Y-51800000D01*
X140833333Y-51757142D01*
X140642857Y-51757142D01*
X140547619Y-51800000D01*
X138880952Y-52314285D02*
X138976190Y-52357142D01*
X139166666Y-52357142D01*
X139261904Y-52314285D01*
X139309523Y-52271428D01*
X139357142Y-52185714D01*
X139357142Y-51928571D01*
X139309523Y-51842857D01*
X139261904Y-51800000D01*
X139166666Y-51757142D01*
X138976190Y-51757142D01*
X138880952Y-51800000D01*
X138309523Y-52357142D02*
X138404761Y-52314285D01*
X138452380Y-52271428D01*
X138500000Y-52185714D01*
X138500000Y-51928571D01*
X138452380Y-51842857D01*
X138404761Y-51800000D01*
X138309523Y-51757142D01*
X138166666Y-51757142D01*
X138071428Y-51800000D01*
X138023809Y-51842857D01*
X137976190Y-51928571D01*
X137976190Y-52185714D01*
X138023809Y-52271428D01*
X138071428Y-52314285D01*
X138166666Y-52357142D01*
X138309523Y-52357142D01*
X137547619Y-51757142D02*
X137547619Y-52657142D01*
X137547619Y-51800000D02*
X137452380Y-51757142D01*
X137261904Y-51757142D01*
X137166666Y-51800000D01*
X137119047Y-51842857D01*
X137071428Y-51928571D01*
X137071428Y-52185714D01*
X137119047Y-52271428D01*
X137166666Y-52314285D01*
X137261904Y-52357142D01*
X137452380Y-52357142D01*
X137547619Y-52314285D01*
X136642857Y-51757142D02*
X136642857Y-52657142D01*
X136642857Y-51800000D02*
X136547619Y-51757142D01*
X136357142Y-51757142D01*
X136261904Y-51800000D01*
X136214285Y-51842857D01*
X136166666Y-51928571D01*
X136166666Y-52185714D01*
X136214285Y-52271428D01*
X136261904Y-52314285D01*
X136357142Y-52357142D01*
X136547619Y-52357142D01*
X136642857Y-52314285D01*
X135357142Y-52314285D02*
X135452380Y-52357142D01*
X135642857Y-52357142D01*
X135738095Y-52314285D01*
X135785714Y-52228571D01*
X135785714Y-51885714D01*
X135738095Y-51800000D01*
X135642857Y-51757142D01*
X135452380Y-51757142D01*
X135357142Y-51800000D01*
X135309523Y-51885714D01*
X135309523Y-51971428D01*
X135785714Y-52057142D01*
X134880952Y-52357142D02*
X134880952Y-51757142D01*
X134880952Y-51928571D02*
X134833333Y-51842857D01*
X134785714Y-51800000D01*
X134690476Y-51757142D01*
X134595238Y-51757142D01*
X133642857Y-51757142D02*
X133261904Y-51757142D01*
X133500000Y-51457142D02*
X133500000Y-52228571D01*
X133452380Y-52314285D01*
X133357142Y-52357142D01*
X133261904Y-52357142D01*
X132928571Y-52357142D02*
X132928571Y-51757142D01*
X132928571Y-51928571D02*
X132880952Y-51842857D01*
X132833333Y-51800000D01*
X132738095Y-51757142D01*
X132642857Y-51757142D01*
X131880952Y-52357142D02*
X131880952Y-51885714D01*
X131928571Y-51800000D01*
X132023809Y-51757142D01*
X132214285Y-51757142D01*
X132309523Y-51800000D01*
X131880952Y-52314285D02*
X131976190Y-52357142D01*
X132214285Y-52357142D01*
X132309523Y-52314285D01*
X132357142Y-52228571D01*
X132357142Y-52142857D01*
X132309523Y-52057142D01*
X132214285Y-52014285D01*
X131976190Y-52014285D01*
X131880952Y-51971428D01*
X130976190Y-52314285D02*
X131071428Y-52357142D01*
X131261904Y-52357142D01*
X131357142Y-52314285D01*
X131404761Y-52271428D01*
X131452380Y-52185714D01*
X131452380Y-51928571D01*
X131404761Y-51842857D01*
X131357142Y-51800000D01*
X131261904Y-51757142D01*
X131071428Y-51757142D01*
X130976190Y-51800000D01*
X130166666Y-52314285D02*
X130261904Y-52357142D01*
X130452380Y-52357142D01*
X130547619Y-52314285D01*
X130595238Y-52228571D01*
X130595238Y-51885714D01*
X130547619Y-51800000D01*
X130452380Y-51757142D01*
X130261904Y-51757142D01*
X130166666Y-51800000D01*
X130119047Y-51885714D01*
X130119047Y-51971428D01*
X130595238Y-52057142D01*
X129738095Y-52314285D02*
X129642857Y-52357142D01*
X129452380Y-52357142D01*
X129357142Y-52314285D01*
X129309523Y-52228571D01*
X129309523Y-52185714D01*
X129357142Y-52100000D01*
X129452380Y-52057142D01*
X129595238Y-52057142D01*
X129690476Y-52014285D01*
X129738095Y-51928571D01*
X129738095Y-51885714D01*
X129690476Y-51800000D01*
X129595238Y-51757142D01*
X129452380Y-51757142D01*
X129357142Y-51800000D01*
X128261904Y-51757142D02*
X127880952Y-51757142D01*
X128119047Y-52357142D02*
X128119047Y-51585714D01*
X128071428Y-51500000D01*
X127976190Y-51457142D01*
X127880952Y-51457142D01*
X127404761Y-52357142D02*
X127500000Y-52314285D01*
X127547619Y-52271428D01*
X127595238Y-52185714D01*
X127595238Y-51928571D01*
X127547619Y-51842857D01*
X127500000Y-51800000D01*
X127404761Y-51757142D01*
X127261904Y-51757142D01*
X127166666Y-51800000D01*
X127119047Y-51842857D01*
X127071428Y-51928571D01*
X127071428Y-52185714D01*
X127119047Y-52271428D01*
X127166666Y-52314285D01*
X127261904Y-52357142D01*
X127404761Y-52357142D01*
X126642857Y-52357142D02*
X126642857Y-51757142D01*
X126642857Y-51928571D02*
X126595238Y-51842857D01*
X126547619Y-51800000D01*
X126452380Y-51757142D01*
X126357142Y-51757142D01*
X125261904Y-52357142D02*
X125261904Y-51757142D01*
X125261904Y-51457142D02*
X125309523Y-51500000D01*
X125261904Y-51542857D01*
X125214285Y-51500000D01*
X125261904Y-51457142D01*
X125261904Y-51542857D01*
X124785714Y-51757142D02*
X124785714Y-52357142D01*
X124785714Y-51842857D02*
X124738095Y-51800000D01*
X124642857Y-51757142D01*
X124500000Y-51757142D01*
X124404761Y-51800000D01*
X124357142Y-51885714D01*
X124357142Y-52357142D01*
X123452380Y-52314285D02*
X123547619Y-52357142D01*
X123738095Y-52357142D01*
X123833333Y-52314285D01*
X123880952Y-52271428D01*
X123928571Y-52185714D01*
X123928571Y-51928571D01*
X123880952Y-51842857D01*
X123833333Y-51800000D01*
X123738095Y-51757142D01*
X123547619Y-51757142D01*
X123452380Y-51800000D01*
X123023809Y-52357142D02*
X123023809Y-51757142D01*
X123023809Y-51928571D02*
X122976190Y-51842857D01*
X122928571Y-51800000D01*
X122833333Y-51757142D01*
X122738095Y-51757142D01*
X122023809Y-52314285D02*
X122119047Y-52357142D01*
X122309523Y-52357142D01*
X122404761Y-52314285D01*
X122452380Y-52228571D01*
X122452380Y-51885714D01*
X122404761Y-51800000D01*
X122309523Y-51757142D01*
X122119047Y-51757142D01*
X122023809Y-51800000D01*
X121976190Y-51885714D01*
X121976190Y-51971428D01*
X122452380Y-52057142D01*
X121119047Y-52357142D02*
X121119047Y-51885714D01*
X121166666Y-51800000D01*
X121261904Y-51757142D01*
X121452380Y-51757142D01*
X121547619Y-51800000D01*
X121119047Y-52314285D02*
X121214285Y-52357142D01*
X121452380Y-52357142D01*
X121547619Y-52314285D01*
X121595238Y-52228571D01*
X121595238Y-52142857D01*
X121547619Y-52057142D01*
X121452380Y-52014285D01*
X121214285Y-52014285D01*
X121119047Y-51971428D01*
X120690476Y-52314285D02*
X120595238Y-52357142D01*
X120404761Y-52357142D01*
X120309523Y-52314285D01*
X120261904Y-52228571D01*
X120261904Y-52185714D01*
X120309523Y-52100000D01*
X120404761Y-52057142D01*
X120547619Y-52057142D01*
X120642857Y-52014285D01*
X120690476Y-51928571D01*
X120690476Y-51885714D01*
X120642857Y-51800000D01*
X120547619Y-51757142D01*
X120404761Y-51757142D01*
X120309523Y-51800000D01*
X119452380Y-52314285D02*
X119547619Y-52357142D01*
X119738095Y-52357142D01*
X119833333Y-52314285D01*
X119880952Y-52228571D01*
X119880952Y-51885714D01*
X119833333Y-51800000D01*
X119738095Y-51757142D01*
X119547619Y-51757142D01*
X119452380Y-51800000D01*
X119404761Y-51885714D01*
X119404761Y-51971428D01*
X119880952Y-52057142D01*
X118547619Y-52357142D02*
X118547619Y-51457142D01*
X118547619Y-52314285D02*
X118642857Y-52357142D01*
X118833333Y-52357142D01*
X118928571Y-52314285D01*
X118976190Y-52271428D01*
X119023809Y-52185714D01*
X119023809Y-51928571D01*
X118976190Y-51842857D01*
X118928571Y-51800000D01*
X118833333Y-51757142D01*
X118642857Y-51757142D01*
X118547619Y-51800000D01*
X116880952Y-52314285D02*
X116976190Y-52357142D01*
X117166666Y-52357142D01*
X117261904Y-52314285D01*
X117309523Y-52271428D01*
X117357142Y-52185714D01*
X117357142Y-51928571D01*
X117309523Y-51842857D01*
X117261904Y-51800000D01*
X117166666Y-51757142D01*
X116976190Y-51757142D01*
X116880952Y-51800000D01*
X116023809Y-51757142D02*
X116023809Y-52357142D01*
X116452380Y-51757142D02*
X116452380Y-52228571D01*
X116404761Y-52314285D01*
X116309523Y-52357142D01*
X116166666Y-52357142D01*
X116071428Y-52314285D01*
X116023809Y-52271428D01*
X115547619Y-52357142D02*
X115547619Y-51757142D01*
X115547619Y-51928571D02*
X115500000Y-51842857D01*
X115452380Y-51800000D01*
X115357142Y-51757142D01*
X115261904Y-51757142D01*
X114928571Y-52357142D02*
X114928571Y-51757142D01*
X114928571Y-51928571D02*
X114880952Y-51842857D01*
X114833333Y-51800000D01*
X114738095Y-51757142D01*
X114642857Y-51757142D01*
X113928571Y-52314285D02*
X114023809Y-52357142D01*
X114214285Y-52357142D01*
X114309523Y-52314285D01*
X114357142Y-52228571D01*
X114357142Y-51885714D01*
X114309523Y-51800000D01*
X114214285Y-51757142D01*
X114023809Y-51757142D01*
X113928571Y-51800000D01*
X113880952Y-51885714D01*
X113880952Y-51971428D01*
X114357142Y-52057142D01*
X113452380Y-51757142D02*
X113452380Y-52357142D01*
X113452380Y-51842857D02*
X113404761Y-51800000D01*
X113309523Y-51757142D01*
X113166666Y-51757142D01*
X113071428Y-51800000D01*
X113023809Y-51885714D01*
X113023809Y-52357142D01*
X112690476Y-51757142D02*
X112309523Y-51757142D01*
X112547619Y-51457142D02*
X112547619Y-52228571D01*
X112500000Y-52314285D01*
X112404761Y-52357142D01*
X112309523Y-52357142D01*
X111214285Y-52357142D02*
X111214285Y-51757142D01*
X111214285Y-51457142D02*
X111261904Y-51500000D01*
X111214285Y-51542857D01*
X111166666Y-51500000D01*
X111214285Y-51457142D01*
X111214285Y-51542857D01*
X110738095Y-51757142D02*
X110738095Y-52357142D01*
X110738095Y-51842857D02*
X110690476Y-51800000D01*
X110595238Y-51757142D01*
X110452380Y-51757142D01*
X110357142Y-51800000D01*
X110309523Y-51885714D01*
X110309523Y-52357142D01*
X109071428Y-52357142D02*
X109071428Y-51457142D01*
X108690476Y-51457142D01*
X108595238Y-51500000D01*
X108547619Y-51542857D01*
X108500000Y-51628571D01*
X108500000Y-51757142D01*
X108547619Y-51842857D01*
X108595238Y-51885714D01*
X108690476Y-51928571D01*
X109071428Y-51928571D01*
X107500000Y-52271428D02*
X107547619Y-52314285D01*
X107690476Y-52357142D01*
X107785714Y-52357142D01*
X107928571Y-52314285D01*
X108023809Y-52228571D01*
X108071428Y-52142857D01*
X108119047Y-51971428D01*
X108119047Y-51842857D01*
X108071428Y-51671428D01*
X108023809Y-51585714D01*
X107928571Y-51500000D01*
X107785714Y-51457142D01*
X107690476Y-51457142D01*
X107547619Y-51500000D01*
X107500000Y-51542857D01*
X106738095Y-51885714D02*
X106595238Y-51928571D01*
X106547619Y-51971428D01*
X106500000Y-52057142D01*
X106500000Y-52185714D01*
X106547619Y-52271428D01*
X106595238Y-52314285D01*
X106690476Y-52357142D01*
X107071428Y-52357142D01*
X107071428Y-51457142D01*
X106738095Y-51457142D01*
X106642857Y-51500000D01*
X106595238Y-51542857D01*
X106547619Y-51628571D01*
X106547619Y-51714285D01*
X106595238Y-51800000D01*
X106642857Y-51842857D01*
X106738095Y-51885714D01*
X107071428Y-51885714D01*
X105309523Y-52357142D02*
X105309523Y-51457142D01*
X104880952Y-52357142D02*
X104880952Y-51885714D01*
X104928571Y-51800000D01*
X105023809Y-51757142D01*
X105166666Y-51757142D01*
X105261904Y-51800000D01*
X105309523Y-51842857D01*
X103976190Y-52357142D02*
X103976190Y-51885714D01*
X104023809Y-51800000D01*
X104119047Y-51757142D01*
X104309523Y-51757142D01*
X104404761Y-51800000D01*
X103976190Y-52314285D02*
X104071428Y-52357142D01*
X104309523Y-52357142D01*
X104404761Y-52314285D01*
X104452380Y-52228571D01*
X104452380Y-52142857D01*
X104404761Y-52057142D01*
X104309523Y-52014285D01*
X104071428Y-52014285D01*
X103976190Y-51971428D01*
X103500000Y-51757142D02*
X103500000Y-52357142D01*
X103500000Y-51842857D02*
X103452380Y-51800000D01*
X103357142Y-51757142D01*
X103214285Y-51757142D01*
X103119047Y-51800000D01*
X103071428Y-51885714D01*
X103071428Y-52357142D01*
X102166666Y-52357142D02*
X102166666Y-51457142D01*
X102166666Y-52314285D02*
X102261904Y-52357142D01*
X102452380Y-52357142D01*
X102547619Y-52314285D01*
X102595238Y-52271428D01*
X102642857Y-52185714D01*
X102642857Y-51928571D01*
X102595238Y-51842857D01*
X102547619Y-51800000D01*
X102452380Y-51757142D01*
X102261904Y-51757142D01*
X102166666Y-51800000D01*
X101547619Y-52357142D02*
X101642857Y-52314285D01*
X101690476Y-52228571D01*
X101690476Y-51457142D01*
X101166666Y-52357142D02*
X101166666Y-51757142D01*
X101166666Y-51457142D02*
X101214285Y-51500000D01*
X101166666Y-51542857D01*
X101119047Y-51500000D01*
X101166666Y-51457142D01*
X101166666Y-51542857D01*
X100690476Y-51757142D02*
X100690476Y-52357142D01*
X100690476Y-51842857D02*
X100642857Y-51800000D01*
X100547619Y-51757142D01*
X100404761Y-51757142D01*
X100309523Y-51800000D01*
X100261904Y-51885714D01*
X100261904Y-52357142D01*
X99357142Y-51757142D02*
X99357142Y-52485714D01*
X99404761Y-52571428D01*
X99452380Y-52614285D01*
X99547619Y-52657142D01*
X99690476Y-52657142D01*
X99785714Y-52614285D01*
X99357142Y-52314285D02*
X99452380Y-52357142D01*
X99642857Y-52357142D01*
X99738095Y-52314285D01*
X99785714Y-52271428D01*
X99833333Y-52185714D01*
X99833333Y-51928571D01*
X99785714Y-51842857D01*
X99738095Y-51800000D01*
X99642857Y-51757142D01*
X99452380Y-51757142D01*
X99357142Y-51800000D01*
X177142857Y-53864285D02*
X177000000Y-53907142D01*
X176761904Y-53907142D01*
X176666666Y-53864285D01*
X176619047Y-53821428D01*
X176571428Y-53735714D01*
X176571428Y-53650000D01*
X176619047Y-53564285D01*
X176666666Y-53521428D01*
X176761904Y-53478571D01*
X176952380Y-53435714D01*
X177047619Y-53392857D01*
X177095238Y-53350000D01*
X177142857Y-53264285D01*
X177142857Y-53178571D01*
X177095238Y-53092857D01*
X177047619Y-53050000D01*
X176952380Y-53007142D01*
X176714285Y-53007142D01*
X176571428Y-53050000D01*
X176142857Y-53907142D02*
X176142857Y-53007142D01*
X175714285Y-53907142D02*
X175714285Y-53435714D01*
X175761904Y-53350000D01*
X175857142Y-53307142D01*
X176000000Y-53307142D01*
X176095238Y-53350000D01*
X176142857Y-53392857D01*
X175095238Y-53907142D02*
X175190476Y-53864285D01*
X175238095Y-53821428D01*
X175285714Y-53735714D01*
X175285714Y-53478571D01*
X175238095Y-53392857D01*
X175190476Y-53350000D01*
X175095238Y-53307142D01*
X174952380Y-53307142D01*
X174857142Y-53350000D01*
X174809523Y-53392857D01*
X174761904Y-53478571D01*
X174761904Y-53735714D01*
X174809523Y-53821428D01*
X174857142Y-53864285D01*
X174952380Y-53907142D01*
X175095238Y-53907142D01*
X174333333Y-53907142D02*
X174333333Y-53307142D01*
X174333333Y-53478571D02*
X174285714Y-53392857D01*
X174238095Y-53350000D01*
X174142857Y-53307142D01*
X174047619Y-53307142D01*
X173857142Y-53307142D02*
X173476190Y-53307142D01*
X173714285Y-53007142D02*
X173714285Y-53778571D01*
X173666666Y-53864285D01*
X173571428Y-53907142D01*
X173476190Y-53907142D01*
X172095238Y-53007142D02*
X172095238Y-53650000D01*
X172142857Y-53778571D01*
X172238095Y-53864285D01*
X172380952Y-53907142D01*
X172476190Y-53907142D01*
X171619047Y-53907142D02*
X171619047Y-53007142D01*
X171238095Y-53007142D01*
X171142857Y-53050000D01*
X171095238Y-53092857D01*
X171047619Y-53178571D01*
X171047619Y-53307142D01*
X171095238Y-53392857D01*
X171142857Y-53435714D01*
X171238095Y-53478571D01*
X171619047Y-53478571D01*
X170095238Y-53907142D02*
X170666666Y-53907142D01*
X170380952Y-53907142D02*
X170380952Y-53007142D01*
X170476190Y-53135714D01*
X170571428Y-53221428D01*
X170666666Y-53264285D01*
X169047619Y-53307142D02*
X168666666Y-53307142D01*
X168904761Y-53007142D02*
X168904761Y-53778571D01*
X168857142Y-53864285D01*
X168761904Y-53907142D01*
X168666666Y-53907142D01*
X168190476Y-53907142D02*
X168285714Y-53864285D01*
X168333333Y-53821428D01*
X168380952Y-53735714D01*
X168380952Y-53478571D01*
X168333333Y-53392857D01*
X168285714Y-53350000D01*
X168190476Y-53307142D01*
X168047619Y-53307142D01*
X167952380Y-53350000D01*
X167904761Y-53392857D01*
X167857142Y-53478571D01*
X167857142Y-53735714D01*
X167904761Y-53821428D01*
X167952380Y-53864285D01*
X168047619Y-53907142D01*
X168190476Y-53907142D01*
X166666666Y-53907142D02*
X166666666Y-53007142D01*
X166238095Y-53907142D02*
X166238095Y-53435714D01*
X166285714Y-53350000D01*
X166380952Y-53307142D01*
X166523809Y-53307142D01*
X166619047Y-53350000D01*
X166666666Y-53392857D01*
X165619047Y-53907142D02*
X165714285Y-53864285D01*
X165761904Y-53821428D01*
X165809523Y-53735714D01*
X165809523Y-53478571D01*
X165761904Y-53392857D01*
X165714285Y-53350000D01*
X165619047Y-53307142D01*
X165476190Y-53307142D01*
X165380952Y-53350000D01*
X165333333Y-53392857D01*
X165285714Y-53478571D01*
X165285714Y-53735714D01*
X165333333Y-53821428D01*
X165380952Y-53864285D01*
X165476190Y-53907142D01*
X165619047Y-53907142D01*
X164714285Y-53907142D02*
X164809523Y-53864285D01*
X164857142Y-53778571D01*
X164857142Y-53007142D01*
X163904761Y-53907142D02*
X163904761Y-53007142D01*
X163904761Y-53864285D02*
X164000000Y-53907142D01*
X164190476Y-53907142D01*
X164285714Y-53864285D01*
X164333333Y-53821428D01*
X164380952Y-53735714D01*
X164380952Y-53478571D01*
X164333333Y-53392857D01*
X164285714Y-53350000D01*
X164190476Y-53307142D01*
X164000000Y-53307142D01*
X163904761Y-53350000D01*
X162190476Y-53907142D02*
X162666666Y-53907142D01*
X162666666Y-53007142D01*
X161857142Y-53435714D02*
X161523809Y-53435714D01*
X161380952Y-53907142D02*
X161857142Y-53907142D01*
X161857142Y-53007142D01*
X161380952Y-53007142D01*
X160952380Y-53907142D02*
X160952380Y-53007142D01*
X160714285Y-53007142D01*
X160571428Y-53050000D01*
X160476190Y-53135714D01*
X160428571Y-53221428D01*
X160380952Y-53392857D01*
X160380952Y-53521428D01*
X160428571Y-53692857D01*
X160476190Y-53778571D01*
X160571428Y-53864285D01*
X160714285Y-53907142D01*
X160952380Y-53907142D01*
X160000000Y-53864285D02*
X159904761Y-53907142D01*
X159714285Y-53907142D01*
X159619047Y-53864285D01*
X159571428Y-53778571D01*
X159571428Y-53735714D01*
X159619047Y-53650000D01*
X159714285Y-53607142D01*
X159857142Y-53607142D01*
X159952380Y-53564285D01*
X160000000Y-53478571D01*
X160000000Y-53435714D01*
X159952380Y-53350000D01*
X159857142Y-53307142D01*
X159714285Y-53307142D01*
X159619047Y-53350000D01*
X158238095Y-53907142D02*
X158333333Y-53864285D01*
X158380952Y-53821428D01*
X158428571Y-53735714D01*
X158428571Y-53478571D01*
X158380952Y-53392857D01*
X158333333Y-53350000D01*
X158238095Y-53307142D01*
X158095238Y-53307142D01*
X158000000Y-53350000D01*
X157952380Y-53392857D01*
X157904761Y-53478571D01*
X157904761Y-53735714D01*
X157952380Y-53821428D01*
X158000000Y-53864285D01*
X158095238Y-53907142D01*
X158238095Y-53907142D01*
X157476190Y-53307142D02*
X157476190Y-53907142D01*
X157476190Y-53392857D02*
X157428571Y-53350000D01*
X157333333Y-53307142D01*
X157190476Y-53307142D01*
X157095238Y-53350000D01*
X157047619Y-53435714D01*
X157047619Y-53907142D01*
X155809523Y-53564285D02*
X155047619Y-53564285D01*
X153857142Y-53864285D02*
X153714285Y-53907142D01*
X153476190Y-53907142D01*
X153380952Y-53864285D01*
X153333333Y-53821428D01*
X153285714Y-53735714D01*
X153285714Y-53650000D01*
X153333333Y-53564285D01*
X153380952Y-53521428D01*
X153476190Y-53478571D01*
X153666666Y-53435714D01*
X153761904Y-53392857D01*
X153809523Y-53350000D01*
X153857142Y-53264285D01*
X153857142Y-53178571D01*
X153809523Y-53092857D01*
X153761904Y-53050000D01*
X153666666Y-53007142D01*
X153428571Y-53007142D01*
X153285714Y-53050000D01*
X152857142Y-53907142D02*
X152857142Y-53007142D01*
X152523809Y-53650000D01*
X152190476Y-53007142D01*
X152190476Y-53907142D01*
X151714285Y-53907142D02*
X151714285Y-53007142D01*
X151476190Y-53007142D01*
X151333333Y-53050000D01*
X151238095Y-53135714D01*
X151190476Y-53221428D01*
X151142857Y-53392857D01*
X151142857Y-53521428D01*
X151190476Y-53692857D01*
X151238095Y-53778571D01*
X151333333Y-53864285D01*
X151476190Y-53907142D01*
X151714285Y-53907142D01*
X149523809Y-53864285D02*
X149619047Y-53907142D01*
X149809523Y-53907142D01*
X149904761Y-53864285D01*
X149952380Y-53821428D01*
X150000000Y-53735714D01*
X150000000Y-53478571D01*
X149952380Y-53392857D01*
X149904761Y-53350000D01*
X149809523Y-53307142D01*
X149619047Y-53307142D01*
X149523809Y-53350000D01*
X148952380Y-53907142D02*
X149047619Y-53864285D01*
X149095238Y-53821428D01*
X149142857Y-53735714D01*
X149142857Y-53478571D01*
X149095238Y-53392857D01*
X149047619Y-53350000D01*
X148952380Y-53307142D01*
X148809523Y-53307142D01*
X148714285Y-53350000D01*
X148666666Y-53392857D01*
X148619047Y-53478571D01*
X148619047Y-53735714D01*
X148666666Y-53821428D01*
X148714285Y-53864285D01*
X148809523Y-53907142D01*
X148952380Y-53907142D01*
X148190476Y-53907142D02*
X148190476Y-53307142D01*
X148190476Y-53392857D02*
X148142857Y-53350000D01*
X148047619Y-53307142D01*
X147904761Y-53307142D01*
X147809523Y-53350000D01*
X147761904Y-53435714D01*
X147761904Y-53907142D01*
X147761904Y-53435714D02*
X147714285Y-53350000D01*
X147619047Y-53307142D01*
X147476190Y-53307142D01*
X147380952Y-53350000D01*
X147333333Y-53435714D01*
X147333333Y-53907142D01*
X146857142Y-53307142D02*
X146857142Y-54207142D01*
X146857142Y-53350000D02*
X146761904Y-53307142D01*
X146571428Y-53307142D01*
X146476190Y-53350000D01*
X146428571Y-53392857D01*
X146380952Y-53478571D01*
X146380952Y-53735714D01*
X146428571Y-53821428D01*
X146476190Y-53864285D01*
X146571428Y-53907142D01*
X146761904Y-53907142D01*
X146857142Y-53864285D01*
X145809523Y-53907142D02*
X145904761Y-53864285D01*
X145952380Y-53821428D01*
X146000000Y-53735714D01*
X146000000Y-53478571D01*
X145952380Y-53392857D01*
X145904761Y-53350000D01*
X145809523Y-53307142D01*
X145666666Y-53307142D01*
X145571428Y-53350000D01*
X145523809Y-53392857D01*
X145476190Y-53478571D01*
X145476190Y-53735714D01*
X145523809Y-53821428D01*
X145571428Y-53864285D01*
X145666666Y-53907142D01*
X145809523Y-53907142D01*
X145047619Y-53307142D02*
X145047619Y-53907142D01*
X145047619Y-53392857D02*
X145000000Y-53350000D01*
X144904761Y-53307142D01*
X144761904Y-53307142D01*
X144666666Y-53350000D01*
X144619047Y-53435714D01*
X144619047Y-53907142D01*
X143761904Y-53864285D02*
X143857142Y-53907142D01*
X144047619Y-53907142D01*
X144142857Y-53864285D01*
X144190476Y-53778571D01*
X144190476Y-53435714D01*
X144142857Y-53350000D01*
X144047619Y-53307142D01*
X143857142Y-53307142D01*
X143761904Y-53350000D01*
X143714285Y-53435714D01*
X143714285Y-53521428D01*
X144190476Y-53607142D01*
X143285714Y-53307142D02*
X143285714Y-53907142D01*
X143285714Y-53392857D02*
X143238095Y-53350000D01*
X143142857Y-53307142D01*
X143000000Y-53307142D01*
X142904761Y-53350000D01*
X142857142Y-53435714D01*
X142857142Y-53907142D01*
X142523809Y-53307142D02*
X142142857Y-53307142D01*
X142380952Y-53007142D02*
X142380952Y-53778571D01*
X142333333Y-53864285D01*
X142238095Y-53907142D01*
X142142857Y-53907142D01*
X141857142Y-53864285D02*
X141761904Y-53907142D01*
X141571428Y-53907142D01*
X141476190Y-53864285D01*
X141428571Y-53778571D01*
X141428571Y-53735714D01*
X141476190Y-53650000D01*
X141571428Y-53607142D01*
X141714285Y-53607142D01*
X141809523Y-53564285D01*
X141857142Y-53478571D01*
X141857142Y-53435714D01*
X141809523Y-53350000D01*
X141714285Y-53307142D01*
X141571428Y-53307142D01*
X141476190Y-53350000D01*
X139809523Y-53907142D02*
X139809523Y-53435714D01*
X139857142Y-53350000D01*
X139952380Y-53307142D01*
X140142857Y-53307142D01*
X140238095Y-53350000D01*
X139809523Y-53864285D02*
X139904761Y-53907142D01*
X140142857Y-53907142D01*
X140238095Y-53864285D01*
X140285714Y-53778571D01*
X140285714Y-53692857D01*
X140238095Y-53607142D01*
X140142857Y-53564285D01*
X139904761Y-53564285D01*
X139809523Y-53521428D01*
X139333333Y-53907142D02*
X139333333Y-53307142D01*
X139333333Y-53478571D02*
X139285714Y-53392857D01*
X139238095Y-53350000D01*
X139142857Y-53307142D01*
X139047619Y-53307142D01*
X138333333Y-53864285D02*
X138428571Y-53907142D01*
X138619047Y-53907142D01*
X138714285Y-53864285D01*
X138761904Y-53778571D01*
X138761904Y-53435714D01*
X138714285Y-53350000D01*
X138619047Y-53307142D01*
X138428571Y-53307142D01*
X138333333Y-53350000D01*
X138285714Y-53435714D01*
X138285714Y-53521428D01*
X138761904Y-53607142D01*
X136666666Y-53907142D02*
X136666666Y-53435714D01*
X136714285Y-53350000D01*
X136809523Y-53307142D01*
X137000000Y-53307142D01*
X137095238Y-53350000D01*
X136666666Y-53864285D02*
X136761904Y-53907142D01*
X137000000Y-53907142D01*
X137095238Y-53864285D01*
X137142857Y-53778571D01*
X137142857Y-53692857D01*
X137095238Y-53607142D01*
X137000000Y-53564285D01*
X136761904Y-53564285D01*
X136666666Y-53521428D01*
X136047619Y-53907142D02*
X136142857Y-53864285D01*
X136190476Y-53778571D01*
X136190476Y-53007142D01*
X135809523Y-53307142D02*
X135428571Y-53307142D01*
X135666666Y-53007142D02*
X135666666Y-53778571D01*
X135619047Y-53864285D01*
X135523809Y-53907142D01*
X135428571Y-53907142D01*
X134714285Y-53864285D02*
X134809523Y-53907142D01*
X135000000Y-53907142D01*
X135095238Y-53864285D01*
X135142857Y-53778571D01*
X135142857Y-53435714D01*
X135095238Y-53350000D01*
X135000000Y-53307142D01*
X134809523Y-53307142D01*
X134714285Y-53350000D01*
X134666666Y-53435714D01*
X134666666Y-53521428D01*
X135142857Y-53607142D01*
X134238095Y-53907142D02*
X134238095Y-53307142D01*
X134238095Y-53478571D02*
X134190476Y-53392857D01*
X134142857Y-53350000D01*
X134047619Y-53307142D01*
X133952380Y-53307142D01*
X133619047Y-53307142D02*
X133619047Y-53907142D01*
X133619047Y-53392857D02*
X133571428Y-53350000D01*
X133476190Y-53307142D01*
X133333333Y-53307142D01*
X133238095Y-53350000D01*
X133190476Y-53435714D01*
X133190476Y-53907142D01*
X132285714Y-53907142D02*
X132285714Y-53435714D01*
X132333333Y-53350000D01*
X132428571Y-53307142D01*
X132619047Y-53307142D01*
X132714285Y-53350000D01*
X132285714Y-53864285D02*
X132380952Y-53907142D01*
X132619047Y-53907142D01*
X132714285Y-53864285D01*
X132761904Y-53778571D01*
X132761904Y-53692857D01*
X132714285Y-53607142D01*
X132619047Y-53564285D01*
X132380952Y-53564285D01*
X132285714Y-53521428D01*
X131952380Y-53307142D02*
X131571428Y-53307142D01*
X131809523Y-53007142D02*
X131809523Y-53778571D01*
X131761904Y-53864285D01*
X131666666Y-53907142D01*
X131571428Y-53907142D01*
X130857142Y-53864285D02*
X130952380Y-53907142D01*
X131142857Y-53907142D01*
X131238095Y-53864285D01*
X131285714Y-53778571D01*
X131285714Y-53435714D01*
X131238095Y-53350000D01*
X131142857Y-53307142D01*
X130952380Y-53307142D01*
X130857142Y-53350000D01*
X130809523Y-53435714D01*
X130809523Y-53521428D01*
X131285714Y-53607142D01*
X130428571Y-53864285D02*
X130333333Y-53907142D01*
X130142857Y-53907142D01*
X130047619Y-53864285D01*
X130000000Y-53778571D01*
X130000000Y-53735714D01*
X130047619Y-53650000D01*
X130142857Y-53607142D01*
X130285714Y-53607142D01*
X130380952Y-53564285D01*
X130428571Y-53478571D01*
X130428571Y-53435714D01*
X130380952Y-53350000D01*
X130285714Y-53307142D01*
X130142857Y-53307142D01*
X130047619Y-53350000D01*
X128952380Y-53307142D02*
X128571428Y-53307142D01*
X128809523Y-53907142D02*
X128809523Y-53135714D01*
X128761904Y-53050000D01*
X128666666Y-53007142D01*
X128571428Y-53007142D01*
X128095238Y-53907142D02*
X128190476Y-53864285D01*
X128238095Y-53821428D01*
X128285714Y-53735714D01*
X128285714Y-53478571D01*
X128238095Y-53392857D01*
X128190476Y-53350000D01*
X128095238Y-53307142D01*
X127952380Y-53307142D01*
X127857142Y-53350000D01*
X127809523Y-53392857D01*
X127761904Y-53478571D01*
X127761904Y-53735714D01*
X127809523Y-53821428D01*
X127857142Y-53864285D01*
X127952380Y-53907142D01*
X128095238Y-53907142D01*
X127333333Y-53907142D02*
X127333333Y-53307142D01*
X127333333Y-53478571D02*
X127285714Y-53392857D01*
X127238095Y-53350000D01*
X127142857Y-53307142D01*
X127047619Y-53307142D01*
X126095238Y-53007142D02*
X125523809Y-53007142D01*
X125809523Y-53907142D02*
X125809523Y-53007142D01*
X125190476Y-53907142D02*
X125190476Y-53007142D01*
X125190476Y-53435714D02*
X124619047Y-53435714D01*
X124619047Y-53907142D02*
X124619047Y-53007142D01*
X122952380Y-53864285D02*
X123047619Y-53907142D01*
X123238095Y-53907142D01*
X123333333Y-53864285D01*
X123380952Y-53821428D01*
X123428571Y-53735714D01*
X123428571Y-53478571D01*
X123380952Y-53392857D01*
X123333333Y-53350000D01*
X123238095Y-53307142D01*
X123047619Y-53307142D01*
X122952380Y-53350000D01*
X122380952Y-53907142D02*
X122476190Y-53864285D01*
X122523809Y-53821428D01*
X122571428Y-53735714D01*
X122571428Y-53478571D01*
X122523809Y-53392857D01*
X122476190Y-53350000D01*
X122380952Y-53307142D01*
X122238095Y-53307142D01*
X122142857Y-53350000D01*
X122095238Y-53392857D01*
X122047619Y-53478571D01*
X122047619Y-53735714D01*
X122095238Y-53821428D01*
X122142857Y-53864285D01*
X122238095Y-53907142D01*
X122380952Y-53907142D01*
X121619047Y-53907142D02*
X121619047Y-53307142D01*
X121619047Y-53392857D02*
X121571428Y-53350000D01*
X121476190Y-53307142D01*
X121333333Y-53307142D01*
X121238095Y-53350000D01*
X121190476Y-53435714D01*
X121190476Y-53907142D01*
X121190476Y-53435714D02*
X121142857Y-53350000D01*
X121047619Y-53307142D01*
X120904761Y-53307142D01*
X120809523Y-53350000D01*
X120761904Y-53435714D01*
X120761904Y-53907142D01*
X120285714Y-53307142D02*
X120285714Y-54207142D01*
X120285714Y-53350000D02*
X120190476Y-53307142D01*
X120000000Y-53307142D01*
X119904761Y-53350000D01*
X119857142Y-53392857D01*
X119809523Y-53478571D01*
X119809523Y-53735714D01*
X119857142Y-53821428D01*
X119904761Y-53864285D01*
X120000000Y-53907142D01*
X120190476Y-53907142D01*
X120285714Y-53864285D01*
X119238095Y-53907142D02*
X119333333Y-53864285D01*
X119380952Y-53821428D01*
X119428571Y-53735714D01*
X119428571Y-53478571D01*
X119380952Y-53392857D01*
X119333333Y-53350000D01*
X119238095Y-53307142D01*
X119095238Y-53307142D01*
X119000000Y-53350000D01*
X118952380Y-53392857D01*
X118904761Y-53478571D01*
X118904761Y-53735714D01*
X118952380Y-53821428D01*
X119000000Y-53864285D01*
X119095238Y-53907142D01*
X119238095Y-53907142D01*
X118476190Y-53307142D02*
X118476190Y-53907142D01*
X118476190Y-53392857D02*
X118428571Y-53350000D01*
X118333333Y-53307142D01*
X118190476Y-53307142D01*
X118095238Y-53350000D01*
X118047619Y-53435714D01*
X118047619Y-53907142D01*
X117190476Y-53864285D02*
X117285714Y-53907142D01*
X117476190Y-53907142D01*
X117571428Y-53864285D01*
X117619047Y-53778571D01*
X117619047Y-53435714D01*
X117571428Y-53350000D01*
X117476190Y-53307142D01*
X117285714Y-53307142D01*
X117190476Y-53350000D01*
X117142857Y-53435714D01*
X117142857Y-53521428D01*
X117619047Y-53607142D01*
X116714285Y-53307142D02*
X116714285Y-53907142D01*
X116714285Y-53392857D02*
X116666666Y-53350000D01*
X116571428Y-53307142D01*
X116428571Y-53307142D01*
X116333333Y-53350000D01*
X116285714Y-53435714D01*
X116285714Y-53907142D01*
X115952380Y-53307142D02*
X115571428Y-53307142D01*
X115809523Y-53007142D02*
X115809523Y-53778571D01*
X115761904Y-53864285D01*
X115666666Y-53907142D01*
X115571428Y-53907142D01*
X115285714Y-53864285D02*
X115190476Y-53907142D01*
X115000000Y-53907142D01*
X114904761Y-53864285D01*
X114857142Y-53778571D01*
X114857142Y-53735714D01*
X114904761Y-53650000D01*
X115000000Y-53607142D01*
X115142857Y-53607142D01*
X115238095Y-53564285D01*
X115285714Y-53478571D01*
X115285714Y-53435714D01*
X115238095Y-53350000D01*
X115142857Y-53307142D01*
X115000000Y-53307142D01*
X114904761Y-53350000D01*
X170190476Y-54857142D02*
X170190476Y-55457142D01*
X170428571Y-54514285D02*
X170666666Y-55157142D01*
X170047619Y-55157142D01*
X169476190Y-54557142D02*
X169380952Y-54557142D01*
X169285714Y-54600000D01*
X169238095Y-54642857D01*
X169190476Y-54728571D01*
X169142857Y-54900000D01*
X169142857Y-55114285D01*
X169190476Y-55285714D01*
X169238095Y-55371428D01*
X169285714Y-55414285D01*
X169380952Y-55457142D01*
X169476190Y-55457142D01*
X169571428Y-55414285D01*
X169619047Y-55371428D01*
X169666666Y-55285714D01*
X169714285Y-55114285D01*
X169714285Y-54900000D01*
X169666666Y-54728571D01*
X169619047Y-54642857D01*
X169571428Y-54600000D01*
X169476190Y-54557142D01*
X167857142Y-54857142D02*
X167285714Y-55371428D01*
X167285714Y-54857142D02*
X167857142Y-55371428D01*
X165428571Y-55457142D02*
X165999999Y-55457142D01*
X165714285Y-55457142D02*
X165714285Y-54557142D01*
X165809523Y-54685714D01*
X165904761Y-54771428D01*
X165999999Y-54814285D01*
X165095238Y-54557142D02*
X164476190Y-54557142D01*
X164809523Y-54900000D01*
X164666666Y-54900000D01*
X164571428Y-54942857D01*
X164523809Y-54985714D01*
X164476190Y-55071428D01*
X164476190Y-55285714D01*
X164523809Y-55371428D01*
X164571428Y-55414285D01*
X164666666Y-55457142D01*
X164952380Y-55457142D01*
X165047619Y-55414285D01*
X165095238Y-55371428D01*
X163857142Y-54557142D02*
X163761904Y-54557142D01*
X163666666Y-54600000D01*
X163619047Y-54642857D01*
X163571428Y-54728571D01*
X163523809Y-54900000D01*
X163523809Y-55114285D01*
X163571428Y-55285714D01*
X163619047Y-55371428D01*
X163666666Y-55414285D01*
X163761904Y-55457142D01*
X163857142Y-55457142D01*
X163952380Y-55414285D01*
X163999999Y-55371428D01*
X164047619Y-55285714D01*
X164095238Y-55114285D01*
X164095238Y-54900000D01*
X164047619Y-54728571D01*
X163999999Y-54642857D01*
X163952380Y-54600000D01*
X163857142Y-54557142D01*
X162333333Y-55457142D02*
X162333333Y-54857142D01*
X162333333Y-54942857D02*
X162285714Y-54900000D01*
X162190476Y-54857142D01*
X162047619Y-54857142D01*
X161952380Y-54900000D01*
X161904761Y-54985714D01*
X161904761Y-55457142D01*
X161904761Y-54985714D02*
X161857142Y-54900000D01*
X161761904Y-54857142D01*
X161619047Y-54857142D01*
X161523809Y-54900000D01*
X161476190Y-54985714D01*
X161476190Y-55457142D01*
X160999999Y-55457142D02*
X160999999Y-54857142D01*
X160999999Y-54942857D02*
X160952380Y-54900000D01*
X160857142Y-54857142D01*
X160714285Y-54857142D01*
X160619047Y-54900000D01*
X160571428Y-54985714D01*
X160571428Y-55457142D01*
X160571428Y-54985714D02*
X160523809Y-54900000D01*
X160428571Y-54857142D01*
X160285714Y-54857142D01*
X160190476Y-54900000D01*
X160142857Y-54985714D01*
X160142857Y-55457142D01*
X158904761Y-55114285D02*
X158142857Y-55114285D01*
X156999999Y-54557142D02*
X156380952Y-54557142D01*
X156714285Y-54900000D01*
X156571428Y-54900000D01*
X156476190Y-54942857D01*
X156428571Y-54985714D01*
X156380952Y-55071428D01*
X156380952Y-55285714D01*
X156428571Y-55371428D01*
X156476190Y-55414285D01*
X156571428Y-55457142D01*
X156857142Y-55457142D01*
X156952380Y-55414285D01*
X156999999Y-55371428D01*
X155952380Y-55371428D02*
X155904761Y-55414285D01*
X155952380Y-55457142D01*
X155999999Y-55414285D01*
X155952380Y-55371428D01*
X155952380Y-55457142D01*
X154999999Y-54557142D02*
X155476190Y-54557142D01*
X155523809Y-54985714D01*
X155476190Y-54942857D01*
X155380952Y-54900000D01*
X155142857Y-54900000D01*
X155047619Y-54942857D01*
X154999999Y-54985714D01*
X154952380Y-55071428D01*
X154952380Y-55285714D01*
X154999999Y-55371428D01*
X155047619Y-55414285D01*
X155142857Y-55457142D01*
X155380952Y-55457142D01*
X155476190Y-55414285D01*
X155523809Y-55371428D01*
X154523809Y-55457142D02*
X154523809Y-54857142D01*
X154523809Y-54942857D02*
X154476190Y-54900000D01*
X154380952Y-54857142D01*
X154238095Y-54857142D01*
X154142857Y-54900000D01*
X154095238Y-54985714D01*
X154095238Y-55457142D01*
X154095238Y-54985714D02*
X154047619Y-54900000D01*
X153952380Y-54857142D01*
X153809523Y-54857142D01*
X153714285Y-54900000D01*
X153666666Y-54985714D01*
X153666666Y-55457142D01*
X153190476Y-55457142D02*
X153190476Y-54857142D01*
X153190476Y-54942857D02*
X153142857Y-54900000D01*
X153047619Y-54857142D01*
X152904761Y-54857142D01*
X152809523Y-54900000D01*
X152761904Y-54985714D01*
X152761904Y-55457142D01*
X152761904Y-54985714D02*
X152714285Y-54900000D01*
X152619047Y-54857142D01*
X152476190Y-54857142D01*
X152380952Y-54900000D01*
X152333333Y-54985714D01*
X152333333Y-55457142D01*
X151095238Y-55457142D02*
X151095238Y-54557142D01*
X150666666Y-55457142D02*
X150666666Y-54985714D01*
X150714285Y-54900000D01*
X150809523Y-54857142D01*
X150952380Y-54857142D01*
X151047619Y-54900000D01*
X151095238Y-54942857D01*
X150047619Y-55457142D02*
X150142857Y-55414285D01*
X150190476Y-55371428D01*
X150238095Y-55285714D01*
X150238095Y-55028571D01*
X150190476Y-54942857D01*
X150142857Y-54900000D01*
X150047619Y-54857142D01*
X149904761Y-54857142D01*
X149809523Y-54900000D01*
X149761904Y-54942857D01*
X149714285Y-55028571D01*
X149714285Y-55285714D01*
X149761904Y-55371428D01*
X149809523Y-55414285D01*
X149904761Y-55457142D01*
X150047619Y-55457142D01*
X149142857Y-55457142D02*
X149238095Y-55414285D01*
X149285714Y-55328571D01*
X149285714Y-54557142D01*
X148380952Y-55414285D02*
X148476190Y-55457142D01*
X148666666Y-55457142D01*
X148761904Y-55414285D01*
X148809523Y-55328571D01*
X148809523Y-54985714D01*
X148761904Y-54900000D01*
X148666666Y-54857142D01*
X148476190Y-54857142D01*
X148380952Y-54900000D01*
X148333333Y-54985714D01*
X148333333Y-55071428D01*
X148809523Y-55157142D01*
X147952380Y-55414285D02*
X147857142Y-55457142D01*
X147666666Y-55457142D01*
X147571428Y-55414285D01*
X147523809Y-55328571D01*
X147523809Y-55285714D01*
X147571428Y-55200000D01*
X147666666Y-55157142D01*
X147809523Y-55157142D01*
X147904761Y-55114285D01*
X147952380Y-55028571D01*
X147952380Y-54985714D01*
X147904761Y-54900000D01*
X147809523Y-54857142D01*
X147666666Y-54857142D01*
X147571428Y-54900000D01*
X145904761Y-55457142D02*
X145904761Y-54985714D01*
X145952380Y-54900000D01*
X146047619Y-54857142D01*
X146238095Y-54857142D01*
X146333333Y-54900000D01*
X145904761Y-55414285D02*
X145999999Y-55457142D01*
X146238095Y-55457142D01*
X146333333Y-55414285D01*
X146380952Y-55328571D01*
X146380952Y-55242857D01*
X146333333Y-55157142D01*
X146238095Y-55114285D01*
X145999999Y-55114285D01*
X145904761Y-55071428D01*
X145571428Y-54857142D02*
X145190476Y-54857142D01*
X145428571Y-54557142D02*
X145428571Y-55328571D01*
X145380952Y-55414285D01*
X145285714Y-55457142D01*
X145190476Y-55457142D01*
X144142857Y-54642857D02*
X144095238Y-54600000D01*
X143999999Y-54557142D01*
X143761904Y-54557142D01*
X143666666Y-54600000D01*
X143619047Y-54642857D01*
X143571428Y-54728571D01*
X143571428Y-54814285D01*
X143619047Y-54942857D01*
X144190476Y-55457142D01*
X143571428Y-55457142D01*
X142952380Y-54557142D02*
X142857142Y-54557142D01*
X142761904Y-54600000D01*
X142714285Y-54642857D01*
X142666666Y-54728571D01*
X142619047Y-54900000D01*
X142619047Y-55114285D01*
X142666666Y-55285714D01*
X142714285Y-55371428D01*
X142761904Y-55414285D01*
X142857142Y-55457142D01*
X142952380Y-55457142D01*
X143047619Y-55414285D01*
X143095238Y-55371428D01*
X143142857Y-55285714D01*
X143190476Y-55114285D01*
X143190476Y-54900000D01*
X143142857Y-54728571D01*
X143095238Y-54642857D01*
X143047619Y-54600000D01*
X142952380Y-54557142D01*
X141333333Y-54857142D02*
X140761904Y-55371428D01*
X140761904Y-54857142D02*
X141333333Y-55371428D01*
X138904761Y-55457142D02*
X139476190Y-55457142D01*
X139190476Y-55457142D02*
X139190476Y-54557142D01*
X139285714Y-54685714D01*
X139380952Y-54771428D01*
X139476190Y-54814285D01*
X138571428Y-54557142D02*
X137952380Y-54557142D01*
X138285714Y-54900000D01*
X138142857Y-54900000D01*
X138047619Y-54942857D01*
X137999999Y-54985714D01*
X137952380Y-55071428D01*
X137952380Y-55285714D01*
X137999999Y-55371428D01*
X138047619Y-55414285D01*
X138142857Y-55457142D01*
X138428571Y-55457142D01*
X138523809Y-55414285D01*
X138571428Y-55371428D01*
X137333333Y-54557142D02*
X137238095Y-54557142D01*
X137142857Y-54600000D01*
X137095238Y-54642857D01*
X137047619Y-54728571D01*
X136999999Y-54900000D01*
X136999999Y-55114285D01*
X137047619Y-55285714D01*
X137095238Y-55371428D01*
X137142857Y-55414285D01*
X137238095Y-55457142D01*
X137333333Y-55457142D01*
X137428571Y-55414285D01*
X137476190Y-55371428D01*
X137523809Y-55285714D01*
X137571428Y-55114285D01*
X137571428Y-54900000D01*
X137523809Y-54728571D01*
X137476190Y-54642857D01*
X137428571Y-54600000D01*
X137333333Y-54557142D01*
X135809523Y-55457142D02*
X135809523Y-54857142D01*
X135809523Y-54942857D02*
X135761904Y-54900000D01*
X135666666Y-54857142D01*
X135523809Y-54857142D01*
X135428571Y-54900000D01*
X135380952Y-54985714D01*
X135380952Y-55457142D01*
X135380952Y-54985714D02*
X135333333Y-54900000D01*
X135238095Y-54857142D01*
X135095238Y-54857142D01*
X134999999Y-54900000D01*
X134952380Y-54985714D01*
X134952380Y-55457142D01*
X134476190Y-55457142D02*
X134476190Y-54857142D01*
X134476190Y-54942857D02*
X134428571Y-54900000D01*
X134333333Y-54857142D01*
X134190476Y-54857142D01*
X134095238Y-54900000D01*
X134047619Y-54985714D01*
X134047619Y-55457142D01*
X134047619Y-54985714D02*
X133999999Y-54900000D01*
X133904761Y-54857142D01*
X133761904Y-54857142D01*
X133666666Y-54900000D01*
X133619047Y-54985714D01*
X133619047Y-55457142D01*
X132380952Y-55114285D02*
X131619047Y-55114285D01*
X130380952Y-55457142D02*
X130380952Y-54557142D01*
X129809523Y-55457142D01*
X129809523Y-54557142D01*
X128666666Y-54557142D02*
X129428571Y-55457142D01*
X129142857Y-55457142D02*
X129238095Y-55414285D01*
X129333333Y-55328571D01*
X129380952Y-55157142D01*
X129380952Y-54857142D01*
X129333333Y-54685714D01*
X129238095Y-54600000D01*
X129142857Y-54557142D01*
X128952380Y-54557142D01*
X128857142Y-54600000D01*
X128761904Y-54685714D01*
X128714285Y-54857142D01*
X128714285Y-55157142D01*
X128761904Y-55328571D01*
X128857142Y-55414285D01*
X128952380Y-55457142D01*
X129142857Y-55457142D01*
X127761904Y-54600000D02*
X127857142Y-54557142D01*
X127999999Y-54557142D01*
X128142857Y-54600000D01*
X128238095Y-54685714D01*
X128285714Y-54771428D01*
X128333333Y-54942857D01*
X128333333Y-55071428D01*
X128285714Y-55242857D01*
X128238095Y-55328571D01*
X128142857Y-55414285D01*
X127999999Y-55457142D01*
X127904761Y-55457142D01*
X127761904Y-55414285D01*
X127714285Y-55371428D01*
X127714285Y-55071428D01*
X127904761Y-55071428D01*
X127285714Y-55457142D02*
X127285714Y-54557142D01*
X127285714Y-54985714D02*
X126714285Y-54985714D01*
X126714285Y-55457142D02*
X126714285Y-54557142D01*
X126380952Y-54557142D02*
X125809523Y-54557142D01*
X126095238Y-55457142D02*
X126095238Y-54557142D01*
X124761904Y-54642857D02*
X124714285Y-54600000D01*
X124619047Y-54557142D01*
X124380952Y-54557142D01*
X124285714Y-54600000D01*
X124238095Y-54642857D01*
X124190476Y-54728571D01*
X124190476Y-54814285D01*
X124238095Y-54942857D01*
X124809523Y-55457142D01*
X124190476Y-55457142D01*
X123571428Y-54557142D02*
X123476190Y-54557142D01*
X123380952Y-54600000D01*
X123333333Y-54642857D01*
X123285714Y-54728571D01*
X123238095Y-54900000D01*
X123238095Y-55114285D01*
X123285714Y-55285714D01*
X123333333Y-55371428D01*
X123380952Y-55414285D01*
X123476190Y-55457142D01*
X123571428Y-55457142D01*
X123666666Y-55414285D01*
X123714285Y-55371428D01*
X123761904Y-55285714D01*
X123809523Y-55114285D01*
X123809523Y-54900000D01*
X123761904Y-54728571D01*
X123714285Y-54642857D01*
X123666666Y-54600000D01*
X123571428Y-54557142D01*
X122857142Y-54642857D02*
X122809523Y-54600000D01*
X122714285Y-54557142D01*
X122476190Y-54557142D01*
X122380952Y-54600000D01*
X122333333Y-54642857D01*
X122285714Y-54728571D01*
X122285714Y-54814285D01*
X122333333Y-54942857D01*
X122904761Y-55457142D01*
X122285714Y-55457142D01*
X121666666Y-54557142D02*
X121571428Y-54557142D01*
X121476190Y-54600000D01*
X121428571Y-54642857D01*
X121380952Y-54728571D01*
X121333333Y-54900000D01*
X121333333Y-55114285D01*
X121380952Y-55285714D01*
X121428571Y-55371428D01*
X121476190Y-55414285D01*
X121571428Y-55457142D01*
X121666666Y-55457142D01*
X121761904Y-55414285D01*
X121809523Y-55371428D01*
X121857142Y-55285714D01*
X121904761Y-55114285D01*
X121904761Y-54900000D01*
X121857142Y-54728571D01*
X121809523Y-54642857D01*
X121761904Y-54600000D01*
X121666666Y-54557142D01*
D11*
X167428571Y-49892857D02*
X167928571Y-49892857D01*
X167928571Y-50678571D02*
X167928571Y-49178571D01*
X167214285Y-49178571D01*
X166428571Y-50678571D02*
X166571428Y-50607142D01*
X166642857Y-50464285D01*
X166642857Y-49178571D01*
X165214285Y-50678571D02*
X165214285Y-49892857D01*
X165285714Y-49750000D01*
X165428571Y-49678571D01*
X165714285Y-49678571D01*
X165857142Y-49750000D01*
X165214285Y-50607142D02*
X165357142Y-50678571D01*
X165714285Y-50678571D01*
X165857142Y-50607142D01*
X165928571Y-50464285D01*
X165928571Y-50321428D01*
X165857142Y-50178571D01*
X165714285Y-50107142D01*
X165357142Y-50107142D01*
X165214285Y-50035714D01*
X164714285Y-49678571D02*
X164142857Y-49678571D01*
X164500000Y-49178571D02*
X164500000Y-50464285D01*
X164428571Y-50607142D01*
X164285714Y-50678571D01*
X164142857Y-50678571D01*
X162500000Y-50678571D02*
X162500000Y-49178571D01*
X161928571Y-49178571D01*
X161785714Y-49250000D01*
X161714285Y-49321428D01*
X161642857Y-49464285D01*
X161642857Y-49678571D01*
X161714285Y-49821428D01*
X161785714Y-49892857D01*
X161928571Y-49964285D01*
X162500000Y-49964285D01*
X160785714Y-50678571D02*
X160928571Y-50607142D01*
X161000000Y-50535714D01*
X161071428Y-50392857D01*
X161071428Y-49964285D01*
X161000000Y-49821428D01*
X160928571Y-49750000D01*
X160785714Y-49678571D01*
X160571428Y-49678571D01*
X160428571Y-49750000D01*
X160357142Y-49821428D01*
X160285714Y-49964285D01*
X160285714Y-50392857D01*
X160357142Y-50535714D01*
X160428571Y-50607142D01*
X160571428Y-50678571D01*
X160785714Y-50678571D01*
X159785714Y-49678571D02*
X159500000Y-50678571D01*
X159214285Y-49964285D01*
X158928571Y-50678571D01*
X158642857Y-49678571D01*
X157500000Y-50607142D02*
X157642857Y-50678571D01*
X157928571Y-50678571D01*
X158071428Y-50607142D01*
X158142857Y-50464285D01*
X158142857Y-49892857D01*
X158071428Y-49750000D01*
X157928571Y-49678571D01*
X157642857Y-49678571D01*
X157500000Y-49750000D01*
X157428571Y-49892857D01*
X157428571Y-50035714D01*
X158142857Y-50178571D01*
X156785714Y-50678571D02*
X156785714Y-49678571D01*
X156785714Y-49964285D02*
X156714285Y-49821428D01*
X156642857Y-49750000D01*
X156500000Y-49678571D01*
X156357142Y-49678571D01*
X155857142Y-50678571D02*
X155857142Y-49178571D01*
X155285714Y-49178571D01*
X155142857Y-49250000D01*
X155071428Y-49321428D01*
X155000000Y-49464285D01*
X155000000Y-49678571D01*
X155071428Y-49821428D01*
X155142857Y-49892857D01*
X155285714Y-49964285D01*
X155857142Y-49964285D01*
X154142857Y-50678571D02*
X154285714Y-50607142D01*
X154357142Y-50535714D01*
X154428571Y-50392857D01*
X154428571Y-49964285D01*
X154357142Y-49821428D01*
X154285714Y-49750000D01*
X154142857Y-49678571D01*
X153928571Y-49678571D01*
X153785714Y-49750000D01*
X153714285Y-49821428D01*
X153642857Y-49964285D01*
X153642857Y-50392857D01*
X153714285Y-50535714D01*
X153785714Y-50607142D01*
X153928571Y-50678571D01*
X154142857Y-50678571D01*
X152785714Y-50678571D02*
X152928571Y-50607142D01*
X153000000Y-50464285D01*
X153000000Y-49178571D01*
X151642857Y-50607142D02*
X151785714Y-50678571D01*
X152071428Y-50678571D01*
X152214285Y-50607142D01*
X152285714Y-50464285D01*
X152285714Y-49892857D01*
X152214285Y-49750000D01*
X152071428Y-49678571D01*
X151785714Y-49678571D01*
X151642857Y-49750000D01*
X151571428Y-49892857D01*
X151571428Y-50035714D01*
X152285714Y-50178571D01*
X149785714Y-50678571D02*
X149785714Y-49178571D01*
X149428571Y-49178571D01*
X149214285Y-49250000D01*
X149071428Y-49392857D01*
X149000000Y-49535714D01*
X148928571Y-49821428D01*
X148928571Y-50035714D01*
X149000000Y-50321428D01*
X149071428Y-50464285D01*
X149214285Y-50607142D01*
X149428571Y-50678571D01*
X149785714Y-50678571D01*
X148285714Y-50678571D02*
X148285714Y-49678571D01*
X148285714Y-49178571D02*
X148357142Y-49250000D01*
X148285714Y-49321428D01*
X148214285Y-49250000D01*
X148285714Y-49178571D01*
X148285714Y-49321428D01*
X147642857Y-50607142D02*
X147500000Y-50678571D01*
X147214285Y-50678571D01*
X147071428Y-50607142D01*
X147000000Y-50464285D01*
X147000000Y-50392857D01*
X147071428Y-50250000D01*
X147214285Y-50178571D01*
X147428571Y-50178571D01*
X147571428Y-50107142D01*
X147642857Y-49964285D01*
X147642857Y-49892857D01*
X147571428Y-49750000D01*
X147428571Y-49678571D01*
X147214285Y-49678571D01*
X147071428Y-49750000D01*
X146571428Y-49678571D02*
X146000000Y-49678571D01*
X146357142Y-49178571D02*
X146357142Y-50464285D01*
X146285714Y-50607142D01*
X146142857Y-50678571D01*
X146000000Y-50678571D01*
X145500000Y-50678571D02*
X145500000Y-49678571D01*
X145500000Y-49964285D02*
X145428571Y-49821428D01*
X145357142Y-49750000D01*
X145214285Y-49678571D01*
X145071428Y-49678571D01*
X144571428Y-50678571D02*
X144571428Y-49678571D01*
X144571428Y-49178571D02*
X144642857Y-49250000D01*
X144571428Y-49321428D01*
X144500000Y-49250000D01*
X144571428Y-49178571D01*
X144571428Y-49321428D01*
X143857142Y-50678571D02*
X143857142Y-49178571D01*
X143857142Y-49750000D02*
X143714285Y-49678571D01*
X143428571Y-49678571D01*
X143285714Y-49750000D01*
X143214285Y-49821428D01*
X143142857Y-49964285D01*
X143142857Y-50392857D01*
X143214285Y-50535714D01*
X143285714Y-50607142D01*
X143428571Y-50678571D01*
X143714285Y-50678571D01*
X143857142Y-50607142D01*
X141857142Y-49678571D02*
X141857142Y-50678571D01*
X142500000Y-49678571D02*
X142500000Y-50464285D01*
X142428571Y-50607142D01*
X142285714Y-50678571D01*
X142071428Y-50678571D01*
X141928571Y-50607142D01*
X141857142Y-50535714D01*
X141357142Y-49678571D02*
X140785714Y-49678571D01*
X141142857Y-49178571D02*
X141142857Y-50464285D01*
X141071428Y-50607142D01*
X140928571Y-50678571D01*
X140785714Y-50678571D01*
X140285714Y-50678571D02*
X140285714Y-49678571D01*
X140285714Y-49178571D02*
X140357142Y-49250000D01*
X140285714Y-49321428D01*
X140214285Y-49250000D01*
X140285714Y-49178571D01*
X140285714Y-49321428D01*
X139357142Y-50678571D02*
X139500000Y-50607142D01*
X139571428Y-50535714D01*
X139642857Y-50392857D01*
X139642857Y-49964285D01*
X139571428Y-49821428D01*
X139500000Y-49750000D01*
X139357142Y-49678571D01*
X139142857Y-49678571D01*
X139000000Y-49750000D01*
X138928571Y-49821428D01*
X138857142Y-49964285D01*
X138857142Y-50392857D01*
X138928571Y-50535714D01*
X139000000Y-50607142D01*
X139142857Y-50678571D01*
X139357142Y-50678571D01*
X138214285Y-49678571D02*
X138214285Y-50678571D01*
X138214285Y-49821428D02*
X138142857Y-49750000D01*
X138000000Y-49678571D01*
X137785714Y-49678571D01*
X137642857Y-49750000D01*
X137571428Y-49892857D01*
X137571428Y-50678571D01*
X135214285Y-49892857D02*
X135000000Y-49964285D01*
X134928571Y-50035714D01*
X134857142Y-50178571D01*
X134857142Y-50392857D01*
X134928571Y-50535714D01*
X135000000Y-50607142D01*
X135142857Y-50678571D01*
X135714285Y-50678571D01*
X135714285Y-49178571D01*
X135214285Y-49178571D01*
X135071428Y-49250000D01*
X135000000Y-49321428D01*
X134928571Y-49464285D01*
X134928571Y-49607142D01*
X135000000Y-49750000D01*
X135071428Y-49821428D01*
X135214285Y-49892857D01*
X135714285Y-49892857D01*
X134000000Y-50678571D02*
X134142857Y-50607142D01*
X134214285Y-50535714D01*
X134285714Y-50392857D01*
X134285714Y-49964285D01*
X134214285Y-49821428D01*
X134142857Y-49750000D01*
X134000000Y-49678571D01*
X133785714Y-49678571D01*
X133642857Y-49750000D01*
X133571428Y-49821428D01*
X133500000Y-49964285D01*
X133500000Y-50392857D01*
X133571428Y-50535714D01*
X133642857Y-50607142D01*
X133785714Y-50678571D01*
X134000000Y-50678571D01*
X132214285Y-50678571D02*
X132214285Y-49892857D01*
X132285714Y-49750000D01*
X132428571Y-49678571D01*
X132714285Y-49678571D01*
X132857142Y-49750000D01*
X132214285Y-50607142D02*
X132357142Y-50678571D01*
X132714285Y-50678571D01*
X132857142Y-50607142D01*
X132928571Y-50464285D01*
X132928571Y-50321428D01*
X132857142Y-50178571D01*
X132714285Y-50107142D01*
X132357142Y-50107142D01*
X132214285Y-50035714D01*
X131500000Y-50678571D02*
X131500000Y-49678571D01*
X131500000Y-49964285D02*
X131428571Y-49821428D01*
X131357142Y-49750000D01*
X131214285Y-49678571D01*
X131071428Y-49678571D01*
X129928571Y-50678571D02*
X129928571Y-49178571D01*
X129928571Y-50607142D02*
X130071428Y-50678571D01*
X130357142Y-50678571D01*
X130500000Y-50607142D01*
X130571428Y-50535714D01*
X130642857Y-50392857D01*
X130642857Y-49964285D01*
X130571428Y-49821428D01*
X130500000Y-49750000D01*
X130357142Y-49678571D01*
X130071428Y-49678571D01*
X129928571Y-49750000D01*
X128214285Y-49678571D02*
X127857142Y-50678571D01*
X127500000Y-49678571D01*
X126142857Y-50678571D02*
X127000000Y-50678571D01*
X126571428Y-50678571D02*
X126571428Y-49178571D01*
X126714285Y-49392857D01*
X126857142Y-49535714D01*
X127000000Y-49607142D01*
X125500000Y-50535714D02*
X125428571Y-50607142D01*
X125500000Y-50678571D01*
X125571428Y-50607142D01*
X125500000Y-50535714D01*
X125500000Y-50678571D01*
X124000000Y-50678571D02*
X124857142Y-50678571D01*
X124428571Y-50678571D02*
X124428571Y-49178571D01*
X124571428Y-49392857D01*
X124714285Y-49535714D01*
X124857142Y-49607142D01*
M02*
