G04 #@! TF.GenerationSoftware,KiCad,Pcbnew,5.0.2+dfsg1-1*
G04 #@! TF.CreationDate,2020-06-21T14:15:28-04:00*
G04 #@! TF.ProjectId,powerpoledist,706f7765-7270-46f6-9c65-646973742e6b,rev?*
G04 #@! TF.SameCoordinates,Original*
G04 #@! TF.FileFunction,Copper,L2,Bot*
G04 #@! TF.FilePolarity,Positive*
%FSLAX46Y46*%
G04 Gerber Fmt 4.6, Leading zero omitted, Abs format (unit mm)*
G04 Created by KiCad (PCBNEW 5.0.2+dfsg1-1) date Sun 21 Jun 2020 02:15:28 PM EDT*
%MOMM*%
%LPD*%
G01*
G04 APERTURE LIST*
G04 #@! TA.AperFunction,ComponentPad*
%ADD10O,5.550000X2.100000*%
G04 #@! TD*
G04 #@! TA.AperFunction,ComponentPad*
%ADD11O,2.250000X3.200000*%
G04 #@! TD*
G04 #@! TA.AperFunction,ComponentPad*
%ADD12C,1.800000*%
G04 #@! TD*
G04 #@! TA.AperFunction,ComponentPad*
%ADD13R,1.800000X1.800000*%
G04 #@! TD*
G04 #@! TA.AperFunction,ComponentPad*
%ADD14O,1.400000X1.400000*%
G04 #@! TD*
G04 #@! TA.AperFunction,ComponentPad*
%ADD15C,1.400000*%
G04 #@! TD*
G04 #@! TA.AperFunction,ComponentPad*
%ADD16C,2.000000*%
G04 #@! TD*
G04 #@! TA.AperFunction,ComponentPad*
%ADD17C,1.600000*%
G04 #@! TD*
G04 #@! TA.AperFunction,ComponentPad*
%ADD18C,7.000000*%
G04 #@! TD*
G04 #@! TA.AperFunction,ComponentPad*
%ADD19C,0.800000*%
G04 #@! TD*
G04 #@! TA.AperFunction,ComponentPad*
%ADD20R,1.700000X1.700000*%
G04 #@! TD*
G04 #@! TA.AperFunction,ComponentPad*
%ADD21O,1.700000X1.700000*%
G04 #@! TD*
G04 #@! TA.AperFunction,ViaPad*
%ADD22C,0.800000*%
G04 #@! TD*
G04 #@! TA.AperFunction,Conductor*
%ADD23C,0.500000*%
G04 #@! TD*
G04 #@! TA.AperFunction,Conductor*
%ADD24C,0.250000*%
G04 #@! TD*
G04 #@! TA.AperFunction,Conductor*
%ADD25C,0.254000*%
G04 #@! TD*
G04 APERTURE END LIST*
D10*
G04 #@! TO.P,J1,2*
G04 #@! TO.N,GND*
X102700000Y-63200000D03*
G04 #@! TO.P,J1,1*
G04 #@! TO.N,Net-(C1-Pad1)*
X94800000Y-63200000D03*
G04 #@! TD*
G04 #@! TO.P,J2,2*
G04 #@! TO.N,GND*
X126400000Y-63200000D03*
G04 #@! TO.P,J2,1*
G04 #@! TO.N,Net-(C3-Pad1)*
X118500000Y-63200000D03*
G04 #@! TD*
G04 #@! TO.P,J3,2*
G04 #@! TO.N,GND*
X150100000Y-63200000D03*
G04 #@! TO.P,J3,1*
G04 #@! TO.N,Net-(C5-Pad1)*
X142200000Y-63200000D03*
G04 #@! TD*
G04 #@! TO.P,J4,2*
G04 #@! TO.N,GND*
X173800000Y-63200000D03*
G04 #@! TO.P,J4,1*
G04 #@! TO.N,Net-(C7-Pad1)*
X165900000Y-63200000D03*
G04 #@! TD*
G04 #@! TO.P,J5,2*
G04 #@! TO.N,GND*
X197500000Y-63200000D03*
G04 #@! TO.P,J5,1*
G04 #@! TO.N,Net-(C10-Pad1)*
X189600000Y-63200000D03*
G04 #@! TD*
D11*
G04 #@! TO.P,F1,2*
G04 #@! TO.N,+12V*
X92600000Y-80830000D03*
X96000000Y-80830000D03*
G04 #@! TO.P,F1,1*
G04 #@! TO.N,Net-(C1-Pad1)*
X92600000Y-71100000D03*
X96000000Y-71100000D03*
G04 #@! TD*
G04 #@! TO.P,F2,2*
G04 #@! TO.N,+12V*
X116600000Y-80730000D03*
X120000000Y-80730000D03*
G04 #@! TO.P,F2,1*
G04 #@! TO.N,Net-(C3-Pad1)*
X116600000Y-71000000D03*
X120000000Y-71000000D03*
G04 #@! TD*
G04 #@! TO.P,F3,2*
G04 #@! TO.N,+12V*
X140600000Y-80730000D03*
X144000000Y-80730000D03*
G04 #@! TO.P,F3,1*
G04 #@! TO.N,Net-(C5-Pad1)*
X140600000Y-71000000D03*
X144000000Y-71000000D03*
G04 #@! TD*
G04 #@! TO.P,F4,2*
G04 #@! TO.N,+12V*
X164600000Y-80730000D03*
X168000000Y-80730000D03*
G04 #@! TO.P,F4,1*
G04 #@! TO.N,Net-(C7-Pad1)*
X164600000Y-71000000D03*
X168000000Y-71000000D03*
G04 #@! TD*
G04 #@! TO.P,F5,2*
G04 #@! TO.N,+12V*
X188600000Y-80730000D03*
X192000000Y-80730000D03*
G04 #@! TO.P,F5,1*
G04 #@! TO.N,Net-(C10-Pad1)*
X188600000Y-71000000D03*
X192000000Y-71000000D03*
G04 #@! TD*
D12*
G04 #@! TO.P,D4,2*
G04 #@! TO.N,Net-(D3-Pad2)*
X124000000Y-74460000D03*
D13*
G04 #@! TO.P,D4,1*
G04 #@! TO.N,Net-(D1-Pad1)*
X124000000Y-77000000D03*
G04 #@! TD*
G04 #@! TO.P,D10,1*
G04 #@! TO.N,Net-(D1-Pad1)*
X196000000Y-77000000D03*
D12*
G04 #@! TO.P,D10,2*
G04 #@! TO.N,Net-(D10-Pad2)*
X196000000Y-74460000D03*
G04 #@! TD*
D13*
G04 #@! TO.P,D2,1*
G04 #@! TO.N,Net-(D1-Pad1)*
X100000000Y-77000000D03*
D12*
G04 #@! TO.P,D2,2*
G04 #@! TO.N,Net-(D1-Pad2)*
X100000000Y-74460000D03*
G04 #@! TD*
G04 #@! TO.P,D6,2*
G04 #@! TO.N,Net-(D5-Pad2)*
X148000000Y-74460000D03*
D13*
G04 #@! TO.P,D6,1*
G04 #@! TO.N,Net-(D1-Pad1)*
X148000000Y-77000000D03*
G04 #@! TD*
G04 #@! TO.P,D8,1*
G04 #@! TO.N,Net-(D1-Pad1)*
X172000000Y-77000000D03*
D12*
G04 #@! TO.P,D8,2*
G04 #@! TO.N,Net-(D7-Pad2)*
X172000000Y-74460000D03*
G04 #@! TD*
D14*
G04 #@! TO.P,R2,2*
G04 #@! TO.N,Net-(D1-Pad2)*
X109000000Y-75080000D03*
D15*
G04 #@! TO.P,R2,1*
G04 #@! TO.N,Net-(C1-Pad1)*
X109000000Y-70000000D03*
G04 #@! TD*
G04 #@! TO.P,R4,1*
G04 #@! TO.N,Net-(C3-Pad1)*
X133000000Y-70000000D03*
D14*
G04 #@! TO.P,R4,2*
G04 #@! TO.N,Net-(D3-Pad2)*
X133000000Y-75080000D03*
G04 #@! TD*
D15*
G04 #@! TO.P,R6,1*
G04 #@! TO.N,Net-(C5-Pad1)*
X157000000Y-70000000D03*
D14*
G04 #@! TO.P,R6,2*
G04 #@! TO.N,Net-(D5-Pad2)*
X157000000Y-75080000D03*
G04 #@! TD*
G04 #@! TO.P,R8,2*
G04 #@! TO.N,Net-(D7-Pad2)*
X181000000Y-75080000D03*
D15*
G04 #@! TO.P,R8,1*
G04 #@! TO.N,Net-(C7-Pad1)*
X181000000Y-70000000D03*
G04 #@! TD*
G04 #@! TO.P,R10,1*
G04 #@! TO.N,Net-(C10-Pad1)*
X204000000Y-70000000D03*
D14*
G04 #@! TO.P,R10,2*
G04 #@! TO.N,Net-(D10-Pad2)*
X204000000Y-75080000D03*
G04 #@! TD*
D16*
G04 #@! TO.P,SW1,2*
G04 #@! TO.N,Net-(D1-Pad1)*
X208500000Y-66000000D03*
G04 #@! TO.P,SW1,1*
G04 #@! TO.N,GND*
X204000000Y-66000000D03*
G04 #@! TO.P,SW1,2*
G04 #@! TO.N,Net-(D1-Pad1)*
X208500000Y-59500000D03*
G04 #@! TO.P,SW1,1*
G04 #@! TO.N,GND*
X204000000Y-59500000D03*
G04 #@! TD*
D17*
G04 #@! TO.P,C2,2*
G04 #@! TO.N,GND*
X100000000Y-66500000D03*
G04 #@! TO.P,C2,1*
G04 #@! TO.N,Net-(C1-Pad1)*
X100000000Y-69000000D03*
G04 #@! TD*
G04 #@! TO.P,C4,1*
G04 #@! TO.N,Net-(C3-Pad1)*
X123500000Y-69000000D03*
G04 #@! TO.P,C4,2*
G04 #@! TO.N,GND*
X123500000Y-66500000D03*
G04 #@! TD*
G04 #@! TO.P,C6,2*
G04 #@! TO.N,GND*
X147500000Y-66500000D03*
G04 #@! TO.P,C6,1*
G04 #@! TO.N,Net-(C5-Pad1)*
X147500000Y-69000000D03*
G04 #@! TD*
G04 #@! TO.P,C8,1*
G04 #@! TO.N,Net-(C7-Pad1)*
X171500000Y-69000000D03*
G04 #@! TO.P,C8,2*
G04 #@! TO.N,GND*
X171500000Y-66500000D03*
G04 #@! TD*
G04 #@! TO.P,C10,1*
G04 #@! TO.N,Net-(C10-Pad1)*
X195500000Y-69000000D03*
G04 #@! TO.P,C10,2*
G04 #@! TO.N,GND*
X195500000Y-66500000D03*
G04 #@! TD*
D18*
G04 #@! TO.P,H1,1*
G04 #@! TO.N,N/C*
X86000000Y-83000000D03*
D19*
X88625000Y-83000000D03*
X87856155Y-84856155D03*
X86000000Y-85625000D03*
X84143845Y-84856155D03*
X83375000Y-83000000D03*
X84143845Y-81143845D03*
X86000000Y-80375000D03*
X87856155Y-81143845D03*
G04 #@! TD*
G04 #@! TO.P,H2,1*
G04 #@! TO.N,N/C*
X207856155Y-51143845D03*
X206000000Y-50375000D03*
X204143845Y-51143845D03*
X203375000Y-53000000D03*
X204143845Y-54856155D03*
X206000000Y-55625000D03*
X207856155Y-54856155D03*
X208625000Y-53000000D03*
D18*
X206000000Y-53000000D03*
G04 #@! TD*
D19*
G04 #@! TO.P,H3,1*
G04 #@! TO.N,N/C*
X207856155Y-81143845D03*
X206000000Y-80375000D03*
X204143845Y-81143845D03*
X203375000Y-83000000D03*
X204143845Y-84856155D03*
X206000000Y-85625000D03*
X207856155Y-84856155D03*
X208625000Y-83000000D03*
D18*
X206000000Y-83000000D03*
G04 #@! TD*
G04 #@! TO.P,H4,1*
G04 #@! TO.N,Net-(H4-Pad1)*
X86000000Y-53000000D03*
D19*
X88625000Y-53000000D03*
X87856155Y-54856155D03*
X86000000Y-55625000D03*
X84143845Y-54856155D03*
X83375000Y-53000000D03*
X84143845Y-51143845D03*
X86000000Y-50375000D03*
X87856155Y-51143845D03*
G04 #@! TD*
D20*
G04 #@! TO.P,J101,1*
G04 #@! TO.N,GND*
X109200000Y-63000000D03*
D21*
G04 #@! TO.P,J101,2*
G04 #@! TO.N,+12V*
X109200000Y-65540000D03*
G04 #@! TD*
D22*
G04 #@! TO.N,GND*
X88600000Y-58000000D03*
G04 #@! TD*
D23*
G04 #@! TO.N,+12V*
X116600000Y-80730000D02*
X112330000Y-80730000D01*
X112330000Y-80730000D02*
X110900000Y-79300000D01*
X110900000Y-79300000D02*
X110900000Y-65600000D01*
D24*
X110900000Y-65600000D02*
X109300000Y-65600000D01*
G04 #@! TD*
D25*
G04 #@! TO.N,Net-(C1-Pad1)*
G36*
X98673000Y-65953826D02*
X98565000Y-66214561D01*
X98565000Y-66785439D01*
X98673000Y-67046174D01*
X98673000Y-73652514D01*
X98581672Y-73873000D01*
X95040219Y-73873000D01*
X95000000Y-73865000D01*
X89763026Y-73865000D01*
X88135000Y-72236974D01*
X88135000Y-68500000D01*
X88127000Y-68459781D01*
X88127000Y-61627000D01*
X98673000Y-61627000D01*
X98673000Y-65953826D01*
X98673000Y-65953826D01*
G37*
X98673000Y-65953826D02*
X98565000Y-66214561D01*
X98565000Y-66785439D01*
X98673000Y-67046174D01*
X98673000Y-73652514D01*
X98581672Y-73873000D01*
X95040219Y-73873000D01*
X95000000Y-73865000D01*
X89763026Y-73865000D01*
X88135000Y-72236974D01*
X88135000Y-68500000D01*
X88127000Y-68459781D01*
X88127000Y-61627000D01*
X98673000Y-61627000D01*
X98673000Y-65953826D01*
G04 #@! TO.N,Net-(C3-Pad1)*
G36*
X122573000Y-65397604D02*
X122283466Y-65687138D01*
X122065000Y-66214561D01*
X122065000Y-66785439D01*
X122283466Y-67312862D01*
X122573000Y-67602396D01*
X122573000Y-73893935D01*
X122572006Y-73896334D01*
X111785000Y-73896334D01*
X111785000Y-65512835D01*
X111733652Y-65254690D01*
X111538049Y-64961951D01*
X111245310Y-64766348D01*
X111127000Y-64742815D01*
X111127000Y-61627000D01*
X122573000Y-61627000D01*
X122573000Y-65397604D01*
X122573000Y-65397604D01*
G37*
X122573000Y-65397604D02*
X122283466Y-65687138D01*
X122065000Y-66214561D01*
X122065000Y-66785439D01*
X122283466Y-67312862D01*
X122573000Y-67602396D01*
X122573000Y-73893935D01*
X122572006Y-73896334D01*
X111785000Y-73896334D01*
X111785000Y-65512835D01*
X111733652Y-65254690D01*
X111538049Y-64961951D01*
X111245310Y-64766348D01*
X111127000Y-64742815D01*
X111127000Y-61627000D01*
X122573000Y-61627000D01*
X122573000Y-65397604D01*
G04 #@! TO.N,Net-(C5-Pad1)*
G36*
X146273000Y-65712405D02*
X146065000Y-66214561D01*
X146065000Y-66785439D01*
X146273000Y-67287595D01*
X146273000Y-73873000D01*
X135127000Y-73873000D01*
X135127000Y-61627000D01*
X146273000Y-61627000D01*
X146273000Y-65712405D01*
X146273000Y-65712405D01*
G37*
X146273000Y-65712405D02*
X146065000Y-66214561D01*
X146065000Y-66785439D01*
X146273000Y-67287595D01*
X146273000Y-73873000D01*
X135127000Y-73873000D01*
X135127000Y-61627000D01*
X146273000Y-61627000D01*
X146273000Y-65712405D01*
G04 #@! TO.N,Net-(C7-Pad1)*
G36*
X169873000Y-73873000D02*
X158127000Y-73873000D01*
X158127000Y-70760975D01*
X158131758Y-70756217D01*
X158335000Y-70265548D01*
X158335000Y-69734452D01*
X158131758Y-69243783D01*
X158127000Y-69239025D01*
X158127000Y-61627000D01*
X169873000Y-61627000D01*
X169873000Y-73873000D01*
X169873000Y-73873000D01*
G37*
X169873000Y-73873000D02*
X158127000Y-73873000D01*
X158127000Y-70760975D01*
X158131758Y-70756217D01*
X158335000Y-70265548D01*
X158335000Y-69734452D01*
X158131758Y-69243783D01*
X158127000Y-69239025D01*
X158127000Y-61627000D01*
X169873000Y-61627000D01*
X169873000Y-73873000D01*
G04 #@! TO.N,Net-(C10-Pad1)*
G36*
X193473000Y-73914509D02*
X182127000Y-73914509D01*
X182127000Y-70760975D01*
X182131758Y-70756217D01*
X182335000Y-70265548D01*
X182335000Y-69734452D01*
X182131758Y-69243783D01*
X182127000Y-69239025D01*
X182127000Y-61627000D01*
X193473000Y-61627000D01*
X193473000Y-73914509D01*
X193473000Y-73914509D01*
G37*
X193473000Y-73914509D02*
X182127000Y-73914509D01*
X182127000Y-70760975D01*
X182131758Y-70756217D01*
X182335000Y-70265548D01*
X182335000Y-69734452D01*
X182131758Y-69243783D01*
X182127000Y-69239025D01*
X182127000Y-61627000D01*
X193473000Y-61627000D01*
X193473000Y-73914509D01*
G04 #@! TO.N,+12V*
G36*
X87373000Y-72500000D02*
X87382667Y-72548601D01*
X87410197Y-72589803D01*
X89410197Y-74589803D01*
X89451399Y-74617333D01*
X89500000Y-74627000D01*
X94947394Y-74627000D01*
X97410197Y-77089803D01*
X97451399Y-77117333D01*
X97500000Y-77127000D01*
X98452560Y-77127000D01*
X98452560Y-77900000D01*
X98501843Y-78147765D01*
X98642191Y-78357809D01*
X98852235Y-78498157D01*
X99100000Y-78547440D01*
X100900000Y-78547440D01*
X101147765Y-78498157D01*
X101357809Y-78357809D01*
X101498157Y-78147765D01*
X101547440Y-77900000D01*
X101547440Y-77127000D01*
X122452560Y-77127000D01*
X122452560Y-77900000D01*
X122501843Y-78147765D01*
X122642191Y-78357809D01*
X122852235Y-78498157D01*
X123100000Y-78547440D01*
X124900000Y-78547440D01*
X125147765Y-78498157D01*
X125357809Y-78357809D01*
X125498157Y-78147765D01*
X125547440Y-77900000D01*
X125547440Y-77127000D01*
X146452560Y-77127000D01*
X146452560Y-77900000D01*
X146501843Y-78147765D01*
X146642191Y-78357809D01*
X146852235Y-78498157D01*
X147100000Y-78547440D01*
X148900000Y-78547440D01*
X149147765Y-78498157D01*
X149357809Y-78357809D01*
X149498157Y-78147765D01*
X149547440Y-77900000D01*
X149547440Y-77127000D01*
X170452560Y-77127000D01*
X170452560Y-77900000D01*
X170501843Y-78147765D01*
X170642191Y-78357809D01*
X170852235Y-78498157D01*
X171100000Y-78547440D01*
X172900000Y-78547440D01*
X173147765Y-78498157D01*
X173357809Y-78357809D01*
X173498157Y-78147765D01*
X173547440Y-77900000D01*
X173547440Y-77127000D01*
X194452560Y-77127000D01*
X194452560Y-77900000D01*
X194501843Y-78147765D01*
X194642191Y-78357809D01*
X194852235Y-78498157D01*
X195100000Y-78547440D01*
X196900000Y-78547440D01*
X197147765Y-78498157D01*
X197357809Y-78357809D01*
X197498157Y-78147765D01*
X197547440Y-77900000D01*
X197547440Y-77127000D01*
X198591485Y-77127000D01*
X198591485Y-86873000D01*
X90127000Y-86873000D01*
X90127000Y-83841817D01*
X90135000Y-83822503D01*
X90135000Y-82177497D01*
X90127000Y-82158183D01*
X90127000Y-81500000D01*
X90117333Y-81451399D01*
X90089803Y-81410197D01*
X89624395Y-80944789D01*
X89505483Y-80657711D01*
X88342289Y-79494517D01*
X88055211Y-79375605D01*
X86589803Y-77910197D01*
X86548601Y-77882667D01*
X86500000Y-77873000D01*
X81710000Y-77873000D01*
X81710000Y-68627000D01*
X87373000Y-68627000D01*
X87373000Y-72500000D01*
X87373000Y-72500000D01*
G37*
X87373000Y-72500000D02*
X87382667Y-72548601D01*
X87410197Y-72589803D01*
X89410197Y-74589803D01*
X89451399Y-74617333D01*
X89500000Y-74627000D01*
X94947394Y-74627000D01*
X97410197Y-77089803D01*
X97451399Y-77117333D01*
X97500000Y-77127000D01*
X98452560Y-77127000D01*
X98452560Y-77900000D01*
X98501843Y-78147765D01*
X98642191Y-78357809D01*
X98852235Y-78498157D01*
X99100000Y-78547440D01*
X100900000Y-78547440D01*
X101147765Y-78498157D01*
X101357809Y-78357809D01*
X101498157Y-78147765D01*
X101547440Y-77900000D01*
X101547440Y-77127000D01*
X122452560Y-77127000D01*
X122452560Y-77900000D01*
X122501843Y-78147765D01*
X122642191Y-78357809D01*
X122852235Y-78498157D01*
X123100000Y-78547440D01*
X124900000Y-78547440D01*
X125147765Y-78498157D01*
X125357809Y-78357809D01*
X125498157Y-78147765D01*
X125547440Y-77900000D01*
X125547440Y-77127000D01*
X146452560Y-77127000D01*
X146452560Y-77900000D01*
X146501843Y-78147765D01*
X146642191Y-78357809D01*
X146852235Y-78498157D01*
X147100000Y-78547440D01*
X148900000Y-78547440D01*
X149147765Y-78498157D01*
X149357809Y-78357809D01*
X149498157Y-78147765D01*
X149547440Y-77900000D01*
X149547440Y-77127000D01*
X170452560Y-77127000D01*
X170452560Y-77900000D01*
X170501843Y-78147765D01*
X170642191Y-78357809D01*
X170852235Y-78498157D01*
X171100000Y-78547440D01*
X172900000Y-78547440D01*
X173147765Y-78498157D01*
X173357809Y-78357809D01*
X173498157Y-78147765D01*
X173547440Y-77900000D01*
X173547440Y-77127000D01*
X194452560Y-77127000D01*
X194452560Y-77900000D01*
X194501843Y-78147765D01*
X194642191Y-78357809D01*
X194852235Y-78498157D01*
X195100000Y-78547440D01*
X196900000Y-78547440D01*
X197147765Y-78498157D01*
X197357809Y-78357809D01*
X197498157Y-78147765D01*
X197547440Y-77900000D01*
X197547440Y-77127000D01*
X198591485Y-77127000D01*
X198591485Y-86873000D01*
X90127000Y-86873000D01*
X90127000Y-83841817D01*
X90135000Y-83822503D01*
X90135000Y-82177497D01*
X90127000Y-82158183D01*
X90127000Y-81500000D01*
X90117333Y-81451399D01*
X90089803Y-81410197D01*
X89624395Y-80944789D01*
X89505483Y-80657711D01*
X88342289Y-79494517D01*
X88055211Y-79375605D01*
X86589803Y-77910197D01*
X86548601Y-77882667D01*
X86500000Y-77873000D01*
X81710000Y-77873000D01*
X81710000Y-68627000D01*
X87373000Y-68627000D01*
X87373000Y-72500000D01*
G04 #@! TO.N,GND*
G36*
X206759192Y-48780578D02*
X207494389Y-48981705D01*
X208182351Y-49309846D01*
X208801331Y-49754628D01*
X209331761Y-50301988D01*
X209756884Y-50934639D01*
X210063251Y-51632561D01*
X210242499Y-52379183D01*
X210290000Y-53026030D01*
X210290001Y-82968370D01*
X210219422Y-83759193D01*
X210018295Y-84494389D01*
X209690152Y-85182355D01*
X209245374Y-85801328D01*
X208698012Y-86331761D01*
X208065362Y-86756883D01*
X207367439Y-87063251D01*
X206620819Y-87242499D01*
X205973970Y-87290000D01*
X199273747Y-87290000D01*
X199305149Y-87243004D01*
X199353485Y-87000000D01*
X199353485Y-82177497D01*
X201865000Y-82177497D01*
X201865000Y-83822503D01*
X202494517Y-85342289D01*
X203657711Y-86505483D01*
X205177497Y-87135000D01*
X206822503Y-87135000D01*
X208342289Y-86505483D01*
X209505483Y-85342289D01*
X210135000Y-83822503D01*
X210135000Y-82177497D01*
X209505483Y-80657711D01*
X208342289Y-79494517D01*
X206822503Y-78865000D01*
X205177497Y-78865000D01*
X203657711Y-79494517D01*
X202494517Y-80657711D01*
X201865000Y-82177497D01*
X199353485Y-82177497D01*
X199353485Y-77000000D01*
X199305149Y-76756996D01*
X199167498Y-76550987D01*
X198961489Y-76413336D01*
X198718485Y-76365000D01*
X197547440Y-76365000D01*
X197547440Y-76100000D01*
X197498157Y-75852235D01*
X197357809Y-75642191D01*
X197147765Y-75501843D01*
X197132092Y-75498725D01*
X197301310Y-75329507D01*
X197404659Y-75080000D01*
X202638846Y-75080000D01*
X202742458Y-75600891D01*
X203037519Y-76042481D01*
X203479109Y-76337542D01*
X203868515Y-76415000D01*
X204131485Y-76415000D01*
X204520891Y-76337542D01*
X204962481Y-76042481D01*
X205257542Y-75600891D01*
X205361154Y-75080000D01*
X205257542Y-74559109D01*
X204962481Y-74117519D01*
X204520891Y-73822458D01*
X204131485Y-73745000D01*
X203868515Y-73745000D01*
X203479109Y-73822458D01*
X203037519Y-74117519D01*
X202742458Y-74559109D01*
X202638846Y-75080000D01*
X197404659Y-75080000D01*
X197535000Y-74765330D01*
X197535000Y-74154670D01*
X197301310Y-73590493D01*
X196869507Y-73158690D01*
X196305330Y-72925000D01*
X195694670Y-72925000D01*
X195130493Y-73158690D01*
X194698690Y-73590493D01*
X194465000Y-74154670D01*
X194465000Y-74765330D01*
X194698690Y-75329507D01*
X194867908Y-75498725D01*
X194852235Y-75501843D01*
X194642191Y-75642191D01*
X194501843Y-75852235D01*
X194452560Y-76100000D01*
X194452560Y-76365000D01*
X181382851Y-76365000D01*
X181520891Y-76337542D01*
X181962481Y-76042481D01*
X182257542Y-75600891D01*
X182361154Y-75080000D01*
X182280894Y-74676509D01*
X193600000Y-74676509D01*
X193843004Y-74628173D01*
X194049013Y-74490522D01*
X194186664Y-74284513D01*
X194235000Y-74041509D01*
X194235000Y-69695855D01*
X194283466Y-69812862D01*
X194687138Y-70216534D01*
X195214561Y-70435000D01*
X195785439Y-70435000D01*
X196312862Y-70216534D01*
X196716534Y-69812862D01*
X196749012Y-69734452D01*
X202665000Y-69734452D01*
X202665000Y-70265548D01*
X202868242Y-70756217D01*
X203243783Y-71131758D01*
X203734452Y-71335000D01*
X204265548Y-71335000D01*
X204756217Y-71131758D01*
X205131758Y-70756217D01*
X205335000Y-70265548D01*
X205335000Y-69734452D01*
X205131758Y-69243783D01*
X204756217Y-68868242D01*
X204265548Y-68665000D01*
X203734452Y-68665000D01*
X203243783Y-68868242D01*
X202868242Y-69243783D01*
X202665000Y-69734452D01*
X196749012Y-69734452D01*
X196935000Y-69285439D01*
X196935000Y-68714561D01*
X196716534Y-68187138D01*
X196312862Y-67783466D01*
X195785439Y-67565000D01*
X195214561Y-67565000D01*
X194687138Y-67783466D01*
X194283466Y-68187138D01*
X194235000Y-68304145D01*
X194235000Y-65674778D01*
X206865000Y-65674778D01*
X206865000Y-66325222D01*
X207113914Y-66926153D01*
X207573847Y-67386086D01*
X208174778Y-67635000D01*
X208825222Y-67635000D01*
X209426153Y-67386086D01*
X209886086Y-66926153D01*
X210135000Y-66325222D01*
X210135000Y-65674778D01*
X209886086Y-65073847D01*
X209426153Y-64613914D01*
X208825222Y-64365000D01*
X208174778Y-64365000D01*
X207573847Y-64613914D01*
X207113914Y-65073847D01*
X206865000Y-65674778D01*
X194235000Y-65674778D01*
X194235000Y-61500000D01*
X194186664Y-61256996D01*
X194049013Y-61050987D01*
X193843004Y-60913336D01*
X193600000Y-60865000D01*
X182000000Y-60865000D01*
X181756996Y-60913336D01*
X181550987Y-61050987D01*
X181413336Y-61256996D01*
X181365000Y-61500000D01*
X181365000Y-68706194D01*
X181265548Y-68665000D01*
X180734452Y-68665000D01*
X180243783Y-68868242D01*
X179868242Y-69243783D01*
X179665000Y-69734452D01*
X179665000Y-70265548D01*
X179868242Y-70756217D01*
X180243783Y-71131758D01*
X180734452Y-71335000D01*
X181265548Y-71335000D01*
X181365000Y-71293806D01*
X181365000Y-73791449D01*
X181131485Y-73745000D01*
X180868515Y-73745000D01*
X180479109Y-73822458D01*
X180037519Y-74117519D01*
X179742458Y-74559109D01*
X179638846Y-75080000D01*
X179742458Y-75600891D01*
X180037519Y-76042481D01*
X180479109Y-76337542D01*
X180617149Y-76365000D01*
X173547440Y-76365000D01*
X173547440Y-76100000D01*
X173498157Y-75852235D01*
X173357809Y-75642191D01*
X173147765Y-75501843D01*
X173132092Y-75498725D01*
X173301310Y-75329507D01*
X173535000Y-74765330D01*
X173535000Y-74154670D01*
X173301310Y-73590493D01*
X172869507Y-73158690D01*
X172305330Y-72925000D01*
X171694670Y-72925000D01*
X171130493Y-73158690D01*
X170698690Y-73590493D01*
X170635000Y-73744254D01*
X170635000Y-70164396D01*
X170687138Y-70216534D01*
X171214561Y-70435000D01*
X171785439Y-70435000D01*
X172312862Y-70216534D01*
X172716534Y-69812862D01*
X172935000Y-69285439D01*
X172935000Y-68714561D01*
X172716534Y-68187138D01*
X172312862Y-67783466D01*
X171785439Y-67565000D01*
X171214561Y-67565000D01*
X170687138Y-67783466D01*
X170635000Y-67835604D01*
X170635000Y-61500000D01*
X170586664Y-61256996D01*
X170449013Y-61050987D01*
X170243004Y-60913336D01*
X170000000Y-60865000D01*
X158000000Y-60865000D01*
X157756996Y-60913336D01*
X157550987Y-61050987D01*
X157413336Y-61256996D01*
X157365000Y-61500000D01*
X157365000Y-68706194D01*
X157265548Y-68665000D01*
X156734452Y-68665000D01*
X156243783Y-68868242D01*
X155868242Y-69243783D01*
X155665000Y-69734452D01*
X155665000Y-70265548D01*
X155868242Y-70756217D01*
X156243783Y-71131758D01*
X156734452Y-71335000D01*
X157265548Y-71335000D01*
X157365000Y-71293806D01*
X157365000Y-73791449D01*
X157131485Y-73745000D01*
X156868515Y-73745000D01*
X156479109Y-73822458D01*
X156037519Y-74117519D01*
X155742458Y-74559109D01*
X155638846Y-75080000D01*
X155742458Y-75600891D01*
X156037519Y-76042481D01*
X156479109Y-76337542D01*
X156617149Y-76365000D01*
X149547440Y-76365000D01*
X149547440Y-76100000D01*
X149498157Y-75852235D01*
X149357809Y-75642191D01*
X149147765Y-75501843D01*
X149132092Y-75498725D01*
X149301310Y-75329507D01*
X149535000Y-74765330D01*
X149535000Y-74154670D01*
X149301310Y-73590493D01*
X148869507Y-73158690D01*
X148305330Y-72925000D01*
X147694670Y-72925000D01*
X147130493Y-73158690D01*
X147035000Y-73254183D01*
X147035000Y-70360623D01*
X147214561Y-70435000D01*
X147785439Y-70435000D01*
X148312862Y-70216534D01*
X148716534Y-69812862D01*
X148935000Y-69285439D01*
X148935000Y-68714561D01*
X148716534Y-68187138D01*
X148312862Y-67783466D01*
X147785439Y-67565000D01*
X147214561Y-67565000D01*
X147035000Y-67639377D01*
X147035000Y-61500000D01*
X146986664Y-61256996D01*
X146849013Y-61050987D01*
X146643004Y-60913336D01*
X146400000Y-60865000D01*
X135000000Y-60865000D01*
X134756996Y-60913336D01*
X134550987Y-61050987D01*
X134413336Y-61256996D01*
X134365000Y-61500000D01*
X134365000Y-74000000D01*
X134413336Y-74243004D01*
X134550987Y-74449013D01*
X134756996Y-74586664D01*
X135000000Y-74635000D01*
X146400000Y-74635000D01*
X146465000Y-74622071D01*
X146465000Y-74765330D01*
X146698690Y-75329507D01*
X146867908Y-75498725D01*
X146852235Y-75501843D01*
X146642191Y-75642191D01*
X146501843Y-75852235D01*
X146452560Y-76100000D01*
X146452560Y-76365000D01*
X133382851Y-76365000D01*
X133520891Y-76337542D01*
X133962481Y-76042481D01*
X134257542Y-75600891D01*
X134361154Y-75080000D01*
X134257542Y-74559109D01*
X133962481Y-74117519D01*
X133520891Y-73822458D01*
X133131485Y-73745000D01*
X132868515Y-73745000D01*
X132479109Y-73822458D01*
X132037519Y-74117519D01*
X131742458Y-74559109D01*
X131638846Y-75080000D01*
X131742458Y-75600891D01*
X132037519Y-76042481D01*
X132479109Y-76337542D01*
X132617149Y-76365000D01*
X125547440Y-76365000D01*
X125547440Y-76100000D01*
X125498157Y-75852235D01*
X125357809Y-75642191D01*
X125147765Y-75501843D01*
X125132092Y-75498725D01*
X125301310Y-75329507D01*
X125535000Y-74765330D01*
X125535000Y-74154670D01*
X125301310Y-73590493D01*
X124869507Y-73158690D01*
X124305330Y-72925000D01*
X123694670Y-72925000D01*
X123335000Y-73073980D01*
X123335000Y-70435000D01*
X123785439Y-70435000D01*
X124312862Y-70216534D01*
X124716534Y-69812862D01*
X124749012Y-69734452D01*
X131665000Y-69734452D01*
X131665000Y-70265548D01*
X131868242Y-70756217D01*
X132243783Y-71131758D01*
X132734452Y-71335000D01*
X133265548Y-71335000D01*
X133756217Y-71131758D01*
X134131758Y-70756217D01*
X134335000Y-70265548D01*
X134335000Y-69734452D01*
X134131758Y-69243783D01*
X133756217Y-68868242D01*
X133265548Y-68665000D01*
X132734452Y-68665000D01*
X132243783Y-68868242D01*
X131868242Y-69243783D01*
X131665000Y-69734452D01*
X124749012Y-69734452D01*
X124935000Y-69285439D01*
X124935000Y-68714561D01*
X124716534Y-68187138D01*
X124312862Y-67783466D01*
X123785439Y-67565000D01*
X123335000Y-67565000D01*
X123335000Y-61500000D01*
X123286664Y-61256996D01*
X123149013Y-61050987D01*
X122943004Y-60913336D01*
X122700000Y-60865000D01*
X111000000Y-60865000D01*
X110756996Y-60913336D01*
X110550987Y-61050987D01*
X110413336Y-61256996D01*
X110365000Y-61500000D01*
X110365000Y-64610617D01*
X110270625Y-64469375D01*
X109779418Y-64141161D01*
X109346256Y-64055000D01*
X109053744Y-64055000D01*
X108620582Y-64141161D01*
X108129375Y-64469375D01*
X107801161Y-64960582D01*
X107685908Y-65540000D01*
X107801161Y-66119418D01*
X108129375Y-66610625D01*
X108620582Y-66938839D01*
X109053744Y-67025000D01*
X109346256Y-67025000D01*
X109779418Y-66938839D01*
X110015001Y-66781428D01*
X110015001Y-69127026D01*
X109756217Y-68868242D01*
X109265548Y-68665000D01*
X108734452Y-68665000D01*
X108243783Y-68868242D01*
X107868242Y-69243783D01*
X107665000Y-69734452D01*
X107665000Y-70265548D01*
X107868242Y-70756217D01*
X108243783Y-71131758D01*
X108734452Y-71335000D01*
X109265548Y-71335000D01*
X109756217Y-71131758D01*
X110015001Y-70872974D01*
X110015000Y-74196120D01*
X109962481Y-74117519D01*
X109520891Y-73822458D01*
X109131485Y-73745000D01*
X108868515Y-73745000D01*
X108479109Y-73822458D01*
X108037519Y-74117519D01*
X107742458Y-74559109D01*
X107638846Y-75080000D01*
X107742458Y-75600891D01*
X108037519Y-76042481D01*
X108479109Y-76337542D01*
X108617149Y-76365000D01*
X101547440Y-76365000D01*
X101547440Y-76100000D01*
X101498157Y-75852235D01*
X101357809Y-75642191D01*
X101147765Y-75501843D01*
X101132092Y-75498725D01*
X101301310Y-75329507D01*
X101535000Y-74765330D01*
X101535000Y-74154670D01*
X101301310Y-73590493D01*
X100869507Y-73158690D01*
X100305330Y-72925000D01*
X99694670Y-72925000D01*
X99435000Y-73032559D01*
X99435000Y-70319202D01*
X99714561Y-70435000D01*
X100285439Y-70435000D01*
X100812862Y-70216534D01*
X101216534Y-69812862D01*
X101435000Y-69285439D01*
X101435000Y-68714561D01*
X101216534Y-68187138D01*
X100812862Y-67783466D01*
X100285439Y-67565000D01*
X99714561Y-67565000D01*
X99435000Y-67680798D01*
X99435000Y-61500000D01*
X99386664Y-61256996D01*
X99249013Y-61050987D01*
X99043004Y-60913336D01*
X98800000Y-60865000D01*
X88000000Y-60865000D01*
X87756996Y-60913336D01*
X87550987Y-61050987D01*
X87413336Y-61256996D01*
X87365000Y-61500000D01*
X87365000Y-67865000D01*
X81710000Y-67865000D01*
X81710000Y-59174778D01*
X206865000Y-59174778D01*
X206865000Y-59825222D01*
X207113914Y-60426153D01*
X207573847Y-60886086D01*
X208174778Y-61135000D01*
X208825222Y-61135000D01*
X209426153Y-60886086D01*
X209886086Y-60426153D01*
X210135000Y-59825222D01*
X210135000Y-59174778D01*
X209886086Y-58573847D01*
X209426153Y-58113914D01*
X208825222Y-57865000D01*
X208174778Y-57865000D01*
X207573847Y-58113914D01*
X207113914Y-58573847D01*
X206865000Y-59174778D01*
X81710000Y-59174778D01*
X81710000Y-53031618D01*
X81780578Y-52240808D01*
X81981705Y-51505611D01*
X82309846Y-50817649D01*
X82754628Y-50198669D01*
X83301988Y-49668239D01*
X83934639Y-49243116D01*
X84632561Y-48936749D01*
X85379183Y-48757501D01*
X85873000Y-48721238D01*
X85873000Y-48865000D01*
X85177497Y-48865000D01*
X83657711Y-49494517D01*
X82494517Y-50657711D01*
X81865000Y-52177497D01*
X81865000Y-53822503D01*
X82494517Y-55342289D01*
X83657711Y-56505483D01*
X85177497Y-57135000D01*
X86822503Y-57135000D01*
X88342289Y-56505483D01*
X89505483Y-55342289D01*
X90135000Y-53822503D01*
X90135000Y-52177497D01*
X201865000Y-52177497D01*
X201865000Y-53822503D01*
X202494517Y-55342289D01*
X203657711Y-56505483D01*
X205177497Y-57135000D01*
X206822503Y-57135000D01*
X208342289Y-56505483D01*
X209505483Y-55342289D01*
X210135000Y-53822503D01*
X210135000Y-52177497D01*
X209505483Y-50657711D01*
X208342289Y-49494517D01*
X206822503Y-48865000D01*
X205177497Y-48865000D01*
X203657711Y-49494517D01*
X202494517Y-50657711D01*
X201865000Y-52177497D01*
X90135000Y-52177497D01*
X89948398Y-51727000D01*
X91000000Y-51727000D01*
X91048601Y-51717333D01*
X91089803Y-51689803D01*
X91117333Y-51648601D01*
X91127000Y-51600000D01*
X91127000Y-48710000D01*
X205968382Y-48710000D01*
X206759192Y-48780578D01*
X206759192Y-48780578D01*
G37*
X206759192Y-48780578D02*
X207494389Y-48981705D01*
X208182351Y-49309846D01*
X208801331Y-49754628D01*
X209331761Y-50301988D01*
X209756884Y-50934639D01*
X210063251Y-51632561D01*
X210242499Y-52379183D01*
X210290000Y-53026030D01*
X210290001Y-82968370D01*
X210219422Y-83759193D01*
X210018295Y-84494389D01*
X209690152Y-85182355D01*
X209245374Y-85801328D01*
X208698012Y-86331761D01*
X208065362Y-86756883D01*
X207367439Y-87063251D01*
X206620819Y-87242499D01*
X205973970Y-87290000D01*
X199273747Y-87290000D01*
X199305149Y-87243004D01*
X199353485Y-87000000D01*
X199353485Y-82177497D01*
X201865000Y-82177497D01*
X201865000Y-83822503D01*
X202494517Y-85342289D01*
X203657711Y-86505483D01*
X205177497Y-87135000D01*
X206822503Y-87135000D01*
X208342289Y-86505483D01*
X209505483Y-85342289D01*
X210135000Y-83822503D01*
X210135000Y-82177497D01*
X209505483Y-80657711D01*
X208342289Y-79494517D01*
X206822503Y-78865000D01*
X205177497Y-78865000D01*
X203657711Y-79494517D01*
X202494517Y-80657711D01*
X201865000Y-82177497D01*
X199353485Y-82177497D01*
X199353485Y-77000000D01*
X199305149Y-76756996D01*
X199167498Y-76550987D01*
X198961489Y-76413336D01*
X198718485Y-76365000D01*
X197547440Y-76365000D01*
X197547440Y-76100000D01*
X197498157Y-75852235D01*
X197357809Y-75642191D01*
X197147765Y-75501843D01*
X197132092Y-75498725D01*
X197301310Y-75329507D01*
X197404659Y-75080000D01*
X202638846Y-75080000D01*
X202742458Y-75600891D01*
X203037519Y-76042481D01*
X203479109Y-76337542D01*
X203868515Y-76415000D01*
X204131485Y-76415000D01*
X204520891Y-76337542D01*
X204962481Y-76042481D01*
X205257542Y-75600891D01*
X205361154Y-75080000D01*
X205257542Y-74559109D01*
X204962481Y-74117519D01*
X204520891Y-73822458D01*
X204131485Y-73745000D01*
X203868515Y-73745000D01*
X203479109Y-73822458D01*
X203037519Y-74117519D01*
X202742458Y-74559109D01*
X202638846Y-75080000D01*
X197404659Y-75080000D01*
X197535000Y-74765330D01*
X197535000Y-74154670D01*
X197301310Y-73590493D01*
X196869507Y-73158690D01*
X196305330Y-72925000D01*
X195694670Y-72925000D01*
X195130493Y-73158690D01*
X194698690Y-73590493D01*
X194465000Y-74154670D01*
X194465000Y-74765330D01*
X194698690Y-75329507D01*
X194867908Y-75498725D01*
X194852235Y-75501843D01*
X194642191Y-75642191D01*
X194501843Y-75852235D01*
X194452560Y-76100000D01*
X194452560Y-76365000D01*
X181382851Y-76365000D01*
X181520891Y-76337542D01*
X181962481Y-76042481D01*
X182257542Y-75600891D01*
X182361154Y-75080000D01*
X182280894Y-74676509D01*
X193600000Y-74676509D01*
X193843004Y-74628173D01*
X194049013Y-74490522D01*
X194186664Y-74284513D01*
X194235000Y-74041509D01*
X194235000Y-69695855D01*
X194283466Y-69812862D01*
X194687138Y-70216534D01*
X195214561Y-70435000D01*
X195785439Y-70435000D01*
X196312862Y-70216534D01*
X196716534Y-69812862D01*
X196749012Y-69734452D01*
X202665000Y-69734452D01*
X202665000Y-70265548D01*
X202868242Y-70756217D01*
X203243783Y-71131758D01*
X203734452Y-71335000D01*
X204265548Y-71335000D01*
X204756217Y-71131758D01*
X205131758Y-70756217D01*
X205335000Y-70265548D01*
X205335000Y-69734452D01*
X205131758Y-69243783D01*
X204756217Y-68868242D01*
X204265548Y-68665000D01*
X203734452Y-68665000D01*
X203243783Y-68868242D01*
X202868242Y-69243783D01*
X202665000Y-69734452D01*
X196749012Y-69734452D01*
X196935000Y-69285439D01*
X196935000Y-68714561D01*
X196716534Y-68187138D01*
X196312862Y-67783466D01*
X195785439Y-67565000D01*
X195214561Y-67565000D01*
X194687138Y-67783466D01*
X194283466Y-68187138D01*
X194235000Y-68304145D01*
X194235000Y-65674778D01*
X206865000Y-65674778D01*
X206865000Y-66325222D01*
X207113914Y-66926153D01*
X207573847Y-67386086D01*
X208174778Y-67635000D01*
X208825222Y-67635000D01*
X209426153Y-67386086D01*
X209886086Y-66926153D01*
X210135000Y-66325222D01*
X210135000Y-65674778D01*
X209886086Y-65073847D01*
X209426153Y-64613914D01*
X208825222Y-64365000D01*
X208174778Y-64365000D01*
X207573847Y-64613914D01*
X207113914Y-65073847D01*
X206865000Y-65674778D01*
X194235000Y-65674778D01*
X194235000Y-61500000D01*
X194186664Y-61256996D01*
X194049013Y-61050987D01*
X193843004Y-60913336D01*
X193600000Y-60865000D01*
X182000000Y-60865000D01*
X181756996Y-60913336D01*
X181550987Y-61050987D01*
X181413336Y-61256996D01*
X181365000Y-61500000D01*
X181365000Y-68706194D01*
X181265548Y-68665000D01*
X180734452Y-68665000D01*
X180243783Y-68868242D01*
X179868242Y-69243783D01*
X179665000Y-69734452D01*
X179665000Y-70265548D01*
X179868242Y-70756217D01*
X180243783Y-71131758D01*
X180734452Y-71335000D01*
X181265548Y-71335000D01*
X181365000Y-71293806D01*
X181365000Y-73791449D01*
X181131485Y-73745000D01*
X180868515Y-73745000D01*
X180479109Y-73822458D01*
X180037519Y-74117519D01*
X179742458Y-74559109D01*
X179638846Y-75080000D01*
X179742458Y-75600891D01*
X180037519Y-76042481D01*
X180479109Y-76337542D01*
X180617149Y-76365000D01*
X173547440Y-76365000D01*
X173547440Y-76100000D01*
X173498157Y-75852235D01*
X173357809Y-75642191D01*
X173147765Y-75501843D01*
X173132092Y-75498725D01*
X173301310Y-75329507D01*
X173535000Y-74765330D01*
X173535000Y-74154670D01*
X173301310Y-73590493D01*
X172869507Y-73158690D01*
X172305330Y-72925000D01*
X171694670Y-72925000D01*
X171130493Y-73158690D01*
X170698690Y-73590493D01*
X170635000Y-73744254D01*
X170635000Y-70164396D01*
X170687138Y-70216534D01*
X171214561Y-70435000D01*
X171785439Y-70435000D01*
X172312862Y-70216534D01*
X172716534Y-69812862D01*
X172935000Y-69285439D01*
X172935000Y-68714561D01*
X172716534Y-68187138D01*
X172312862Y-67783466D01*
X171785439Y-67565000D01*
X171214561Y-67565000D01*
X170687138Y-67783466D01*
X170635000Y-67835604D01*
X170635000Y-61500000D01*
X170586664Y-61256996D01*
X170449013Y-61050987D01*
X170243004Y-60913336D01*
X170000000Y-60865000D01*
X158000000Y-60865000D01*
X157756996Y-60913336D01*
X157550987Y-61050987D01*
X157413336Y-61256996D01*
X157365000Y-61500000D01*
X157365000Y-68706194D01*
X157265548Y-68665000D01*
X156734452Y-68665000D01*
X156243783Y-68868242D01*
X155868242Y-69243783D01*
X155665000Y-69734452D01*
X155665000Y-70265548D01*
X155868242Y-70756217D01*
X156243783Y-71131758D01*
X156734452Y-71335000D01*
X157265548Y-71335000D01*
X157365000Y-71293806D01*
X157365000Y-73791449D01*
X157131485Y-73745000D01*
X156868515Y-73745000D01*
X156479109Y-73822458D01*
X156037519Y-74117519D01*
X155742458Y-74559109D01*
X155638846Y-75080000D01*
X155742458Y-75600891D01*
X156037519Y-76042481D01*
X156479109Y-76337542D01*
X156617149Y-76365000D01*
X149547440Y-76365000D01*
X149547440Y-76100000D01*
X149498157Y-75852235D01*
X149357809Y-75642191D01*
X149147765Y-75501843D01*
X149132092Y-75498725D01*
X149301310Y-75329507D01*
X149535000Y-74765330D01*
X149535000Y-74154670D01*
X149301310Y-73590493D01*
X148869507Y-73158690D01*
X148305330Y-72925000D01*
X147694670Y-72925000D01*
X147130493Y-73158690D01*
X147035000Y-73254183D01*
X147035000Y-70360623D01*
X147214561Y-70435000D01*
X147785439Y-70435000D01*
X148312862Y-70216534D01*
X148716534Y-69812862D01*
X148935000Y-69285439D01*
X148935000Y-68714561D01*
X148716534Y-68187138D01*
X148312862Y-67783466D01*
X147785439Y-67565000D01*
X147214561Y-67565000D01*
X147035000Y-67639377D01*
X147035000Y-61500000D01*
X146986664Y-61256996D01*
X146849013Y-61050987D01*
X146643004Y-60913336D01*
X146400000Y-60865000D01*
X135000000Y-60865000D01*
X134756996Y-60913336D01*
X134550987Y-61050987D01*
X134413336Y-61256996D01*
X134365000Y-61500000D01*
X134365000Y-74000000D01*
X134413336Y-74243004D01*
X134550987Y-74449013D01*
X134756996Y-74586664D01*
X135000000Y-74635000D01*
X146400000Y-74635000D01*
X146465000Y-74622071D01*
X146465000Y-74765330D01*
X146698690Y-75329507D01*
X146867908Y-75498725D01*
X146852235Y-75501843D01*
X146642191Y-75642191D01*
X146501843Y-75852235D01*
X146452560Y-76100000D01*
X146452560Y-76365000D01*
X133382851Y-76365000D01*
X133520891Y-76337542D01*
X133962481Y-76042481D01*
X134257542Y-75600891D01*
X134361154Y-75080000D01*
X134257542Y-74559109D01*
X133962481Y-74117519D01*
X133520891Y-73822458D01*
X133131485Y-73745000D01*
X132868515Y-73745000D01*
X132479109Y-73822458D01*
X132037519Y-74117519D01*
X131742458Y-74559109D01*
X131638846Y-75080000D01*
X131742458Y-75600891D01*
X132037519Y-76042481D01*
X132479109Y-76337542D01*
X132617149Y-76365000D01*
X125547440Y-76365000D01*
X125547440Y-76100000D01*
X125498157Y-75852235D01*
X125357809Y-75642191D01*
X125147765Y-75501843D01*
X125132092Y-75498725D01*
X125301310Y-75329507D01*
X125535000Y-74765330D01*
X125535000Y-74154670D01*
X125301310Y-73590493D01*
X124869507Y-73158690D01*
X124305330Y-72925000D01*
X123694670Y-72925000D01*
X123335000Y-73073980D01*
X123335000Y-70435000D01*
X123785439Y-70435000D01*
X124312862Y-70216534D01*
X124716534Y-69812862D01*
X124749012Y-69734452D01*
X131665000Y-69734452D01*
X131665000Y-70265548D01*
X131868242Y-70756217D01*
X132243783Y-71131758D01*
X132734452Y-71335000D01*
X133265548Y-71335000D01*
X133756217Y-71131758D01*
X134131758Y-70756217D01*
X134335000Y-70265548D01*
X134335000Y-69734452D01*
X134131758Y-69243783D01*
X133756217Y-68868242D01*
X133265548Y-68665000D01*
X132734452Y-68665000D01*
X132243783Y-68868242D01*
X131868242Y-69243783D01*
X131665000Y-69734452D01*
X124749012Y-69734452D01*
X124935000Y-69285439D01*
X124935000Y-68714561D01*
X124716534Y-68187138D01*
X124312862Y-67783466D01*
X123785439Y-67565000D01*
X123335000Y-67565000D01*
X123335000Y-61500000D01*
X123286664Y-61256996D01*
X123149013Y-61050987D01*
X122943004Y-60913336D01*
X122700000Y-60865000D01*
X111000000Y-60865000D01*
X110756996Y-60913336D01*
X110550987Y-61050987D01*
X110413336Y-61256996D01*
X110365000Y-61500000D01*
X110365000Y-64610617D01*
X110270625Y-64469375D01*
X109779418Y-64141161D01*
X109346256Y-64055000D01*
X109053744Y-64055000D01*
X108620582Y-64141161D01*
X108129375Y-64469375D01*
X107801161Y-64960582D01*
X107685908Y-65540000D01*
X107801161Y-66119418D01*
X108129375Y-66610625D01*
X108620582Y-66938839D01*
X109053744Y-67025000D01*
X109346256Y-67025000D01*
X109779418Y-66938839D01*
X110015001Y-66781428D01*
X110015001Y-69127026D01*
X109756217Y-68868242D01*
X109265548Y-68665000D01*
X108734452Y-68665000D01*
X108243783Y-68868242D01*
X107868242Y-69243783D01*
X107665000Y-69734452D01*
X107665000Y-70265548D01*
X107868242Y-70756217D01*
X108243783Y-71131758D01*
X108734452Y-71335000D01*
X109265548Y-71335000D01*
X109756217Y-71131758D01*
X110015001Y-70872974D01*
X110015000Y-74196120D01*
X109962481Y-74117519D01*
X109520891Y-73822458D01*
X109131485Y-73745000D01*
X108868515Y-73745000D01*
X108479109Y-73822458D01*
X108037519Y-74117519D01*
X107742458Y-74559109D01*
X107638846Y-75080000D01*
X107742458Y-75600891D01*
X108037519Y-76042481D01*
X108479109Y-76337542D01*
X108617149Y-76365000D01*
X101547440Y-76365000D01*
X101547440Y-76100000D01*
X101498157Y-75852235D01*
X101357809Y-75642191D01*
X101147765Y-75501843D01*
X101132092Y-75498725D01*
X101301310Y-75329507D01*
X101535000Y-74765330D01*
X101535000Y-74154670D01*
X101301310Y-73590493D01*
X100869507Y-73158690D01*
X100305330Y-72925000D01*
X99694670Y-72925000D01*
X99435000Y-73032559D01*
X99435000Y-70319202D01*
X99714561Y-70435000D01*
X100285439Y-70435000D01*
X100812862Y-70216534D01*
X101216534Y-69812862D01*
X101435000Y-69285439D01*
X101435000Y-68714561D01*
X101216534Y-68187138D01*
X100812862Y-67783466D01*
X100285439Y-67565000D01*
X99714561Y-67565000D01*
X99435000Y-67680798D01*
X99435000Y-61500000D01*
X99386664Y-61256996D01*
X99249013Y-61050987D01*
X99043004Y-60913336D01*
X98800000Y-60865000D01*
X88000000Y-60865000D01*
X87756996Y-60913336D01*
X87550987Y-61050987D01*
X87413336Y-61256996D01*
X87365000Y-61500000D01*
X87365000Y-67865000D01*
X81710000Y-67865000D01*
X81710000Y-59174778D01*
X206865000Y-59174778D01*
X206865000Y-59825222D01*
X207113914Y-60426153D01*
X207573847Y-60886086D01*
X208174778Y-61135000D01*
X208825222Y-61135000D01*
X209426153Y-60886086D01*
X209886086Y-60426153D01*
X210135000Y-59825222D01*
X210135000Y-59174778D01*
X209886086Y-58573847D01*
X209426153Y-58113914D01*
X208825222Y-57865000D01*
X208174778Y-57865000D01*
X207573847Y-58113914D01*
X207113914Y-58573847D01*
X206865000Y-59174778D01*
X81710000Y-59174778D01*
X81710000Y-53031618D01*
X81780578Y-52240808D01*
X81981705Y-51505611D01*
X82309846Y-50817649D01*
X82754628Y-50198669D01*
X83301988Y-49668239D01*
X83934639Y-49243116D01*
X84632561Y-48936749D01*
X85379183Y-48757501D01*
X85873000Y-48721238D01*
X85873000Y-48865000D01*
X85177497Y-48865000D01*
X83657711Y-49494517D01*
X82494517Y-50657711D01*
X81865000Y-52177497D01*
X81865000Y-53822503D01*
X82494517Y-55342289D01*
X83657711Y-56505483D01*
X85177497Y-57135000D01*
X86822503Y-57135000D01*
X88342289Y-56505483D01*
X89505483Y-55342289D01*
X90135000Y-53822503D01*
X90135000Y-52177497D01*
X201865000Y-52177497D01*
X201865000Y-53822503D01*
X202494517Y-55342289D01*
X203657711Y-56505483D01*
X205177497Y-57135000D01*
X206822503Y-57135000D01*
X208342289Y-56505483D01*
X209505483Y-55342289D01*
X210135000Y-53822503D01*
X210135000Y-52177497D01*
X209505483Y-50657711D01*
X208342289Y-49494517D01*
X206822503Y-48865000D01*
X205177497Y-48865000D01*
X203657711Y-49494517D01*
X202494517Y-50657711D01*
X201865000Y-52177497D01*
X90135000Y-52177497D01*
X89948398Y-51727000D01*
X91000000Y-51727000D01*
X91048601Y-51717333D01*
X91089803Y-51689803D01*
X91117333Y-51648601D01*
X91127000Y-51600000D01*
X91127000Y-48710000D01*
X205968382Y-48710000D01*
X206759192Y-48780578D01*
G04 #@! TD*
M02*
