M48
;DRILL file {KiCad 5.0.2+dfsg1-1} date Sun 21 Jun 2020 02:15:32 PM EDT
;FORMAT={-:-/ absolute / metric / decimal}
FMAT,2
METRIC,TZ
T1C0.400
T2C0.500
T3C0.700
T4C0.780
T5C0.800
T6C0.900
T7C1.000
T8C1.100
T9C3.500
%
G90
G05
T1
X88.6Y-58.
T2
X203.375Y-53.
X204.144Y-51.144
X204.144Y-54.856
X206.Y-50.375
X206.Y-55.625
X207.856Y-51.144
X207.856Y-54.856
X208.625Y-53.
X83.375Y-83.
X84.144Y-81.144
X84.144Y-84.856
X86.Y-80.375
X86.Y-85.625
X87.856Y-81.144
X87.856Y-84.856
X88.625Y-83.
X203.375Y-83.
X204.144Y-81.144
X204.144Y-84.856
X206.Y-80.375
X206.Y-85.625
X207.856Y-81.144
X207.856Y-84.856
X208.625Y-83.
X83.375Y-53.
X84.144Y-51.144
X84.144Y-54.856
X86.Y-50.375
X86.Y-55.625
X87.856Y-51.144
X87.856Y-54.856
X88.625Y-53.
T3
X133.Y-70.
X133.Y-75.08
X157.Y-70.
X157.Y-75.08
X109.Y-70.
X109.Y-75.08
X204.Y-70.
X204.Y-75.08
X181.Y-70.
X181.Y-75.08
T5
X195.5Y-66.5
X195.5Y-69.
X123.5Y-66.5
X123.5Y-69.
X100.Y-66.5
X100.Y-69.
X147.5Y-66.5
X147.5Y-69.
X171.5Y-66.5
X171.5Y-69.
T6
X100.Y-74.46
X100.Y-77.
X148.Y-74.46
X148.Y-77.
X196.Y-74.46
X196.Y-77.
X124.Y-74.46
X124.Y-77.
X172.Y-74.46
X172.Y-77.
T7
X109.2Y-63.
X109.2Y-65.54
T8
X204.Y-59.5
X204.Y-66.
X208.5Y-59.5
X208.5Y-66.
T9
X206.Y-53.
X86.Y-83.
X206.Y-83.
X86.Y-53.
T4
X188.6Y-70.525G85X188.6Y-71.475
G05
X188.6Y-80.255G85X188.6Y-81.205
G05
X192.Y-70.525G85X192.Y-71.475
G05
X192.Y-80.255G85X192.Y-81.205
G05
X116.6Y-70.525G85X116.6Y-71.475
G05
X116.6Y-80.255G85X116.6Y-81.205
G05
X120.Y-70.525G85X120.Y-71.475
G05
X120.Y-80.255G85X120.Y-81.205
G05
X164.6Y-70.525G85X164.6Y-71.475
G05
X164.6Y-80.255G85X164.6Y-81.205
G05
X168.Y-70.525G85X168.Y-71.475
G05
X168.Y-80.255G85X168.Y-81.205
G05
X92.6Y-70.625G85X92.6Y-71.575
G05
X92.6Y-80.355G85X92.6Y-81.305
G05
X96.Y-70.625G85X96.Y-71.575
G05
X96.Y-80.355G85X96.Y-81.305
G05
X140.6Y-70.525G85X140.6Y-71.475
G05
X140.6Y-80.255G85X140.6Y-81.205
G05
X144.Y-70.525G85X144.Y-71.475
G05
X144.Y-80.255G85X144.Y-81.205
G05
T8
X187.875Y-63.2G85X191.325Y-63.2
G05
X195.775Y-63.2G85X199.225Y-63.2
G05
X93.075Y-63.2G85X96.525Y-63.2
G05
X100.975Y-63.2G85X104.425Y-63.2
G05
X116.775Y-63.2G85X120.225Y-63.2
G05
X124.675Y-63.2G85X128.125Y-63.2
G05
X164.175Y-63.2G85X167.625Y-63.2
G05
X172.075Y-63.2G85X175.525Y-63.2
G05
X140.475Y-63.2G85X143.925Y-63.2
G05
X148.375Y-63.2G85X151.825Y-63.2
G05
T0
M30
