G04 #@! TF.GenerationSoftware,KiCad,Pcbnew,5.0.2+dfsg1-1*
G04 #@! TF.CreationDate,2020-06-21T14:15:28-04:00*
G04 #@! TF.ProjectId,powerpoledist,706f7765-7270-46f6-9c65-646973742e6b,rev?*
G04 #@! TF.SameCoordinates,Original*
G04 #@! TF.FileFunction,Soldermask,Top*
G04 #@! TF.FilePolarity,Negative*
%FSLAX46Y46*%
G04 Gerber Fmt 4.6, Leading zero omitted, Abs format (unit mm)*
G04 Created by KiCad (PCBNEW 5.0.2+dfsg1-1) date Sun 21 Jun 2020 02:15:28 PM EDT*
%MOMM*%
%LPD*%
G01*
G04 APERTURE LIST*
%ADD10C,0.150000*%
%ADD11C,0.010000*%
%ADD12C,0.020000*%
G04 APERTURE END LIST*
D10*
G36*
X90800000Y-48000000D02*
X90800000Y-51400000D01*
X86200000Y-51400000D01*
X86200000Y-48000000D01*
X90800000Y-48000000D01*
G37*
X90800000Y-48000000D02*
X90800000Y-51400000D01*
X86200000Y-51400000D01*
X86200000Y-48000000D01*
X90800000Y-48000000D01*
D11*
G04 #@! TO.C,REF\002A\002A*
G36*
X81725960Y-71044059D02*
X81792395Y-70926455D01*
X81895045Y-70832977D01*
X81981124Y-70789188D01*
X82119614Y-70758578D01*
X82257591Y-70767679D01*
X82379084Y-70815027D01*
X82397850Y-70827412D01*
X82485408Y-70917851D01*
X82545553Y-71036729D01*
X82575418Y-71169667D01*
X82572134Y-71302287D01*
X82532832Y-71420210D01*
X82520244Y-71440994D01*
X82441394Y-71523263D01*
X82332770Y-71591086D01*
X82215295Y-71633253D01*
X82145799Y-71641600D01*
X82036575Y-71622326D01*
X81922110Y-71571810D01*
X81823158Y-71501018D01*
X81774295Y-71445358D01*
X81713876Y-71313139D01*
X81698776Y-71176163D01*
X81725960Y-71044059D01*
X81725960Y-71044059D01*
G37*
X81725960Y-71044059D02*
X81792395Y-70926455D01*
X81895045Y-70832977D01*
X81981124Y-70789188D01*
X82119614Y-70758578D01*
X82257591Y-70767679D01*
X82379084Y-70815027D01*
X82397850Y-70827412D01*
X82485408Y-70917851D01*
X82545553Y-71036729D01*
X82575418Y-71169667D01*
X82572134Y-71302287D01*
X82532832Y-71420210D01*
X82520244Y-71440994D01*
X82441394Y-71523263D01*
X82332770Y-71591086D01*
X82215295Y-71633253D01*
X82145799Y-71641600D01*
X82036575Y-71622326D01*
X81922110Y-71571810D01*
X81823158Y-71501018D01*
X81774295Y-71445358D01*
X81713876Y-71313139D01*
X81698776Y-71176163D01*
X81725960Y-71044059D01*
G36*
X84592045Y-70803400D02*
X84863528Y-70803179D01*
X85088618Y-70802417D01*
X85271721Y-70800974D01*
X85417240Y-70798706D01*
X85529583Y-70795469D01*
X85613155Y-70791122D01*
X85672359Y-70785520D01*
X85711603Y-70778522D01*
X85735292Y-70769984D01*
X85741395Y-70766108D01*
X85778943Y-70739822D01*
X85807085Y-70729109D01*
X85827174Y-70739290D01*
X85840563Y-70775688D01*
X85848605Y-70843624D01*
X85852653Y-70948422D01*
X85854060Y-71095402D01*
X85854200Y-71209800D01*
X85853515Y-71360082D01*
X85851608Y-71491273D01*
X85848702Y-71595573D01*
X85845017Y-71665181D01*
X85840776Y-71692295D01*
X85840488Y-71692400D01*
X85811454Y-71681845D01*
X85754509Y-71655274D01*
X85727200Y-71641600D01*
X85699760Y-71628734D01*
X85669394Y-71618241D01*
X85630920Y-71609880D01*
X85579155Y-71603409D01*
X85508918Y-71598589D01*
X85415027Y-71595178D01*
X85292301Y-71592935D01*
X85135559Y-71591619D01*
X84939617Y-71590990D01*
X84699296Y-71590805D01*
X84634750Y-71590800D01*
X84377269Y-71591053D01*
X84165749Y-71591929D01*
X83995351Y-71593604D01*
X83861238Y-71596252D01*
X83758571Y-71600050D01*
X83682513Y-71605173D01*
X83628226Y-71611797D01*
X83590872Y-71620097D01*
X83566938Y-71629553D01*
X83492000Y-71668305D01*
X83492000Y-70803400D01*
X84592045Y-70803400D01*
X84592045Y-70803400D01*
G37*
X84592045Y-70803400D02*
X84863528Y-70803179D01*
X85088618Y-70802417D01*
X85271721Y-70800974D01*
X85417240Y-70798706D01*
X85529583Y-70795469D01*
X85613155Y-70791122D01*
X85672359Y-70785520D01*
X85711603Y-70778522D01*
X85735292Y-70769984D01*
X85741395Y-70766108D01*
X85778943Y-70739822D01*
X85807085Y-70729109D01*
X85827174Y-70739290D01*
X85840563Y-70775688D01*
X85848605Y-70843624D01*
X85852653Y-70948422D01*
X85854060Y-71095402D01*
X85854200Y-71209800D01*
X85853515Y-71360082D01*
X85851608Y-71491273D01*
X85848702Y-71595573D01*
X85845017Y-71665181D01*
X85840776Y-71692295D01*
X85840488Y-71692400D01*
X85811454Y-71681845D01*
X85754509Y-71655274D01*
X85727200Y-71641600D01*
X85699760Y-71628734D01*
X85669394Y-71618241D01*
X85630920Y-71609880D01*
X85579155Y-71603409D01*
X85508918Y-71598589D01*
X85415027Y-71595178D01*
X85292301Y-71592935D01*
X85135559Y-71591619D01*
X84939617Y-71590990D01*
X84699296Y-71590805D01*
X84634750Y-71590800D01*
X84377269Y-71591053D01*
X84165749Y-71591929D01*
X83995351Y-71593604D01*
X83861238Y-71596252D01*
X83758571Y-71600050D01*
X83682513Y-71605173D01*
X83628226Y-71611797D01*
X83590872Y-71620097D01*
X83566938Y-71629553D01*
X83492000Y-71668305D01*
X83492000Y-70803400D01*
X84592045Y-70803400D01*
G36*
X82628400Y-72386253D02*
X82628400Y-71840941D01*
X82829787Y-72039721D01*
X83192691Y-72369429D01*
X83466815Y-72583849D01*
X83570400Y-72662297D01*
X83690529Y-72756856D01*
X83814202Y-72856950D01*
X83928419Y-72952002D01*
X84020181Y-73031434D01*
X84047760Y-73056532D01*
X84135212Y-73137964D01*
X84226356Y-73068006D01*
X84415604Y-72932564D01*
X84555050Y-72845022D01*
X84637286Y-72790152D01*
X84716612Y-72728876D01*
X84722607Y-72723727D01*
X84805581Y-72654778D01*
X84908137Y-72574253D01*
X85018288Y-72491058D01*
X85124047Y-72414098D01*
X85213425Y-72352281D01*
X85270547Y-72316624D01*
X85323596Y-72281543D01*
X85402062Y-72223014D01*
X85493252Y-72151180D01*
X85584472Y-72076185D01*
X85663032Y-72008172D01*
X85702020Y-71971800D01*
X85728081Y-71947911D01*
X85775406Y-71905637D01*
X85784570Y-71897523D01*
X85854200Y-71835945D01*
X85854200Y-72962400D01*
X85775923Y-72962400D01*
X85699395Y-72979163D01*
X85594149Y-73026393D01*
X85468239Y-73099507D01*
X85329716Y-73193919D01*
X85215533Y-73281458D01*
X85123313Y-73352732D01*
X85032269Y-73418053D01*
X84959535Y-73465223D01*
X84948833Y-73471329D01*
X84882434Y-73511371D01*
X84834284Y-73546658D01*
X84825500Y-73555301D01*
X84786816Y-73589862D01*
X84730250Y-73630085D01*
X84682093Y-73667774D01*
X84660487Y-73698285D01*
X84660400Y-73699586D01*
X84685091Y-73708462D01*
X84756381Y-73715582D01*
X84870092Y-73720736D01*
X85022044Y-73723717D01*
X85156961Y-73724400D01*
X85336263Y-73723716D01*
X85472270Y-73721305D01*
X85572475Y-73716625D01*
X85644369Y-73709137D01*
X85695443Y-73698302D01*
X85733188Y-73683579D01*
X85734811Y-73682756D01*
X85794491Y-73647283D01*
X85832618Y-73615777D01*
X85834761Y-73612906D01*
X85840323Y-73628403D01*
X85845262Y-73687753D01*
X85849312Y-73784014D01*
X85852207Y-73910241D01*
X85853682Y-74059489D01*
X85853811Y-74111206D01*
X85854200Y-74637711D01*
X85784350Y-74608032D01*
X85725758Y-74579859D01*
X85690370Y-74557776D01*
X85661142Y-74553943D01*
X85585781Y-74550343D01*
X85468951Y-74547041D01*
X85315317Y-74544104D01*
X85129546Y-74541601D01*
X84916302Y-74539596D01*
X84680251Y-74538158D01*
X84426059Y-74537353D01*
X84254290Y-74537201D01*
X83950311Y-74537259D01*
X83692912Y-74537530D01*
X83477874Y-74538154D01*
X83300978Y-74539274D01*
X83158004Y-74541031D01*
X83044733Y-74543567D01*
X82956945Y-74547024D01*
X82890421Y-74551543D01*
X82840941Y-74557267D01*
X82804286Y-74564338D01*
X82776237Y-74572896D01*
X82752574Y-74583084D01*
X82742699Y-74588001D01*
X82680869Y-74618756D01*
X82641660Y-74636810D01*
X82635729Y-74638801D01*
X82633507Y-74614665D01*
X82631556Y-74547312D01*
X82629984Y-74444328D01*
X82628901Y-74313294D01*
X82628415Y-74161795D01*
X82628400Y-74128083D01*
X82628664Y-73954940D01*
X82629831Y-73826371D01*
X82632464Y-73736154D01*
X82637123Y-73678063D01*
X82644372Y-73645876D01*
X82654772Y-73633368D01*
X82668885Y-73634314D01*
X82672850Y-73635836D01*
X82761673Y-73669195D01*
X82850181Y-73693261D01*
X82949141Y-73709420D01*
X83069321Y-73719058D01*
X83221488Y-73723560D01*
X83361088Y-73724400D01*
X83780904Y-73724401D01*
X83707900Y-73648201D01*
X83657557Y-73600587D01*
X83620278Y-73574006D01*
X83613483Y-73572000D01*
X83587550Y-73556863D01*
X83534128Y-73517372D01*
X83464145Y-73462412D01*
X83388529Y-73400868D01*
X83318209Y-73341623D01*
X83264114Y-73293561D01*
X83238000Y-73266761D01*
X83210734Y-73244439D01*
X83154630Y-73206064D01*
X83111000Y-73178198D01*
X83023298Y-73119995D01*
X82936698Y-73057049D01*
X82908362Y-73034701D01*
X82841736Y-72989987D01*
X82780643Y-72964592D01*
X82764390Y-72962400D01*
X82720677Y-72961878D01*
X82687502Y-72956209D01*
X82663412Y-72939238D01*
X82646955Y-72904811D01*
X82636677Y-72846774D01*
X82631127Y-72758972D01*
X82628851Y-72635250D01*
X82628396Y-72469455D01*
X82628400Y-72386253D01*
X82628400Y-72386253D01*
G37*
X82628400Y-72386253D02*
X82628400Y-71840941D01*
X82829787Y-72039721D01*
X83192691Y-72369429D01*
X83466815Y-72583849D01*
X83570400Y-72662297D01*
X83690529Y-72756856D01*
X83814202Y-72856950D01*
X83928419Y-72952002D01*
X84020181Y-73031434D01*
X84047760Y-73056532D01*
X84135212Y-73137964D01*
X84226356Y-73068006D01*
X84415604Y-72932564D01*
X84555050Y-72845022D01*
X84637286Y-72790152D01*
X84716612Y-72728876D01*
X84722607Y-72723727D01*
X84805581Y-72654778D01*
X84908137Y-72574253D01*
X85018288Y-72491058D01*
X85124047Y-72414098D01*
X85213425Y-72352281D01*
X85270547Y-72316624D01*
X85323596Y-72281543D01*
X85402062Y-72223014D01*
X85493252Y-72151180D01*
X85584472Y-72076185D01*
X85663032Y-72008172D01*
X85702020Y-71971800D01*
X85728081Y-71947911D01*
X85775406Y-71905637D01*
X85784570Y-71897523D01*
X85854200Y-71835945D01*
X85854200Y-72962400D01*
X85775923Y-72962400D01*
X85699395Y-72979163D01*
X85594149Y-73026393D01*
X85468239Y-73099507D01*
X85329716Y-73193919D01*
X85215533Y-73281458D01*
X85123313Y-73352732D01*
X85032269Y-73418053D01*
X84959535Y-73465223D01*
X84948833Y-73471329D01*
X84882434Y-73511371D01*
X84834284Y-73546658D01*
X84825500Y-73555301D01*
X84786816Y-73589862D01*
X84730250Y-73630085D01*
X84682093Y-73667774D01*
X84660487Y-73698285D01*
X84660400Y-73699586D01*
X84685091Y-73708462D01*
X84756381Y-73715582D01*
X84870092Y-73720736D01*
X85022044Y-73723717D01*
X85156961Y-73724400D01*
X85336263Y-73723716D01*
X85472270Y-73721305D01*
X85572475Y-73716625D01*
X85644369Y-73709137D01*
X85695443Y-73698302D01*
X85733188Y-73683579D01*
X85734811Y-73682756D01*
X85794491Y-73647283D01*
X85832618Y-73615777D01*
X85834761Y-73612906D01*
X85840323Y-73628403D01*
X85845262Y-73687753D01*
X85849312Y-73784014D01*
X85852207Y-73910241D01*
X85853682Y-74059489D01*
X85853811Y-74111206D01*
X85854200Y-74637711D01*
X85784350Y-74608032D01*
X85725758Y-74579859D01*
X85690370Y-74557776D01*
X85661142Y-74553943D01*
X85585781Y-74550343D01*
X85468951Y-74547041D01*
X85315317Y-74544104D01*
X85129546Y-74541601D01*
X84916302Y-74539596D01*
X84680251Y-74538158D01*
X84426059Y-74537353D01*
X84254290Y-74537201D01*
X83950311Y-74537259D01*
X83692912Y-74537530D01*
X83477874Y-74538154D01*
X83300978Y-74539274D01*
X83158004Y-74541031D01*
X83044733Y-74543567D01*
X82956945Y-74547024D01*
X82890421Y-74551543D01*
X82840941Y-74557267D01*
X82804286Y-74564338D01*
X82776237Y-74572896D01*
X82752574Y-74583084D01*
X82742699Y-74588001D01*
X82680869Y-74618756D01*
X82641660Y-74636810D01*
X82635729Y-74638801D01*
X82633507Y-74614665D01*
X82631556Y-74547312D01*
X82629984Y-74444328D01*
X82628901Y-74313294D01*
X82628415Y-74161795D01*
X82628400Y-74128083D01*
X82628664Y-73954940D01*
X82629831Y-73826371D01*
X82632464Y-73736154D01*
X82637123Y-73678063D01*
X82644372Y-73645876D01*
X82654772Y-73633368D01*
X82668885Y-73634314D01*
X82672850Y-73635836D01*
X82761673Y-73669195D01*
X82850181Y-73693261D01*
X82949141Y-73709420D01*
X83069321Y-73719058D01*
X83221488Y-73723560D01*
X83361088Y-73724400D01*
X83780904Y-73724401D01*
X83707900Y-73648201D01*
X83657557Y-73600587D01*
X83620278Y-73574006D01*
X83613483Y-73572000D01*
X83587550Y-73556863D01*
X83534128Y-73517372D01*
X83464145Y-73462412D01*
X83388529Y-73400868D01*
X83318209Y-73341623D01*
X83264114Y-73293561D01*
X83238000Y-73266761D01*
X83210734Y-73244439D01*
X83154630Y-73206064D01*
X83111000Y-73178198D01*
X83023298Y-73119995D01*
X82936698Y-73057049D01*
X82908362Y-73034701D01*
X82841736Y-72989987D01*
X82780643Y-72964592D01*
X82764390Y-72962400D01*
X82720677Y-72961878D01*
X82687502Y-72956209D01*
X82663412Y-72939238D01*
X82646955Y-72904811D01*
X82636677Y-72846774D01*
X82631127Y-72758972D01*
X82628851Y-72635250D01*
X82628396Y-72469455D01*
X82628400Y-72386253D01*
D12*
G36*
X207035786Y-79585462D02*
X207035788Y-79585463D01*
X207035789Y-79585463D01*
X207682029Y-79853144D01*
X208088088Y-80124464D01*
X208263634Y-80241760D01*
X208758240Y-80736366D01*
X208758242Y-80736369D01*
X209146856Y-81317971D01*
X209413419Y-81961512D01*
X209414538Y-81964214D01*
X209551000Y-82650256D01*
X209551000Y-83349744D01*
X209534307Y-83433668D01*
X209414537Y-84035789D01*
X209146856Y-84682029D01*
X208806551Y-85191332D01*
X208758240Y-85263634D01*
X208263634Y-85758240D01*
X208263631Y-85758242D01*
X207682029Y-86146856D01*
X207035789Y-86414537D01*
X207035788Y-86414537D01*
X207035786Y-86414538D01*
X206349744Y-86551000D01*
X205650256Y-86551000D01*
X204964214Y-86414538D01*
X204964212Y-86414537D01*
X204964211Y-86414537D01*
X204317971Y-86146856D01*
X203736369Y-85758242D01*
X203736366Y-85758240D01*
X203241760Y-85263634D01*
X203193449Y-85191332D01*
X202853144Y-84682029D01*
X202585463Y-84035789D01*
X202465694Y-83433668D01*
X202449000Y-83349744D01*
X202449000Y-82650256D01*
X202585462Y-81964214D01*
X202586581Y-81961512D01*
X202853144Y-81317971D01*
X203241758Y-80736369D01*
X203241760Y-80736366D01*
X203736366Y-80241760D01*
X203911912Y-80124464D01*
X204317971Y-79853144D01*
X204964211Y-79585463D01*
X204964212Y-79585463D01*
X204964214Y-79585462D01*
X205650256Y-79449000D01*
X206349744Y-79449000D01*
X207035786Y-79585462D01*
X207035786Y-79585462D01*
G37*
G36*
X87035786Y-79585462D02*
X87035788Y-79585463D01*
X87035789Y-79585463D01*
X87682029Y-79853144D01*
X88088088Y-80124464D01*
X88263634Y-80241760D01*
X88758240Y-80736366D01*
X88758242Y-80736369D01*
X89146856Y-81317971D01*
X89413419Y-81961512D01*
X89414538Y-81964214D01*
X89551000Y-82650256D01*
X89551000Y-83349744D01*
X89534307Y-83433668D01*
X89414537Y-84035789D01*
X89146856Y-84682029D01*
X88806551Y-85191332D01*
X88758240Y-85263634D01*
X88263634Y-85758240D01*
X88263631Y-85758242D01*
X87682029Y-86146856D01*
X87035789Y-86414537D01*
X87035788Y-86414537D01*
X87035786Y-86414538D01*
X86349744Y-86551000D01*
X85650256Y-86551000D01*
X84964214Y-86414538D01*
X84964212Y-86414537D01*
X84964211Y-86414537D01*
X84317971Y-86146856D01*
X83736369Y-85758242D01*
X83736366Y-85758240D01*
X83241760Y-85263634D01*
X83193449Y-85191332D01*
X82853144Y-84682029D01*
X82585463Y-84035789D01*
X82465694Y-83433668D01*
X82449000Y-83349744D01*
X82449000Y-82650256D01*
X82585462Y-81964214D01*
X82586581Y-81961512D01*
X82853144Y-81317971D01*
X83241758Y-80736369D01*
X83241760Y-80736366D01*
X83736366Y-80241760D01*
X83911912Y-80124464D01*
X84317971Y-79853144D01*
X84964211Y-79585463D01*
X84964212Y-79585463D01*
X84964214Y-79585462D01*
X85650256Y-79449000D01*
X86349744Y-79449000D01*
X87035786Y-79585462D01*
X87035786Y-79585462D01*
G37*
G36*
X96230536Y-79196016D02*
X96452213Y-79263261D01*
X96656512Y-79372461D01*
X96835581Y-79519419D01*
X96982539Y-79698488D01*
X97091739Y-79902787D01*
X97158984Y-80124464D01*
X97176000Y-80297230D01*
X97176000Y-81362771D01*
X97158984Y-81535536D01*
X97091739Y-81757213D01*
X96982539Y-81961512D01*
X96835581Y-82140581D01*
X96656511Y-82287539D01*
X96452212Y-82396739D01*
X96230535Y-82463984D01*
X96163746Y-82470562D01*
X96139714Y-82475343D01*
X96126056Y-82481000D01*
X96063904Y-82481000D01*
X96051665Y-82481601D01*
X96000000Y-82486690D01*
X95948335Y-82481601D01*
X95936095Y-82481000D01*
X92663904Y-82481000D01*
X92651665Y-82481601D01*
X92600000Y-82486690D01*
X92548335Y-82481601D01*
X92536095Y-82481000D01*
X92474688Y-82481000D01*
X92471835Y-82479475D01*
X92436254Y-82470562D01*
X92369464Y-82463984D01*
X92147787Y-82396739D01*
X91943488Y-82287539D01*
X91764419Y-82140581D01*
X91617461Y-81961511D01*
X91508261Y-81757212D01*
X91441016Y-81535535D01*
X91424000Y-81362770D01*
X91424000Y-80297229D01*
X91441016Y-80124464D01*
X91508261Y-79902787D01*
X91617462Y-79698488D01*
X91764420Y-79519419D01*
X91943489Y-79372461D01*
X92147788Y-79263261D01*
X92369465Y-79196016D01*
X92600000Y-79173310D01*
X92830536Y-79196016D01*
X93052213Y-79263261D01*
X93256512Y-79372461D01*
X93435581Y-79519419D01*
X93582539Y-79698488D01*
X93691739Y-79902787D01*
X93758984Y-80124464D01*
X93776000Y-80297230D01*
X93776000Y-80654000D01*
X93778402Y-80678386D01*
X93785515Y-80701835D01*
X93797066Y-80723446D01*
X93812612Y-80742388D01*
X93831554Y-80757934D01*
X93853165Y-80769485D01*
X93876614Y-80776598D01*
X93901000Y-80779000D01*
X94699000Y-80779000D01*
X94723386Y-80776598D01*
X94746835Y-80769485D01*
X94768446Y-80757934D01*
X94787388Y-80742388D01*
X94802934Y-80723446D01*
X94814485Y-80701835D01*
X94821598Y-80678386D01*
X94824000Y-80654000D01*
X94824000Y-80297229D01*
X94841016Y-80124464D01*
X94908261Y-79902787D01*
X95017462Y-79698488D01*
X95164420Y-79519419D01*
X95343489Y-79372461D01*
X95547788Y-79263261D01*
X95769465Y-79196016D01*
X96000000Y-79173310D01*
X96230536Y-79196016D01*
X96230536Y-79196016D01*
G37*
G36*
X168230536Y-79096016D02*
X168452213Y-79163261D01*
X168656512Y-79272461D01*
X168835581Y-79419419D01*
X168982539Y-79598488D01*
X169091739Y-79802787D01*
X169158984Y-80024464D01*
X169176000Y-80197230D01*
X169176000Y-81262771D01*
X169158984Y-81435536D01*
X169091739Y-81657213D01*
X168982539Y-81861512D01*
X168835581Y-82040581D01*
X168656511Y-82187539D01*
X168452212Y-82296739D01*
X168230535Y-82363984D01*
X168163746Y-82370562D01*
X168139714Y-82375343D01*
X168126056Y-82381000D01*
X168063904Y-82381000D01*
X168051665Y-82381601D01*
X168000000Y-82386690D01*
X167948335Y-82381601D01*
X167936095Y-82381000D01*
X164663904Y-82381000D01*
X164651665Y-82381601D01*
X164600000Y-82386690D01*
X164548335Y-82381601D01*
X164536095Y-82381000D01*
X164474688Y-82381000D01*
X164471835Y-82379475D01*
X164436254Y-82370562D01*
X164369464Y-82363984D01*
X164147787Y-82296739D01*
X163943488Y-82187539D01*
X163764419Y-82040581D01*
X163617461Y-81861511D01*
X163508261Y-81657212D01*
X163441016Y-81435535D01*
X163424000Y-81262770D01*
X163424000Y-80197229D01*
X163441016Y-80024464D01*
X163508261Y-79802787D01*
X163617462Y-79598488D01*
X163764420Y-79419419D01*
X163943489Y-79272461D01*
X164147788Y-79163261D01*
X164369465Y-79096016D01*
X164600000Y-79073310D01*
X164830536Y-79096016D01*
X165052213Y-79163261D01*
X165256512Y-79272461D01*
X165435581Y-79419419D01*
X165582539Y-79598488D01*
X165691739Y-79802787D01*
X165758984Y-80024464D01*
X165776000Y-80197230D01*
X165776000Y-80554000D01*
X165778402Y-80578386D01*
X165785515Y-80601835D01*
X165797066Y-80623446D01*
X165812612Y-80642388D01*
X165831554Y-80657934D01*
X165853165Y-80669485D01*
X165876614Y-80676598D01*
X165901000Y-80679000D01*
X166699000Y-80679000D01*
X166723386Y-80676598D01*
X166746835Y-80669485D01*
X166768446Y-80657934D01*
X166787388Y-80642388D01*
X166802934Y-80623446D01*
X166814485Y-80601835D01*
X166821598Y-80578386D01*
X166824000Y-80554000D01*
X166824000Y-80197229D01*
X166841016Y-80024464D01*
X166908261Y-79802787D01*
X167017462Y-79598488D01*
X167164420Y-79419419D01*
X167343489Y-79272461D01*
X167547788Y-79163261D01*
X167769465Y-79096016D01*
X168000000Y-79073310D01*
X168230536Y-79096016D01*
X168230536Y-79096016D01*
G37*
G36*
X120230536Y-79096016D02*
X120452213Y-79163261D01*
X120656512Y-79272461D01*
X120835581Y-79419419D01*
X120982539Y-79598488D01*
X121091739Y-79802787D01*
X121158984Y-80024464D01*
X121176000Y-80197230D01*
X121176000Y-81262771D01*
X121158984Y-81435536D01*
X121091739Y-81657213D01*
X120982539Y-81861512D01*
X120835581Y-82040581D01*
X120656511Y-82187539D01*
X120452212Y-82296739D01*
X120230535Y-82363984D01*
X120163746Y-82370562D01*
X120139714Y-82375343D01*
X120126056Y-82381000D01*
X120063904Y-82381000D01*
X120051665Y-82381601D01*
X120000000Y-82386690D01*
X119948335Y-82381601D01*
X119936095Y-82381000D01*
X116663904Y-82381000D01*
X116651665Y-82381601D01*
X116600000Y-82386690D01*
X116548335Y-82381601D01*
X116536095Y-82381000D01*
X116474688Y-82381000D01*
X116471835Y-82379475D01*
X116436254Y-82370562D01*
X116369464Y-82363984D01*
X116147787Y-82296739D01*
X115943488Y-82187539D01*
X115764419Y-82040581D01*
X115617461Y-81861511D01*
X115508261Y-81657212D01*
X115441016Y-81435535D01*
X115424000Y-81262770D01*
X115424000Y-80197229D01*
X115441016Y-80024464D01*
X115508261Y-79802787D01*
X115617462Y-79598488D01*
X115764420Y-79419419D01*
X115943489Y-79272461D01*
X116147788Y-79163261D01*
X116369465Y-79096016D01*
X116600000Y-79073310D01*
X116830536Y-79096016D01*
X117052213Y-79163261D01*
X117256512Y-79272461D01*
X117435581Y-79419419D01*
X117582539Y-79598488D01*
X117691739Y-79802787D01*
X117758984Y-80024464D01*
X117776000Y-80197230D01*
X117776000Y-80554000D01*
X117778402Y-80578386D01*
X117785515Y-80601835D01*
X117797066Y-80623446D01*
X117812612Y-80642388D01*
X117831554Y-80657934D01*
X117853165Y-80669485D01*
X117876614Y-80676598D01*
X117901000Y-80679000D01*
X118699000Y-80679000D01*
X118723386Y-80676598D01*
X118746835Y-80669485D01*
X118768446Y-80657934D01*
X118787388Y-80642388D01*
X118802934Y-80623446D01*
X118814485Y-80601835D01*
X118821598Y-80578386D01*
X118824000Y-80554000D01*
X118824000Y-80197229D01*
X118841016Y-80024464D01*
X118908261Y-79802787D01*
X119017462Y-79598488D01*
X119164420Y-79419419D01*
X119343489Y-79272461D01*
X119547788Y-79163261D01*
X119769465Y-79096016D01*
X120000000Y-79073310D01*
X120230536Y-79096016D01*
X120230536Y-79096016D01*
G37*
G36*
X144230536Y-79096016D02*
X144452213Y-79163261D01*
X144656512Y-79272461D01*
X144835581Y-79419419D01*
X144982539Y-79598488D01*
X145091739Y-79802787D01*
X145158984Y-80024464D01*
X145176000Y-80197230D01*
X145176000Y-81262771D01*
X145158984Y-81435536D01*
X145091739Y-81657213D01*
X144982539Y-81861512D01*
X144835581Y-82040581D01*
X144656511Y-82187539D01*
X144452212Y-82296739D01*
X144230535Y-82363984D01*
X144163746Y-82370562D01*
X144139714Y-82375343D01*
X144126056Y-82381000D01*
X144063904Y-82381000D01*
X144051665Y-82381601D01*
X144000000Y-82386690D01*
X143948335Y-82381601D01*
X143936095Y-82381000D01*
X140663904Y-82381000D01*
X140651665Y-82381601D01*
X140600000Y-82386690D01*
X140548335Y-82381601D01*
X140536095Y-82381000D01*
X140474688Y-82381000D01*
X140471835Y-82379475D01*
X140436254Y-82370562D01*
X140369464Y-82363984D01*
X140147787Y-82296739D01*
X139943488Y-82187539D01*
X139764419Y-82040581D01*
X139617461Y-81861511D01*
X139508261Y-81657212D01*
X139441016Y-81435535D01*
X139424000Y-81262770D01*
X139424000Y-80197229D01*
X139441016Y-80024464D01*
X139508261Y-79802787D01*
X139617462Y-79598488D01*
X139764420Y-79419419D01*
X139943489Y-79272461D01*
X140147788Y-79163261D01*
X140369465Y-79096016D01*
X140600000Y-79073310D01*
X140830536Y-79096016D01*
X141052213Y-79163261D01*
X141256512Y-79272461D01*
X141435581Y-79419419D01*
X141582539Y-79598488D01*
X141691739Y-79802787D01*
X141758984Y-80024464D01*
X141776000Y-80197230D01*
X141776000Y-80554000D01*
X141778402Y-80578386D01*
X141785515Y-80601835D01*
X141797066Y-80623446D01*
X141812612Y-80642388D01*
X141831554Y-80657934D01*
X141853165Y-80669485D01*
X141876614Y-80676598D01*
X141901000Y-80679000D01*
X142699000Y-80679000D01*
X142723386Y-80676598D01*
X142746835Y-80669485D01*
X142768446Y-80657934D01*
X142787388Y-80642388D01*
X142802934Y-80623446D01*
X142814485Y-80601835D01*
X142821598Y-80578386D01*
X142824000Y-80554000D01*
X142824000Y-80197229D01*
X142841016Y-80024464D01*
X142908261Y-79802787D01*
X143017462Y-79598488D01*
X143164420Y-79419419D01*
X143343489Y-79272461D01*
X143547788Y-79163261D01*
X143769465Y-79096016D01*
X144000000Y-79073310D01*
X144230536Y-79096016D01*
X144230536Y-79096016D01*
G37*
G36*
X192230536Y-79096016D02*
X192452213Y-79163261D01*
X192656512Y-79272461D01*
X192835581Y-79419419D01*
X192982539Y-79598488D01*
X193091739Y-79802787D01*
X193158984Y-80024464D01*
X193176000Y-80197230D01*
X193176000Y-81262771D01*
X193158984Y-81435536D01*
X193091739Y-81657213D01*
X192982539Y-81861512D01*
X192835581Y-82040581D01*
X192656511Y-82187539D01*
X192452212Y-82296739D01*
X192230535Y-82363984D01*
X192163746Y-82370562D01*
X192139714Y-82375343D01*
X192126056Y-82381000D01*
X192063904Y-82381000D01*
X192051665Y-82381601D01*
X192000000Y-82386690D01*
X191948335Y-82381601D01*
X191936095Y-82381000D01*
X188663904Y-82381000D01*
X188651665Y-82381601D01*
X188600000Y-82386690D01*
X188548335Y-82381601D01*
X188536095Y-82381000D01*
X188474688Y-82381000D01*
X188471835Y-82379475D01*
X188436254Y-82370562D01*
X188369464Y-82363984D01*
X188147787Y-82296739D01*
X187943488Y-82187539D01*
X187764419Y-82040581D01*
X187617461Y-81861511D01*
X187508261Y-81657212D01*
X187441016Y-81435535D01*
X187424000Y-81262770D01*
X187424000Y-80197229D01*
X187441016Y-80024464D01*
X187508261Y-79802787D01*
X187617462Y-79598488D01*
X187764420Y-79419419D01*
X187943489Y-79272461D01*
X188147788Y-79163261D01*
X188369465Y-79096016D01*
X188600000Y-79073310D01*
X188830536Y-79096016D01*
X189052213Y-79163261D01*
X189256512Y-79272461D01*
X189435581Y-79419419D01*
X189582539Y-79598488D01*
X189691739Y-79802787D01*
X189758984Y-80024464D01*
X189776000Y-80197230D01*
X189776000Y-80554000D01*
X189778402Y-80578386D01*
X189785515Y-80601835D01*
X189797066Y-80623446D01*
X189812612Y-80642388D01*
X189831554Y-80657934D01*
X189853165Y-80669485D01*
X189876614Y-80676598D01*
X189901000Y-80679000D01*
X190699000Y-80679000D01*
X190723386Y-80676598D01*
X190746835Y-80669485D01*
X190768446Y-80657934D01*
X190787388Y-80642388D01*
X190802934Y-80623446D01*
X190814485Y-80601835D01*
X190821598Y-80578386D01*
X190824000Y-80554000D01*
X190824000Y-80197229D01*
X190841016Y-80024464D01*
X190908261Y-79802787D01*
X191017462Y-79598488D01*
X191164420Y-79419419D01*
X191343489Y-79272461D01*
X191547788Y-79163261D01*
X191769465Y-79096016D01*
X192000000Y-79073310D01*
X192230536Y-79096016D01*
X192230536Y-79096016D01*
G37*
G36*
X196951000Y-77951000D02*
X195049000Y-77951000D01*
X195049000Y-76049000D01*
X196951000Y-76049000D01*
X196951000Y-77951000D01*
X196951000Y-77951000D01*
G37*
G36*
X172951000Y-77951000D02*
X171049000Y-77951000D01*
X171049000Y-76049000D01*
X172951000Y-76049000D01*
X172951000Y-77951000D01*
X172951000Y-77951000D01*
G37*
G36*
X148951000Y-77951000D02*
X147049000Y-77951000D01*
X147049000Y-76049000D01*
X148951000Y-76049000D01*
X148951000Y-77951000D01*
X148951000Y-77951000D01*
G37*
G36*
X100951000Y-77951000D02*
X99049000Y-77951000D01*
X99049000Y-76049000D01*
X100951000Y-76049000D01*
X100951000Y-77951000D01*
X100951000Y-77951000D01*
G37*
G36*
X124951000Y-77951000D02*
X123049000Y-77951000D01*
X123049000Y-76049000D01*
X124951000Y-76049000D01*
X124951000Y-77951000D01*
X124951000Y-77951000D01*
G37*
G36*
X176588677Y-75928465D02*
X176626364Y-75939898D01*
X176661103Y-75958466D01*
X176691548Y-75983452D01*
X176716534Y-76013897D01*
X176735102Y-76048636D01*
X176746535Y-76086323D01*
X176751000Y-76131661D01*
X176751000Y-76968339D01*
X176746535Y-77013677D01*
X176735102Y-77051364D01*
X176716534Y-77086103D01*
X176691548Y-77116548D01*
X176661103Y-77141534D01*
X176626364Y-77160102D01*
X176588677Y-77171535D01*
X176543339Y-77176000D01*
X175456661Y-77176000D01*
X175411323Y-77171535D01*
X175373636Y-77160102D01*
X175338897Y-77141534D01*
X175308452Y-77116548D01*
X175283466Y-77086103D01*
X175264898Y-77051364D01*
X175253465Y-77013677D01*
X175249000Y-76968339D01*
X175249000Y-76131661D01*
X175253465Y-76086323D01*
X175264898Y-76048636D01*
X175283466Y-76013897D01*
X175308452Y-75983452D01*
X175338897Y-75958466D01*
X175373636Y-75939898D01*
X175411323Y-75928465D01*
X175456661Y-75924000D01*
X176543339Y-75924000D01*
X176588677Y-75928465D01*
X176588677Y-75928465D01*
G37*
G36*
X128588677Y-75903465D02*
X128626364Y-75914898D01*
X128661103Y-75933466D01*
X128691548Y-75958452D01*
X128716534Y-75988897D01*
X128735102Y-76023636D01*
X128746535Y-76061323D01*
X128751000Y-76106661D01*
X128751000Y-76943339D01*
X128746535Y-76988677D01*
X128735102Y-77026364D01*
X128716534Y-77061103D01*
X128691548Y-77091548D01*
X128661103Y-77116534D01*
X128626364Y-77135102D01*
X128588677Y-77146535D01*
X128543339Y-77151000D01*
X127456661Y-77151000D01*
X127411323Y-77146535D01*
X127373636Y-77135102D01*
X127338897Y-77116534D01*
X127308452Y-77091548D01*
X127283466Y-77061103D01*
X127264898Y-77026364D01*
X127253465Y-76988677D01*
X127249000Y-76943339D01*
X127249000Y-76106661D01*
X127253465Y-76061323D01*
X127264898Y-76023636D01*
X127283466Y-75988897D01*
X127308452Y-75958452D01*
X127338897Y-75933466D01*
X127373636Y-75914898D01*
X127411323Y-75903465D01*
X127456661Y-75899000D01*
X128543339Y-75899000D01*
X128588677Y-75903465D01*
X128588677Y-75903465D01*
G37*
G36*
X152588677Y-75903465D02*
X152626364Y-75914898D01*
X152661103Y-75933466D01*
X152691548Y-75958452D01*
X152716534Y-75988897D01*
X152735102Y-76023636D01*
X152746535Y-76061323D01*
X152751000Y-76106661D01*
X152751000Y-76943339D01*
X152746535Y-76988677D01*
X152735102Y-77026364D01*
X152716534Y-77061103D01*
X152691548Y-77091548D01*
X152661103Y-77116534D01*
X152626364Y-77135102D01*
X152588677Y-77146535D01*
X152543339Y-77151000D01*
X151456661Y-77151000D01*
X151411323Y-77146535D01*
X151373636Y-77135102D01*
X151338897Y-77116534D01*
X151308452Y-77091548D01*
X151283466Y-77061103D01*
X151264898Y-77026364D01*
X151253465Y-76988677D01*
X151249000Y-76943339D01*
X151249000Y-76106661D01*
X151253465Y-76061323D01*
X151264898Y-76023636D01*
X151283466Y-75988897D01*
X151308452Y-75958452D01*
X151338897Y-75933466D01*
X151373636Y-75914898D01*
X151411323Y-75903465D01*
X151456661Y-75899000D01*
X152543339Y-75899000D01*
X152588677Y-75903465D01*
X152588677Y-75903465D01*
G37*
G36*
X104588677Y-75878465D02*
X104626364Y-75889898D01*
X104661103Y-75908466D01*
X104691548Y-75933452D01*
X104716534Y-75963897D01*
X104735102Y-75998636D01*
X104746535Y-76036323D01*
X104751000Y-76081661D01*
X104751000Y-76918339D01*
X104746535Y-76963677D01*
X104735102Y-77001364D01*
X104716534Y-77036103D01*
X104691548Y-77066548D01*
X104661103Y-77091534D01*
X104626364Y-77110102D01*
X104588677Y-77121535D01*
X104543339Y-77126000D01*
X103456661Y-77126000D01*
X103411323Y-77121535D01*
X103373636Y-77110102D01*
X103338897Y-77091534D01*
X103308452Y-77066548D01*
X103283466Y-77036103D01*
X103264898Y-77001364D01*
X103253465Y-76963677D01*
X103249000Y-76918339D01*
X103249000Y-76081661D01*
X103253465Y-76036323D01*
X103264898Y-75998636D01*
X103283466Y-75963897D01*
X103308452Y-75933452D01*
X103338897Y-75908466D01*
X103373636Y-75889898D01*
X103411323Y-75878465D01*
X103456661Y-75874000D01*
X104543339Y-75874000D01*
X104588677Y-75878465D01*
X104588677Y-75878465D01*
G37*
G36*
X200188677Y-75803465D02*
X200226364Y-75814898D01*
X200261103Y-75833466D01*
X200291548Y-75858452D01*
X200316534Y-75888897D01*
X200335102Y-75923636D01*
X200346535Y-75961323D01*
X200351000Y-76006661D01*
X200351000Y-76843339D01*
X200346535Y-76888677D01*
X200335102Y-76926364D01*
X200316534Y-76961103D01*
X200291548Y-76991548D01*
X200261103Y-77016534D01*
X200226364Y-77035102D01*
X200188677Y-77046535D01*
X200143339Y-77051000D01*
X199056661Y-77051000D01*
X199011323Y-77046535D01*
X198973636Y-77035102D01*
X198938897Y-77016534D01*
X198908452Y-76991548D01*
X198883466Y-76961103D01*
X198864898Y-76926364D01*
X198853465Y-76888677D01*
X198849000Y-76843339D01*
X198849000Y-76006661D01*
X198853465Y-75961323D01*
X198864898Y-75923636D01*
X198883466Y-75888897D01*
X198908452Y-75858452D01*
X198938897Y-75833466D01*
X198973636Y-75814898D01*
X199011323Y-75803465D01*
X199056661Y-75799000D01*
X200143339Y-75799000D01*
X200188677Y-75803465D01*
X200188677Y-75803465D01*
G37*
G36*
X208262198Y-73799954D02*
X208274450Y-73800556D01*
X208292869Y-73800556D01*
X208315149Y-73802750D01*
X208399236Y-73819476D01*
X208420655Y-73825974D01*
X208499871Y-73858785D01*
X208519607Y-73869335D01*
X208590897Y-73916969D01*
X208608208Y-73931176D01*
X208668824Y-73991792D01*
X208683031Y-74009103D01*
X208730665Y-74080393D01*
X208741215Y-74100129D01*
X208774026Y-74179345D01*
X208780524Y-74200764D01*
X208797250Y-74284851D01*
X208799444Y-74307131D01*
X208799444Y-74325550D01*
X208800046Y-74337802D01*
X208801852Y-74356140D01*
X208801852Y-74843860D01*
X208800263Y-74859999D01*
X208797347Y-74869611D01*
X208792612Y-74878469D01*
X208786237Y-74886237D01*
X208773798Y-74896446D01*
X208763432Y-74903372D01*
X208746105Y-74920698D01*
X208732490Y-74941073D01*
X208723112Y-74963711D01*
X208718331Y-74987745D01*
X208718331Y-75012249D01*
X208723111Y-75036283D01*
X208732487Y-75058922D01*
X208746101Y-75079297D01*
X208763427Y-75096624D01*
X208773796Y-75103552D01*
X208786237Y-75113763D01*
X208792612Y-75121531D01*
X208797347Y-75130389D01*
X208800263Y-75140001D01*
X208801852Y-75156140D01*
X208801852Y-75643861D01*
X208800046Y-75662198D01*
X208799444Y-75674450D01*
X208799444Y-75692869D01*
X208797250Y-75715149D01*
X208780524Y-75799236D01*
X208774026Y-75820655D01*
X208741215Y-75899871D01*
X208730665Y-75919607D01*
X208683031Y-75990897D01*
X208668824Y-76008208D01*
X208608208Y-76068824D01*
X208590897Y-76083031D01*
X208519607Y-76130665D01*
X208499871Y-76141215D01*
X208420655Y-76174026D01*
X208399236Y-76180524D01*
X208315149Y-76197250D01*
X208292869Y-76199444D01*
X208274450Y-76199444D01*
X208262198Y-76200046D01*
X208243861Y-76201852D01*
X207756139Y-76201852D01*
X207737802Y-76200046D01*
X207725550Y-76199444D01*
X207707131Y-76199444D01*
X207684851Y-76197250D01*
X207600764Y-76180524D01*
X207579345Y-76174026D01*
X207500129Y-76141215D01*
X207480393Y-76130665D01*
X207409103Y-76083031D01*
X207391792Y-76068824D01*
X207331176Y-76008208D01*
X207316969Y-75990897D01*
X207269335Y-75919607D01*
X207258785Y-75899871D01*
X207225974Y-75820655D01*
X207219476Y-75799236D01*
X207202750Y-75715149D01*
X207200556Y-75692869D01*
X207200556Y-75674450D01*
X207199954Y-75662198D01*
X207198148Y-75643861D01*
X207198148Y-75156140D01*
X207199737Y-75140001D01*
X207202653Y-75130389D01*
X207207388Y-75121531D01*
X207213763Y-75113763D01*
X207226202Y-75103554D01*
X207236568Y-75096628D01*
X207253895Y-75079302D01*
X207267510Y-75058927D01*
X207276888Y-75036289D01*
X207281669Y-75012255D01*
X207281669Y-74987751D01*
X207276889Y-74963717D01*
X207267513Y-74941078D01*
X207253899Y-74920703D01*
X207236573Y-74903376D01*
X207226204Y-74896448D01*
X207213763Y-74886237D01*
X207207388Y-74878469D01*
X207202653Y-74869611D01*
X207199737Y-74859999D01*
X207198148Y-74843860D01*
X207198148Y-74356140D01*
X207199954Y-74337802D01*
X207200556Y-74325550D01*
X207200556Y-74307131D01*
X207202750Y-74284851D01*
X207219476Y-74200764D01*
X207225974Y-74179345D01*
X207258785Y-74100129D01*
X207269335Y-74080393D01*
X207316969Y-74009103D01*
X207331176Y-73991792D01*
X207391792Y-73931176D01*
X207409103Y-73916969D01*
X207480393Y-73869335D01*
X207500129Y-73858785D01*
X207579345Y-73825974D01*
X207600764Y-73819476D01*
X207684851Y-73802750D01*
X207707131Y-73800556D01*
X207725550Y-73800556D01*
X207737802Y-73799954D01*
X207756140Y-73798148D01*
X208243860Y-73798148D01*
X208262198Y-73799954D01*
X208262198Y-73799954D01*
G37*
G36*
X133073665Y-74332622D02*
X133147222Y-74339867D01*
X133288786Y-74382810D01*
X133419252Y-74452546D01*
X133533606Y-74546394D01*
X133627454Y-74660748D01*
X133697190Y-74791214D01*
X133740133Y-74932778D01*
X133754633Y-75080000D01*
X133740133Y-75227222D01*
X133697190Y-75368786D01*
X133627454Y-75499252D01*
X133533606Y-75613606D01*
X133419252Y-75707454D01*
X133288786Y-75777190D01*
X133147222Y-75820133D01*
X133073665Y-75827378D01*
X133036888Y-75831000D01*
X132963112Y-75831000D01*
X132926335Y-75827378D01*
X132852778Y-75820133D01*
X132711214Y-75777190D01*
X132580748Y-75707454D01*
X132466394Y-75613606D01*
X132372546Y-75499252D01*
X132302810Y-75368786D01*
X132259867Y-75227222D01*
X132245367Y-75080000D01*
X132259867Y-74932778D01*
X132302810Y-74791214D01*
X132372546Y-74660748D01*
X132466394Y-74546394D01*
X132580748Y-74452546D01*
X132711214Y-74382810D01*
X132852778Y-74339867D01*
X132926335Y-74332622D01*
X132963112Y-74329000D01*
X133036888Y-74329000D01*
X133073665Y-74332622D01*
X133073665Y-74332622D01*
G37*
G36*
X204073665Y-74332622D02*
X204147222Y-74339867D01*
X204288786Y-74382810D01*
X204419252Y-74452546D01*
X204533606Y-74546394D01*
X204627454Y-74660748D01*
X204697190Y-74791214D01*
X204740133Y-74932778D01*
X204754633Y-75080000D01*
X204740133Y-75227222D01*
X204697190Y-75368786D01*
X204627454Y-75499252D01*
X204533606Y-75613606D01*
X204419252Y-75707454D01*
X204288786Y-75777190D01*
X204147222Y-75820133D01*
X204073665Y-75827378D01*
X204036888Y-75831000D01*
X203963112Y-75831000D01*
X203926335Y-75827378D01*
X203852778Y-75820133D01*
X203711214Y-75777190D01*
X203580748Y-75707454D01*
X203466394Y-75613606D01*
X203372546Y-75499252D01*
X203302810Y-75368786D01*
X203259867Y-75227222D01*
X203245367Y-75080000D01*
X203259867Y-74932778D01*
X203302810Y-74791214D01*
X203372546Y-74660748D01*
X203466394Y-74546394D01*
X203580748Y-74452546D01*
X203711214Y-74382810D01*
X203852778Y-74339867D01*
X203926335Y-74332622D01*
X203963112Y-74329000D01*
X204036888Y-74329000D01*
X204073665Y-74332622D01*
X204073665Y-74332622D01*
G37*
G36*
X181073665Y-74332622D02*
X181147222Y-74339867D01*
X181288786Y-74382810D01*
X181419252Y-74452546D01*
X181533606Y-74546394D01*
X181627454Y-74660748D01*
X181697190Y-74791214D01*
X181740133Y-74932778D01*
X181754633Y-75080000D01*
X181740133Y-75227222D01*
X181697190Y-75368786D01*
X181627454Y-75499252D01*
X181533606Y-75613606D01*
X181419252Y-75707454D01*
X181288786Y-75777190D01*
X181147222Y-75820133D01*
X181073665Y-75827378D01*
X181036888Y-75831000D01*
X180963112Y-75831000D01*
X180926335Y-75827378D01*
X180852778Y-75820133D01*
X180711214Y-75777190D01*
X180580748Y-75707454D01*
X180466394Y-75613606D01*
X180372546Y-75499252D01*
X180302810Y-75368786D01*
X180259867Y-75227222D01*
X180245367Y-75080000D01*
X180259867Y-74932778D01*
X180302810Y-74791214D01*
X180372546Y-74660748D01*
X180466394Y-74546394D01*
X180580748Y-74452546D01*
X180711214Y-74382810D01*
X180852778Y-74339867D01*
X180926335Y-74332622D01*
X180963112Y-74329000D01*
X181036888Y-74329000D01*
X181073665Y-74332622D01*
X181073665Y-74332622D01*
G37*
G36*
X157073665Y-74332622D02*
X157147222Y-74339867D01*
X157288786Y-74382810D01*
X157419252Y-74452546D01*
X157533606Y-74546394D01*
X157627454Y-74660748D01*
X157697190Y-74791214D01*
X157740133Y-74932778D01*
X157754633Y-75080000D01*
X157740133Y-75227222D01*
X157697190Y-75368786D01*
X157627454Y-75499252D01*
X157533606Y-75613606D01*
X157419252Y-75707454D01*
X157288786Y-75777190D01*
X157147222Y-75820133D01*
X157073665Y-75827378D01*
X157036888Y-75831000D01*
X156963112Y-75831000D01*
X156926335Y-75827378D01*
X156852778Y-75820133D01*
X156711214Y-75777190D01*
X156580748Y-75707454D01*
X156466394Y-75613606D01*
X156372546Y-75499252D01*
X156302810Y-75368786D01*
X156259867Y-75227222D01*
X156245367Y-75080000D01*
X156259867Y-74932778D01*
X156302810Y-74791214D01*
X156372546Y-74660748D01*
X156466394Y-74546394D01*
X156580748Y-74452546D01*
X156711214Y-74382810D01*
X156852778Y-74339867D01*
X156926335Y-74332622D01*
X156963112Y-74329000D01*
X157036888Y-74329000D01*
X157073665Y-74332622D01*
X157073665Y-74332622D01*
G37*
G36*
X109073665Y-74332622D02*
X109147222Y-74339867D01*
X109288786Y-74382810D01*
X109419252Y-74452546D01*
X109533606Y-74546394D01*
X109627454Y-74660748D01*
X109697190Y-74791214D01*
X109740133Y-74932778D01*
X109754633Y-75080000D01*
X109740133Y-75227222D01*
X109697190Y-75368786D01*
X109627454Y-75499252D01*
X109533606Y-75613606D01*
X109419252Y-75707454D01*
X109288786Y-75777190D01*
X109147222Y-75820133D01*
X109073665Y-75827378D01*
X109036888Y-75831000D01*
X108963112Y-75831000D01*
X108926335Y-75827378D01*
X108852778Y-75820133D01*
X108711214Y-75777190D01*
X108580748Y-75707454D01*
X108466394Y-75613606D01*
X108372546Y-75499252D01*
X108302810Y-75368786D01*
X108259867Y-75227222D01*
X108245367Y-75080000D01*
X108259867Y-74932778D01*
X108302810Y-74791214D01*
X108372546Y-74660748D01*
X108466394Y-74546394D01*
X108580748Y-74452546D01*
X108711214Y-74382810D01*
X108852778Y-74339867D01*
X108926335Y-74332622D01*
X108963112Y-74329000D01*
X109036888Y-74329000D01*
X109073665Y-74332622D01*
X109073665Y-74332622D01*
G37*
G36*
X124277396Y-73545546D02*
X124450466Y-73617234D01*
X124606230Y-73721312D01*
X124738688Y-73853770D01*
X124842766Y-74009534D01*
X124914454Y-74182604D01*
X124951000Y-74366333D01*
X124951000Y-74553667D01*
X124914454Y-74737396D01*
X124842766Y-74910466D01*
X124738688Y-75066230D01*
X124606230Y-75198688D01*
X124450466Y-75302766D01*
X124277396Y-75374454D01*
X124093667Y-75411000D01*
X123906333Y-75411000D01*
X123722604Y-75374454D01*
X123549534Y-75302766D01*
X123393770Y-75198688D01*
X123261312Y-75066230D01*
X123157234Y-74910466D01*
X123085546Y-74737396D01*
X123049000Y-74553667D01*
X123049000Y-74366333D01*
X123085546Y-74182604D01*
X123157234Y-74009534D01*
X123261312Y-73853770D01*
X123393770Y-73721312D01*
X123549534Y-73617234D01*
X123722604Y-73545546D01*
X123906333Y-73509000D01*
X124093667Y-73509000D01*
X124277396Y-73545546D01*
X124277396Y-73545546D01*
G37*
G36*
X196277396Y-73545546D02*
X196450466Y-73617234D01*
X196606230Y-73721312D01*
X196738688Y-73853770D01*
X196842766Y-74009534D01*
X196914454Y-74182604D01*
X196951000Y-74366333D01*
X196951000Y-74553667D01*
X196914454Y-74737396D01*
X196842766Y-74910466D01*
X196738688Y-75066230D01*
X196606230Y-75198688D01*
X196450466Y-75302766D01*
X196277396Y-75374454D01*
X196093667Y-75411000D01*
X195906333Y-75411000D01*
X195722604Y-75374454D01*
X195549534Y-75302766D01*
X195393770Y-75198688D01*
X195261312Y-75066230D01*
X195157234Y-74910466D01*
X195085546Y-74737396D01*
X195049000Y-74553667D01*
X195049000Y-74366333D01*
X195085546Y-74182604D01*
X195157234Y-74009534D01*
X195261312Y-73853770D01*
X195393770Y-73721312D01*
X195549534Y-73617234D01*
X195722604Y-73545546D01*
X195906333Y-73509000D01*
X196093667Y-73509000D01*
X196277396Y-73545546D01*
X196277396Y-73545546D01*
G37*
G36*
X172277396Y-73545546D02*
X172450466Y-73617234D01*
X172606230Y-73721312D01*
X172738688Y-73853770D01*
X172842766Y-74009534D01*
X172914454Y-74182604D01*
X172951000Y-74366333D01*
X172951000Y-74553667D01*
X172914454Y-74737396D01*
X172842766Y-74910466D01*
X172738688Y-75066230D01*
X172606230Y-75198688D01*
X172450466Y-75302766D01*
X172277396Y-75374454D01*
X172093667Y-75411000D01*
X171906333Y-75411000D01*
X171722604Y-75374454D01*
X171549534Y-75302766D01*
X171393770Y-75198688D01*
X171261312Y-75066230D01*
X171157234Y-74910466D01*
X171085546Y-74737396D01*
X171049000Y-74553667D01*
X171049000Y-74366333D01*
X171085546Y-74182604D01*
X171157234Y-74009534D01*
X171261312Y-73853770D01*
X171393770Y-73721312D01*
X171549534Y-73617234D01*
X171722604Y-73545546D01*
X171906333Y-73509000D01*
X172093667Y-73509000D01*
X172277396Y-73545546D01*
X172277396Y-73545546D01*
G37*
G36*
X148277396Y-73545546D02*
X148450466Y-73617234D01*
X148606230Y-73721312D01*
X148738688Y-73853770D01*
X148842766Y-74009534D01*
X148914454Y-74182604D01*
X148951000Y-74366333D01*
X148951000Y-74553667D01*
X148914454Y-74737396D01*
X148842766Y-74910466D01*
X148738688Y-75066230D01*
X148606230Y-75198688D01*
X148450466Y-75302766D01*
X148277396Y-75374454D01*
X148093667Y-75411000D01*
X147906333Y-75411000D01*
X147722604Y-75374454D01*
X147549534Y-75302766D01*
X147393770Y-75198688D01*
X147261312Y-75066230D01*
X147157234Y-74910466D01*
X147085546Y-74737396D01*
X147049000Y-74553667D01*
X147049000Y-74366333D01*
X147085546Y-74182604D01*
X147157234Y-74009534D01*
X147261312Y-73853770D01*
X147393770Y-73721312D01*
X147549534Y-73617234D01*
X147722604Y-73545546D01*
X147906333Y-73509000D01*
X148093667Y-73509000D01*
X148277396Y-73545546D01*
X148277396Y-73545546D01*
G37*
G36*
X100277396Y-73545546D02*
X100450466Y-73617234D01*
X100606230Y-73721312D01*
X100738688Y-73853770D01*
X100842766Y-74009534D01*
X100914454Y-74182604D01*
X100951000Y-74366333D01*
X100951000Y-74553667D01*
X100914454Y-74737396D01*
X100842766Y-74910466D01*
X100738688Y-75066230D01*
X100606230Y-75198688D01*
X100450466Y-75302766D01*
X100277396Y-75374454D01*
X100093667Y-75411000D01*
X99906333Y-75411000D01*
X99722604Y-75374454D01*
X99549534Y-75302766D01*
X99393770Y-75198688D01*
X99261312Y-75066230D01*
X99157234Y-74910466D01*
X99085546Y-74737396D01*
X99049000Y-74553667D01*
X99049000Y-74366333D01*
X99085546Y-74182604D01*
X99157234Y-74009534D01*
X99261312Y-73853770D01*
X99393770Y-73721312D01*
X99549534Y-73617234D01*
X99722604Y-73545546D01*
X99906333Y-73509000D01*
X100093667Y-73509000D01*
X100277396Y-73545546D01*
X100277396Y-73545546D01*
G37*
G36*
X176588677Y-73878465D02*
X176626364Y-73889898D01*
X176661103Y-73908466D01*
X176691548Y-73933452D01*
X176716534Y-73963897D01*
X176735102Y-73998636D01*
X176746535Y-74036323D01*
X176751000Y-74081661D01*
X176751000Y-74918339D01*
X176746535Y-74963677D01*
X176735102Y-75001364D01*
X176716534Y-75036103D01*
X176691548Y-75066548D01*
X176661103Y-75091534D01*
X176626364Y-75110102D01*
X176588677Y-75121535D01*
X176543339Y-75126000D01*
X175456661Y-75126000D01*
X175411323Y-75121535D01*
X175373636Y-75110102D01*
X175338897Y-75091534D01*
X175308452Y-75066548D01*
X175283466Y-75036103D01*
X175264898Y-75001364D01*
X175253465Y-74963677D01*
X175249000Y-74918339D01*
X175249000Y-74081661D01*
X175253465Y-74036323D01*
X175264898Y-73998636D01*
X175283466Y-73963897D01*
X175308452Y-73933452D01*
X175338897Y-73908466D01*
X175373636Y-73889898D01*
X175411323Y-73878465D01*
X175456661Y-73874000D01*
X176543339Y-73874000D01*
X176588677Y-73878465D01*
X176588677Y-73878465D01*
G37*
G36*
X152588677Y-73853465D02*
X152626364Y-73864898D01*
X152661103Y-73883466D01*
X152691548Y-73908452D01*
X152716534Y-73938897D01*
X152735102Y-73973636D01*
X152746535Y-74011323D01*
X152751000Y-74056661D01*
X152751000Y-74893339D01*
X152746535Y-74938677D01*
X152735102Y-74976364D01*
X152716534Y-75011103D01*
X152691548Y-75041548D01*
X152661103Y-75066534D01*
X152626364Y-75085102D01*
X152588677Y-75096535D01*
X152543339Y-75101000D01*
X151456661Y-75101000D01*
X151411323Y-75096535D01*
X151373636Y-75085102D01*
X151338897Y-75066534D01*
X151308452Y-75041548D01*
X151283466Y-75011103D01*
X151264898Y-74976364D01*
X151253465Y-74938677D01*
X151249000Y-74893339D01*
X151249000Y-74056661D01*
X151253465Y-74011323D01*
X151264898Y-73973636D01*
X151283466Y-73938897D01*
X151308452Y-73908452D01*
X151338897Y-73883466D01*
X151373636Y-73864898D01*
X151411323Y-73853465D01*
X151456661Y-73849000D01*
X152543339Y-73849000D01*
X152588677Y-73853465D01*
X152588677Y-73853465D01*
G37*
G36*
X128588677Y-73853465D02*
X128626364Y-73864898D01*
X128661103Y-73883466D01*
X128691548Y-73908452D01*
X128716534Y-73938897D01*
X128735102Y-73973636D01*
X128746535Y-74011323D01*
X128751000Y-74056661D01*
X128751000Y-74893339D01*
X128746535Y-74938677D01*
X128735102Y-74976364D01*
X128716534Y-75011103D01*
X128691548Y-75041548D01*
X128661103Y-75066534D01*
X128626364Y-75085102D01*
X128588677Y-75096535D01*
X128543339Y-75101000D01*
X127456661Y-75101000D01*
X127411323Y-75096535D01*
X127373636Y-75085102D01*
X127338897Y-75066534D01*
X127308452Y-75041548D01*
X127283466Y-75011103D01*
X127264898Y-74976364D01*
X127253465Y-74938677D01*
X127249000Y-74893339D01*
X127249000Y-74056661D01*
X127253465Y-74011323D01*
X127264898Y-73973636D01*
X127283466Y-73938897D01*
X127308452Y-73908452D01*
X127338897Y-73883466D01*
X127373636Y-73864898D01*
X127411323Y-73853465D01*
X127456661Y-73849000D01*
X128543339Y-73849000D01*
X128588677Y-73853465D01*
X128588677Y-73853465D01*
G37*
G36*
X104588677Y-73828465D02*
X104626364Y-73839898D01*
X104661103Y-73858466D01*
X104691548Y-73883452D01*
X104716534Y-73913897D01*
X104735102Y-73948636D01*
X104746535Y-73986323D01*
X104751000Y-74031661D01*
X104751000Y-74868339D01*
X104746535Y-74913677D01*
X104735102Y-74951364D01*
X104716534Y-74986103D01*
X104691548Y-75016548D01*
X104661103Y-75041534D01*
X104626364Y-75060102D01*
X104588677Y-75071535D01*
X104543339Y-75076000D01*
X103456661Y-75076000D01*
X103411323Y-75071535D01*
X103373636Y-75060102D01*
X103338897Y-75041534D01*
X103308452Y-75016548D01*
X103283466Y-74986103D01*
X103264898Y-74951364D01*
X103253465Y-74913677D01*
X103249000Y-74868339D01*
X103249000Y-74031661D01*
X103253465Y-73986323D01*
X103264898Y-73948636D01*
X103283466Y-73913897D01*
X103308452Y-73883452D01*
X103338897Y-73858466D01*
X103373636Y-73839898D01*
X103411323Y-73828465D01*
X103456661Y-73824000D01*
X104543339Y-73824000D01*
X104588677Y-73828465D01*
X104588677Y-73828465D01*
G37*
G36*
X200188677Y-73753465D02*
X200226364Y-73764898D01*
X200261103Y-73783466D01*
X200291548Y-73808452D01*
X200316534Y-73838897D01*
X200335102Y-73873636D01*
X200346535Y-73911323D01*
X200351000Y-73956661D01*
X200351000Y-74793339D01*
X200346535Y-74838677D01*
X200335102Y-74876364D01*
X200316534Y-74911103D01*
X200291548Y-74941548D01*
X200261103Y-74966534D01*
X200226364Y-74985102D01*
X200188677Y-74996535D01*
X200143339Y-75001000D01*
X199056661Y-75001000D01*
X199011323Y-74996535D01*
X198973636Y-74985102D01*
X198938897Y-74966534D01*
X198908452Y-74941548D01*
X198883466Y-74911103D01*
X198864898Y-74876364D01*
X198853465Y-74838677D01*
X198849000Y-74793339D01*
X198849000Y-73956661D01*
X198853465Y-73911323D01*
X198864898Y-73873636D01*
X198883466Y-73838897D01*
X198908452Y-73808452D01*
X198938897Y-73783466D01*
X198973636Y-73764898D01*
X199011323Y-73753465D01*
X199056661Y-73749000D01*
X200143339Y-73749000D01*
X200188677Y-73753465D01*
X200188677Y-73753465D01*
G37*
G36*
X96051665Y-69448399D02*
X96060784Y-69448847D01*
X96063746Y-69449588D01*
X96230536Y-69466016D01*
X96452213Y-69533261D01*
X96656512Y-69642461D01*
X96835581Y-69789419D01*
X96982539Y-69968488D01*
X97091739Y-70172787D01*
X97158984Y-70394464D01*
X97176000Y-70567230D01*
X97176000Y-71632771D01*
X97158984Y-71805536D01*
X97091739Y-72027213D01*
X96982539Y-72231512D01*
X96835581Y-72410581D01*
X96656511Y-72557539D01*
X96452212Y-72666739D01*
X96230535Y-72733984D01*
X96000000Y-72756690D01*
X95769464Y-72733984D01*
X95547787Y-72666739D01*
X95343488Y-72557539D01*
X95164419Y-72410581D01*
X95017461Y-72231511D01*
X94908261Y-72027212D01*
X94841016Y-71805535D01*
X94824000Y-71632770D01*
X94824000Y-71276000D01*
X94821598Y-71251614D01*
X94814485Y-71228165D01*
X94802934Y-71206554D01*
X94787388Y-71187612D01*
X94768446Y-71172066D01*
X94746835Y-71160515D01*
X94723386Y-71153402D01*
X94699000Y-71151000D01*
X93901000Y-71151000D01*
X93876614Y-71153402D01*
X93853165Y-71160515D01*
X93831554Y-71172066D01*
X93812612Y-71187612D01*
X93797066Y-71206554D01*
X93785515Y-71228165D01*
X93778402Y-71251614D01*
X93776000Y-71276000D01*
X93776000Y-71632771D01*
X93758984Y-71805536D01*
X93691739Y-72027213D01*
X93582539Y-72231512D01*
X93435581Y-72410581D01*
X93256511Y-72557539D01*
X93052212Y-72666739D01*
X92830535Y-72733984D01*
X92600000Y-72756690D01*
X92369464Y-72733984D01*
X92147787Y-72666739D01*
X91943488Y-72557539D01*
X91764419Y-72410581D01*
X91617461Y-72231511D01*
X91508261Y-72027212D01*
X91441016Y-71805535D01*
X91424000Y-71632770D01*
X91424000Y-70567229D01*
X91441016Y-70394464D01*
X91508261Y-70172787D01*
X91617462Y-69968488D01*
X91764420Y-69789419D01*
X91943489Y-69642461D01*
X92147788Y-69533261D01*
X92283751Y-69492017D01*
X92360286Y-69468800D01*
X92382925Y-69459423D01*
X92398524Y-69449000D01*
X92536096Y-69449000D01*
X92548335Y-69448399D01*
X92600000Y-69443310D01*
X92651665Y-69448399D01*
X92663905Y-69449000D01*
X95936096Y-69449000D01*
X95948335Y-69448399D01*
X96000000Y-69443310D01*
X96051665Y-69448399D01*
X96051665Y-69448399D01*
G37*
G36*
X106588677Y-71428465D02*
X106626364Y-71439898D01*
X106661103Y-71458466D01*
X106691548Y-71483452D01*
X106716534Y-71513897D01*
X106735102Y-71548636D01*
X106746535Y-71586323D01*
X106751000Y-71631661D01*
X106751000Y-72468339D01*
X106746535Y-72513677D01*
X106735102Y-72551364D01*
X106716534Y-72586103D01*
X106691548Y-72616548D01*
X106661103Y-72641534D01*
X106626364Y-72660102D01*
X106588677Y-72671535D01*
X106543339Y-72676000D01*
X105456661Y-72676000D01*
X105411323Y-72671535D01*
X105373636Y-72660102D01*
X105338897Y-72641534D01*
X105308452Y-72616548D01*
X105283466Y-72586103D01*
X105264898Y-72551364D01*
X105253465Y-72513677D01*
X105249000Y-72468339D01*
X105249000Y-71631661D01*
X105253465Y-71586323D01*
X105264898Y-71548636D01*
X105283466Y-71513897D01*
X105308452Y-71483452D01*
X105338897Y-71458466D01*
X105373636Y-71439898D01*
X105411323Y-71428465D01*
X105456661Y-71424000D01*
X106543339Y-71424000D01*
X106588677Y-71428465D01*
X106588677Y-71428465D01*
G37*
G36*
X168051665Y-69348399D02*
X168060784Y-69348847D01*
X168063746Y-69349588D01*
X168230536Y-69366016D01*
X168452213Y-69433261D01*
X168656512Y-69542461D01*
X168835581Y-69689419D01*
X168982539Y-69868488D01*
X169091739Y-70072787D01*
X169158984Y-70294464D01*
X169176000Y-70467230D01*
X169176000Y-71532771D01*
X169158984Y-71705536D01*
X169091739Y-71927213D01*
X168982539Y-72131512D01*
X168835581Y-72310581D01*
X168656511Y-72457539D01*
X168452212Y-72566739D01*
X168230535Y-72633984D01*
X168000000Y-72656690D01*
X167769464Y-72633984D01*
X167547787Y-72566739D01*
X167343488Y-72457539D01*
X167164419Y-72310581D01*
X167017461Y-72131511D01*
X166908261Y-71927212D01*
X166841016Y-71705535D01*
X166824000Y-71532770D01*
X166824000Y-71176000D01*
X166821598Y-71151614D01*
X166814485Y-71128165D01*
X166802934Y-71106554D01*
X166787388Y-71087612D01*
X166768446Y-71072066D01*
X166746835Y-71060515D01*
X166723386Y-71053402D01*
X166699000Y-71051000D01*
X165901000Y-71051000D01*
X165876614Y-71053402D01*
X165853165Y-71060515D01*
X165831554Y-71072066D01*
X165812612Y-71087612D01*
X165797066Y-71106554D01*
X165785515Y-71128165D01*
X165778402Y-71151614D01*
X165776000Y-71176000D01*
X165776000Y-71532771D01*
X165758984Y-71705536D01*
X165691739Y-71927213D01*
X165582539Y-72131512D01*
X165435581Y-72310581D01*
X165256511Y-72457539D01*
X165052212Y-72566739D01*
X164830535Y-72633984D01*
X164600000Y-72656690D01*
X164369464Y-72633984D01*
X164147787Y-72566739D01*
X163943488Y-72457539D01*
X163764419Y-72310581D01*
X163617461Y-72131511D01*
X163508261Y-71927212D01*
X163441016Y-71705535D01*
X163424000Y-71532770D01*
X163424000Y-70467229D01*
X163441016Y-70294464D01*
X163508261Y-70072787D01*
X163617462Y-69868488D01*
X163764420Y-69689419D01*
X163943489Y-69542461D01*
X164147788Y-69433261D01*
X164274847Y-69394718D01*
X164360286Y-69368800D01*
X164382925Y-69359423D01*
X164398524Y-69349000D01*
X164536096Y-69349000D01*
X164548335Y-69348399D01*
X164600000Y-69343310D01*
X164651665Y-69348399D01*
X164663905Y-69349000D01*
X167936096Y-69349000D01*
X167948335Y-69348399D01*
X168000000Y-69343310D01*
X168051665Y-69348399D01*
X168051665Y-69348399D01*
G37*
G36*
X144051665Y-69348399D02*
X144060784Y-69348847D01*
X144063746Y-69349588D01*
X144230536Y-69366016D01*
X144452213Y-69433261D01*
X144656512Y-69542461D01*
X144835581Y-69689419D01*
X144982539Y-69868488D01*
X145091739Y-70072787D01*
X145158984Y-70294464D01*
X145176000Y-70467230D01*
X145176000Y-71532771D01*
X145158984Y-71705536D01*
X145091739Y-71927213D01*
X144982539Y-72131512D01*
X144835581Y-72310581D01*
X144656511Y-72457539D01*
X144452212Y-72566739D01*
X144230535Y-72633984D01*
X144000000Y-72656690D01*
X143769464Y-72633984D01*
X143547787Y-72566739D01*
X143343488Y-72457539D01*
X143164419Y-72310581D01*
X143017461Y-72131511D01*
X142908261Y-71927212D01*
X142841016Y-71705535D01*
X142824000Y-71532770D01*
X142824000Y-71176000D01*
X142821598Y-71151614D01*
X142814485Y-71128165D01*
X142802934Y-71106554D01*
X142787388Y-71087612D01*
X142768446Y-71072066D01*
X142746835Y-71060515D01*
X142723386Y-71053402D01*
X142699000Y-71051000D01*
X141901000Y-71051000D01*
X141876614Y-71053402D01*
X141853165Y-71060515D01*
X141831554Y-71072066D01*
X141812612Y-71087612D01*
X141797066Y-71106554D01*
X141785515Y-71128165D01*
X141778402Y-71151614D01*
X141776000Y-71176000D01*
X141776000Y-71532771D01*
X141758984Y-71705536D01*
X141691739Y-71927213D01*
X141582539Y-72131512D01*
X141435581Y-72310581D01*
X141256511Y-72457539D01*
X141052212Y-72566739D01*
X140830535Y-72633984D01*
X140600000Y-72656690D01*
X140369464Y-72633984D01*
X140147787Y-72566739D01*
X139943488Y-72457539D01*
X139764419Y-72310581D01*
X139617461Y-72131511D01*
X139508261Y-71927212D01*
X139441016Y-71705535D01*
X139424000Y-71532770D01*
X139424000Y-70467229D01*
X139441016Y-70294464D01*
X139508261Y-70072787D01*
X139617462Y-69868488D01*
X139764420Y-69689419D01*
X139943489Y-69542461D01*
X140147788Y-69433261D01*
X140274847Y-69394718D01*
X140360286Y-69368800D01*
X140382925Y-69359423D01*
X140398524Y-69349000D01*
X140536096Y-69349000D01*
X140548335Y-69348399D01*
X140600000Y-69343310D01*
X140651665Y-69348399D01*
X140663905Y-69349000D01*
X143936096Y-69349000D01*
X143948335Y-69348399D01*
X144000000Y-69343310D01*
X144051665Y-69348399D01*
X144051665Y-69348399D01*
G37*
G36*
X192051665Y-69348399D02*
X192060784Y-69348847D01*
X192063746Y-69349588D01*
X192230536Y-69366016D01*
X192452213Y-69433261D01*
X192656512Y-69542461D01*
X192835581Y-69689419D01*
X192982539Y-69868488D01*
X193091739Y-70072787D01*
X193158984Y-70294464D01*
X193176000Y-70467230D01*
X193176000Y-71532771D01*
X193158984Y-71705536D01*
X193091739Y-71927213D01*
X192982539Y-72131512D01*
X192835581Y-72310581D01*
X192656511Y-72457539D01*
X192452212Y-72566739D01*
X192230535Y-72633984D01*
X192000000Y-72656690D01*
X191769464Y-72633984D01*
X191547787Y-72566739D01*
X191343488Y-72457539D01*
X191164419Y-72310581D01*
X191017461Y-72131511D01*
X190908261Y-71927212D01*
X190841016Y-71705535D01*
X190824000Y-71532770D01*
X190824000Y-71176000D01*
X190821598Y-71151614D01*
X190814485Y-71128165D01*
X190802934Y-71106554D01*
X190787388Y-71087612D01*
X190768446Y-71072066D01*
X190746835Y-71060515D01*
X190723386Y-71053402D01*
X190699000Y-71051000D01*
X189901000Y-71051000D01*
X189876614Y-71053402D01*
X189853165Y-71060515D01*
X189831554Y-71072066D01*
X189812612Y-71087612D01*
X189797066Y-71106554D01*
X189785515Y-71128165D01*
X189778402Y-71151614D01*
X189776000Y-71176000D01*
X189776000Y-71532771D01*
X189758984Y-71705536D01*
X189691739Y-71927213D01*
X189582539Y-72131512D01*
X189435581Y-72310581D01*
X189256511Y-72457539D01*
X189052212Y-72566739D01*
X188830535Y-72633984D01*
X188600000Y-72656690D01*
X188369464Y-72633984D01*
X188147787Y-72566739D01*
X187943488Y-72457539D01*
X187764419Y-72310581D01*
X187617461Y-72131511D01*
X187508261Y-71927212D01*
X187441016Y-71705535D01*
X187424000Y-71532770D01*
X187424000Y-70467229D01*
X187441016Y-70294464D01*
X187508261Y-70072787D01*
X187617462Y-69868488D01*
X187764420Y-69689419D01*
X187943489Y-69542461D01*
X188147788Y-69433261D01*
X188274847Y-69394718D01*
X188360286Y-69368800D01*
X188382925Y-69359423D01*
X188398524Y-69349000D01*
X188536096Y-69349000D01*
X188548335Y-69348399D01*
X188600000Y-69343310D01*
X188651665Y-69348399D01*
X188663905Y-69349000D01*
X191936096Y-69349000D01*
X191948335Y-69348399D01*
X192000000Y-69343310D01*
X192051665Y-69348399D01*
X192051665Y-69348399D01*
G37*
G36*
X120051665Y-69348399D02*
X120060784Y-69348847D01*
X120063746Y-69349588D01*
X120230536Y-69366016D01*
X120452213Y-69433261D01*
X120656512Y-69542461D01*
X120835581Y-69689419D01*
X120982539Y-69868488D01*
X121091739Y-70072787D01*
X121158984Y-70294464D01*
X121176000Y-70467230D01*
X121176000Y-71532771D01*
X121158984Y-71705536D01*
X121091739Y-71927213D01*
X120982539Y-72131512D01*
X120835581Y-72310581D01*
X120656511Y-72457539D01*
X120452212Y-72566739D01*
X120230535Y-72633984D01*
X120000000Y-72656690D01*
X119769464Y-72633984D01*
X119547787Y-72566739D01*
X119343488Y-72457539D01*
X119164419Y-72310581D01*
X119017461Y-72131511D01*
X118908261Y-71927212D01*
X118841016Y-71705535D01*
X118824000Y-71532770D01*
X118824000Y-71176000D01*
X118821598Y-71151614D01*
X118814485Y-71128165D01*
X118802934Y-71106554D01*
X118787388Y-71087612D01*
X118768446Y-71072066D01*
X118746835Y-71060515D01*
X118723386Y-71053402D01*
X118699000Y-71051000D01*
X117901000Y-71051000D01*
X117876614Y-71053402D01*
X117853165Y-71060515D01*
X117831554Y-71072066D01*
X117812612Y-71087612D01*
X117797066Y-71106554D01*
X117785515Y-71128165D01*
X117778402Y-71151614D01*
X117776000Y-71176000D01*
X117776000Y-71532771D01*
X117758984Y-71705536D01*
X117691739Y-71927213D01*
X117582539Y-72131512D01*
X117435581Y-72310581D01*
X117256511Y-72457539D01*
X117052212Y-72566739D01*
X116830535Y-72633984D01*
X116600000Y-72656690D01*
X116369464Y-72633984D01*
X116147787Y-72566739D01*
X115943488Y-72457539D01*
X115764419Y-72310581D01*
X115617461Y-72131511D01*
X115508261Y-71927212D01*
X115441016Y-71705535D01*
X115424000Y-71532770D01*
X115424000Y-70467229D01*
X115441016Y-70294464D01*
X115508261Y-70072787D01*
X115617462Y-69868488D01*
X115764420Y-69689419D01*
X115943489Y-69542461D01*
X116147788Y-69433261D01*
X116274847Y-69394718D01*
X116360286Y-69368800D01*
X116382925Y-69359423D01*
X116398524Y-69349000D01*
X116536096Y-69349000D01*
X116548335Y-69348399D01*
X116600000Y-69343310D01*
X116651665Y-69348399D01*
X116663905Y-69349000D01*
X119936096Y-69349000D01*
X119948335Y-69348399D01*
X120000000Y-69343310D01*
X120051665Y-69348399D01*
X120051665Y-69348399D01*
G37*
G36*
X201588677Y-71403465D02*
X201626364Y-71414898D01*
X201661103Y-71433466D01*
X201691548Y-71458452D01*
X201716534Y-71488897D01*
X201735102Y-71523636D01*
X201746535Y-71561323D01*
X201751000Y-71606661D01*
X201751000Y-72443339D01*
X201746535Y-72488677D01*
X201735102Y-72526364D01*
X201716534Y-72561103D01*
X201691548Y-72591548D01*
X201661103Y-72616534D01*
X201626364Y-72635102D01*
X201588677Y-72646535D01*
X201543339Y-72651000D01*
X200456661Y-72651000D01*
X200411323Y-72646535D01*
X200373636Y-72635102D01*
X200338897Y-72616534D01*
X200308452Y-72591548D01*
X200283466Y-72561103D01*
X200264898Y-72526364D01*
X200253465Y-72488677D01*
X200249000Y-72443339D01*
X200249000Y-71606661D01*
X200253465Y-71561323D01*
X200264898Y-71523636D01*
X200283466Y-71488897D01*
X200308452Y-71458452D01*
X200338897Y-71433466D01*
X200373636Y-71414898D01*
X200411323Y-71403465D01*
X200456661Y-71399000D01*
X201543339Y-71399000D01*
X201588677Y-71403465D01*
X201588677Y-71403465D01*
G37*
G36*
X178588677Y-71378465D02*
X178626364Y-71389898D01*
X178661103Y-71408466D01*
X178691548Y-71433452D01*
X178716534Y-71463897D01*
X178735102Y-71498636D01*
X178746535Y-71536323D01*
X178751000Y-71581661D01*
X178751000Y-72418339D01*
X178746535Y-72463677D01*
X178735102Y-72501364D01*
X178716534Y-72536103D01*
X178691548Y-72566548D01*
X178661103Y-72591534D01*
X178626364Y-72610102D01*
X178588677Y-72621535D01*
X178543339Y-72626000D01*
X177456661Y-72626000D01*
X177411323Y-72621535D01*
X177373636Y-72610102D01*
X177338897Y-72591534D01*
X177308452Y-72566548D01*
X177283466Y-72536103D01*
X177264898Y-72501364D01*
X177253465Y-72463677D01*
X177249000Y-72418339D01*
X177249000Y-71581661D01*
X177253465Y-71536323D01*
X177264898Y-71498636D01*
X177283466Y-71463897D01*
X177308452Y-71433452D01*
X177338897Y-71408466D01*
X177373636Y-71389898D01*
X177411323Y-71378465D01*
X177456661Y-71374000D01*
X178543339Y-71374000D01*
X178588677Y-71378465D01*
X178588677Y-71378465D01*
G37*
G36*
X130588677Y-71378465D02*
X130626364Y-71389898D01*
X130661103Y-71408466D01*
X130691548Y-71433452D01*
X130716534Y-71463897D01*
X130735102Y-71498636D01*
X130746535Y-71536323D01*
X130751000Y-71581661D01*
X130751000Y-72418339D01*
X130746535Y-72463677D01*
X130735102Y-72501364D01*
X130716534Y-72536103D01*
X130691548Y-72566548D01*
X130661103Y-72591534D01*
X130626364Y-72610102D01*
X130588677Y-72621535D01*
X130543339Y-72626000D01*
X129456661Y-72626000D01*
X129411323Y-72621535D01*
X129373636Y-72610102D01*
X129338897Y-72591534D01*
X129308452Y-72566548D01*
X129283466Y-72536103D01*
X129264898Y-72501364D01*
X129253465Y-72463677D01*
X129249000Y-72418339D01*
X129249000Y-71581661D01*
X129253465Y-71536323D01*
X129264898Y-71498636D01*
X129283466Y-71463897D01*
X129308452Y-71433452D01*
X129338897Y-71408466D01*
X129373636Y-71389898D01*
X129411323Y-71378465D01*
X129456661Y-71374000D01*
X130543339Y-71374000D01*
X130588677Y-71378465D01*
X130588677Y-71378465D01*
G37*
G36*
X154588677Y-71378465D02*
X154626364Y-71389898D01*
X154661103Y-71408466D01*
X154691548Y-71433452D01*
X154716534Y-71463897D01*
X154735102Y-71498636D01*
X154746535Y-71536323D01*
X154751000Y-71581661D01*
X154751000Y-72418339D01*
X154746535Y-72463677D01*
X154735102Y-72501364D01*
X154716534Y-72536103D01*
X154691548Y-72566548D01*
X154661103Y-72591534D01*
X154626364Y-72610102D01*
X154588677Y-72621535D01*
X154543339Y-72626000D01*
X153456661Y-72626000D01*
X153411323Y-72621535D01*
X153373636Y-72610102D01*
X153338897Y-72591534D01*
X153308452Y-72566548D01*
X153283466Y-72536103D01*
X153264898Y-72501364D01*
X153253465Y-72463677D01*
X153249000Y-72418339D01*
X153249000Y-71581661D01*
X153253465Y-71536323D01*
X153264898Y-71498636D01*
X153283466Y-71463897D01*
X153308452Y-71433452D01*
X153338897Y-71408466D01*
X153373636Y-71389898D01*
X153411323Y-71378465D01*
X153456661Y-71374000D01*
X154543339Y-71374000D01*
X154588677Y-71378465D01*
X154588677Y-71378465D01*
G37*
G36*
X204132004Y-69260544D02*
X204219059Y-69277860D01*
X204355732Y-69334472D01*
X204466451Y-69408452D01*
X204478738Y-69416662D01*
X204583338Y-69521262D01*
X204583340Y-69521265D01*
X204665528Y-69644268D01*
X204722140Y-69780941D01*
X204751000Y-69926033D01*
X204751000Y-70073967D01*
X204722140Y-70219059D01*
X204665528Y-70355732D01*
X204610106Y-70438677D01*
X204583338Y-70478738D01*
X204478738Y-70583338D01*
X204478735Y-70583340D01*
X204355732Y-70665528D01*
X204219059Y-70722140D01*
X204132004Y-70739456D01*
X204073969Y-70751000D01*
X203926031Y-70751000D01*
X203867996Y-70739456D01*
X203780941Y-70722140D01*
X203644268Y-70665528D01*
X203521265Y-70583340D01*
X203521262Y-70583338D01*
X203416662Y-70478738D01*
X203389894Y-70438677D01*
X203334472Y-70355732D01*
X203277860Y-70219059D01*
X203249000Y-70073967D01*
X203249000Y-69926033D01*
X203277860Y-69780941D01*
X203334472Y-69644268D01*
X203416660Y-69521265D01*
X203416662Y-69521262D01*
X203521262Y-69416662D01*
X203533549Y-69408452D01*
X203644268Y-69334472D01*
X203780941Y-69277860D01*
X203867996Y-69260544D01*
X203926031Y-69249000D01*
X204073969Y-69249000D01*
X204132004Y-69260544D01*
X204132004Y-69260544D01*
G37*
G36*
X133132004Y-69260544D02*
X133219059Y-69277860D01*
X133355732Y-69334472D01*
X133466451Y-69408452D01*
X133478738Y-69416662D01*
X133583338Y-69521262D01*
X133583340Y-69521265D01*
X133665528Y-69644268D01*
X133722140Y-69780941D01*
X133751000Y-69926033D01*
X133751000Y-70073967D01*
X133722140Y-70219059D01*
X133665528Y-70355732D01*
X133610106Y-70438677D01*
X133583338Y-70478738D01*
X133478738Y-70583338D01*
X133478735Y-70583340D01*
X133355732Y-70665528D01*
X133219059Y-70722140D01*
X133132004Y-70739456D01*
X133073969Y-70751000D01*
X132926031Y-70751000D01*
X132867996Y-70739456D01*
X132780941Y-70722140D01*
X132644268Y-70665528D01*
X132521265Y-70583340D01*
X132521262Y-70583338D01*
X132416662Y-70478738D01*
X132389894Y-70438677D01*
X132334472Y-70355732D01*
X132277860Y-70219059D01*
X132249000Y-70073967D01*
X132249000Y-69926033D01*
X132277860Y-69780941D01*
X132334472Y-69644268D01*
X132416660Y-69521265D01*
X132416662Y-69521262D01*
X132521262Y-69416662D01*
X132533549Y-69408452D01*
X132644268Y-69334472D01*
X132780941Y-69277860D01*
X132867996Y-69260544D01*
X132926031Y-69249000D01*
X133073969Y-69249000D01*
X133132004Y-69260544D01*
X133132004Y-69260544D01*
G37*
G36*
X109132004Y-69260544D02*
X109219059Y-69277860D01*
X109355732Y-69334472D01*
X109466451Y-69408452D01*
X109478738Y-69416662D01*
X109583338Y-69521262D01*
X109583340Y-69521265D01*
X109665528Y-69644268D01*
X109722140Y-69780941D01*
X109751000Y-69926033D01*
X109751000Y-70073967D01*
X109722140Y-70219059D01*
X109665528Y-70355732D01*
X109610106Y-70438677D01*
X109583338Y-70478738D01*
X109478738Y-70583338D01*
X109478735Y-70583340D01*
X109355732Y-70665528D01*
X109219059Y-70722140D01*
X109132004Y-70739456D01*
X109073969Y-70751000D01*
X108926031Y-70751000D01*
X108867996Y-70739456D01*
X108780941Y-70722140D01*
X108644268Y-70665528D01*
X108521265Y-70583340D01*
X108521262Y-70583338D01*
X108416662Y-70478738D01*
X108389894Y-70438677D01*
X108334472Y-70355732D01*
X108277860Y-70219059D01*
X108249000Y-70073967D01*
X108249000Y-69926033D01*
X108277860Y-69780941D01*
X108334472Y-69644268D01*
X108416660Y-69521265D01*
X108416662Y-69521262D01*
X108521262Y-69416662D01*
X108533549Y-69408452D01*
X108644268Y-69334472D01*
X108780941Y-69277860D01*
X108867996Y-69260544D01*
X108926031Y-69249000D01*
X109073969Y-69249000D01*
X109132004Y-69260544D01*
X109132004Y-69260544D01*
G37*
G36*
X157132004Y-69260544D02*
X157219059Y-69277860D01*
X157355732Y-69334472D01*
X157466451Y-69408452D01*
X157478738Y-69416662D01*
X157583338Y-69521262D01*
X157583340Y-69521265D01*
X157665528Y-69644268D01*
X157722140Y-69780941D01*
X157751000Y-69926033D01*
X157751000Y-70073967D01*
X157722140Y-70219059D01*
X157665528Y-70355732D01*
X157610106Y-70438677D01*
X157583338Y-70478738D01*
X157478738Y-70583338D01*
X157478735Y-70583340D01*
X157355732Y-70665528D01*
X157219059Y-70722140D01*
X157132004Y-70739456D01*
X157073969Y-70751000D01*
X156926031Y-70751000D01*
X156867996Y-70739456D01*
X156780941Y-70722140D01*
X156644268Y-70665528D01*
X156521265Y-70583340D01*
X156521262Y-70583338D01*
X156416662Y-70478738D01*
X156389894Y-70438677D01*
X156334472Y-70355732D01*
X156277860Y-70219059D01*
X156249000Y-70073967D01*
X156249000Y-69926033D01*
X156277860Y-69780941D01*
X156334472Y-69644268D01*
X156416660Y-69521265D01*
X156416662Y-69521262D01*
X156521262Y-69416662D01*
X156533549Y-69408452D01*
X156644268Y-69334472D01*
X156780941Y-69277860D01*
X156867996Y-69260544D01*
X156926031Y-69249000D01*
X157073969Y-69249000D01*
X157132004Y-69260544D01*
X157132004Y-69260544D01*
G37*
G36*
X181132004Y-69260544D02*
X181219059Y-69277860D01*
X181355732Y-69334472D01*
X181466451Y-69408452D01*
X181478738Y-69416662D01*
X181583338Y-69521262D01*
X181583340Y-69521265D01*
X181665528Y-69644268D01*
X181722140Y-69780941D01*
X181751000Y-69926033D01*
X181751000Y-70073967D01*
X181722140Y-70219059D01*
X181665528Y-70355732D01*
X181610106Y-70438677D01*
X181583338Y-70478738D01*
X181478738Y-70583338D01*
X181478735Y-70583340D01*
X181355732Y-70665528D01*
X181219059Y-70722140D01*
X181132004Y-70739456D01*
X181073969Y-70751000D01*
X180926031Y-70751000D01*
X180867996Y-70739456D01*
X180780941Y-70722140D01*
X180644268Y-70665528D01*
X180521265Y-70583340D01*
X180521262Y-70583338D01*
X180416662Y-70478738D01*
X180389894Y-70438677D01*
X180334472Y-70355732D01*
X180277860Y-70219059D01*
X180249000Y-70073967D01*
X180249000Y-69926033D01*
X180277860Y-69780941D01*
X180334472Y-69644268D01*
X180416660Y-69521265D01*
X180416662Y-69521262D01*
X180521262Y-69416662D01*
X180533549Y-69408452D01*
X180644268Y-69334472D01*
X180780941Y-69277860D01*
X180867996Y-69260544D01*
X180926031Y-69249000D01*
X181073969Y-69249000D01*
X181132004Y-69260544D01*
X181132004Y-69260544D01*
G37*
G36*
X106588677Y-69378465D02*
X106626364Y-69389898D01*
X106661103Y-69408466D01*
X106691548Y-69433452D01*
X106716534Y-69463897D01*
X106735102Y-69498636D01*
X106746535Y-69536323D01*
X106751000Y-69581661D01*
X106751000Y-70418339D01*
X106746535Y-70463677D01*
X106735102Y-70501364D01*
X106716534Y-70536103D01*
X106691548Y-70566548D01*
X106661103Y-70591534D01*
X106626364Y-70610102D01*
X106588677Y-70621535D01*
X106543339Y-70626000D01*
X105456661Y-70626000D01*
X105411323Y-70621535D01*
X105373636Y-70610102D01*
X105338897Y-70591534D01*
X105308452Y-70566548D01*
X105283466Y-70536103D01*
X105264898Y-70501364D01*
X105253465Y-70463677D01*
X105249000Y-70418339D01*
X105249000Y-69581661D01*
X105253465Y-69536323D01*
X105264898Y-69498636D01*
X105283466Y-69463897D01*
X105308452Y-69433452D01*
X105338897Y-69408466D01*
X105373636Y-69389898D01*
X105411323Y-69378465D01*
X105456661Y-69374000D01*
X106543339Y-69374000D01*
X106588677Y-69378465D01*
X106588677Y-69378465D01*
G37*
G36*
X201588677Y-69353465D02*
X201626364Y-69364898D01*
X201661103Y-69383466D01*
X201691548Y-69408452D01*
X201716534Y-69438897D01*
X201735102Y-69473636D01*
X201746535Y-69511323D01*
X201751000Y-69556661D01*
X201751000Y-70393339D01*
X201746535Y-70438677D01*
X201735102Y-70476364D01*
X201716534Y-70511103D01*
X201691548Y-70541548D01*
X201661103Y-70566534D01*
X201626364Y-70585102D01*
X201588677Y-70596535D01*
X201543339Y-70601000D01*
X200456661Y-70601000D01*
X200411323Y-70596535D01*
X200373636Y-70585102D01*
X200338897Y-70566534D01*
X200308452Y-70541548D01*
X200283466Y-70511103D01*
X200264898Y-70476364D01*
X200253465Y-70438677D01*
X200249000Y-70393339D01*
X200249000Y-69556661D01*
X200253465Y-69511323D01*
X200264898Y-69473636D01*
X200283466Y-69438897D01*
X200308452Y-69408452D01*
X200338897Y-69383466D01*
X200373636Y-69364898D01*
X200411323Y-69353465D01*
X200456661Y-69349000D01*
X201543339Y-69349000D01*
X201588677Y-69353465D01*
X201588677Y-69353465D01*
G37*
G36*
X130588677Y-69328465D02*
X130626364Y-69339898D01*
X130661103Y-69358466D01*
X130691548Y-69383452D01*
X130716534Y-69413897D01*
X130735102Y-69448636D01*
X130746535Y-69486323D01*
X130751000Y-69531661D01*
X130751000Y-70368339D01*
X130746535Y-70413677D01*
X130735102Y-70451364D01*
X130716534Y-70486103D01*
X130691548Y-70516548D01*
X130661103Y-70541534D01*
X130626364Y-70560102D01*
X130588677Y-70571535D01*
X130543339Y-70576000D01*
X129456661Y-70576000D01*
X129411323Y-70571535D01*
X129373636Y-70560102D01*
X129338897Y-70541534D01*
X129308452Y-70516548D01*
X129283466Y-70486103D01*
X129264898Y-70451364D01*
X129253465Y-70413677D01*
X129249000Y-70368339D01*
X129249000Y-69531661D01*
X129253465Y-69486323D01*
X129264898Y-69448636D01*
X129283466Y-69413897D01*
X129308452Y-69383452D01*
X129338897Y-69358466D01*
X129373636Y-69339898D01*
X129411323Y-69328465D01*
X129456661Y-69324000D01*
X130543339Y-69324000D01*
X130588677Y-69328465D01*
X130588677Y-69328465D01*
G37*
G36*
X154588677Y-69328465D02*
X154626364Y-69339898D01*
X154661103Y-69358466D01*
X154691548Y-69383452D01*
X154716534Y-69413897D01*
X154735102Y-69448636D01*
X154746535Y-69486323D01*
X154751000Y-69531661D01*
X154751000Y-70368339D01*
X154746535Y-70413677D01*
X154735102Y-70451364D01*
X154716534Y-70486103D01*
X154691548Y-70516548D01*
X154661103Y-70541534D01*
X154626364Y-70560102D01*
X154588677Y-70571535D01*
X154543339Y-70576000D01*
X153456661Y-70576000D01*
X153411323Y-70571535D01*
X153373636Y-70560102D01*
X153338897Y-70541534D01*
X153308452Y-70516548D01*
X153283466Y-70486103D01*
X153264898Y-70451364D01*
X153253465Y-70413677D01*
X153249000Y-70368339D01*
X153249000Y-69531661D01*
X153253465Y-69486323D01*
X153264898Y-69448636D01*
X153283466Y-69413897D01*
X153308452Y-69383452D01*
X153338897Y-69358466D01*
X153373636Y-69339898D01*
X153411323Y-69328465D01*
X153456661Y-69324000D01*
X154543339Y-69324000D01*
X154588677Y-69328465D01*
X154588677Y-69328465D01*
G37*
G36*
X178588677Y-69328465D02*
X178626364Y-69339898D01*
X178661103Y-69358466D01*
X178691548Y-69383452D01*
X178716534Y-69413897D01*
X178735102Y-69448636D01*
X178746535Y-69486323D01*
X178751000Y-69531661D01*
X178751000Y-70368339D01*
X178746535Y-70413677D01*
X178735102Y-70451364D01*
X178716534Y-70486103D01*
X178691548Y-70516548D01*
X178661103Y-70541534D01*
X178626364Y-70560102D01*
X178588677Y-70571535D01*
X178543339Y-70576000D01*
X177456661Y-70576000D01*
X177411323Y-70571535D01*
X177373636Y-70560102D01*
X177338897Y-70541534D01*
X177308452Y-70516548D01*
X177283466Y-70486103D01*
X177264898Y-70451364D01*
X177253465Y-70413677D01*
X177249000Y-70368339D01*
X177249000Y-69531661D01*
X177253465Y-69486323D01*
X177264898Y-69448636D01*
X177283466Y-69413897D01*
X177308452Y-69383452D01*
X177338897Y-69358466D01*
X177373636Y-69339898D01*
X177411323Y-69328465D01*
X177456661Y-69324000D01*
X178543339Y-69324000D01*
X178588677Y-69328465D01*
X178588677Y-69328465D01*
G37*
G36*
X195748228Y-68181703D02*
X195903100Y-68245853D01*
X196042481Y-68338985D01*
X196161015Y-68457519D01*
X196254147Y-68596900D01*
X196318297Y-68751772D01*
X196351000Y-68916184D01*
X196351000Y-69083816D01*
X196318297Y-69248228D01*
X196254147Y-69403100D01*
X196161015Y-69542481D01*
X196042481Y-69661015D01*
X195903100Y-69754147D01*
X195748228Y-69818297D01*
X195583816Y-69851000D01*
X195416184Y-69851000D01*
X195251772Y-69818297D01*
X195096900Y-69754147D01*
X194957519Y-69661015D01*
X194838985Y-69542481D01*
X194745853Y-69403100D01*
X194681703Y-69248228D01*
X194649000Y-69083816D01*
X194649000Y-68916184D01*
X194681703Y-68751772D01*
X194745853Y-68596900D01*
X194838985Y-68457519D01*
X194957519Y-68338985D01*
X195096900Y-68245853D01*
X195251772Y-68181703D01*
X195416184Y-68149000D01*
X195583816Y-68149000D01*
X195748228Y-68181703D01*
X195748228Y-68181703D01*
G37*
G36*
X171748228Y-68181703D02*
X171903100Y-68245853D01*
X172042481Y-68338985D01*
X172161015Y-68457519D01*
X172254147Y-68596900D01*
X172318297Y-68751772D01*
X172351000Y-68916184D01*
X172351000Y-69083816D01*
X172318297Y-69248228D01*
X172254147Y-69403100D01*
X172161015Y-69542481D01*
X172042481Y-69661015D01*
X171903100Y-69754147D01*
X171748228Y-69818297D01*
X171583816Y-69851000D01*
X171416184Y-69851000D01*
X171251772Y-69818297D01*
X171096900Y-69754147D01*
X170957519Y-69661015D01*
X170838985Y-69542481D01*
X170745853Y-69403100D01*
X170681703Y-69248228D01*
X170649000Y-69083816D01*
X170649000Y-68916184D01*
X170681703Y-68751772D01*
X170745853Y-68596900D01*
X170838985Y-68457519D01*
X170957519Y-68338985D01*
X171096900Y-68245853D01*
X171251772Y-68181703D01*
X171416184Y-68149000D01*
X171583816Y-68149000D01*
X171748228Y-68181703D01*
X171748228Y-68181703D01*
G37*
G36*
X100248228Y-68181703D02*
X100403100Y-68245853D01*
X100542481Y-68338985D01*
X100661015Y-68457519D01*
X100754147Y-68596900D01*
X100818297Y-68751772D01*
X100851000Y-68916184D01*
X100851000Y-69083816D01*
X100818297Y-69248228D01*
X100754147Y-69403100D01*
X100661015Y-69542481D01*
X100542481Y-69661015D01*
X100403100Y-69754147D01*
X100248228Y-69818297D01*
X100083816Y-69851000D01*
X99916184Y-69851000D01*
X99751772Y-69818297D01*
X99596900Y-69754147D01*
X99457519Y-69661015D01*
X99338985Y-69542481D01*
X99245853Y-69403100D01*
X99181703Y-69248228D01*
X99149000Y-69083816D01*
X99149000Y-68916184D01*
X99181703Y-68751772D01*
X99245853Y-68596900D01*
X99338985Y-68457519D01*
X99457519Y-68338985D01*
X99596900Y-68245853D01*
X99751772Y-68181703D01*
X99916184Y-68149000D01*
X100083816Y-68149000D01*
X100248228Y-68181703D01*
X100248228Y-68181703D01*
G37*
G36*
X147748228Y-68181703D02*
X147903100Y-68245853D01*
X148042481Y-68338985D01*
X148161015Y-68457519D01*
X148254147Y-68596900D01*
X148318297Y-68751772D01*
X148351000Y-68916184D01*
X148351000Y-69083816D01*
X148318297Y-69248228D01*
X148254147Y-69403100D01*
X148161015Y-69542481D01*
X148042481Y-69661015D01*
X147903100Y-69754147D01*
X147748228Y-69818297D01*
X147583816Y-69851000D01*
X147416184Y-69851000D01*
X147251772Y-69818297D01*
X147096900Y-69754147D01*
X146957519Y-69661015D01*
X146838985Y-69542481D01*
X146745853Y-69403100D01*
X146681703Y-69248228D01*
X146649000Y-69083816D01*
X146649000Y-68916184D01*
X146681703Y-68751772D01*
X146745853Y-68596900D01*
X146838985Y-68457519D01*
X146957519Y-68338985D01*
X147096900Y-68245853D01*
X147251772Y-68181703D01*
X147416184Y-68149000D01*
X147583816Y-68149000D01*
X147748228Y-68181703D01*
X147748228Y-68181703D01*
G37*
G36*
X123748228Y-68181703D02*
X123903100Y-68245853D01*
X124042481Y-68338985D01*
X124161015Y-68457519D01*
X124254147Y-68596900D01*
X124318297Y-68751772D01*
X124351000Y-68916184D01*
X124351000Y-69083816D01*
X124318297Y-69248228D01*
X124254147Y-69403100D01*
X124161015Y-69542481D01*
X124042481Y-69661015D01*
X123903100Y-69754147D01*
X123748228Y-69818297D01*
X123583816Y-69851000D01*
X123416184Y-69851000D01*
X123251772Y-69818297D01*
X123096900Y-69754147D01*
X122957519Y-69661015D01*
X122838985Y-69542481D01*
X122745853Y-69403100D01*
X122681703Y-69248228D01*
X122649000Y-69083816D01*
X122649000Y-68916184D01*
X122681703Y-68751772D01*
X122745853Y-68596900D01*
X122838985Y-68457519D01*
X122957519Y-68338985D01*
X123096900Y-68245853D01*
X123251772Y-68181703D01*
X123416184Y-68149000D01*
X123583816Y-68149000D01*
X123748228Y-68181703D01*
X123748228Y-68181703D01*
G37*
G36*
X175088677Y-68428465D02*
X175126364Y-68439898D01*
X175161103Y-68458466D01*
X175191548Y-68483452D01*
X175216534Y-68513897D01*
X175235102Y-68548636D01*
X175246535Y-68586323D01*
X175251000Y-68631661D01*
X175251000Y-69468339D01*
X175246535Y-69513677D01*
X175235102Y-69551364D01*
X175216534Y-69586103D01*
X175191548Y-69616548D01*
X175161103Y-69641534D01*
X175126364Y-69660102D01*
X175088677Y-69671535D01*
X175043339Y-69676000D01*
X173956661Y-69676000D01*
X173911323Y-69671535D01*
X173873636Y-69660102D01*
X173838897Y-69641534D01*
X173808452Y-69616548D01*
X173783466Y-69586103D01*
X173764898Y-69551364D01*
X173753465Y-69513677D01*
X173749000Y-69468339D01*
X173749000Y-68631661D01*
X173753465Y-68586323D01*
X173764898Y-68548636D01*
X173783466Y-68513897D01*
X173808452Y-68483452D01*
X173838897Y-68458466D01*
X173873636Y-68439898D01*
X173911323Y-68428465D01*
X173956661Y-68424000D01*
X175043339Y-68424000D01*
X175088677Y-68428465D01*
X175088677Y-68428465D01*
G37*
G36*
X151088677Y-68428465D02*
X151126364Y-68439898D01*
X151161103Y-68458466D01*
X151191548Y-68483452D01*
X151216534Y-68513897D01*
X151235102Y-68548636D01*
X151246535Y-68586323D01*
X151251000Y-68631661D01*
X151251000Y-69468339D01*
X151246535Y-69513677D01*
X151235102Y-69551364D01*
X151216534Y-69586103D01*
X151191548Y-69616548D01*
X151161103Y-69641534D01*
X151126364Y-69660102D01*
X151088677Y-69671535D01*
X151043339Y-69676000D01*
X149956661Y-69676000D01*
X149911323Y-69671535D01*
X149873636Y-69660102D01*
X149838897Y-69641534D01*
X149808452Y-69616548D01*
X149783466Y-69586103D01*
X149764898Y-69551364D01*
X149753465Y-69513677D01*
X149749000Y-69468339D01*
X149749000Y-68631661D01*
X149753465Y-68586323D01*
X149764898Y-68548636D01*
X149783466Y-68513897D01*
X149808452Y-68483452D01*
X149838897Y-68458466D01*
X149873636Y-68439898D01*
X149911323Y-68428465D01*
X149956661Y-68424000D01*
X151043339Y-68424000D01*
X151088677Y-68428465D01*
X151088677Y-68428465D01*
G37*
G36*
X103588677Y-68428465D02*
X103626364Y-68439898D01*
X103661103Y-68458466D01*
X103691548Y-68483452D01*
X103716534Y-68513897D01*
X103735102Y-68548636D01*
X103746535Y-68586323D01*
X103751000Y-68631661D01*
X103751000Y-69468339D01*
X103746535Y-69513677D01*
X103735102Y-69551364D01*
X103716534Y-69586103D01*
X103691548Y-69616548D01*
X103661103Y-69641534D01*
X103626364Y-69660102D01*
X103588677Y-69671535D01*
X103543339Y-69676000D01*
X102456661Y-69676000D01*
X102411323Y-69671535D01*
X102373636Y-69660102D01*
X102338897Y-69641534D01*
X102308452Y-69616548D01*
X102283466Y-69586103D01*
X102264898Y-69551364D01*
X102253465Y-69513677D01*
X102249000Y-69468339D01*
X102249000Y-68631661D01*
X102253465Y-68586323D01*
X102264898Y-68548636D01*
X102283466Y-68513897D01*
X102308452Y-68483452D01*
X102338897Y-68458466D01*
X102373636Y-68439898D01*
X102411323Y-68428465D01*
X102456661Y-68424000D01*
X103543339Y-68424000D01*
X103588677Y-68428465D01*
X103588677Y-68428465D01*
G37*
G36*
X198788677Y-68403465D02*
X198826364Y-68414898D01*
X198861103Y-68433466D01*
X198891548Y-68458452D01*
X198916534Y-68488897D01*
X198935102Y-68523636D01*
X198946535Y-68561323D01*
X198951000Y-68606661D01*
X198951000Y-69443339D01*
X198946535Y-69488677D01*
X198935102Y-69526364D01*
X198916534Y-69561103D01*
X198891548Y-69591548D01*
X198861103Y-69616534D01*
X198826364Y-69635102D01*
X198788677Y-69646535D01*
X198743339Y-69651000D01*
X197656661Y-69651000D01*
X197611323Y-69646535D01*
X197573636Y-69635102D01*
X197538897Y-69616534D01*
X197508452Y-69591548D01*
X197483466Y-69561103D01*
X197464898Y-69526364D01*
X197453465Y-69488677D01*
X197449000Y-69443339D01*
X197449000Y-68606661D01*
X197453465Y-68561323D01*
X197464898Y-68523636D01*
X197483466Y-68488897D01*
X197508452Y-68458452D01*
X197538897Y-68433466D01*
X197573636Y-68414898D01*
X197611323Y-68403465D01*
X197656661Y-68399000D01*
X198743339Y-68399000D01*
X198788677Y-68403465D01*
X198788677Y-68403465D01*
G37*
G36*
X127088677Y-68378465D02*
X127126364Y-68389898D01*
X127161103Y-68408466D01*
X127191548Y-68433452D01*
X127216534Y-68463897D01*
X127235102Y-68498636D01*
X127246535Y-68536323D01*
X127251000Y-68581661D01*
X127251000Y-69418339D01*
X127246535Y-69463677D01*
X127235102Y-69501364D01*
X127216534Y-69536103D01*
X127191548Y-69566548D01*
X127161103Y-69591534D01*
X127126364Y-69610102D01*
X127088677Y-69621535D01*
X127043339Y-69626000D01*
X125956661Y-69626000D01*
X125911323Y-69621535D01*
X125873636Y-69610102D01*
X125838897Y-69591534D01*
X125808452Y-69566548D01*
X125783466Y-69536103D01*
X125764898Y-69501364D01*
X125753465Y-69463677D01*
X125749000Y-69418339D01*
X125749000Y-68581661D01*
X125753465Y-68536323D01*
X125764898Y-68498636D01*
X125783466Y-68463897D01*
X125808452Y-68433452D01*
X125838897Y-68408466D01*
X125873636Y-68389898D01*
X125911323Y-68378465D01*
X125956661Y-68374000D01*
X127043339Y-68374000D01*
X127088677Y-68378465D01*
X127088677Y-68378465D01*
G37*
G36*
X103588677Y-66378465D02*
X103626364Y-66389898D01*
X103661103Y-66408466D01*
X103691548Y-66433452D01*
X103716534Y-66463897D01*
X103735102Y-66498636D01*
X103746535Y-66536323D01*
X103751000Y-66581661D01*
X103751000Y-67418339D01*
X103746535Y-67463677D01*
X103735102Y-67501364D01*
X103716534Y-67536103D01*
X103691548Y-67566548D01*
X103661103Y-67591534D01*
X103626364Y-67610102D01*
X103588677Y-67621535D01*
X103543339Y-67626000D01*
X102456661Y-67626000D01*
X102411323Y-67621535D01*
X102373636Y-67610102D01*
X102338897Y-67591534D01*
X102308452Y-67566548D01*
X102283466Y-67536103D01*
X102264898Y-67501364D01*
X102253465Y-67463677D01*
X102249000Y-67418339D01*
X102249000Y-66581661D01*
X102253465Y-66536323D01*
X102264898Y-66498636D01*
X102283466Y-66463897D01*
X102308452Y-66433452D01*
X102338897Y-66408466D01*
X102373636Y-66389898D01*
X102411323Y-66378465D01*
X102456661Y-66374000D01*
X103543339Y-66374000D01*
X103588677Y-66378465D01*
X103588677Y-66378465D01*
G37*
G36*
X151088677Y-66378465D02*
X151126364Y-66389898D01*
X151161103Y-66408466D01*
X151191548Y-66433452D01*
X151216534Y-66463897D01*
X151235102Y-66498636D01*
X151246535Y-66536323D01*
X151251000Y-66581661D01*
X151251000Y-67418339D01*
X151246535Y-67463677D01*
X151235102Y-67501364D01*
X151216534Y-67536103D01*
X151191548Y-67566548D01*
X151161103Y-67591534D01*
X151126364Y-67610102D01*
X151088677Y-67621535D01*
X151043339Y-67626000D01*
X149956661Y-67626000D01*
X149911323Y-67621535D01*
X149873636Y-67610102D01*
X149838897Y-67591534D01*
X149808452Y-67566548D01*
X149783466Y-67536103D01*
X149764898Y-67501364D01*
X149753465Y-67463677D01*
X149749000Y-67418339D01*
X149749000Y-66581661D01*
X149753465Y-66536323D01*
X149764898Y-66498636D01*
X149783466Y-66463897D01*
X149808452Y-66433452D01*
X149838897Y-66408466D01*
X149873636Y-66389898D01*
X149911323Y-66378465D01*
X149956661Y-66374000D01*
X151043339Y-66374000D01*
X151088677Y-66378465D01*
X151088677Y-66378465D01*
G37*
G36*
X175088677Y-66378465D02*
X175126364Y-66389898D01*
X175161103Y-66408466D01*
X175191548Y-66433452D01*
X175216534Y-66463897D01*
X175235102Y-66498636D01*
X175246535Y-66536323D01*
X175251000Y-66581661D01*
X175251000Y-67418339D01*
X175246535Y-67463677D01*
X175235102Y-67501364D01*
X175216534Y-67536103D01*
X175191548Y-67566548D01*
X175161103Y-67591534D01*
X175126364Y-67610102D01*
X175088677Y-67621535D01*
X175043339Y-67626000D01*
X173956661Y-67626000D01*
X173911323Y-67621535D01*
X173873636Y-67610102D01*
X173838897Y-67591534D01*
X173808452Y-67566548D01*
X173783466Y-67536103D01*
X173764898Y-67501364D01*
X173753465Y-67463677D01*
X173749000Y-67418339D01*
X173749000Y-66581661D01*
X173753465Y-66536323D01*
X173764898Y-66498636D01*
X173783466Y-66463897D01*
X173808452Y-66433452D01*
X173838897Y-66408466D01*
X173873636Y-66389898D01*
X173911323Y-66378465D01*
X173956661Y-66374000D01*
X175043339Y-66374000D01*
X175088677Y-66378465D01*
X175088677Y-66378465D01*
G37*
G36*
X198788677Y-66353465D02*
X198826364Y-66364898D01*
X198861103Y-66383466D01*
X198891548Y-66408452D01*
X198916534Y-66438897D01*
X198935102Y-66473636D01*
X198946535Y-66511323D01*
X198951000Y-66556661D01*
X198951000Y-67393339D01*
X198946535Y-67438677D01*
X198935102Y-67476364D01*
X198916534Y-67511103D01*
X198891548Y-67541548D01*
X198861103Y-67566534D01*
X198826364Y-67585102D01*
X198788677Y-67596535D01*
X198743339Y-67601000D01*
X197656661Y-67601000D01*
X197611323Y-67596535D01*
X197573636Y-67585102D01*
X197538897Y-67566534D01*
X197508452Y-67541548D01*
X197483466Y-67511103D01*
X197464898Y-67476364D01*
X197453465Y-67438677D01*
X197449000Y-67393339D01*
X197449000Y-66556661D01*
X197453465Y-66511323D01*
X197464898Y-66473636D01*
X197483466Y-66438897D01*
X197508452Y-66408452D01*
X197538897Y-66383466D01*
X197573636Y-66364898D01*
X197611323Y-66353465D01*
X197656661Y-66349000D01*
X198743339Y-66349000D01*
X198788677Y-66353465D01*
X198788677Y-66353465D01*
G37*
G36*
X127088677Y-66328465D02*
X127126364Y-66339898D01*
X127161103Y-66358466D01*
X127191548Y-66383452D01*
X127216534Y-66413897D01*
X127235102Y-66448636D01*
X127246535Y-66486323D01*
X127251000Y-66531661D01*
X127251000Y-67368339D01*
X127246535Y-67413677D01*
X127235102Y-67451364D01*
X127216534Y-67486103D01*
X127191548Y-67516548D01*
X127161103Y-67541534D01*
X127126364Y-67560102D01*
X127088677Y-67571535D01*
X127043339Y-67576000D01*
X125956661Y-67576000D01*
X125911323Y-67571535D01*
X125873636Y-67560102D01*
X125838897Y-67541534D01*
X125808452Y-67516548D01*
X125783466Y-67486103D01*
X125764898Y-67451364D01*
X125753465Y-67413677D01*
X125749000Y-67368339D01*
X125749000Y-66531661D01*
X125753465Y-66486323D01*
X125764898Y-66448636D01*
X125783466Y-66413897D01*
X125808452Y-66383452D01*
X125838897Y-66358466D01*
X125873636Y-66339898D01*
X125911323Y-66328465D01*
X125956661Y-66324000D01*
X127043339Y-66324000D01*
X127088677Y-66328465D01*
X127088677Y-66328465D01*
G37*
G36*
X123748228Y-65681703D02*
X123903100Y-65745853D01*
X124042481Y-65838985D01*
X124161015Y-65957519D01*
X124254147Y-66096900D01*
X124318297Y-66251772D01*
X124351000Y-66416184D01*
X124351000Y-66583816D01*
X124318297Y-66748228D01*
X124254147Y-66903100D01*
X124161015Y-67042481D01*
X124042481Y-67161015D01*
X123903100Y-67254147D01*
X123748228Y-67318297D01*
X123583816Y-67351000D01*
X123416184Y-67351000D01*
X123251772Y-67318297D01*
X123096900Y-67254147D01*
X122957519Y-67161015D01*
X122838985Y-67042481D01*
X122745853Y-66903100D01*
X122681703Y-66748228D01*
X122649000Y-66583816D01*
X122649000Y-66416184D01*
X122681703Y-66251772D01*
X122745853Y-66096900D01*
X122838985Y-65957519D01*
X122957519Y-65838985D01*
X123096900Y-65745853D01*
X123251772Y-65681703D01*
X123416184Y-65649000D01*
X123583816Y-65649000D01*
X123748228Y-65681703D01*
X123748228Y-65681703D01*
G37*
G36*
X171748228Y-65681703D02*
X171903100Y-65745853D01*
X172042481Y-65838985D01*
X172161015Y-65957519D01*
X172254147Y-66096900D01*
X172318297Y-66251772D01*
X172351000Y-66416184D01*
X172351000Y-66583816D01*
X172318297Y-66748228D01*
X172254147Y-66903100D01*
X172161015Y-67042481D01*
X172042481Y-67161015D01*
X171903100Y-67254147D01*
X171748228Y-67318297D01*
X171583816Y-67351000D01*
X171416184Y-67351000D01*
X171251772Y-67318297D01*
X171096900Y-67254147D01*
X170957519Y-67161015D01*
X170838985Y-67042481D01*
X170745853Y-66903100D01*
X170681703Y-66748228D01*
X170649000Y-66583816D01*
X170649000Y-66416184D01*
X170681703Y-66251772D01*
X170745853Y-66096900D01*
X170838985Y-65957519D01*
X170957519Y-65838985D01*
X171096900Y-65745853D01*
X171251772Y-65681703D01*
X171416184Y-65649000D01*
X171583816Y-65649000D01*
X171748228Y-65681703D01*
X171748228Y-65681703D01*
G37*
G36*
X100248228Y-65681703D02*
X100403100Y-65745853D01*
X100542481Y-65838985D01*
X100661015Y-65957519D01*
X100754147Y-66096900D01*
X100818297Y-66251772D01*
X100851000Y-66416184D01*
X100851000Y-66583816D01*
X100818297Y-66748228D01*
X100754147Y-66903100D01*
X100661015Y-67042481D01*
X100542481Y-67161015D01*
X100403100Y-67254147D01*
X100248228Y-67318297D01*
X100083816Y-67351000D01*
X99916184Y-67351000D01*
X99751772Y-67318297D01*
X99596900Y-67254147D01*
X99457519Y-67161015D01*
X99338985Y-67042481D01*
X99245853Y-66903100D01*
X99181703Y-66748228D01*
X99149000Y-66583816D01*
X99149000Y-66416184D01*
X99181703Y-66251772D01*
X99245853Y-66096900D01*
X99338985Y-65957519D01*
X99457519Y-65838985D01*
X99596900Y-65745853D01*
X99751772Y-65681703D01*
X99916184Y-65649000D01*
X100083816Y-65649000D01*
X100248228Y-65681703D01*
X100248228Y-65681703D01*
G37*
G36*
X195748228Y-65681703D02*
X195903100Y-65745853D01*
X196042481Y-65838985D01*
X196161015Y-65957519D01*
X196254147Y-66096900D01*
X196318297Y-66251772D01*
X196351000Y-66416184D01*
X196351000Y-66583816D01*
X196318297Y-66748228D01*
X196254147Y-66903100D01*
X196161015Y-67042481D01*
X196042481Y-67161015D01*
X195903100Y-67254147D01*
X195748228Y-67318297D01*
X195583816Y-67351000D01*
X195416184Y-67351000D01*
X195251772Y-67318297D01*
X195096900Y-67254147D01*
X194957519Y-67161015D01*
X194838985Y-67042481D01*
X194745853Y-66903100D01*
X194681703Y-66748228D01*
X194649000Y-66583816D01*
X194649000Y-66416184D01*
X194681703Y-66251772D01*
X194745853Y-66096900D01*
X194838985Y-65957519D01*
X194957519Y-65838985D01*
X195096900Y-65745853D01*
X195251772Y-65681703D01*
X195416184Y-65649000D01*
X195583816Y-65649000D01*
X195748228Y-65681703D01*
X195748228Y-65681703D01*
G37*
G36*
X147748228Y-65681703D02*
X147903100Y-65745853D01*
X148042481Y-65838985D01*
X148161015Y-65957519D01*
X148254147Y-66096900D01*
X148318297Y-66251772D01*
X148351000Y-66416184D01*
X148351000Y-66583816D01*
X148318297Y-66748228D01*
X148254147Y-66903100D01*
X148161015Y-67042481D01*
X148042481Y-67161015D01*
X147903100Y-67254147D01*
X147748228Y-67318297D01*
X147583816Y-67351000D01*
X147416184Y-67351000D01*
X147251772Y-67318297D01*
X147096900Y-67254147D01*
X146957519Y-67161015D01*
X146838985Y-67042481D01*
X146745853Y-66903100D01*
X146681703Y-66748228D01*
X146649000Y-66583816D01*
X146649000Y-66416184D01*
X146681703Y-66251772D01*
X146745853Y-66096900D01*
X146838985Y-65957519D01*
X146957519Y-65838985D01*
X147096900Y-65745853D01*
X147251772Y-65681703D01*
X147416184Y-65649000D01*
X147583816Y-65649000D01*
X147748228Y-65681703D01*
X147748228Y-65681703D01*
G37*
G36*
X208806565Y-64989389D02*
X208997834Y-65068615D01*
X209169976Y-65183637D01*
X209316363Y-65330024D01*
X209431385Y-65502166D01*
X209510611Y-65693435D01*
X209551000Y-65896484D01*
X209551000Y-66103516D01*
X209510611Y-66306565D01*
X209431385Y-66497834D01*
X209316363Y-66669976D01*
X209169976Y-66816363D01*
X208997834Y-66931385D01*
X208806565Y-67010611D01*
X208603516Y-67051000D01*
X208396484Y-67051000D01*
X208193435Y-67010611D01*
X208002166Y-66931385D01*
X207830024Y-66816363D01*
X207683637Y-66669976D01*
X207568615Y-66497834D01*
X207489389Y-66306565D01*
X207449000Y-66103516D01*
X207449000Y-65896484D01*
X207489389Y-65693435D01*
X207568615Y-65502166D01*
X207683637Y-65330024D01*
X207830024Y-65183637D01*
X208002166Y-65068615D01*
X208193435Y-64989389D01*
X208396484Y-64949000D01*
X208603516Y-64949000D01*
X208806565Y-64989389D01*
X208806565Y-64989389D01*
G37*
G36*
X204306565Y-64989389D02*
X204497834Y-65068615D01*
X204669976Y-65183637D01*
X204816363Y-65330024D01*
X204931385Y-65502166D01*
X205010611Y-65693435D01*
X205051000Y-65896484D01*
X205051000Y-66103516D01*
X205010611Y-66306565D01*
X204931385Y-66497834D01*
X204816363Y-66669976D01*
X204669976Y-66816363D01*
X204497834Y-66931385D01*
X204306565Y-67010611D01*
X204103516Y-67051000D01*
X203896484Y-67051000D01*
X203693435Y-67010611D01*
X203502166Y-66931385D01*
X203330024Y-66816363D01*
X203183637Y-66669976D01*
X203068615Y-66497834D01*
X202989389Y-66306565D01*
X202949000Y-66103516D01*
X202949000Y-65896484D01*
X202989389Y-65693435D01*
X203068615Y-65502166D01*
X203183637Y-65330024D01*
X203330024Y-65183637D01*
X203502166Y-65068615D01*
X203693435Y-64989389D01*
X203896484Y-64949000D01*
X204103516Y-64949000D01*
X204306565Y-64989389D01*
X204306565Y-64989389D01*
G37*
G36*
X109310443Y-64645519D02*
X109376627Y-64652037D01*
X109489853Y-64686384D01*
X109546467Y-64703557D01*
X109685087Y-64777652D01*
X109702991Y-64787222D01*
X109738729Y-64816552D01*
X109840186Y-64899814D01*
X109913697Y-64989389D01*
X109952778Y-65037009D01*
X109952779Y-65037011D01*
X110036443Y-65193533D01*
X110036443Y-65193534D01*
X110087963Y-65363373D01*
X110105359Y-65540000D01*
X110087963Y-65716627D01*
X110079097Y-65745853D01*
X110036443Y-65886467D01*
X109998464Y-65957519D01*
X109952778Y-66042991D01*
X109923448Y-66078729D01*
X109840186Y-66180186D01*
X109752957Y-66251772D01*
X109702991Y-66292778D01*
X109702989Y-66292779D01*
X109546467Y-66376443D01*
X109502111Y-66389898D01*
X109376627Y-66427963D01*
X109320895Y-66433452D01*
X109244260Y-66441000D01*
X109155740Y-66441000D01*
X109079105Y-66433452D01*
X109023373Y-66427963D01*
X108897889Y-66389898D01*
X108853533Y-66376443D01*
X108697011Y-66292779D01*
X108697009Y-66292778D01*
X108647043Y-66251772D01*
X108559814Y-66180186D01*
X108476552Y-66078729D01*
X108447222Y-66042991D01*
X108401536Y-65957519D01*
X108363557Y-65886467D01*
X108320903Y-65745853D01*
X108312037Y-65716627D01*
X108294641Y-65540000D01*
X108312037Y-65363373D01*
X108363557Y-65193534D01*
X108363557Y-65193533D01*
X108447221Y-65037011D01*
X108447222Y-65037009D01*
X108486303Y-64989389D01*
X108559814Y-64899814D01*
X108661271Y-64816552D01*
X108697009Y-64787222D01*
X108714913Y-64777652D01*
X108853533Y-64703557D01*
X108910147Y-64686384D01*
X109023373Y-64652037D01*
X109089557Y-64645519D01*
X109155740Y-64639000D01*
X109244260Y-64639000D01*
X109310443Y-64645519D01*
X109310443Y-64645519D01*
G37*
G36*
X199440830Y-62114930D02*
X199440833Y-62114931D01*
X199440834Y-62114931D01*
X199648373Y-62177887D01*
X199648375Y-62177888D01*
X199839644Y-62280123D01*
X200007291Y-62417709D01*
X200144877Y-62585356D01*
X200247112Y-62776625D01*
X200310070Y-62984170D01*
X200331327Y-63200000D01*
X200310070Y-63415830D01*
X200247112Y-63623375D01*
X200144877Y-63814644D01*
X200007291Y-63982291D01*
X199839644Y-64119877D01*
X199648375Y-64222112D01*
X199648373Y-64222113D01*
X199440834Y-64285069D01*
X199440833Y-64285069D01*
X199440830Y-64285070D01*
X199279089Y-64301000D01*
X195720911Y-64301000D01*
X195559170Y-64285070D01*
X195559167Y-64285069D01*
X195559166Y-64285069D01*
X195351627Y-64222113D01*
X195351625Y-64222112D01*
X195160356Y-64119877D01*
X194992709Y-63982291D01*
X194855123Y-63814644D01*
X194752888Y-63623375D01*
X194689930Y-63415830D01*
X194668673Y-63200000D01*
X194689930Y-62984170D01*
X194752888Y-62776625D01*
X194855123Y-62585356D01*
X194992709Y-62417709D01*
X195160356Y-62280123D01*
X195351625Y-62177888D01*
X195351627Y-62177887D01*
X195559166Y-62114931D01*
X195559167Y-62114931D01*
X195559170Y-62114930D01*
X195720911Y-62099000D01*
X199279089Y-62099000D01*
X199440830Y-62114930D01*
X199440830Y-62114930D01*
G37*
G36*
X191540830Y-62114930D02*
X191540833Y-62114931D01*
X191540834Y-62114931D01*
X191748373Y-62177887D01*
X191748375Y-62177888D01*
X191939644Y-62280123D01*
X192107291Y-62417709D01*
X192244877Y-62585356D01*
X192347112Y-62776625D01*
X192410070Y-62984170D01*
X192431327Y-63200000D01*
X192410070Y-63415830D01*
X192347112Y-63623375D01*
X192244877Y-63814644D01*
X192107291Y-63982291D01*
X191939644Y-64119877D01*
X191748375Y-64222112D01*
X191748373Y-64222113D01*
X191540834Y-64285069D01*
X191540833Y-64285069D01*
X191540830Y-64285070D01*
X191379089Y-64301000D01*
X187820911Y-64301000D01*
X187659170Y-64285070D01*
X187659167Y-64285069D01*
X187659166Y-64285069D01*
X187451627Y-64222113D01*
X187451625Y-64222112D01*
X187260356Y-64119877D01*
X187092709Y-63982291D01*
X186955123Y-63814644D01*
X186852888Y-63623375D01*
X186789930Y-63415830D01*
X186768673Y-63200000D01*
X186789930Y-62984170D01*
X186852888Y-62776625D01*
X186955123Y-62585356D01*
X187092709Y-62417709D01*
X187260356Y-62280123D01*
X187451625Y-62177888D01*
X187451627Y-62177887D01*
X187659166Y-62114931D01*
X187659167Y-62114931D01*
X187659170Y-62114930D01*
X187820911Y-62099000D01*
X191379089Y-62099000D01*
X191540830Y-62114930D01*
X191540830Y-62114930D01*
G37*
G36*
X104640830Y-62114930D02*
X104640833Y-62114931D01*
X104640834Y-62114931D01*
X104848373Y-62177887D01*
X104848375Y-62177888D01*
X105039644Y-62280123D01*
X105207291Y-62417709D01*
X105344877Y-62585356D01*
X105447112Y-62776625D01*
X105510070Y-62984170D01*
X105531327Y-63200000D01*
X105510070Y-63415830D01*
X105447112Y-63623375D01*
X105344877Y-63814644D01*
X105207291Y-63982291D01*
X105039644Y-64119877D01*
X104848375Y-64222112D01*
X104848373Y-64222113D01*
X104640834Y-64285069D01*
X104640833Y-64285069D01*
X104640830Y-64285070D01*
X104479089Y-64301000D01*
X100920911Y-64301000D01*
X100759170Y-64285070D01*
X100759167Y-64285069D01*
X100759166Y-64285069D01*
X100551627Y-64222113D01*
X100551625Y-64222112D01*
X100360356Y-64119877D01*
X100192709Y-63982291D01*
X100055123Y-63814644D01*
X99952888Y-63623375D01*
X99889930Y-63415830D01*
X99868673Y-63200000D01*
X99889930Y-62984170D01*
X99952888Y-62776625D01*
X100055123Y-62585356D01*
X100192709Y-62417709D01*
X100360356Y-62280123D01*
X100551625Y-62177888D01*
X100551627Y-62177887D01*
X100759166Y-62114931D01*
X100759167Y-62114931D01*
X100759170Y-62114930D01*
X100920911Y-62099000D01*
X104479089Y-62099000D01*
X104640830Y-62114930D01*
X104640830Y-62114930D01*
G37*
G36*
X128340830Y-62114930D02*
X128340833Y-62114931D01*
X128340834Y-62114931D01*
X128548373Y-62177887D01*
X128548375Y-62177888D01*
X128739644Y-62280123D01*
X128907291Y-62417709D01*
X129044877Y-62585356D01*
X129147112Y-62776625D01*
X129210070Y-62984170D01*
X129231327Y-63200000D01*
X129210070Y-63415830D01*
X129147112Y-63623375D01*
X129044877Y-63814644D01*
X128907291Y-63982291D01*
X128739644Y-64119877D01*
X128548375Y-64222112D01*
X128548373Y-64222113D01*
X128340834Y-64285069D01*
X128340833Y-64285069D01*
X128340830Y-64285070D01*
X128179089Y-64301000D01*
X124620911Y-64301000D01*
X124459170Y-64285070D01*
X124459167Y-64285069D01*
X124459166Y-64285069D01*
X124251627Y-64222113D01*
X124251625Y-64222112D01*
X124060356Y-64119877D01*
X123892709Y-63982291D01*
X123755123Y-63814644D01*
X123652888Y-63623375D01*
X123589930Y-63415830D01*
X123568673Y-63200000D01*
X123589930Y-62984170D01*
X123652888Y-62776625D01*
X123755123Y-62585356D01*
X123892709Y-62417709D01*
X124060356Y-62280123D01*
X124251625Y-62177888D01*
X124251627Y-62177887D01*
X124459166Y-62114931D01*
X124459167Y-62114931D01*
X124459170Y-62114930D01*
X124620911Y-62099000D01*
X128179089Y-62099000D01*
X128340830Y-62114930D01*
X128340830Y-62114930D01*
G37*
G36*
X120440830Y-62114930D02*
X120440833Y-62114931D01*
X120440834Y-62114931D01*
X120648373Y-62177887D01*
X120648375Y-62177888D01*
X120839644Y-62280123D01*
X121007291Y-62417709D01*
X121144877Y-62585356D01*
X121247112Y-62776625D01*
X121310070Y-62984170D01*
X121331327Y-63200000D01*
X121310070Y-63415830D01*
X121247112Y-63623375D01*
X121144877Y-63814644D01*
X121007291Y-63982291D01*
X120839644Y-64119877D01*
X120648375Y-64222112D01*
X120648373Y-64222113D01*
X120440834Y-64285069D01*
X120440833Y-64285069D01*
X120440830Y-64285070D01*
X120279089Y-64301000D01*
X116720911Y-64301000D01*
X116559170Y-64285070D01*
X116559167Y-64285069D01*
X116559166Y-64285069D01*
X116351627Y-64222113D01*
X116351625Y-64222112D01*
X116160356Y-64119877D01*
X115992709Y-63982291D01*
X115855123Y-63814644D01*
X115752888Y-63623375D01*
X115689930Y-63415830D01*
X115668673Y-63200000D01*
X115689930Y-62984170D01*
X115752888Y-62776625D01*
X115855123Y-62585356D01*
X115992709Y-62417709D01*
X116160356Y-62280123D01*
X116351625Y-62177888D01*
X116351627Y-62177887D01*
X116559166Y-62114931D01*
X116559167Y-62114931D01*
X116559170Y-62114930D01*
X116720911Y-62099000D01*
X120279089Y-62099000D01*
X120440830Y-62114930D01*
X120440830Y-62114930D01*
G37*
G36*
X152040830Y-62114930D02*
X152040833Y-62114931D01*
X152040834Y-62114931D01*
X152248373Y-62177887D01*
X152248375Y-62177888D01*
X152439644Y-62280123D01*
X152607291Y-62417709D01*
X152744877Y-62585356D01*
X152847112Y-62776625D01*
X152910070Y-62984170D01*
X152931327Y-63200000D01*
X152910070Y-63415830D01*
X152847112Y-63623375D01*
X152744877Y-63814644D01*
X152607291Y-63982291D01*
X152439644Y-64119877D01*
X152248375Y-64222112D01*
X152248373Y-64222113D01*
X152040834Y-64285069D01*
X152040833Y-64285069D01*
X152040830Y-64285070D01*
X151879089Y-64301000D01*
X148320911Y-64301000D01*
X148159170Y-64285070D01*
X148159167Y-64285069D01*
X148159166Y-64285069D01*
X147951627Y-64222113D01*
X147951625Y-64222112D01*
X147760356Y-64119877D01*
X147592709Y-63982291D01*
X147455123Y-63814644D01*
X147352888Y-63623375D01*
X147289930Y-63415830D01*
X147268673Y-63200000D01*
X147289930Y-62984170D01*
X147352888Y-62776625D01*
X147455123Y-62585356D01*
X147592709Y-62417709D01*
X147760356Y-62280123D01*
X147951625Y-62177888D01*
X147951627Y-62177887D01*
X148159166Y-62114931D01*
X148159167Y-62114931D01*
X148159170Y-62114930D01*
X148320911Y-62099000D01*
X151879089Y-62099000D01*
X152040830Y-62114930D01*
X152040830Y-62114930D01*
G37*
G36*
X144140830Y-62114930D02*
X144140833Y-62114931D01*
X144140834Y-62114931D01*
X144348373Y-62177887D01*
X144348375Y-62177888D01*
X144539644Y-62280123D01*
X144707291Y-62417709D01*
X144844877Y-62585356D01*
X144947112Y-62776625D01*
X145010070Y-62984170D01*
X145031327Y-63200000D01*
X145010070Y-63415830D01*
X144947112Y-63623375D01*
X144844877Y-63814644D01*
X144707291Y-63982291D01*
X144539644Y-64119877D01*
X144348375Y-64222112D01*
X144348373Y-64222113D01*
X144140834Y-64285069D01*
X144140833Y-64285069D01*
X144140830Y-64285070D01*
X143979089Y-64301000D01*
X140420911Y-64301000D01*
X140259170Y-64285070D01*
X140259167Y-64285069D01*
X140259166Y-64285069D01*
X140051627Y-64222113D01*
X140051625Y-64222112D01*
X139860356Y-64119877D01*
X139692709Y-63982291D01*
X139555123Y-63814644D01*
X139452888Y-63623375D01*
X139389930Y-63415830D01*
X139368673Y-63200000D01*
X139389930Y-62984170D01*
X139452888Y-62776625D01*
X139555123Y-62585356D01*
X139692709Y-62417709D01*
X139860356Y-62280123D01*
X140051625Y-62177888D01*
X140051627Y-62177887D01*
X140259166Y-62114931D01*
X140259167Y-62114931D01*
X140259170Y-62114930D01*
X140420911Y-62099000D01*
X143979089Y-62099000D01*
X144140830Y-62114930D01*
X144140830Y-62114930D01*
G37*
G36*
X175740830Y-62114930D02*
X175740833Y-62114931D01*
X175740834Y-62114931D01*
X175948373Y-62177887D01*
X175948375Y-62177888D01*
X176139644Y-62280123D01*
X176307291Y-62417709D01*
X176444877Y-62585356D01*
X176547112Y-62776625D01*
X176610070Y-62984170D01*
X176631327Y-63200000D01*
X176610070Y-63415830D01*
X176547112Y-63623375D01*
X176444877Y-63814644D01*
X176307291Y-63982291D01*
X176139644Y-64119877D01*
X175948375Y-64222112D01*
X175948373Y-64222113D01*
X175740834Y-64285069D01*
X175740833Y-64285069D01*
X175740830Y-64285070D01*
X175579089Y-64301000D01*
X172020911Y-64301000D01*
X171859170Y-64285070D01*
X171859167Y-64285069D01*
X171859166Y-64285069D01*
X171651627Y-64222113D01*
X171651625Y-64222112D01*
X171460356Y-64119877D01*
X171292709Y-63982291D01*
X171155123Y-63814644D01*
X171052888Y-63623375D01*
X170989930Y-63415830D01*
X170968673Y-63200000D01*
X170989930Y-62984170D01*
X171052888Y-62776625D01*
X171155123Y-62585356D01*
X171292709Y-62417709D01*
X171460356Y-62280123D01*
X171651625Y-62177888D01*
X171651627Y-62177887D01*
X171859166Y-62114931D01*
X171859167Y-62114931D01*
X171859170Y-62114930D01*
X172020911Y-62099000D01*
X175579089Y-62099000D01*
X175740830Y-62114930D01*
X175740830Y-62114930D01*
G37*
G36*
X167840830Y-62114930D02*
X167840833Y-62114931D01*
X167840834Y-62114931D01*
X168048373Y-62177887D01*
X168048375Y-62177888D01*
X168239644Y-62280123D01*
X168407291Y-62417709D01*
X168544877Y-62585356D01*
X168647112Y-62776625D01*
X168710070Y-62984170D01*
X168731327Y-63200000D01*
X168710070Y-63415830D01*
X168647112Y-63623375D01*
X168544877Y-63814644D01*
X168407291Y-63982291D01*
X168239644Y-64119877D01*
X168048375Y-64222112D01*
X168048373Y-64222113D01*
X167840834Y-64285069D01*
X167840833Y-64285069D01*
X167840830Y-64285070D01*
X167679089Y-64301000D01*
X164120911Y-64301000D01*
X163959170Y-64285070D01*
X163959167Y-64285069D01*
X163959166Y-64285069D01*
X163751627Y-64222113D01*
X163751625Y-64222112D01*
X163560356Y-64119877D01*
X163392709Y-63982291D01*
X163255123Y-63814644D01*
X163152888Y-63623375D01*
X163089930Y-63415830D01*
X163068673Y-63200000D01*
X163089930Y-62984170D01*
X163152888Y-62776625D01*
X163255123Y-62585356D01*
X163392709Y-62417709D01*
X163560356Y-62280123D01*
X163751625Y-62177888D01*
X163751627Y-62177887D01*
X163959166Y-62114931D01*
X163959167Y-62114931D01*
X163959170Y-62114930D01*
X164120911Y-62099000D01*
X167679089Y-62099000D01*
X167840830Y-62114930D01*
X167840830Y-62114930D01*
G37*
G36*
X96740830Y-62114930D02*
X96740833Y-62114931D01*
X96740834Y-62114931D01*
X96948373Y-62177887D01*
X96948375Y-62177888D01*
X97139644Y-62280123D01*
X97307291Y-62417709D01*
X97444877Y-62585356D01*
X97547112Y-62776625D01*
X97610070Y-62984170D01*
X97631327Y-63200000D01*
X97610070Y-63415830D01*
X97547112Y-63623375D01*
X97444877Y-63814644D01*
X97307291Y-63982291D01*
X97139644Y-64119877D01*
X96948375Y-64222112D01*
X96948373Y-64222113D01*
X96740834Y-64285069D01*
X96740833Y-64285069D01*
X96740830Y-64285070D01*
X96579089Y-64301000D01*
X93020911Y-64301000D01*
X92859170Y-64285070D01*
X92859167Y-64285069D01*
X92859166Y-64285069D01*
X92651627Y-64222113D01*
X92651625Y-64222112D01*
X92460356Y-64119877D01*
X92292709Y-63982291D01*
X92155123Y-63814644D01*
X92052888Y-63623375D01*
X91989930Y-63415830D01*
X91968673Y-63200000D01*
X91989930Y-62984170D01*
X92052888Y-62776625D01*
X92155123Y-62585356D01*
X92292709Y-62417709D01*
X92460356Y-62280123D01*
X92651625Y-62177888D01*
X92651627Y-62177887D01*
X92859166Y-62114931D01*
X92859167Y-62114931D01*
X92859170Y-62114930D01*
X93020911Y-62099000D01*
X96579089Y-62099000D01*
X96740830Y-62114930D01*
X96740830Y-62114930D01*
G37*
G36*
X110101000Y-63901000D02*
X108299000Y-63901000D01*
X108299000Y-62099000D01*
X110101000Y-62099000D01*
X110101000Y-63901000D01*
X110101000Y-63901000D01*
G37*
G36*
X208806565Y-58489389D02*
X208997834Y-58568615D01*
X209169976Y-58683637D01*
X209316363Y-58830024D01*
X209431385Y-59002166D01*
X209510611Y-59193435D01*
X209551000Y-59396484D01*
X209551000Y-59603516D01*
X209510611Y-59806565D01*
X209431385Y-59997834D01*
X209316363Y-60169976D01*
X209169976Y-60316363D01*
X208997834Y-60431385D01*
X208806565Y-60510611D01*
X208603516Y-60551000D01*
X208396484Y-60551000D01*
X208193435Y-60510611D01*
X208002166Y-60431385D01*
X207830024Y-60316363D01*
X207683637Y-60169976D01*
X207568615Y-59997834D01*
X207489389Y-59806565D01*
X207449000Y-59603516D01*
X207449000Y-59396484D01*
X207489389Y-59193435D01*
X207568615Y-59002166D01*
X207683637Y-58830024D01*
X207830024Y-58683637D01*
X208002166Y-58568615D01*
X208193435Y-58489389D01*
X208396484Y-58449000D01*
X208603516Y-58449000D01*
X208806565Y-58489389D01*
X208806565Y-58489389D01*
G37*
G36*
X204306565Y-58489389D02*
X204497834Y-58568615D01*
X204669976Y-58683637D01*
X204816363Y-58830024D01*
X204931385Y-59002166D01*
X205010611Y-59193435D01*
X205051000Y-59396484D01*
X205051000Y-59603516D01*
X205010611Y-59806565D01*
X204931385Y-59997834D01*
X204816363Y-60169976D01*
X204669976Y-60316363D01*
X204497834Y-60431385D01*
X204306565Y-60510611D01*
X204103516Y-60551000D01*
X203896484Y-60551000D01*
X203693435Y-60510611D01*
X203502166Y-60431385D01*
X203330024Y-60316363D01*
X203183637Y-60169976D01*
X203068615Y-59997834D01*
X202989389Y-59806565D01*
X202949000Y-59603516D01*
X202949000Y-59396484D01*
X202989389Y-59193435D01*
X203068615Y-59002166D01*
X203183637Y-58830024D01*
X203330024Y-58683637D01*
X203502166Y-58568615D01*
X203693435Y-58489389D01*
X203896484Y-58449000D01*
X204103516Y-58449000D01*
X204306565Y-58489389D01*
X204306565Y-58489389D01*
G37*
G36*
X86659999Y-57199737D02*
X86669611Y-57202653D01*
X86678469Y-57207388D01*
X86686237Y-57213763D01*
X86696446Y-57226202D01*
X86703372Y-57236568D01*
X86720698Y-57253895D01*
X86741073Y-57267510D01*
X86763711Y-57276888D01*
X86787745Y-57281669D01*
X86812249Y-57281669D01*
X86836283Y-57276889D01*
X86858922Y-57267513D01*
X86879297Y-57253899D01*
X86896624Y-57236573D01*
X86903552Y-57226204D01*
X86913763Y-57213763D01*
X86921531Y-57207388D01*
X86930389Y-57202653D01*
X86940001Y-57199737D01*
X86956140Y-57198148D01*
X87443860Y-57198148D01*
X87462198Y-57199954D01*
X87474450Y-57200556D01*
X87492869Y-57200556D01*
X87515149Y-57202750D01*
X87599236Y-57219476D01*
X87620655Y-57225974D01*
X87699871Y-57258785D01*
X87719607Y-57269335D01*
X87790897Y-57316969D01*
X87808208Y-57331176D01*
X87868824Y-57391792D01*
X87883031Y-57409103D01*
X87930665Y-57480393D01*
X87941215Y-57500129D01*
X87974026Y-57579345D01*
X87980524Y-57600764D01*
X87997250Y-57684851D01*
X87999444Y-57707131D01*
X87999444Y-57725550D01*
X88000046Y-57737802D01*
X88001852Y-57756140D01*
X88001852Y-58243861D01*
X88000046Y-58262198D01*
X87999444Y-58274450D01*
X87999444Y-58292869D01*
X87997250Y-58315149D01*
X87980524Y-58399236D01*
X87974026Y-58420655D01*
X87941215Y-58499871D01*
X87930665Y-58519607D01*
X87883031Y-58590897D01*
X87868824Y-58608208D01*
X87808208Y-58668824D01*
X87790897Y-58683031D01*
X87719607Y-58730665D01*
X87699871Y-58741215D01*
X87620655Y-58774026D01*
X87599236Y-58780524D01*
X87515149Y-58797250D01*
X87492869Y-58799444D01*
X87474450Y-58799444D01*
X87462198Y-58800046D01*
X87443861Y-58801852D01*
X86956140Y-58801852D01*
X86940001Y-58800263D01*
X86930389Y-58797347D01*
X86921531Y-58792612D01*
X86913763Y-58786237D01*
X86903554Y-58773798D01*
X86896628Y-58763432D01*
X86879302Y-58746105D01*
X86858927Y-58732490D01*
X86836289Y-58723112D01*
X86812255Y-58718331D01*
X86787751Y-58718331D01*
X86763717Y-58723111D01*
X86741078Y-58732487D01*
X86720703Y-58746101D01*
X86703376Y-58763427D01*
X86696448Y-58773796D01*
X86686237Y-58786237D01*
X86678469Y-58792612D01*
X86669611Y-58797347D01*
X86659999Y-58800263D01*
X86643860Y-58801852D01*
X86156139Y-58801852D01*
X86137802Y-58800046D01*
X86125550Y-58799444D01*
X86107131Y-58799444D01*
X86084851Y-58797250D01*
X86000764Y-58780524D01*
X85979345Y-58774026D01*
X85900129Y-58741215D01*
X85880393Y-58730665D01*
X85809103Y-58683031D01*
X85791792Y-58668824D01*
X85731176Y-58608208D01*
X85716969Y-58590897D01*
X85669335Y-58519607D01*
X85658785Y-58499871D01*
X85625974Y-58420655D01*
X85619476Y-58399236D01*
X85602750Y-58315149D01*
X85600556Y-58292869D01*
X85600556Y-58274450D01*
X85599954Y-58262198D01*
X85598148Y-58243861D01*
X85598148Y-57756140D01*
X85599954Y-57737802D01*
X85600556Y-57725550D01*
X85600556Y-57707131D01*
X85602750Y-57684851D01*
X85619476Y-57600764D01*
X85625974Y-57579345D01*
X85658785Y-57500129D01*
X85669335Y-57480393D01*
X85716969Y-57409103D01*
X85731176Y-57391792D01*
X85791792Y-57331176D01*
X85809103Y-57316969D01*
X85880393Y-57269335D01*
X85900129Y-57258785D01*
X85979345Y-57225974D01*
X86000764Y-57219476D01*
X86084851Y-57202750D01*
X86107131Y-57200556D01*
X86125550Y-57200556D01*
X86137802Y-57199954D01*
X86156140Y-57198148D01*
X86643860Y-57198148D01*
X86659999Y-57199737D01*
X86659999Y-57199737D01*
G37*
G36*
X87035786Y-49585462D02*
X87035788Y-49585463D01*
X87035789Y-49585463D01*
X87682029Y-49853144D01*
X88143323Y-50161371D01*
X88263634Y-50241760D01*
X88758240Y-50736366D01*
X88758242Y-50736369D01*
X89146856Y-51317971D01*
X89414537Y-51964211D01*
X89414538Y-51964214D01*
X89551000Y-52650256D01*
X89551000Y-53349744D01*
X89534307Y-53433668D01*
X89414537Y-54035789D01*
X89146856Y-54682029D01*
X88806551Y-55191332D01*
X88758240Y-55263634D01*
X88263634Y-55758240D01*
X88263631Y-55758242D01*
X87682029Y-56146856D01*
X87035789Y-56414537D01*
X87035788Y-56414537D01*
X87035786Y-56414538D01*
X86349744Y-56551000D01*
X85650256Y-56551000D01*
X84964214Y-56414538D01*
X84964212Y-56414537D01*
X84964211Y-56414537D01*
X84317971Y-56146856D01*
X83736369Y-55758242D01*
X83736366Y-55758240D01*
X83241760Y-55263634D01*
X83193449Y-55191332D01*
X82853144Y-54682029D01*
X82585463Y-54035789D01*
X82465694Y-53433668D01*
X82449000Y-53349744D01*
X82449000Y-52650256D01*
X82585462Y-51964214D01*
X82585463Y-51964211D01*
X82853144Y-51317971D01*
X83241758Y-50736369D01*
X83241760Y-50736366D01*
X83736366Y-50241760D01*
X83856677Y-50161371D01*
X84317971Y-49853144D01*
X84964211Y-49585463D01*
X84964212Y-49585463D01*
X84964214Y-49585462D01*
X85650256Y-49449000D01*
X86349744Y-49449000D01*
X87035786Y-49585462D01*
X87035786Y-49585462D01*
G37*
G36*
X207035786Y-49585462D02*
X207035788Y-49585463D01*
X207035789Y-49585463D01*
X207682029Y-49853144D01*
X208143323Y-50161371D01*
X208263634Y-50241760D01*
X208758240Y-50736366D01*
X208758242Y-50736369D01*
X209146856Y-51317971D01*
X209414537Y-51964211D01*
X209414538Y-51964214D01*
X209551000Y-52650256D01*
X209551000Y-53349744D01*
X209534307Y-53433668D01*
X209414537Y-54035789D01*
X209146856Y-54682029D01*
X208806551Y-55191332D01*
X208758240Y-55263634D01*
X208263634Y-55758240D01*
X208263631Y-55758242D01*
X207682029Y-56146856D01*
X207035789Y-56414537D01*
X207035788Y-56414537D01*
X207035786Y-56414538D01*
X206349744Y-56551000D01*
X205650256Y-56551000D01*
X204964214Y-56414538D01*
X204964212Y-56414537D01*
X204964211Y-56414537D01*
X204317971Y-56146856D01*
X203736369Y-55758242D01*
X203736366Y-55758240D01*
X203241760Y-55263634D01*
X203193449Y-55191332D01*
X202853144Y-54682029D01*
X202585463Y-54035789D01*
X202465694Y-53433668D01*
X202449000Y-53349744D01*
X202449000Y-52650256D01*
X202585462Y-51964214D01*
X202585463Y-51964211D01*
X202853144Y-51317971D01*
X203241758Y-50736369D01*
X203241760Y-50736366D01*
X203736366Y-50241760D01*
X203856677Y-50161371D01*
X204317971Y-49853144D01*
X204964211Y-49585463D01*
X204964212Y-49585463D01*
X204964214Y-49585462D01*
X205650256Y-49449000D01*
X206349744Y-49449000D01*
X207035786Y-49585462D01*
X207035786Y-49585462D01*
G37*
M02*
